<svg width="626" height="482" viewBox="0 0 626 482" fill="none" xmlns="http://www.w3.org/2000/svg">
<path d="M66.3039 3.1543H61.9484V15H59.0188V3.1543H54.7219V0.78125H66.3039V3.1543ZM73.691 7.08008C73.3069 7.02799 72.9684 7.00195 72.6754 7.00195C71.6077 7.00195 70.9078 7.36328 70.5758 8.08594V15H67.7535V4.43359H70.4195L70.4977 5.69336C71.0641 4.72331 71.8486 4.23828 72.8512 4.23828C73.1637 4.23828 73.4566 4.2806 73.7301 4.36523L73.691 7.08008ZM81.4883 15C81.3581 14.7461 81.2637 14.4303 81.2051 14.0527C80.5215 14.8145 79.6328 15.1953 78.5391 15.1953C77.5039 15.1953 76.6445 14.8958 75.9609 14.2969C75.2839 13.6979 74.9453 12.9427 74.9453 12.0312C74.9453 10.9115 75.3587 10.0521 76.1856 9.45312C77.0189 8.85417 78.2201 8.55143 79.7891 8.54492H81.0879V7.93945C81.0879 7.45117 80.9609 7.06055 80.707 6.76758C80.4596 6.47461 80.0658 6.32812 79.5254 6.32812C79.0501 6.32812 78.6758 6.44206 78.4023 6.66992C78.1354 6.89779 78.002 7.21029 78.002 7.60742H75.1797C75.1797 6.99544 75.3685 6.42904 75.7461 5.9082C76.1237 5.38737 76.6576 4.98047 77.3477 4.6875C78.0378 4.38802 78.8125 4.23828 79.6719 4.23828C80.974 4.23828 82.0059 4.56706 82.7676 5.22461C83.5358 5.87565 83.9199 6.79362 83.9199 7.97852V12.5586C83.9264 13.5612 84.0664 14.3197 84.3398 14.834V15H81.4883ZM79.1543 13.0371C79.571 13.0371 79.9551 12.946 80.3066 12.7637C80.6582 12.5749 80.9186 12.3242 81.0879 12.0117V10.1953H80.0332C78.6204 10.1953 77.8685 10.6836 77.7773 11.6602L77.7676 11.8262C77.7676 12.1777 77.8913 12.4674 78.1387 12.6953C78.3861 12.9232 78.7246 13.0371 79.1543 13.0371ZM86.2484 9.63867C86.2484 7.99154 86.6163 6.67969 87.352 5.70312C88.0941 4.72656 89.1065 4.23828 90.3891 4.23828C91.4177 4.23828 92.2673 4.6224 92.9379 5.39062V0H95.7699V15H93.2211L93.0844 13.877C92.3813 14.7559 91.4763 15.1953 90.3695 15.1953C89.126 15.1953 88.1267 14.707 87.3715 13.7305C86.6228 12.7474 86.2484 11.3835 86.2484 9.63867ZM89.0707 9.84375C89.0707 10.8333 89.2432 11.5918 89.5883 12.1191C89.9333 12.6465 90.4346 12.9102 91.0922 12.9102C91.9646 12.9102 92.5798 12.5423 92.9379 11.8066V7.63672C92.5863 6.90104 91.9776 6.5332 91.1117 6.5332C89.751 6.5332 89.0707 7.63672 89.0707 9.84375ZM101.536 15H98.7039V4.43359H101.536V15ZM98.5379 1.69922C98.5379 1.27604 98.6779 0.927734 98.9578 0.654297C99.2443 0.380859 99.6316 0.244141 100.12 0.244141C100.602 0.244141 100.986 0.380859 101.272 0.654297C101.559 0.927734 101.702 1.27604 101.702 1.69922C101.702 2.12891 101.555 2.48047 101.263 2.75391C100.976 3.02734 100.595 3.16406 100.12 3.16406C99.6447 3.16406 99.2606 3.02734 98.9676 2.75391C98.6811 2.48047 98.5379 2.12891 98.5379 1.69922ZM107.849 1.83594V4.43359H109.655V6.50391H107.849V11.7773C107.849 12.168 107.924 12.4479 108.073 12.6172C108.223 12.7865 108.51 12.8711 108.933 12.8711C109.245 12.8711 109.522 12.8483 109.763 12.8027V14.9414C109.21 15.1107 108.64 15.1953 108.054 15.1953C106.075 15.1953 105.066 14.196 105.027 12.1973V6.50391H103.484V4.43359H105.027V1.83594H107.849ZM114.806 15H111.974V4.43359H114.806V15ZM111.808 1.69922C111.808 1.27604 111.948 0.927734 112.228 0.654297C112.515 0.380859 112.902 0.244141 113.39 0.244141C113.872 0.244141 114.256 0.380859 114.543 0.654297C114.829 0.927734 114.972 1.27604 114.972 1.69922C114.972 2.12891 114.826 2.48047 114.533 2.75391C114.246 3.02734 113.865 3.16406 113.39 3.16406C112.915 3.16406 112.531 3.02734 112.238 2.75391C111.951 2.48047 111.808 2.12891 111.808 1.69922ZM117.301 9.61914C117.301 8.57096 117.503 7.63672 117.906 6.81641C118.31 5.99609 118.889 5.36133 119.645 4.91211C120.406 4.46289 121.288 4.23828 122.291 4.23828C123.717 4.23828 124.879 4.67448 125.777 5.54688C126.682 6.41927 127.187 7.60417 127.291 9.10156L127.311 9.82422C127.311 11.4453 126.858 12.7474 125.953 13.7305C125.048 14.707 123.834 15.1953 122.311 15.1953C120.787 15.1953 119.57 14.707 118.658 13.7305C117.753 12.7539 117.301 11.4258 117.301 9.74609V9.61914ZM120.123 9.82422C120.123 10.8268 120.312 11.5951 120.689 12.1289C121.067 12.6562 121.607 12.9199 122.311 12.9199C122.994 12.9199 123.528 12.6595 123.912 12.1387C124.296 11.6113 124.488 10.7715 124.488 9.61914C124.488 8.63607 124.296 7.87435 123.912 7.33398C123.528 6.79362 122.988 6.52344 122.291 6.52344C121.601 6.52344 121.067 6.79362 120.689 7.33398C120.312 7.86784 120.123 8.69792 120.123 9.82422ZM132.246 4.43359L132.334 5.6543C133.09 4.71029 134.102 4.23828 135.371 4.23828C136.491 4.23828 137.325 4.56706 137.871 5.22461C138.418 5.88216 138.698 6.86523 138.711 8.17383V15H135.889V8.24219C135.889 7.64323 135.759 7.21029 135.498 6.94336C135.238 6.66992 134.805 6.5332 134.2 6.5332C133.405 6.5332 132.81 6.87174 132.413 7.54883V15H129.59V4.43359H132.246ZM147.583 15C147.453 14.7461 147.358 14.4303 147.3 14.0527C146.616 14.8145 145.727 15.1953 144.634 15.1953C143.598 15.1953 142.739 14.8958 142.055 14.2969C141.378 13.6979 141.04 12.9427 141.04 12.0312C141.04 10.9115 141.453 10.0521 142.28 9.45312C143.113 8.85417 144.315 8.55143 145.884 8.54492H147.182V7.93945C147.182 7.45117 147.055 7.06055 146.802 6.76758C146.554 6.47461 146.16 6.32812 145.62 6.32812C145.145 6.32812 144.77 6.44206 144.497 6.66992C144.23 6.89779 144.096 7.21029 144.096 7.60742H141.274C141.274 6.99544 141.463 6.42904 141.841 5.9082C142.218 5.38737 142.752 4.98047 143.442 4.6875C144.132 4.38802 144.907 4.23828 145.766 4.23828C147.068 4.23828 148.1 4.56706 148.862 5.22461C149.63 5.87565 150.014 6.79362 150.014 7.97852V12.5586C150.021 13.5612 150.161 14.3197 150.434 14.834V15H147.583ZM145.249 13.0371C145.665 13.0371 146.05 12.946 146.401 12.7637C146.753 12.5749 147.013 12.3242 147.182 12.0117V10.1953H146.128C144.715 10.1953 143.963 10.6836 143.872 11.6602L143.862 11.8262C143.862 12.1777 143.986 12.4674 144.233 12.6953C144.481 12.9232 144.819 13.0371 145.249 13.0371ZM155.761 15H152.929V0H155.761V15ZM175.535 10.8984L177.449 0.78125H180.369L177.215 15H174.266L171.951 5.48828L169.637 15H166.688L163.533 0.78125H166.453L168.377 10.8789L170.721 0.78125H173.201L175.535 10.8984ZM186.926 15.1953C185.377 15.1953 184.114 14.7201 183.137 13.7695C182.167 12.819 181.682 11.5527 181.682 9.9707V9.69727C181.682 8.63607 181.887 7.6888 182.297 6.85547C182.707 6.01562 183.287 5.37109 184.036 4.92188C184.791 4.46615 185.65 4.23828 186.614 4.23828C188.059 4.23828 189.195 4.69401 190.022 5.60547C190.855 6.51693 191.272 7.80924 191.272 9.48242V10.6348H184.543C184.635 11.3249 184.908 11.8783 185.364 12.2949C185.826 12.7116 186.409 12.9199 187.112 12.9199C188.199 12.9199 189.049 12.526 189.661 11.7383L191.047 13.291C190.624 13.89 190.051 14.3587 189.329 14.6973C188.606 15.0293 187.805 15.1953 186.926 15.1953ZM186.604 6.52344C186.044 6.52344 185.588 6.71224 185.237 7.08984C184.892 7.46745 184.67 8.00781 184.573 8.71094H188.498V8.48633C188.485 7.86133 188.316 7.37956 187.991 7.04102C187.665 6.69596 187.203 6.52344 186.604 6.52344ZM203.005 9.81445C203.005 11.5072 202.643 12.8288 201.921 13.7793C201.198 14.7233 200.189 15.1953 198.893 15.1953C197.748 15.1953 196.833 14.7559 196.149 13.877L196.022 15H193.483V0H196.305V5.38086C196.957 4.61914 197.813 4.23828 198.874 4.23828C200.163 4.23828 201.172 4.71354 201.901 5.66406C202.637 6.60807 203.005 7.93945 203.005 9.6582V9.81445ZM200.182 9.60938C200.182 8.54167 200.013 7.76367 199.675 7.27539C199.336 6.7806 198.832 6.5332 198.161 6.5332C197.262 6.5332 196.644 6.90104 196.305 7.63672V11.8066C196.651 12.5488 197.276 12.9199 198.18 12.9199C199.092 12.9199 199.691 12.4707 199.977 11.5723C200.114 11.1426 200.182 10.4883 200.182 9.60938Z" fill="white"/>
<path d="M451.349 0.78125H454.279V10.625C454.279 11.5299 454.077 12.3307 453.673 13.0273C453.276 13.7174 452.713 14.2513 451.984 14.6289C451.255 15.0065 450.431 15.1953 449.513 15.1953C448.009 15.1953 446.838 14.8145 445.998 14.0527C445.158 13.2845 444.738 12.2005 444.738 10.8008H447.687C447.687 11.4974 447.834 12.0117 448.127 12.3438C448.42 12.6758 448.882 12.8418 449.513 12.8418C450.073 12.8418 450.519 12.6497 450.851 12.2656C451.183 11.8815 451.349 11.3346 451.349 10.625V0.78125ZM463.326 15C463.196 14.7461 463.102 14.4303 463.043 14.0527C462.359 14.8145 461.471 15.1953 460.377 15.1953C459.342 15.1953 458.482 14.8958 457.799 14.2969C457.122 13.6979 456.783 12.9427 456.783 12.0312C456.783 10.9115 457.197 10.0521 458.023 9.45312C458.857 8.85417 460.058 8.55143 461.627 8.54492H462.926V7.93945C462.926 7.45117 462.799 7.06055 462.545 6.76758C462.298 6.47461 461.904 6.32812 461.363 6.32812C460.888 6.32812 460.514 6.44206 460.24 6.66992C459.973 6.89779 459.84 7.21029 459.84 7.60742H457.018C457.018 6.99544 457.206 6.42904 457.584 5.9082C457.962 5.38737 458.495 4.98047 459.186 4.6875C459.876 4.38802 460.65 4.23828 461.51 4.23828C462.812 4.23828 463.844 4.56706 464.605 5.22461C465.374 5.87565 465.758 6.79362 465.758 7.97852V12.5586C465.764 13.5612 465.904 14.3197 466.178 14.834V15H463.326ZM460.992 13.0371C461.409 13.0371 461.793 12.946 462.145 12.7637C462.496 12.5749 462.757 12.3242 462.926 12.0117V10.1953H461.871C460.458 10.1953 459.706 10.6836 459.615 11.6602L459.605 11.8262C459.605 12.1777 459.729 12.4674 459.977 12.6953C460.224 12.9232 460.563 13.0371 460.992 13.0371ZM471.172 4.43359L471.26 5.61523C472.009 4.69727 473.021 4.23828 474.297 4.23828C475.658 4.23828 476.592 4.77539 477.1 5.84961C477.842 4.77539 478.9 4.23828 480.274 4.23828C481.42 4.23828 482.273 4.57357 482.832 5.24414C483.392 5.9082 483.672 6.91081 483.672 8.25195V15H480.84V8.26172C480.84 7.66276 480.723 7.22656 480.489 6.95312C480.254 6.67318 479.841 6.5332 479.248 6.5332C478.402 6.5332 477.816 6.93685 477.491 7.74414L477.5 15H474.678V8.27148C474.678 7.65951 474.558 7.2168 474.317 6.94336C474.076 6.66992 473.666 6.5332 473.086 6.5332C472.286 6.5332 471.706 6.86523 471.348 7.5293V15H468.526V4.43359H471.172ZM492.173 12.0801C492.173 11.735 492 11.4648 491.655 11.2695C491.317 11.0677 490.77 10.8887 490.014 10.7324C487.501 10.2051 486.245 9.13737 486.245 7.5293C486.245 6.5918 486.632 5.81055 487.407 5.18555C488.188 4.55404 489.207 4.23828 490.464 4.23828C491.805 4.23828 492.876 4.55404 493.677 5.18555C494.484 5.81706 494.888 6.63737 494.888 7.64648H492.065C492.065 7.24284 491.935 6.91081 491.675 6.65039C491.414 6.38346 491.007 6.25 490.454 6.25C489.979 6.25 489.611 6.35742 489.35 6.57227C489.09 6.78711 488.96 7.06055 488.96 7.39258C488.96 7.70508 489.106 7.95898 489.399 8.1543C489.699 8.3431 490.2 8.50911 490.903 8.65234C491.606 8.78906 492.199 8.94531 492.68 9.12109C494.171 9.66797 494.917 10.6152 494.917 11.9629C494.917 12.9264 494.503 13.7077 493.677 14.3066C492.85 14.8991 491.782 15.1953 490.473 15.1953C489.588 15.1953 488.8 15.0391 488.11 14.7266C487.427 14.4076 486.889 13.9746 486.499 13.4277C486.108 12.8743 485.913 12.2786 485.913 11.6406H488.589C488.615 12.1419 488.8 12.526 489.145 12.793C489.49 13.0599 489.953 13.1934 490.532 13.1934C491.072 13.1934 491.479 13.0924 491.753 12.8906C492.033 12.6823 492.173 12.4121 492.173 12.0801ZM500.722 1.83594V4.43359H502.529V6.50391H500.722V11.7773C500.722 12.168 500.797 12.4479 500.946 12.6172C501.096 12.7865 501.383 12.8711 501.806 12.8711C502.118 12.8711 502.395 12.8483 502.636 12.8027V14.9414C502.083 15.1107 501.513 15.1953 500.927 15.1953C498.948 15.1953 497.939 14.196 497.9 12.1973V6.50391H496.357V4.43359H497.9V1.83594H500.722ZM510.824 15C510.694 14.7461 510.599 14.4303 510.541 14.0527C509.857 14.8145 508.968 15.1953 507.875 15.1953C506.839 15.1953 505.98 14.8958 505.296 14.2969C504.619 13.6979 504.281 12.9427 504.281 12.0312C504.281 10.9115 504.694 10.0521 505.521 9.45312C506.354 8.85417 507.556 8.55143 509.125 8.54492H510.423V7.93945C510.423 7.45117 510.296 7.06055 510.043 6.76758C509.795 6.47461 509.401 6.32812 508.861 6.32812C508.386 6.32812 508.011 6.44206 507.738 6.66992C507.471 6.89779 507.338 7.21029 507.338 7.60742H504.515C504.515 6.99544 504.704 6.42904 505.082 5.9082C505.459 5.38737 505.993 4.98047 506.683 4.6875C507.373 4.38802 508.148 4.23828 509.007 4.23828C510.31 4.23828 511.341 4.56706 512.103 5.22461C512.871 5.87565 513.255 6.79362 513.255 7.97852V12.5586C513.262 13.5612 513.402 14.3197 513.675 14.834V15H510.824ZM508.49 13.0371C508.907 13.0371 509.291 12.946 509.642 12.7637C509.994 12.5749 510.254 12.3242 510.423 12.0117V10.1953H509.369C507.956 10.1953 507.204 10.6836 507.113 11.6602L507.103 11.8262C507.103 12.1777 507.227 12.4674 507.474 12.6953C507.722 12.9232 508.06 13.0371 508.49 13.0371ZM520.418 12.9199C520.939 12.9199 521.362 12.7767 521.688 12.4902C522.013 12.2038 522.182 11.8229 522.195 11.3477H524.842C524.835 12.0638 524.64 12.7214 524.256 13.3203C523.872 13.9128 523.344 14.375 522.674 14.707C522.01 15.0326 521.274 15.1953 520.467 15.1953C518.956 15.1953 517.765 14.7168 516.893 13.7598C516.02 12.7962 515.584 11.4681 515.584 9.77539V9.58984C515.584 7.96224 516.017 6.66341 516.883 5.69336C517.749 4.72331 518.937 4.23828 520.447 4.23828C521.769 4.23828 522.827 4.61589 523.621 5.37109C524.422 6.11979 524.829 7.11914 524.842 8.36914H522.195C522.182 7.82227 522.013 7.37956 521.688 7.04102C521.362 6.69596 520.932 6.52344 520.398 6.52344C519.741 6.52344 519.243 6.76432 518.904 7.24609C518.572 7.72135 518.406 8.49609 518.406 9.57031V9.86328C518.406 10.9505 518.572 11.7318 518.904 12.207C519.236 12.6823 519.741 12.9199 520.418 12.9199ZM530.891 10.7617L529.875 11.7773V15H527.053V0H529.875V8.31055L530.422 7.60742L533.127 4.43359H536.516L532.698 8.83789L536.848 15H533.606L530.891 10.7617Z" fill="white"/>
<rect y="39" width="254" height="61" rx="5" fill="#D0D0D0"/>
<path d="M127 116V147" stroke="#707481" stroke-width="2"/>
<path d="M120 121L127 111L134 121H120Z" fill="#707481"/>
<path d="M134 147L127 157L120 147L134 147Z" fill="#707481"/>
<path d="M200 369V400" stroke="#707481" stroke-width="2"/>
<path d="M193 374L200 364L207 374H193Z" fill="#707481"/>
<path d="M207 400L200 410L193 400L207 400Z" fill="#707481"/>
<path d="M58 369V400" stroke="#707481" stroke-width="2"/>
<path d="M51 374L58 364L65 374H51Z" fill="#707481"/>
<path d="M65 400L58 410L51 400L65 400Z" fill="#707481"/>
<path d="M128 243V274" stroke="#707481" stroke-width="2"/>
<path d="M121 248L128 238L135 248H121Z" fill="#707481"/>
<path d="M135 274L128 284L121 274L135 274Z" fill="#707481"/>
<path d="M110.336 65.4297C109.424 65.4297 108.719 65.7734 108.219 66.4609C107.719 67.1432 107.469 68.0964 107.469 69.3203C107.469 71.8672 108.424 73.1406 110.336 73.1406C111.138 73.1406 112.109 72.9401 113.25 72.5391V74.5703C112.312 74.9609 111.266 75.1562 110.109 75.1562C108.448 75.1562 107.177 74.6536 106.297 73.6484C105.417 72.638 104.977 71.1901 104.977 69.3047C104.977 68.1172 105.193 67.0781 105.625 66.1875C106.057 65.2917 106.677 64.6068 107.484 64.1328C108.297 63.6536 109.247 63.4141 110.336 63.4141C111.445 63.4141 112.56 63.6823 113.68 64.2188L112.898 66.1875C112.471 65.9844 112.042 65.8073 111.609 65.6562C111.177 65.5052 110.753 65.4297 110.336 65.4297ZM117.883 75H115.5V62.8438H117.883V75ZM120.289 64.0078C120.289 63.2318 120.721 62.8438 121.586 62.8438C122.451 62.8438 122.883 63.2318 122.883 64.0078C122.883 64.3776 122.773 64.6667 122.555 64.875C122.341 65.0781 122.018 65.1797 121.586 65.1797C120.721 65.1797 120.289 64.7891 120.289 64.0078ZM122.773 75H120.391V66.2656H122.773V75ZM128.898 67.7969C128.393 67.7969 127.997 67.9583 127.711 68.2812C127.424 68.599 127.26 69.0521 127.219 69.6406H130.562C130.552 69.0521 130.398 68.599 130.102 68.2812C129.805 67.9583 129.404 67.7969 128.898 67.7969ZM129.234 75.1562C127.828 75.1562 126.729 74.7682 125.938 73.9922C125.146 73.2161 124.75 72.1172 124.75 70.6953C124.75 69.2318 125.115 68.1016 125.844 67.3047C126.578 66.5026 127.591 66.1016 128.883 66.1016C130.117 66.1016 131.078 66.4531 131.766 67.1562C132.453 67.8594 132.797 68.8307 132.797 70.0703V71.2266H127.164C127.19 71.9036 127.391 72.4323 127.766 72.8125C128.141 73.1927 128.667 73.3828 129.344 73.3828C129.87 73.3828 130.367 73.3281 130.836 73.2188C131.305 73.1094 131.794 72.9349 132.305 72.6953V74.5391C131.888 74.7474 131.443 74.901 130.969 75C130.495 75.1042 129.917 75.1562 129.234 75.1562ZM142.797 75H140.414V69.8984C140.414 69.2682 140.302 68.7969 140.078 68.4844C139.854 68.1667 139.497 68.0078 139.008 68.0078C138.341 68.0078 137.859 68.2318 137.562 68.6797C137.266 69.1224 137.117 69.8594 137.117 70.8906V75H134.734V66.2656H136.555L136.875 67.3828H137.008C137.273 66.9609 137.638 66.6432 138.102 66.4297C138.57 66.2109 139.102 66.1016 139.695 66.1016C140.711 66.1016 141.482 66.3776 142.008 66.9297C142.534 67.4766 142.797 68.2682 142.797 69.3047V75ZM148.93 73.2578C149.346 73.2578 149.846 73.1667 150.43 72.9844V74.7578C149.836 75.0234 149.107 75.1562 148.242 75.1562C147.289 75.1562 146.594 74.9167 146.156 74.4375C145.724 73.9531 145.508 73.2292 145.508 72.2656V68.0547H144.367V67.0469L145.68 66.25L146.367 64.4062H147.891V66.2656H150.336V68.0547H147.891V72.2656C147.891 72.6042 147.984 72.8542 148.172 73.0156C148.365 73.1771 148.617 73.2578 148.93 73.2578Z" fill="#161A2A"/>
<rect y="168" width="254" height="61" rx="5" fill="#D0D0D0"/>
<path d="M94.7812 204H92.0234L90.4766 198C90.4193 197.786 90.3203 197.346 90.1797 196.68C90.0443 196.008 89.9661 195.557 89.9453 195.328C89.9141 195.609 89.8359 196.062 89.7109 196.688C89.5859 197.307 89.4896 197.75 89.4219 198.016L87.8828 204H85.1328L82.2188 192.578H84.6016L86.0625 198.812C86.3177 199.964 86.5026 200.961 86.6172 201.805C86.6484 201.508 86.7188 201.049 86.8281 200.43C86.9427 199.805 87.0495 199.32 87.1484 198.977L88.8125 192.578H91.1016L92.7656 198.977C92.8385 199.263 92.9297 199.701 93.0391 200.289C93.1484 200.878 93.2318 201.383 93.2891 201.805C93.3411 201.398 93.4245 200.893 93.5391 200.289C93.6536 199.68 93.7578 199.188 93.8516 198.812L95.3047 192.578H97.6875L94.7812 204ZM102.555 196.797C102.049 196.797 101.654 196.958 101.367 197.281C101.081 197.599 100.917 198.052 100.875 198.641H104.219C104.208 198.052 104.055 197.599 103.758 197.281C103.461 196.958 103.06 196.797 102.555 196.797ZM102.891 204.156C101.484 204.156 100.385 203.768 99.5938 202.992C98.8021 202.216 98.4062 201.117 98.4062 199.695C98.4062 198.232 98.7708 197.102 99.5 196.305C100.234 195.503 101.247 195.102 102.539 195.102C103.773 195.102 104.734 195.453 105.422 196.156C106.109 196.859 106.453 197.831 106.453 199.07V200.227H100.82C100.846 200.904 101.047 201.432 101.422 201.812C101.797 202.193 102.323 202.383 103 202.383C103.526 202.383 104.023 202.328 104.492 202.219C104.961 202.109 105.451 201.935 105.961 201.695V203.539C105.544 203.747 105.099 203.901 104.625 204C104.151 204.104 103.573 204.156 102.891 204.156ZM113.25 195.102C114.281 195.102 115.089 195.505 115.672 196.312C116.255 197.115 116.547 198.216 116.547 199.617C116.547 201.06 116.245 202.177 115.641 202.969C115.042 203.76 114.224 204.156 113.188 204.156C112.161 204.156 111.357 203.784 110.773 203.039H110.609L110.211 204H108.391V191.844H110.773V194.672C110.773 195.031 110.742 195.607 110.68 196.398H110.773C111.331 195.534 112.156 195.102 113.25 195.102ZM112.484 197.008C111.896 197.008 111.466 197.19 111.195 197.555C110.924 197.914 110.784 198.51 110.773 199.344V199.602C110.773 200.539 110.911 201.211 111.188 201.617C111.469 202.023 111.911 202.227 112.516 202.227C113.005 202.227 113.393 202.003 113.68 201.555C113.971 201.102 114.117 200.445 114.117 199.586C114.117 198.727 113.971 198.083 113.68 197.656C113.388 197.224 112.99 197.008 112.484 197.008ZM129.602 200.828C129.602 201.859 129.229 202.672 128.484 203.266C127.745 203.859 126.714 204.156 125.391 204.156C124.172 204.156 123.094 203.927 122.156 203.469V201.219C122.927 201.562 123.578 201.805 124.109 201.945C124.646 202.086 125.135 202.156 125.578 202.156C126.109 202.156 126.516 202.055 126.797 201.852C127.083 201.648 127.227 201.346 127.227 200.945C127.227 200.721 127.164 200.523 127.039 200.352C126.914 200.174 126.729 200.005 126.484 199.844C126.245 199.682 125.753 199.424 125.008 199.07C124.31 198.742 123.786 198.427 123.438 198.125C123.089 197.823 122.81 197.471 122.602 197.07C122.393 196.669 122.289 196.201 122.289 195.664C122.289 194.654 122.63 193.859 123.312 193.281C124 192.703 124.948 192.414 126.156 192.414C126.75 192.414 127.315 192.484 127.852 192.625C128.393 192.766 128.958 192.964 129.547 193.219L128.766 195.102C128.156 194.852 127.651 194.677 127.25 194.578C126.854 194.479 126.464 194.43 126.078 194.43C125.62 194.43 125.268 194.536 125.023 194.75C124.779 194.964 124.656 195.242 124.656 195.586C124.656 195.799 124.706 195.987 124.805 196.148C124.904 196.305 125.06 196.458 125.273 196.609C125.492 196.755 126.005 197.021 126.812 197.406C127.88 197.917 128.612 198.43 129.008 198.945C129.404 199.456 129.602 200.083 129.602 200.828ZM135.102 196.797C134.596 196.797 134.201 196.958 133.914 197.281C133.628 197.599 133.464 198.052 133.422 198.641H136.766C136.755 198.052 136.602 197.599 136.305 197.281C136.008 196.958 135.607 196.797 135.102 196.797ZM135.438 204.156C134.031 204.156 132.932 203.768 132.141 202.992C131.349 202.216 130.953 201.117 130.953 199.695C130.953 198.232 131.318 197.102 132.047 196.305C132.781 195.503 133.794 195.102 135.086 195.102C136.32 195.102 137.281 195.453 137.969 196.156C138.656 196.859 139 197.831 139 199.07V200.227H133.367C133.393 200.904 133.594 201.432 133.969 201.812C134.344 202.193 134.87 202.383 135.547 202.383C136.073 202.383 136.57 202.328 137.039 202.219C137.508 202.109 137.997 201.935 138.508 201.695V203.539C138.091 203.747 137.646 203.901 137.172 204C136.698 204.104 136.12 204.156 135.438 204.156ZM145.812 195.102C146.135 195.102 146.404 195.125 146.617 195.172L146.438 197.406C146.245 197.354 146.01 197.328 145.734 197.328C144.974 197.328 144.38 197.523 143.953 197.914C143.531 198.305 143.32 198.852 143.32 199.555V204H140.938V195.266H142.742L143.094 196.734H143.211C143.482 196.245 143.846 195.852 144.305 195.555C144.768 195.253 145.271 195.102 145.812 195.102ZM150.281 204L146.953 195.266H149.445L151.133 200.242C151.32 200.872 151.438 201.469 151.484 202.031H151.531C151.557 201.531 151.674 200.935 151.883 200.242L153.562 195.266H156.055L152.727 204H150.281ZM160.93 196.797C160.424 196.797 160.029 196.958 159.742 197.281C159.456 197.599 159.292 198.052 159.25 198.641H162.594C162.583 198.052 162.43 197.599 162.133 197.281C161.836 196.958 161.435 196.797 160.93 196.797ZM161.266 204.156C159.859 204.156 158.76 203.768 157.969 202.992C157.177 202.216 156.781 201.117 156.781 199.695C156.781 198.232 157.146 197.102 157.875 196.305C158.609 195.503 159.622 195.102 160.914 195.102C162.148 195.102 163.109 195.453 163.797 196.156C164.484 196.859 164.828 197.831 164.828 199.07V200.227H159.195C159.221 200.904 159.422 201.432 159.797 201.812C160.172 202.193 160.698 202.383 161.375 202.383C161.901 202.383 162.398 202.328 162.867 202.219C163.336 202.109 163.826 201.935 164.336 201.695V203.539C163.919 203.747 163.474 203.901 163 204C162.526 204.104 161.948 204.156 161.266 204.156ZM171.641 195.102C171.964 195.102 172.232 195.125 172.445 195.172L172.266 197.406C172.073 197.354 171.839 197.328 171.562 197.328C170.802 197.328 170.208 197.523 169.781 197.914C169.359 198.305 169.148 198.852 169.148 199.555V204H166.766V195.266H168.57L168.922 196.734H169.039C169.31 196.245 169.674 195.852 170.133 195.555C170.596 195.253 171.099 195.102 171.641 195.102Z" fill="#161A2A"/>
<rect x="1" y="295" width="254" height="61" rx="5" fill="#D0D0D0"/>
<path d="M93.5234 331L92.6953 328.281H88.5312L87.7031 331H85.0938L89.125 319.531H92.0859L96.1328 331H93.5234ZM92.1172 326.25C91.3516 323.786 90.9193 322.393 90.8203 322.07C90.7266 321.747 90.6589 321.492 90.6172 321.305C90.4453 321.971 89.9531 323.62 89.1406 326.25H92.1172ZM102.188 331.156C101.161 331.156 100.357 330.784 99.7734 330.039H99.6484C99.7318 330.768 99.7734 331.19 99.7734 331.305V334.844H97.3906V322.266H99.3281L99.6641 323.398H99.7734C100.331 322.534 101.156 322.102 102.25 322.102C103.281 322.102 104.089 322.5 104.672 323.297C105.255 324.094 105.547 325.201 105.547 326.617C105.547 327.549 105.409 328.359 105.133 329.047C104.862 329.734 104.474 330.258 103.969 330.617C103.464 330.977 102.87 331.156 102.188 331.156ZM101.484 324.008C100.896 324.008 100.466 324.19 100.195 324.555C99.9245 324.914 99.7839 325.51 99.7734 326.344V326.602C99.7734 327.539 99.9115 328.211 100.188 328.617C100.469 329.023 100.911 329.227 101.516 329.227C102.583 329.227 103.117 328.346 103.117 326.586C103.117 325.727 102.984 325.083 102.719 324.656C102.458 324.224 102.047 324.008 101.484 324.008ZM112.312 331.156C111.286 331.156 110.482 330.784 109.898 330.039H109.773C109.857 330.768 109.898 331.19 109.898 331.305V334.844H107.516V322.266H109.453L109.789 323.398H109.898C110.456 322.534 111.281 322.102 112.375 322.102C113.406 322.102 114.214 322.5 114.797 323.297C115.38 324.094 115.672 325.201 115.672 326.617C115.672 327.549 115.534 328.359 115.258 329.047C114.987 329.734 114.599 330.258 114.094 330.617C113.589 330.977 112.995 331.156 112.312 331.156ZM111.609 324.008C111.021 324.008 110.591 324.19 110.32 324.555C110.049 324.914 109.909 325.51 109.898 326.344V326.602C109.898 327.539 110.036 328.211 110.312 328.617C110.594 329.023 111.036 329.227 111.641 329.227C112.708 329.227 113.242 328.346 113.242 326.586C113.242 325.727 113.109 325.083 112.844 324.656C112.583 324.224 112.172 324.008 111.609 324.008ZM128.727 327.828C128.727 328.859 128.354 329.672 127.609 330.266C126.87 330.859 125.839 331.156 124.516 331.156C123.297 331.156 122.219 330.927 121.281 330.469V328.219C122.052 328.562 122.703 328.805 123.234 328.945C123.771 329.086 124.26 329.156 124.703 329.156C125.234 329.156 125.641 329.055 125.922 328.852C126.208 328.648 126.352 328.346 126.352 327.945C126.352 327.721 126.289 327.523 126.164 327.352C126.039 327.174 125.854 327.005 125.609 326.844C125.37 326.682 124.878 326.424 124.133 326.07C123.435 325.742 122.911 325.427 122.562 325.125C122.214 324.823 121.935 324.471 121.727 324.07C121.518 323.669 121.414 323.201 121.414 322.664C121.414 321.654 121.755 320.859 122.438 320.281C123.125 319.703 124.073 319.414 125.281 319.414C125.875 319.414 126.44 319.484 126.977 319.625C127.518 319.766 128.083 319.964 128.672 320.219L127.891 322.102C127.281 321.852 126.776 321.677 126.375 321.578C125.979 321.479 125.589 321.43 125.203 321.43C124.745 321.43 124.393 321.536 124.148 321.75C123.904 321.964 123.781 322.242 123.781 322.586C123.781 322.799 123.831 322.987 123.93 323.148C124.029 323.305 124.185 323.458 124.398 323.609C124.617 323.755 125.13 324.021 125.938 324.406C127.005 324.917 127.737 325.43 128.133 325.945C128.529 326.456 128.727 327.083 128.727 327.828ZM134.227 323.797C133.721 323.797 133.326 323.958 133.039 324.281C132.753 324.599 132.589 325.052 132.547 325.641H135.891C135.88 325.052 135.727 324.599 135.43 324.281C135.133 323.958 134.732 323.797 134.227 323.797ZM134.562 331.156C133.156 331.156 132.057 330.768 131.266 329.992C130.474 329.216 130.078 328.117 130.078 326.695C130.078 325.232 130.443 324.102 131.172 323.305C131.906 322.503 132.919 322.102 134.211 322.102C135.445 322.102 136.406 322.453 137.094 323.156C137.781 323.859 138.125 324.831 138.125 326.07V327.227H132.492C132.518 327.904 132.719 328.432 133.094 328.812C133.469 329.193 133.995 329.383 134.672 329.383C135.198 329.383 135.695 329.328 136.164 329.219C136.633 329.109 137.122 328.935 137.633 328.695V330.539C137.216 330.747 136.771 330.901 136.297 331C135.823 331.104 135.245 331.156 134.562 331.156ZM144.938 322.102C145.26 322.102 145.529 322.125 145.742 322.172L145.562 324.406C145.37 324.354 145.135 324.328 144.859 324.328C144.099 324.328 143.505 324.523 143.078 324.914C142.656 325.305 142.445 325.852 142.445 326.555V331H140.062V322.266H141.867L142.219 323.734H142.336C142.607 323.245 142.971 322.852 143.43 322.555C143.893 322.253 144.396 322.102 144.938 322.102ZM149.406 331L146.078 322.266H148.57L150.258 327.242C150.445 327.872 150.562 328.469 150.609 329.031H150.656C150.682 328.531 150.799 327.935 151.008 327.242L152.688 322.266H155.18L151.852 331H149.406ZM160.055 323.797C159.549 323.797 159.154 323.958 158.867 324.281C158.581 324.599 158.417 325.052 158.375 325.641H161.719C161.708 325.052 161.555 324.599 161.258 324.281C160.961 323.958 160.56 323.797 160.055 323.797ZM160.391 331.156C158.984 331.156 157.885 330.768 157.094 329.992C156.302 329.216 155.906 328.117 155.906 326.695C155.906 325.232 156.271 324.102 157 323.305C157.734 322.503 158.747 322.102 160.039 322.102C161.273 322.102 162.234 322.453 162.922 323.156C163.609 323.859 163.953 324.831 163.953 326.07V327.227H158.32C158.346 327.904 158.547 328.432 158.922 328.812C159.297 329.193 159.823 329.383 160.5 329.383C161.026 329.383 161.523 329.328 161.992 329.219C162.461 329.109 162.951 328.935 163.461 328.695V330.539C163.044 330.747 162.599 330.901 162.125 331C161.651 331.104 161.073 331.156 160.391 331.156ZM170.766 322.102C171.089 322.102 171.357 322.125 171.57 322.172L171.391 324.406C171.198 324.354 170.964 324.328 170.688 324.328C169.927 324.328 169.333 324.523 168.906 324.914C168.484 325.305 168.273 325.852 168.273 326.555V331H165.891V322.266H167.695L168.047 323.734H168.164C168.435 323.245 168.799 322.852 169.258 322.555C169.721 322.253 170.224 322.102 170.766 322.102Z" fill="#161A2A"/>
<rect x="2" y="421" width="111" height="61" rx="5" fill="#D0D0D0"/>
<path d="M29.2422 452.18C29.2422 454.06 28.7057 455.5 27.6328 456.5C26.5651 457.5 25.0208 458 23 458H19.7656V446.578H23.3516C25.2161 446.578 26.6641 447.07 27.6953 448.055C28.7266 449.039 29.2422 450.414 29.2422 452.18ZM26.7266 452.242C26.7266 449.789 25.6432 448.562 23.4766 448.562H22.1875V456H23.2266C25.5599 456 26.7266 454.747 26.7266 452.242ZM36.9688 458L36.5078 456.812H36.4453C36.0443 457.318 35.6302 457.669 35.2031 457.867C34.7812 458.06 34.2292 458.156 33.5469 458.156C32.7083 458.156 32.0469 457.917 31.5625 457.438C31.0833 456.958 30.8438 456.276 30.8438 455.391C30.8438 454.464 31.1667 453.781 31.8125 453.344C32.4635 452.901 33.4427 452.656 34.75 452.609L36.2656 452.562V452.18C36.2656 451.294 35.8125 450.852 34.9062 450.852C34.2083 450.852 33.388 451.062 32.4453 451.484L31.6562 449.875C32.6615 449.349 33.776 449.086 35 449.086C36.1719 449.086 37.0703 449.341 37.6953 449.852C38.3203 450.362 38.6328 451.138 38.6328 452.18V458H36.9688ZM36.2656 453.953L35.3438 453.984C34.651 454.005 34.1354 454.13 33.7969 454.359C33.4583 454.589 33.2891 454.938 33.2891 455.406C33.2891 456.078 33.6745 456.414 34.4453 456.414C34.9974 456.414 35.4375 456.255 35.7656 455.938C36.099 455.62 36.2656 455.198 36.2656 454.672V453.953ZM44.7734 456.258C45.1901 456.258 45.6901 456.167 46.2734 455.984V457.758C45.6797 458.023 44.9505 458.156 44.0859 458.156C43.1328 458.156 42.4375 457.917 42 457.438C41.5677 456.953 41.3516 456.229 41.3516 455.266V451.055H40.2109V450.047L41.5234 449.25L42.2109 447.406H43.7344V449.266H46.1797V451.055H43.7344V455.266C43.7344 455.604 43.8281 455.854 44.0156 456.016C44.2083 456.177 44.4609 456.258 44.7734 456.258ZM53.5938 458L53.1328 456.812H53.0703C52.6693 457.318 52.2552 457.669 51.8281 457.867C51.4062 458.06 50.8542 458.156 50.1719 458.156C49.3333 458.156 48.6719 457.917 48.1875 457.438C47.7083 456.958 47.4688 456.276 47.4688 455.391C47.4688 454.464 47.7917 453.781 48.4375 453.344C49.0885 452.901 50.0677 452.656 51.375 452.609L52.8906 452.562V452.18C52.8906 451.294 52.4375 450.852 51.5312 450.852C50.8333 450.852 50.013 451.062 49.0703 451.484L48.2812 449.875C49.2865 449.349 50.401 449.086 51.625 449.086C52.7969 449.086 53.6953 449.341 54.3203 449.852C54.9453 450.362 55.2578 451.138 55.2578 452.18V458H53.5938ZM52.8906 453.953L51.9688 453.984C51.276 454.005 50.7604 454.13 50.4219 454.359C50.0833 454.589 49.9141 454.938 49.9141 455.406C49.9141 456.078 50.2995 456.414 51.0703 456.414C51.6224 456.414 52.0625 456.255 52.3906 455.938C52.724 455.62 52.8906 455.198 52.8906 454.672V453.953ZM62.5781 449.102C63.6094 449.102 64.4167 449.505 65 450.312C65.5833 451.115 65.875 452.216 65.875 453.617C65.875 455.06 65.5729 456.177 64.9688 456.969C64.3698 457.76 63.5521 458.156 62.5156 458.156C61.4896 458.156 60.6849 457.784 60.1016 457.039H59.9375L59.5391 458H57.7188V445.844H60.1016V448.672C60.1016 449.031 60.0703 449.607 60.0078 450.398H60.1016C60.6589 449.534 61.4844 449.102 62.5781 449.102ZM61.8125 451.008C61.224 451.008 60.7943 451.19 60.5234 451.555C60.2526 451.914 60.112 452.51 60.1016 453.344V453.602C60.1016 454.539 60.2396 455.211 60.5156 455.617C60.7969 456.023 61.2396 456.227 61.8438 456.227C62.3333 456.227 62.7214 456.003 63.0078 455.555C63.2995 455.102 63.4453 454.445 63.4453 453.586C63.4453 452.727 63.2995 452.083 63.0078 451.656C62.7161 451.224 62.3177 451.008 61.8125 451.008ZM73.3906 458L72.9297 456.812H72.8672C72.4661 457.318 72.0521 457.669 71.625 457.867C71.2031 458.06 70.651 458.156 69.9688 458.156C69.1302 458.156 68.4688 457.917 67.9844 457.438C67.5052 456.958 67.2656 456.276 67.2656 455.391C67.2656 454.464 67.5885 453.781 68.2344 453.344C68.8854 452.901 69.8646 452.656 71.1719 452.609L72.6875 452.562V452.18C72.6875 451.294 72.2344 450.852 71.3281 450.852C70.6302 450.852 69.8099 451.062 68.8672 451.484L68.0781 449.875C69.0833 449.349 70.1979 449.086 71.4219 449.086C72.5938 449.086 73.4922 449.341 74.1172 449.852C74.7422 450.362 75.0547 451.138 75.0547 452.18V458H73.3906ZM72.6875 453.953L71.7656 453.984C71.0729 454.005 70.5573 454.13 70.2188 454.359C69.8802 454.589 69.7109 454.938 69.7109 455.406C69.7109 456.078 70.0964 456.414 70.8672 456.414C71.4193 456.414 71.8594 456.255 72.1875 455.938C72.5208 455.62 72.6875 455.198 72.6875 454.672V453.953ZM83.6094 455.406C83.6094 456.302 83.2969 456.984 82.6719 457.453C82.0521 457.922 81.1224 458.156 79.8828 458.156C79.2474 458.156 78.7057 458.112 78.2578 458.023C77.8099 457.94 77.3906 457.815 77 457.648V455.68C77.4427 455.888 77.9401 456.062 78.4922 456.203C79.0495 456.344 79.5391 456.414 79.9609 456.414C80.8255 456.414 81.2578 456.164 81.2578 455.664C81.2578 455.477 81.2005 455.326 81.0859 455.211C80.9714 455.091 80.7734 454.958 80.4922 454.812C80.2109 454.661 79.8359 454.487 79.3672 454.289C78.6953 454.008 78.2005 453.747 77.8828 453.508C77.5703 453.268 77.3411 452.995 77.1953 452.688C77.0547 452.375 76.9844 451.992 76.9844 451.539C76.9844 450.763 77.2839 450.164 77.8828 449.742C78.487 449.315 79.3411 449.102 80.4453 449.102C81.4974 449.102 82.5208 449.331 83.5156 449.789L82.7969 451.508C82.3594 451.32 81.9505 451.167 81.5703 451.047C81.1901 450.927 80.8021 450.867 80.4062 450.867C79.7031 450.867 79.3516 451.057 79.3516 451.438C79.3516 451.651 79.4635 451.836 79.6875 451.992C79.9167 452.148 80.4141 452.38 81.1797 452.688C81.862 452.964 82.362 453.221 82.6797 453.461C82.9974 453.701 83.2318 453.977 83.3828 454.289C83.5339 454.602 83.6094 454.974 83.6094 455.406ZM89.0859 450.797C88.5807 450.797 88.1849 450.958 87.8984 451.281C87.612 451.599 87.4479 452.052 87.4062 452.641H90.75C90.7396 452.052 90.5859 451.599 90.2891 451.281C89.9922 450.958 89.5911 450.797 89.0859 450.797ZM89.4219 458.156C88.0156 458.156 86.9167 457.768 86.125 456.992C85.3333 456.216 84.9375 455.117 84.9375 453.695C84.9375 452.232 85.3021 451.102 86.0312 450.305C86.7656 449.503 87.7786 449.102 89.0703 449.102C90.3047 449.102 91.2656 449.453 91.9531 450.156C92.6406 450.859 92.9844 451.831 92.9844 453.07V454.227H87.3516C87.3776 454.904 87.5781 455.432 87.9531 455.812C88.3281 456.193 88.8542 456.383 89.5312 456.383C90.0573 456.383 90.5547 456.328 91.0234 456.219C91.4922 456.109 91.9818 455.935 92.4922 455.695V457.539C92.0755 457.747 91.6302 457.901 91.1562 458C90.6823 458.104 90.1042 458.156 89.4219 458.156Z" fill="#161A2A"/>
<rect x="144" y="419" width="111" height="61" rx="5" fill="#D0D0D0"/>
<path d="M189.734 446.43C188.823 446.43 188.117 446.773 187.617 447.461C187.117 448.143 186.867 449.096 186.867 450.32C186.867 452.867 187.823 454.141 189.734 454.141C190.536 454.141 191.508 453.94 192.648 453.539V455.57C191.711 455.961 190.664 456.156 189.508 456.156C187.846 456.156 186.576 455.654 185.695 454.648C184.815 453.638 184.375 452.19 184.375 450.305C184.375 449.117 184.591 448.078 185.023 447.188C185.456 446.292 186.076 445.607 186.883 445.133C187.695 444.654 188.646 444.414 189.734 444.414C190.844 444.414 191.958 444.682 193.078 445.219L192.297 447.188C191.87 446.984 191.44 446.807 191.008 446.656C190.576 446.505 190.151 446.43 189.734 446.43ZM199.922 456L197.172 447.039H197.102C197.201 448.862 197.25 450.078 197.25 450.688V456H195.086V444.578H198.383L201.086 453.312H201.133L204 444.578H207.297V456H205.039V450.594C205.039 450.339 205.042 450.044 205.047 449.711C205.057 449.378 205.094 448.492 205.156 447.055H205.086L202.141 456H199.922ZM216.922 452.828C216.922 453.859 216.549 454.672 215.805 455.266C215.065 455.859 214.034 456.156 212.711 456.156C211.492 456.156 210.414 455.927 209.477 455.469V453.219C210.247 453.562 210.898 453.805 211.43 453.945C211.966 454.086 212.456 454.156 212.898 454.156C213.43 454.156 213.836 454.055 214.117 453.852C214.404 453.648 214.547 453.346 214.547 452.945C214.547 452.721 214.484 452.523 214.359 452.352C214.234 452.174 214.049 452.005 213.805 451.844C213.565 451.682 213.073 451.424 212.328 451.07C211.63 450.742 211.107 450.427 210.758 450.125C210.409 449.823 210.13 449.471 209.922 449.07C209.714 448.669 209.609 448.201 209.609 447.664C209.609 446.654 209.951 445.859 210.633 445.281C211.32 444.703 212.268 444.414 213.477 444.414C214.07 444.414 214.635 444.484 215.172 444.625C215.714 444.766 216.279 444.964 216.867 445.219L216.086 447.102C215.477 446.852 214.971 446.677 214.57 446.578C214.174 446.479 213.784 446.43 213.398 446.43C212.94 446.43 212.589 446.536 212.344 446.75C212.099 446.964 211.977 447.242 211.977 447.586C211.977 447.799 212.026 447.987 212.125 448.148C212.224 448.305 212.38 448.458 212.594 448.609C212.812 448.755 213.326 449.021 214.133 449.406C215.201 449.917 215.932 450.43 216.328 450.945C216.724 451.456 216.922 452.083 216.922 452.828Z" fill="#161A2A"/>
<path d="M562 113V144" stroke="#707481" stroke-width="2"/>
<path d="M555 118L562 108L569 118H555Z" fill="#707481"/>
<path d="M569 144L562 154L555 144L569 144Z" fill="#707481"/>
<path d="M420 113V144" stroke="#707481" stroke-width="2"/>
<path d="M413 118L420 108L427 118H413Z" fill="#707481"/>
<path d="M427 144L420 154L413 144L427 144Z" fill="#707481"/>
<rect x="363" y="39" width="254" height="61" rx="5" fill="#FF68B3"/>
<path d="M473.336 65.4297C472.424 65.4297 471.719 65.7734 471.219 66.4609C470.719 67.1432 470.469 68.0964 470.469 69.3203C470.469 71.8672 471.424 73.1406 473.336 73.1406C474.138 73.1406 475.109 72.9401 476.25 72.5391V74.5703C475.312 74.9609 474.266 75.1562 473.109 75.1562C471.448 75.1562 470.177 74.6536 469.297 73.6484C468.417 72.638 467.977 71.1901 467.977 69.3047C467.977 68.1172 468.193 67.0781 468.625 66.1875C469.057 65.2917 469.677 64.6068 470.484 64.1328C471.297 63.6536 472.247 63.4141 473.336 63.4141C474.445 63.4141 475.56 63.6823 476.68 64.2188L475.898 66.1875C475.471 65.9844 475.042 65.8073 474.609 65.6562C474.177 65.5052 473.753 65.4297 473.336 65.4297ZM480.883 75H478.5V62.8438H480.883V75ZM483.289 64.0078C483.289 63.2318 483.721 62.8438 484.586 62.8438C485.451 62.8438 485.883 63.2318 485.883 64.0078C485.883 64.3776 485.773 64.6667 485.555 64.875C485.341 65.0781 485.018 65.1797 484.586 65.1797C483.721 65.1797 483.289 64.7891 483.289 64.0078ZM485.773 75H483.391V66.2656H485.773V75ZM491.898 67.7969C491.393 67.7969 490.997 67.9583 490.711 68.2812C490.424 68.599 490.26 69.0521 490.219 69.6406H493.562C493.552 69.0521 493.398 68.599 493.102 68.2812C492.805 67.9583 492.404 67.7969 491.898 67.7969ZM492.234 75.1562C490.828 75.1562 489.729 74.7682 488.938 73.9922C488.146 73.2161 487.75 72.1172 487.75 70.6953C487.75 69.2318 488.115 68.1016 488.844 67.3047C489.578 66.5026 490.591 66.1016 491.883 66.1016C493.117 66.1016 494.078 66.4531 494.766 67.1562C495.453 67.8594 495.797 68.8307 495.797 70.0703V71.2266H490.164C490.19 71.9036 490.391 72.4323 490.766 72.8125C491.141 73.1927 491.667 73.3828 492.344 73.3828C492.87 73.3828 493.367 73.3281 493.836 73.2188C494.305 73.1094 494.794 72.9349 495.305 72.6953V74.5391C494.888 74.7474 494.443 74.901 493.969 75C493.495 75.1042 492.917 75.1562 492.234 75.1562ZM505.797 75H503.414V69.8984C503.414 69.2682 503.302 68.7969 503.078 68.4844C502.854 68.1667 502.497 68.0078 502.008 68.0078C501.341 68.0078 500.859 68.2318 500.562 68.6797C500.266 69.1224 500.117 69.8594 500.117 70.8906V75H497.734V66.2656H499.555L499.875 67.3828H500.008C500.273 66.9609 500.638 66.6432 501.102 66.4297C501.57 66.2109 502.102 66.1016 502.695 66.1016C503.711 66.1016 504.482 66.3776 505.008 66.9297C505.534 67.4766 505.797 68.2682 505.797 69.3047V75ZM511.93 73.2578C512.346 73.2578 512.846 73.1667 513.43 72.9844V74.7578C512.836 75.0234 512.107 75.1562 511.242 75.1562C510.289 75.1562 509.594 74.9167 509.156 74.4375C508.724 73.9531 508.508 73.2292 508.508 72.2656V68.0547H507.367V67.0469L508.68 66.25L509.367 64.4062H510.891V66.2656H513.336V68.0547H510.891V72.2656C510.891 72.6042 510.984 72.8542 511.172 73.0156C511.365 73.1771 511.617 73.2578 511.93 73.2578Z" fill="#161A2A"/>
<rect x="356" y="163" width="128" height="61" rx="5" fill="#3BAFDE"/>
<rect x="518" y="173" width="22" height="23" rx="5" fill="#95F9ED"/>
<rect x="550" y="173" width="22" height="23" rx="5" fill="#95F9ED"/>
<rect x="582" y="173" width="22" height="23" rx="5" fill="#95F9ED"/>
<path d="M408.758 192.43C407.846 192.43 407.141 192.773 406.641 193.461C406.141 194.143 405.891 195.096 405.891 196.32C405.891 198.867 406.846 200.141 408.758 200.141C409.56 200.141 410.531 199.94 411.672 199.539V201.57C410.734 201.961 409.688 202.156 408.531 202.156C406.87 202.156 405.599 201.654 404.719 200.648C403.839 199.638 403.398 198.19 403.398 196.305C403.398 195.117 403.615 194.078 404.047 193.188C404.479 192.292 405.099 191.607 405.906 191.133C406.719 190.654 407.669 190.414 408.758 190.414C409.867 190.414 410.982 190.682 412.102 191.219L411.32 193.188C410.893 192.984 410.464 192.807 410.031 192.656C409.599 192.505 409.174 192.43 408.758 192.43ZM423.586 196.18C423.586 198.06 423.049 199.5 421.977 200.5C420.909 201.5 419.365 202 417.344 202H414.109V190.578H417.695C419.56 190.578 421.008 191.07 422.039 192.055C423.07 193.039 423.586 194.414 423.586 196.18ZM421.07 196.242C421.07 193.789 419.987 192.562 417.82 192.562H416.531V200H417.57C419.904 200 421.07 198.747 421.07 196.242ZM436.086 202H433.008L428.039 193.359H427.969C428.068 194.885 428.117 195.974 428.117 196.625V202H425.953V190.578H429.008L433.969 199.133H434.023C433.945 197.648 433.906 196.599 433.906 195.984V190.578H436.086V202Z" fill="#161A2A"/>
<rect x="499" y="164" width="126" height="59" rx="4" stroke="#95F9ED" stroke-width="2"/>
<path d="M513.422 214L510.672 205.039H510.602C510.701 206.862 510.75 208.078 510.75 208.688V214H508.586V202.578H511.883L514.586 211.312H514.633L517.5 202.578H520.797V214H518.539V208.594C518.539 208.339 518.542 208.044 518.547 207.711C518.557 207.378 518.594 206.492 518.656 205.055H518.586L515.641 214H513.422ZM523.391 203.008C523.391 202.232 523.823 201.844 524.688 201.844C525.552 201.844 525.984 202.232 525.984 203.008C525.984 203.378 525.875 203.667 525.656 203.875C525.443 204.078 525.12 204.18 524.688 204.18C523.823 204.18 523.391 203.789 523.391 203.008ZM525.875 214H523.492V205.266H525.875V214ZM531.93 214.156C529.211 214.156 527.852 212.664 527.852 209.68C527.852 208.195 528.221 207.062 528.961 206.281C529.701 205.495 530.76 205.102 532.141 205.102C533.151 205.102 534.057 205.299 534.859 205.695L534.156 207.539C533.781 207.388 533.432 207.266 533.109 207.172C532.786 207.073 532.464 207.023 532.141 207.023C530.901 207.023 530.281 207.904 530.281 209.664C530.281 211.372 530.901 212.227 532.141 212.227C532.599 212.227 533.023 212.167 533.414 212.047C533.805 211.922 534.195 211.729 534.586 211.469V213.508C534.201 213.753 533.81 213.922 533.414 214.016C533.023 214.109 532.529 214.156 531.93 214.156ZM541.492 205.102C541.815 205.102 542.083 205.125 542.297 205.172L542.117 207.406C541.924 207.354 541.69 207.328 541.414 207.328C540.654 207.328 540.06 207.523 539.633 207.914C539.211 208.305 539 208.852 539 209.555V214H536.617V205.266H538.422L538.773 206.734H538.891C539.161 206.245 539.526 205.852 539.984 205.555C540.448 205.253 540.951 205.102 541.492 205.102ZM545.781 209.617C545.781 210.482 545.922 211.135 546.203 211.578C546.49 212.021 546.953 212.242 547.594 212.242C548.229 212.242 548.685 212.023 548.961 211.586C549.242 211.143 549.383 210.487 549.383 209.617C549.383 208.753 549.242 208.104 548.961 207.672C548.68 207.24 548.219 207.023 547.578 207.023C546.943 207.023 546.484 207.24 546.203 207.672C545.922 208.099 545.781 208.747 545.781 209.617ZM551.82 209.617C551.82 211.039 551.445 212.151 550.695 212.953C549.945 213.755 548.901 214.156 547.562 214.156C546.724 214.156 545.984 213.974 545.344 213.609C544.703 213.24 544.211 212.711 543.867 212.023C543.523 211.336 543.352 210.534 543.352 209.617C543.352 208.19 543.724 207.081 544.469 206.289C545.214 205.497 546.26 205.102 547.609 205.102C548.448 205.102 549.188 205.284 549.828 205.648C550.469 206.013 550.961 206.536 551.305 207.219C551.648 207.901 551.82 208.701 551.82 209.617ZM559.883 211.406C559.883 212.302 559.57 212.984 558.945 213.453C558.326 213.922 557.396 214.156 556.156 214.156C555.521 214.156 554.979 214.112 554.531 214.023C554.083 213.94 553.664 213.815 553.273 213.648V211.68C553.716 211.888 554.214 212.062 554.766 212.203C555.323 212.344 555.812 212.414 556.234 212.414C557.099 212.414 557.531 212.164 557.531 211.664C557.531 211.477 557.474 211.326 557.359 211.211C557.245 211.091 557.047 210.958 556.766 210.812C556.484 210.661 556.109 210.487 555.641 210.289C554.969 210.008 554.474 209.747 554.156 209.508C553.844 209.268 553.615 208.995 553.469 208.688C553.328 208.375 553.258 207.992 553.258 207.539C553.258 206.763 553.557 206.164 554.156 205.742C554.76 205.315 555.615 205.102 556.719 205.102C557.771 205.102 558.794 205.331 559.789 205.789L559.07 207.508C558.633 207.32 558.224 207.167 557.844 207.047C557.464 206.927 557.076 206.867 556.68 206.867C555.977 206.867 555.625 207.057 555.625 207.438C555.625 207.651 555.737 207.836 555.961 207.992C556.19 208.148 556.688 208.38 557.453 208.688C558.135 208.964 558.635 209.221 558.953 209.461C559.271 209.701 559.505 209.977 559.656 210.289C559.807 210.602 559.883 210.974 559.883 211.406ZM565.359 206.797C564.854 206.797 564.458 206.958 564.172 207.281C563.885 207.599 563.721 208.052 563.68 208.641H567.023C567.013 208.052 566.859 207.599 566.562 207.281C566.266 206.958 565.865 206.797 565.359 206.797ZM565.695 214.156C564.289 214.156 563.19 213.768 562.398 212.992C561.607 212.216 561.211 211.117 561.211 209.695C561.211 208.232 561.576 207.102 562.305 206.305C563.039 205.503 564.052 205.102 565.344 205.102C566.578 205.102 567.539 205.453 568.227 206.156C568.914 206.859 569.258 207.831 569.258 209.07V210.227H563.625C563.651 210.904 563.852 211.432 564.227 211.812C564.602 212.193 565.128 212.383 565.805 212.383C566.331 212.383 566.828 212.328 567.297 212.219C567.766 212.109 568.255 211.935 568.766 211.695V213.539C568.349 213.747 567.904 213.901 567.43 214C566.956 214.104 566.378 214.156 565.695 214.156ZM576.07 205.102C576.393 205.102 576.661 205.125 576.875 205.172L576.695 207.406C576.503 207.354 576.268 207.328 575.992 207.328C575.232 207.328 574.638 207.523 574.211 207.914C573.789 208.305 573.578 208.852 573.578 209.555V214H571.195V205.266H573L573.352 206.734H573.469C573.74 206.245 574.104 205.852 574.562 205.555C575.026 205.253 575.529 205.102 576.07 205.102ZM580.539 214L577.211 205.266H579.703L581.391 210.242C581.578 210.872 581.695 211.469 581.742 212.031H581.789C581.815 211.531 581.932 210.935 582.141 210.242L583.82 205.266H586.312L582.984 214H580.539ZM587.469 203.008C587.469 202.232 587.901 201.844 588.766 201.844C589.63 201.844 590.062 202.232 590.062 203.008C590.062 203.378 589.953 203.667 589.734 203.875C589.521 204.078 589.198 204.18 588.766 204.18C587.901 204.18 587.469 203.789 587.469 203.008ZM589.953 214H587.57V205.266H589.953V214ZM596.008 214.156C593.289 214.156 591.93 212.664 591.93 209.68C591.93 208.195 592.299 207.062 593.039 206.281C593.779 205.495 594.839 205.102 596.219 205.102C597.229 205.102 598.135 205.299 598.938 205.695L598.234 207.539C597.859 207.388 597.51 207.266 597.188 207.172C596.865 207.073 596.542 207.023 596.219 207.023C594.979 207.023 594.359 207.904 594.359 209.664C594.359 211.372 594.979 212.227 596.219 212.227C596.677 212.227 597.102 212.167 597.492 212.047C597.883 211.922 598.273 211.729 598.664 211.469V213.508C598.279 213.753 597.888 213.922 597.492 214.016C597.102 214.109 596.607 214.156 596.008 214.156ZM604.312 206.797C603.807 206.797 603.411 206.958 603.125 207.281C602.839 207.599 602.674 208.052 602.633 208.641H605.977C605.966 208.052 605.812 207.599 605.516 207.281C605.219 206.958 604.818 206.797 604.312 206.797ZM604.648 214.156C603.242 214.156 602.143 213.768 601.352 212.992C600.56 212.216 600.164 211.117 600.164 209.695C600.164 208.232 600.529 207.102 601.258 206.305C601.992 205.503 603.005 205.102 604.297 205.102C605.531 205.102 606.492 205.453 607.18 206.156C607.867 206.859 608.211 207.831 608.211 209.07V210.227H602.578C602.604 210.904 602.805 211.432 603.18 211.812C603.555 212.193 604.081 212.383 604.758 212.383C605.284 212.383 605.781 212.328 606.25 212.219C606.719 212.109 607.208 211.935 607.719 211.695V213.539C607.302 213.747 606.857 213.901 606.383 214C605.909 214.104 605.331 214.156 604.648 214.156ZM616.242 211.406C616.242 212.302 615.93 212.984 615.305 213.453C614.685 213.922 613.755 214.156 612.516 214.156C611.88 214.156 611.339 214.112 610.891 214.023C610.443 213.94 610.023 213.815 609.633 213.648V211.68C610.076 211.888 610.573 212.062 611.125 212.203C611.682 212.344 612.172 212.414 612.594 212.414C613.458 212.414 613.891 212.164 613.891 211.664C613.891 211.477 613.833 211.326 613.719 211.211C613.604 211.091 613.406 210.958 613.125 210.812C612.844 210.661 612.469 210.487 612 210.289C611.328 210.008 610.833 209.747 610.516 209.508C610.203 209.268 609.974 208.995 609.828 208.688C609.688 208.375 609.617 207.992 609.617 207.539C609.617 206.763 609.917 206.164 610.516 205.742C611.12 205.315 611.974 205.102 613.078 205.102C614.13 205.102 615.154 205.331 616.148 205.789L615.43 207.508C614.992 207.32 614.583 207.167 614.203 207.047C613.823 206.927 613.435 206.867 613.039 206.867C612.336 206.867 611.984 207.057 611.984 207.438C611.984 207.651 612.096 207.836 612.32 207.992C612.549 208.148 613.047 208.38 613.812 208.688C614.495 208.964 614.995 209.221 615.312 209.461C615.63 209.701 615.865 209.977 616.016 210.289C616.167 210.602 616.242 210.974 616.242 211.406Z" fill="#95F9ED"/>
</svg>
