<svg width="511" height="343" viewBox="0 0 511 343" fill="none" xmlns="http://www.w3.org/2000/svg">
<path fill-rule="evenodd" clip-rule="evenodd" d="M212.058 16.2674C212.378 16.2656 212.698 16.2646 213.019 16.2646L376.668 16.2646V179.338C376.668 269.511 303.51 342.411 213.019 342.411C122.528 342.411 49.3691 269.511 49.3691 179.338C49.3691 179.115 49.3696 178.891 49.3705 178.668C49.3696 178.446 49.3691 178.223 49.3691 178.001C49.3691 88.6765 121.781 16.2646 211.105 16.2646C211.423 16.2646 211.74 16.2656 212.058 16.2674Z" fill="#324058"/>
<path d="M42.704 147.001H7.81636C3.5269 147.001 0 143.478 0 139.194V130.244C0 125.96 3.5269 122.438 7.81636 122.438H42.704C46.9935 122.438 50.5204 125.96 50.5204 130.244V139.194C50.5204 143.478 47.0888 147.001 42.704 147.001Z" fill="#2B2635"/>
<path d="M25.0698 133.196H13.8219C13.0593 133.196 12.3921 132.529 12.3921 131.768C12.3921 131.006 13.0593 130.34 13.8219 130.34H25.0698C25.8324 130.34 26.4997 131.006 26.4997 131.768C26.4997 132.529 25.8324 133.196 25.0698 133.196Z" fill="white"/>
<path d="M36.5085 133.196H31.5518C30.7892 133.196 30.1219 132.529 30.1219 131.768C30.1219 131.006 30.7892 130.34 31.5518 130.34H36.5085C37.2711 130.34 37.9383 131.006 37.9383 131.768C37.9383 132.529 37.3664 133.196 36.5085 133.196Z" fill="white"/>
<path d="M36.5089 139.098H21.9247C21.1621 139.098 20.4949 138.432 20.4949 137.67C20.4949 136.909 21.1621 136.242 21.9247 136.242H36.5089C37.2715 136.242 37.9387 136.909 37.9387 137.67C37.9387 138.432 37.3668 139.098 36.5089 139.098Z" fill="white"/>
<path d="M352.308 48.4263H317.42C313.13 48.4263 309.604 44.9037 309.604 40.6195V31.6701C309.604 27.3859 313.13 23.8633 317.42 23.8633H352.308C356.597 23.8633 360.124 27.3859 360.124 31.6701V40.6195C360.124 44.9037 356.597 48.4263 352.308 48.4263Z" fill="#2B2635"/>
<path d="M326.093 34.1455H317.61C316.847 34.1455 316.18 33.479 316.18 32.7174C316.18 31.9557 316.847 31.2893 317.61 31.2893H326.093C326.856 31.2893 327.523 31.9557 327.523 32.7174C327.523 33.5742 326.856 34.1455 326.093 34.1455Z" fill="white"/>
<path d="M336.104 34.1455H331.719C330.957 34.1455 330.29 33.479 330.29 32.7174C330.29 31.9557 330.957 31.2893 331.719 31.2893H336.104C336.867 31.2893 337.534 31.9557 337.534 32.7174C337.534 33.5742 336.962 34.1455 336.104 34.1455Z" fill="white"/>
<path d="M352.117 34.1455H348.78C348.018 34.1455 347.351 33.479 347.351 32.7174C347.351 31.9557 348.018 31.2893 348.78 31.2893H352.117C352.879 31.2893 353.546 31.9557 353.546 32.7174C353.546 33.5742 352.879 34.1455 352.117 34.1455Z" fill="white"/>
<path d="M344.492 40.9052H331.814C331.052 40.9052 330.384 40.2388 330.384 39.4772C330.384 38.7155 331.052 38.0491 331.814 38.0491H344.492C345.255 38.0491 345.922 38.7155 345.922 39.4772C345.922 40.334 345.255 40.9052 344.492 40.9052Z" fill="white"/>
<path d="M151.276 59.316H116.388C112.098 59.316 108.572 55.7934 108.572 51.5091V42.5598C108.572 38.2755 112.098 34.7529 116.388 34.7529H151.276C155.565 34.7529 159.092 38.2755 159.092 42.5598V51.5091C159.092 55.7934 155.565 59.316 151.276 59.316Z" fill="#2B2635"/>
<path d="M124.967 43.9878H120.582C119.82 43.9878 119.152 43.3213 119.152 42.5597C119.152 41.798 119.82 41.1316 120.582 41.1316H124.967C125.73 41.1316 126.397 41.798 126.397 42.5597C126.397 43.4165 125.73 43.9878 124.967 43.9878Z" fill="white"/>
<path d="M134.688 43.9878H132.21C131.447 43.9878 130.78 43.3213 130.78 42.5597C130.78 41.798 131.447 41.1316 132.21 41.1316H134.688C135.451 41.1316 136.118 41.798 136.118 42.5597C136.118 43.4165 135.451 43.9878 134.688 43.9878Z" fill="white"/>
<path d="M142.125 50.4619H131.354C130.591 50.4619 129.924 49.7954 129.924 49.0338C129.924 48.2722 130.591 47.6057 131.354 47.6057H142.125C142.888 47.6057 143.555 48.2722 143.555 49.0338C143.555 49.8907 142.888 50.4619 142.125 50.4619Z" fill="white"/>
<path d="M151.847 50.4619H148.701C147.939 50.4619 147.272 49.7954 147.272 49.0338C147.272 48.2722 147.939 47.6057 148.701 47.6057H151.847C152.61 47.6057 153.277 48.2722 153.277 49.0338C153.277 49.8907 152.61 50.4619 151.847 50.4619Z" fill="white"/>
<path d="M110.478 202.696V216.977C110.478 223.451 115.721 228.687 122.203 228.687H333.817C340.298 228.687 345.541 223.451 345.541 216.977V202.696H110.478Z" fill="#E0E0E2"/>
<path d="M345.636 94.4469C345.636 87.9729 340.393 82.7366 333.911 82.7366H122.297C115.816 82.7366 110.573 87.9729 110.573 94.4469V202.696H345.731V94.4469H345.636Z" fill="#201F23"/>
<path opacity="0.1" d="M122.298 86.5447C117.913 86.5447 114.386 90.0673 114.386 94.4467V139.479L167.48 86.4495H122.298V86.5447Z" fill="white"/>
<path opacity="0.1" d="M192.169 86.5447L114.291 164.328V198.887H156.423L268.903 86.5447H192.169Z" fill="white"/>
<path d="M252.03 228.687C228.009 228.687 228.009 228.687 228.009 228.687C228.009 228.687 228.009 228.687 203.988 228.687L228.009 234.494L253.841 240.778C252.793 237.351 252.03 233.352 252.03 228.687Z" fill="#B5B5C9"/>
<path d="M253.937 240.873L228.105 234.59L204.084 228.782C204.084 256.106 180.063 261.914 180.063 261.914H228.01H275.957C276.052 261.914 259.561 257.82 253.937 240.873Z" fill="#E0E0E2"/>
<path d="M228.105 260.485H182.636C181.016 260.485 179.681 261.818 179.681 263.437V265.627C179.681 267.245 181.016 268.578 182.636 268.578H228.105H273.573C275.193 268.578 276.528 267.245 276.528 265.627V263.437C276.528 261.818 275.193 260.485 273.573 260.485H228.105Z" fill="white"/>
<path d="M128.79 156.097C128.797 152.264 125.777 149.151 121.94 149.147L56.3367 148.769C52.5002 148.765 49.3826 151.785 49.3752 155.617L49.319 162.729L128.734 163.209L128.79 156.097Z" fill="#E0E0E2"/>
<path opacity="0.2" d="M70.4833 150.949L56.2473 150.847C53.6047 150.801 51.3416 152.97 51.3791 155.653L51.3269 160.635L60.4909 160.646L70.4833 150.949Z" fill="white"/>
<path opacity="0.2" d="M76.8782 150.963L66.9286 160.787L76.2626 160.883L86.2122 151.059L76.8782 150.963Z" fill="white"/>
<path d="M128.704 163.175L49.3329 162.742L48.8166 246.547L128.187 246.981L128.704 163.175Z" fill="#464560"/>
<path opacity="0.1" d="M51.3697 164.806L51.14 195.804L82.3972 165.014L51.3697 164.806Z" fill="white"/>
<path opacity="0.1" d="M95.4074 165.039L51.1295 208.797L50.857 239.878L126.475 165.161L95.4074 165.039Z" fill="white"/>
<path d="M48.8095 246.518L48.792 255.674C48.7847 259.507 51.8053 262.619 55.6418 262.624L121.245 263.001C125.082 263.006 128.199 259.986 128.207 256.153L128.224 246.997L48.8095 246.518Z" fill="#E0E0E2"/>
<path opacity="0.2" d="M57.0938 260.57L69.1364 248.704L50.9362 248.64L50.88 255.751C50.8323 258.391 53.0018 260.65 55.6871 260.611L57.0938 260.57Z" fill="white"/>
<path opacity="0.2" d="M74.9786 248.76L62.9369 260.625L71.2051 260.72L83.1616 248.812L74.9786 248.76Z" fill="white"/>
<path d="M95.8368 157.164L82.3238 157.106C81.6844 157.105 81.1738 156.636 81.175 155.997C81.1762 155.358 81.6461 154.848 82.2855 154.848L95.7985 154.907C96.4379 154.908 96.9486 155.377 96.9474 156.016C96.9461 156.655 96.4763 157.165 95.8368 157.164Z" fill="#201F23"/>
<path d="M82.4223 257.929C81.315 257.374 80.5925 256.266 80.5949 254.989C80.641 253.2 82.1358 251.711 83.926 251.756L94.4548 251.812C96.245 251.856 97.7341 253.349 97.6881 255.137C97.642 256.926 96.1472 258.414 94.357 258.37L83.8282 258.314C83.402 258.314 82.8481 258.143 82.4223 257.929ZM95.4756 252.963C95.1349 252.792 94.8366 252.749 94.4104 252.748L83.8816 252.693C82.6028 252.691 81.5351 253.755 81.5327 255.032C81.5302 256.31 82.5939 257.376 83.8727 257.377L94.4014 257.433C95.6802 257.434 96.7479 256.371 96.7504 255.093C96.7096 254.114 96.2422 253.347 95.4756 252.963Z" fill="#201F23"/>
<path d="M107.383 191.01L89.8366 183.837C89.3979 183.66 88.9055 183.66 88.4669 183.837L70.9206 191.01C70.2492 191.283 69.8105 191.926 69.8105 192.64V201.355C69.8105 213.358 77.1782 224.153 88.4669 228.691C88.8966 228.867 89.389 228.867 89.8187 228.691C101.116 224.153 108.484 213.358 108.484 201.355V192.64C108.484 191.926 108.045 191.283 107.383 191.01ZM104.903 201.355C104.903 211.56 98.8156 220.954 89.1473 225.149C79.7385 221.069 73.3914 211.842 73.3914 201.355V193.812L89.1473 187.37L104.903 193.812V201.355ZM87.1688 207.295L94.8677 199.716C95.566 199.029 96.7029 199.029 97.4012 199.716C98.0994 200.404 98.0994 201.523 97.4012 202.21L88.4311 211.031C87.7328 211.719 86.5959 211.719 85.8976 211.031L80.8933 206.105C80.1951 205.418 80.1951 204.299 80.8933 203.611C81.5916 202.924 82.7285 202.924 83.4268 203.611L87.1688 207.295Z" fill="#65F1FC"/>
<path d="M139.741 174.42H127.826V171.563H139.741C145.365 171.563 150.608 169.374 154.611 165.375L177.488 142.526C181.968 138.051 187.974 135.576 194.36 135.576C200.747 135.576 206.752 138.051 211.232 142.526L223.529 154.807C231.726 162.995 245.071 162.995 253.269 154.807C257.749 150.333 263.754 147.857 270.141 147.857C276.527 147.857 282.533 150.333 287.013 154.807L288.729 156.521C296.926 164.709 310.271 164.709 318.469 156.521L327.906 147.096L329.907 149.095L320.471 158.52C311.129 167.85 296.068 167.85 286.727 158.52L285.011 156.807C281.007 152.808 275.765 150.618 270.141 150.618C264.517 150.618 259.274 152.808 255.271 156.807C250.791 161.281 244.785 163.757 238.399 163.757C232.012 163.757 226.007 161.281 221.527 156.807L209.23 144.525C201.033 136.337 187.688 136.337 179.49 144.525L156.613 167.374C152.133 171.944 146.128 174.42 139.741 174.42Z" fill="#FF578F"/>
<path d="M193.122 143.478C189.5 143.478 186.64 140.527 186.64 137.004C186.64 133.386 189.595 130.53 193.122 130.53C196.744 130.53 199.604 133.481 199.604 137.004C199.699 140.622 196.744 143.478 193.122 143.478ZM193.122 131.482C190.072 131.482 187.593 133.957 187.593 137.004C187.593 140.051 190.072 142.526 193.122 142.526C196.172 142.526 198.651 140.051 198.651 137.004C198.746 133.957 196.172 131.482 193.122 131.482Z" fill="#FF578F"/>
<path d="M237.732 166.708C235.349 166.708 233.443 164.804 233.443 162.424C233.443 160.044 235.349 158.14 237.732 158.14C240.115 158.14 242.022 160.044 242.022 162.424C242.022 164.804 240.115 166.708 237.732 166.708ZM237.732 158.996C235.921 158.996 234.396 160.52 234.396 162.329C234.396 164.138 235.921 165.661 237.732 165.661C239.543 165.661 241.068 164.138 241.068 162.329C241.068 160.52 239.543 158.996 237.732 158.996Z" fill="#FF578F"/>
<path d="M301.978 170.04C298.642 170.04 295.973 167.375 295.973 164.042C295.973 160.71 298.642 158.044 301.978 158.044C305.315 158.044 307.984 160.71 307.984 164.042C307.888 167.279 305.219 170.04 301.978 170.04ZM301.978 158.996C299.214 158.996 296.926 161.281 296.926 164.042C296.926 166.803 299.214 169.088 301.978 169.088C304.743 169.088 307.03 166.803 307.03 164.042C306.935 161.281 304.743 158.996 301.978 158.996Z" fill="#FF578F"/>
<path d="M328.859 154.141C325.522 154.141 322.853 151.475 322.853 148.143C322.853 144.811 325.522 142.145 328.859 142.145C332.195 142.145 334.864 144.811 334.864 148.143C334.768 151.475 332.099 154.141 328.859 154.141ZM328.859 143.097C326.094 143.097 323.806 145.382 323.806 148.143C323.806 150.904 326.094 153.189 328.859 153.189C331.623 153.189 333.911 150.904 333.911 148.143C333.815 145.382 331.623 143.097 328.859 143.097Z" fill="#FF578F"/>
<path d="M328.858 151.57C330.753 151.57 332.29 150.036 332.29 148.143C332.29 146.25 330.753 144.716 328.858 144.716C326.963 144.716 325.427 146.25 325.427 148.143C325.427 150.036 326.963 151.57 328.858 151.57Z" fill="#FF578F"/>
<path d="M127.827 178.99C124.491 178.99 121.822 176.324 121.822 172.992C121.822 169.659 124.491 166.994 127.827 166.994C131.163 166.994 133.832 169.659 133.832 172.992C133.832 176.324 131.163 178.99 127.827 178.99ZM127.827 167.946C125.063 167.946 122.775 170.231 122.775 172.992C122.775 175.753 125.063 178.037 127.827 178.037C130.591 178.037 132.879 175.753 132.879 172.992C132.879 170.231 130.591 167.946 127.827 167.946Z" fill="#FF578F"/>
<path d="M124.395 172.991C124.395 171.087 125.92 169.564 127.827 169.564C129.733 169.564 131.258 171.087 131.258 172.991C131.258 174.895 129.733 176.419 127.827 176.419C125.92 176.514 124.395 174.895 124.395 172.991Z" fill="#FF578F"/>
<path d="M287.014 104.348H270.047C269.284 104.348 268.617 103.682 268.617 102.92C268.617 102.159 269.284 101.492 270.047 101.492H287.014C287.776 101.492 288.444 102.159 288.444 102.92C288.444 103.682 287.776 104.348 287.014 104.348Z" fill="#FF578F"/>
<path d="M302.552 104.348H296.07C295.308 104.348 294.64 103.682 294.64 102.92C294.64 102.159 295.308 101.492 296.07 101.492H302.552C303.315 101.492 303.982 102.159 303.982 102.92C303.982 103.682 303.315 104.348 302.552 104.348Z" fill="white"/>
<path d="M321.807 104.348H317.994C317.232 104.348 316.564 103.682 316.564 102.92C316.564 102.159 317.232 101.492 317.994 101.492H321.807C322.57 101.492 323.237 102.159 323.237 102.92C323.237 103.682 322.57 104.348 321.807 104.348Z" fill="white"/>
<path d="M317.993 112.631H298.262C297.499 112.631 296.832 111.965 296.832 111.203C296.832 110.442 297.499 109.775 298.262 109.775H317.993C318.756 109.775 319.423 110.442 319.423 111.203C319.423 111.965 318.756 112.631 317.993 112.631Z" fill="#55A2FF"/>
<path d="M178.155 180.418H167.384C166.621 180.418 165.954 179.751 165.954 178.99C165.954 178.228 166.621 177.562 167.384 177.562H178.155C178.918 177.562 179.585 178.228 179.585 178.99C179.585 179.751 178.918 180.418 178.155 180.418Z" fill="white"/>
<path d="M189.592 180.418H186.637C185.875 180.418 185.208 179.751 185.208 178.99C185.208 178.228 185.875 177.562 186.637 177.562H189.592C190.355 177.562 191.022 178.228 191.022 178.99C191.022 179.751 190.355 180.418 189.592 180.418Z" fill="#FF578F"/>
<path d="M268.043 180.418H255.175C254.412 180.418 253.745 179.751 253.745 178.99C253.745 178.228 254.412 177.562 255.175 177.562H268.043C268.806 177.562 269.473 178.228 269.473 178.99C269.473 179.751 268.901 180.418 268.043 180.418Z" fill="#55A2FF"/>
<path d="M280.054 180.418H276.241C275.479 180.418 274.812 179.751 274.812 178.99C274.812 178.228 275.479 177.562 276.241 177.562H280.054C280.817 177.562 281.484 178.228 281.484 178.99C281.484 179.751 280.817 180.418 280.054 180.418Z" fill="white"/>
<path d="M307.889 180.418H302.36C301.597 180.418 300.93 179.751 300.93 178.99C300.93 178.228 301.597 177.562 302.36 177.562H307.889C308.651 177.562 309.318 178.228 309.318 178.99C309.318 179.751 308.746 180.418 307.889 180.418Z" fill="#55A2FF"/>
<path d="M145.842 103.111H132.879C132.116 103.111 131.449 102.444 131.449 101.682C131.449 100.921 132.116 100.254 132.879 100.254H145.842C146.605 100.254 147.272 100.921 147.272 101.682C147.272 102.444 146.7 103.111 145.842 103.111Z" fill="white"/>
<path d="M157.853 103.111H152.991C152.229 103.111 151.562 102.444 151.562 101.682C151.562 100.921 152.229 100.254 152.991 100.254H157.853C158.615 100.254 159.283 100.921 159.283 101.682C159.283 102.444 158.615 103.111 157.853 103.111Z" fill="#FF578F"/>
<path d="M40.035 96.0654C31.6467 96.0654 24.7836 89.2106 24.7836 80.8325C24.7836 72.4544 31.6467 65.5996 40.035 65.5996C48.4233 65.5996 55.2865 72.4544 55.2865 80.8325C55.2865 89.3058 48.4233 96.0654 40.035 96.0654ZM40.035 66.6469C32.1233 66.6469 25.7368 73.0257 25.7368 80.9277C25.7368 88.8298 32.1233 95.2086 40.035 95.2086C47.9467 95.2086 54.3332 88.8298 54.3332 80.9277C54.3332 73.0257 47.8514 66.6469 40.035 66.6469Z" fill="white"/>
<path d="M47.6162 88.448C51.8226 84.2467 51.8226 77.435 47.6162 73.2337C43.4098 69.0324 36.5898 69.0324 32.3834 73.2337C28.1769 77.435 28.177 84.2467 32.3834 88.448C36.5898 92.6493 43.4098 92.6493 47.6162 88.448Z" fill="white"/>
<path d="M204.083 73.0254C196.552 73.0254 190.356 66.8371 190.356 59.3158C190.356 51.7946 196.552 45.6062 204.083 45.6062C211.613 45.6062 217.809 51.7946 217.809 59.3158C217.809 66.8371 211.613 73.0254 204.083 73.0254ZM204.083 48.4624C198.077 48.4624 193.216 53.3179 193.216 59.3158C193.216 65.3138 198.077 70.1693 204.083 70.1693C210.088 70.1693 214.949 65.3138 214.949 59.3158C214.949 53.3179 210.088 48.4624 204.083 48.4624Z" fill="#FFFDFE"/>
<path d="M96.6555 100.064C91.2222 100.064 86.8374 95.6846 86.8374 90.2579C86.8374 84.8311 91.2222 80.4517 96.6555 80.4517C102.089 80.4517 106.474 84.8311 106.474 90.2579C106.474 95.6846 102.089 100.064 96.6555 100.064ZM96.6555 83.3078C92.8427 83.3078 89.697 86.4496 89.697 90.2579C89.697 94.0661 92.8427 97.2079 96.6555 97.2079C100.468 97.2079 103.614 94.0661 103.614 90.2579C103.614 86.4496 100.564 83.3078 96.6555 83.3078Z" fill="#FFFDFE"/>
<path d="M294.639 248.299C286.632 248.299 280.15 241.825 280.15 233.828C280.15 225.831 286.632 219.357 294.639 219.357C302.646 219.357 309.128 225.831 309.128 233.828C309.223 241.73 302.646 248.299 294.639 248.299ZM294.639 222.118C288.157 222.118 283.01 227.354 283.01 233.733C283.01 240.207 288.253 245.348 294.639 245.348C301.121 245.348 306.269 240.112 306.269 233.733C306.364 227.354 301.121 222.118 294.639 222.118Z" fill="#FFFDFE"/>
<path d="M285.298 61.4106C282.438 61.4106 280.055 59.0305 280.055 56.1743C280.055 53.3181 282.438 50.938 285.298 50.938C288.158 50.938 290.541 53.3181 290.541 56.1743C290.445 59.1257 288.158 61.4106 285.298 61.4106ZM285.298 53.8894C283.963 53.8894 282.915 54.9366 282.915 56.2695C282.915 57.6024 283.963 58.6496 285.298 58.6496C286.632 58.6496 287.681 57.6024 287.681 56.2695C287.586 54.9366 286.537 53.8894 285.298 53.8894Z" fill="#FFFDFE"/>
<path d="M132.211 21.5193C127.445 21.5193 123.441 17.6159 123.441 12.7604C123.441 8.0001 127.35 4.00146 132.211 4.00146C136.977 4.00146 140.981 7.9049 140.981 12.7604C140.981 17.5207 137.072 21.5193 132.211 21.5193ZM132.211 6.85764C128.97 6.85764 126.301 9.52339 126.301 12.7604C126.301 15.9974 128.97 18.6631 132.211 18.6631C135.452 18.6631 138.121 15.9974 138.121 12.7604C138.121 9.52339 135.452 6.85764 132.211 6.85764Z" fill="#FFFDFE"/>
</svg>
