<svg width="910" height="440" fill="none" xmlns="http://www.w3.org/2000/svg"><rect x="283" y="379" width="177" height="60" rx="5" stroke="#fff" stroke-width="2"/><rect x="122" y="379" width="90" height="60" rx="5" stroke="#fff" stroke-width="2"/><path fill-rule="evenodd" clip-rule="evenodd" d="M684 257H529v4h155v-4zm146 4h80v-4h-80v4zM0 257h210v4H0v-4z" fill="#fff" fill-opacity=".15"/><rect x="211" y="217" width="317" height="87" rx="5" stroke="#fff" stroke-width="2"/><rect x="695" y="217" width="124" height="87" rx="5" stroke="#fff" stroke-width="2"/><path fill-rule="evenodd" clip-rule="evenodd" d="M694 239h-4a6 6 0 00-6 6v54a6 6 0 006 6h10a5.982 5.982 0 01-4.472-2H690a4 4 0 01-4-4v-54a4 4 0 014-4h4v-2zm124.472 64H824a4 4 0 004-4v-54a4 4 0 00-4-4h-4v-2h4a6 6 0 016 6v54a6 6 0 01-6 6h-10a5.982 5.982 0 004.472-2z" fill="#fff"/><path d="M732.027 263.704c0-.562-.199-.996-.597-1.301-.393-.304-1.105-.612-2.136-.923-1.031-.31-1.852-.656-2.461-1.037-1.166-.732-1.749-1.687-1.749-2.865 0-1.031.419-1.881 1.257-2.549.844-.668 1.936-1.002 3.278-1.002.891 0 1.685.164 2.382.493a3.899 3.899 0 011.644 1.406c.398.603.597 1.274.597 2.012h-2.215c0-.667-.211-1.189-.632-1.564-.416-.381-1.014-.571-1.793-.571-.727 0-1.292.155-1.697.466-.398.31-.597.744-.597 1.3 0 .469.216.862.65 1.178.434.311 1.148.615 2.145.914.996.293 1.795.63 2.399 1.011.603.375 1.046.808 1.327 1.301.281.486.422 1.057.422 1.714 0 1.066-.41 1.916-1.23 2.548-.815.627-1.922.941-3.323.941-.926 0-1.778-.17-2.557-.51-.774-.346-1.377-.82-1.811-1.424-.428-.603-.642-1.306-.642-2.109h2.224c0 .726.24 1.289.721 1.687.48.399 1.169.598 2.065.598.774 0 1.354-.155 1.74-.466.393-.316.589-.732.589-1.248zm8.157 3.472c-1.354 0-2.453-.425-3.296-1.275-.838-.855-1.257-1.992-1.257-3.41v-.263c0-.95.181-1.796.545-2.54.369-.75.885-1.334 1.547-1.75a4.077 4.077 0 012.215-.624c1.294 0 2.293.414 2.997 1.24.709.826 1.063 1.995 1.063 3.507v.861h-6.214c.065.785.325 1.406.782 1.863.463.457 1.043.686 1.741.686.978 0 1.775-.396 2.39-1.187l1.152 1.099a3.871 3.871 0 01-1.53 1.327c-.632.311-1.344.466-2.135.466zm-.255-8.148c-.586 0-1.061.205-1.424.616-.358.41-.586.981-.686 1.713h4.07v-.158c-.047-.715-.238-1.254-.572-1.617-.334-.369-.796-.554-1.388-.554zm10.714.413a5.399 5.399 0 00-.871-.07c-.978 0-1.637.375-1.977 1.125V267h-2.136v-9.51h2.039l.053 1.064c.516-.826 1.23-1.24 2.145-1.24.304 0 .556.041.755.124l-.008 2.003zm4.86 4.852l2.013-6.803h2.206l-3.296 9.51h-1.855l-3.322-9.51h2.215l2.039 6.803zm7.831 2.707h-2.136v-9.51h2.136V267zm-2.268-11.979c0-.329.103-.601.308-.818.211-.217.51-.325.897-.325.386 0 .685.108.896.325.211.217.316.489.316.818 0 .322-.105.591-.316.808-.211.211-.51.317-.896.317-.387 0-.686-.106-.897-.317a1.131 1.131 0 01-.308-.808zm8.508 10.45c.533 0 .976-.156 1.327-.466.352-.311.539-.694.563-1.151h2.013a3.166 3.166 0 01-.554 1.661 3.661 3.661 0 01-1.406 1.213 4.203 4.203 0 01-1.916.448c-1.33 0-2.385-.431-3.164-1.292-.78-.862-1.169-2.051-1.169-3.569v-.219c0-1.448.386-2.605 1.16-3.472.773-.873 1.828-1.31 3.164-1.31 1.131 0 2.051.332 2.76.994.714.656 1.089 1.52 1.125 2.592h-2.013c-.024-.545-.211-.993-.563-1.344-.345-.352-.788-.528-1.327-.528-.691 0-1.224.252-1.599.756-.375.498-.566 1.257-.572 2.277v.342c0 1.032.185 1.802.554 2.312.375.504.914.756 1.617.756zm9.703 1.705c-1.353 0-2.452-.425-3.296-1.275-.837-.855-1.256-1.992-1.256-3.41v-.263c0-.95.181-1.796.545-2.54.369-.75.884-1.334 1.546-1.75a4.082 4.082 0 012.215-.624c1.295 0 2.294.414 2.997 1.24.709.826 1.064 1.995 1.064 3.507v.861h-6.214c.064.785.325 1.406.782 1.863.463.457 1.043.686 1.74.686.979 0 1.776-.396 2.391-1.187l1.151 1.099a3.861 3.861 0 01-1.529 1.327c-.633.311-1.345.466-2.136.466zm-.255-8.148c-.585 0-1.06.205-1.423.616-.358.41-.586.981-.686 1.713h4.069v-.158c-.046-.715-.237-1.254-.571-1.617-.334-.369-.797-.554-1.389-.554zm11.066 5.388a.965.965 0 00-.475-.87c-.31-.199-.829-.375-1.555-.527-.727-.153-1.333-.346-1.82-.581-1.066-.515-1.599-1.262-1.599-2.241 0-.82.345-1.506 1.037-2.056.691-.551 1.57-.827 2.636-.827 1.137 0 2.054.282 2.751.844.704.563 1.055 1.292 1.055 2.189h-2.136c0-.41-.152-.75-.457-1.02-.304-.275-.709-.413-1.213-.413-.468 0-.852.108-1.151.325a1.028 1.028 0 00-.439.87c0 .329.137.583.413.765.275.182.832.366 1.67.554.838.181 1.494.401 1.968.659.481.252.835.557 1.064.914.234.357.351.791.351 1.301 0 .855-.354 1.55-1.063 2.083-.709.527-1.638.791-2.786.791-.779 0-1.474-.141-2.083-.422-.61-.281-1.084-.668-1.424-1.16a2.746 2.746 0 01-.51-1.591h2.074c.03.504.22.893.572 1.169.351.269.817.404 1.397.404.563 0 .99-.105 1.283-.316.293-.217.44-.498.44-.844zM1.326 281v-8.531h2.79c.925 0 1.62.191 2.085.574.469.383.703.949.703 1.699 0 .399-.113.752-.34 1.061a2.219 2.219 0 01-.925.709c.46.129.824.375 1.09.738.269.359.404.789.404 1.289 0 .766-.248 1.367-.744 1.805-.496.437-1.198.656-2.104.656H1.326zm1.125-3.99v3.07H4.31c.523 0 .935-.135 1.236-.404.305-.274.457-.649.457-1.125 0-1.028-.559-1.541-1.676-1.541H2.451zm0-.903h1.7c.492 0 .884-.123 1.177-.369.297-.246.445-.58.445-1.002 0-.468-.136-.808-.41-1.019-.273-.215-.69-.322-1.248-.322H2.451v2.712zm12.358-3.638v5.801c-.004.804-.258 1.462-.762 1.974-.5.512-1.18.799-2.04.861l-.298.012c-.934 0-1.678-.252-2.232-.756-.555-.504-.836-1.197-.844-2.08v-5.812h1.113v5.777c0 .617.17 1.098.51 1.442.34.339.824.509 1.453.509.637 0 1.123-.17 1.459-.509.34-.34.51-.819.51-1.436v-5.783h1.13zM17.79 281h-1.125v-8.531h1.125V281zm3.193-.92h4.043v.92h-5.174v-8.531h1.131v7.611zm5.326.92v-8.531h2.409c.742 0 1.398.164 1.968.492.57.328 1.01.795 1.319 1.4.312.606.47 1.301.474 2.086v.545c0 .805-.156 1.51-.468 2.115a3.25 3.25 0 01-1.33 1.395c-.575.324-1.244.49-2.01.498H26.31zm1.126-7.605v6.685h1.183c.867 0 1.541-.269 2.022-.809.484-.539.726-1.306.726-2.302v-.498c0-.969-.228-1.721-.685-2.256-.453-.539-1.098-.813-1.934-.82h-1.313zm15.386 0H40.08V281h-1.12v-7.605h-2.735v-.926h6.597v.926zM45.295 281H44.17v-8.531h1.125V281zm3.515-8.531l2.79 6.961 2.789-6.961h1.459V281h-1.125v-3.322l.105-3.586-2.8 6.908h-.862l-2.795-6.891.111 3.569V281h-1.125v-8.531h1.453zm13.846 4.588H58.96v3.023h4.295v.92h-5.42v-8.531h5.361v.926H58.96v2.742h3.697v.92zM4.326 240.549H2.322V244h-1.13v-8.531h2.824c.96 0 1.699.219 2.214.656.52.437.78 1.074.78 1.91 0 .531-.145.994-.434 1.389-.285.394-.683.689-1.195.885l2.004 3.621v.07H6.178l-1.852-3.451zm-2.004-.92h1.729c.558 0 1.002-.145 1.33-.434.332-.289.498-.675.498-1.16 0-.527-.158-.931-.475-1.213-.312-.281-.765-.424-1.36-.427H2.323v3.234zm11.092.428H9.717v3.023h4.295v.92h-5.42v-8.531h5.361v.926H9.717v2.742h3.697v.92zm8.514-.047c0 .824-.131 1.535-.393 2.133-.262.593-.629 1.058-1.101 1.394l1.523 1.195-.768.709-1.798-1.429c-.282.07-.578.105-.891.105-.672 0-1.268-.164-1.787-.492-.52-.332-.924-.803-1.213-1.412-.285-.613-.432-1.322-.44-2.127v-.615c0-.821.143-1.545.428-2.174.285-.629.688-1.109 1.207-1.442.524-.335 1.121-.503 1.793-.503.688 0 1.291.166 1.81.498.524.332.927.81 1.208 1.435.281.621.422 1.348.422 2.18v.545zm-1.125-.551c0-1.004-.201-1.777-.604-2.32-.398-.547-.969-.821-1.71-.821-.708 0-1.266.272-1.677.815-.406.539-.615 1.289-.627 2.25v.627c0 .976.204 1.746.61 2.308.41.563.978.844 1.705.844.727 0 1.29-.264 1.688-.791.398-.531.603-1.291.615-2.279v-.633zm8.865-3.99v5.801c-.004.804-.258 1.462-.762 1.974-.5.512-1.18.799-2.039.861l-.299.012c-.933 0-1.677-.252-2.232-.756-.555-.504-.836-1.197-.844-2.08v-5.812h1.113v5.777c0 .617.17 1.098.51 1.442.34.339.825.509 1.453.509.637 0 1.123-.17 1.46-.509.34-.34.51-.819.51-1.436v-5.783h1.13zm6.598 4.588h-3.698v3.023h4.295v.92h-5.42v-8.531h5.362v.926h-4.237v2.742h3.698v.92zm4.511.14c-.965-.277-1.668-.617-2.109-1.019a1.969 1.969 0 01-.656-1.5c0-.672.267-1.227.803-1.664.538-.442 1.238-.662 2.097-.662.586 0 1.108.113 1.565.339.46.227.816.539 1.066.938.254.398.38.834.38 1.307h-1.13c0-.516-.164-.92-.492-1.213-.328-.297-.791-.446-1.389-.446-.555 0-.988.123-1.3.369-.31.243-.464.581-.464 1.014 0 .348.147.643.44.885.297.238.799.457 1.506.656.71.199 1.265.42 1.664.662.402.239.699.518.89.838.196.32.293.697.293 1.131 0 .691-.27 1.246-.808 1.664-.54.414-1.26.621-2.162.621a4.034 4.034 0 01-1.64-.334c-.509-.226-.901-.535-1.179-.926a2.262 2.262 0 01-.41-1.33h1.131c0 .516.19.924.568 1.225.383.297.893.445 1.53.445.594 0 1.049-.121 1.365-.363.316-.242.474-.572.474-.99 0-.418-.146-.74-.439-.967-.293-.231-.824-.457-1.594-.68zm10.506-3.802h-2.742V244h-1.12v-7.605h-2.736v-.926h6.598v.926zm9.668 0H58.21V244h-1.12v-7.605h-2.736v-.926h6.598v.926zM63.424 244h-1.125v-8.531h1.125V244zm3.515-8.531l2.79 6.961 2.789-6.961h1.459V244h-1.125v-3.322l.105-3.586-2.8 6.908h-.862l-2.795-6.891.111 3.569V244h-1.125v-8.531h1.453zm13.846 4.588h-3.697v3.023h4.295v.92h-5.42v-8.531h5.361v.926h-4.236v2.742h3.697v.92zM349.873 267h-2.215v-5.687h-5.721V267h-2.224v-12.797h2.224v5.326h5.721v-5.326h2.215V267zm2.03-4.843c0-.931.185-1.769.554-2.513.369-.75.888-1.325 1.556-1.723.668-.404 1.435-.607 2.302-.607 1.284 0 2.324.414 3.121 1.24.802.826 1.236 1.922 1.3 3.287l.009.501c0 .937-.182 1.775-.545 2.513a3.95 3.95 0 01-1.547 1.714c-.668.405-1.441.607-2.32.607-1.342 0-2.417-.446-3.226-1.336-.802-.897-1.204-2.089-1.204-3.577v-.106zm2.136.185c0 .978.202 1.746.607 2.303.404.55.966.826 1.687.826.721 0 1.28-.282 1.679-.844.404-.563.606-1.386.606-2.47 0-.961-.208-1.722-.624-2.285-.41-.562-.97-.844-1.679-.844-.697 0-1.251.279-1.661.835-.41.551-.615 1.377-.615 2.479zm13.843 2.074a.965.965 0 00-.475-.87c-.31-.199-.829-.375-1.555-.527-.727-.153-1.333-.346-1.82-.581-1.066-.515-1.599-1.262-1.599-2.241 0-.82.345-1.506 1.037-2.056.691-.551 1.57-.827 2.636-.827 1.137 0 2.054.282 2.751.844.704.563 1.055 1.292 1.055 2.189h-2.136c0-.41-.152-.75-.457-1.02-.304-.275-.709-.413-1.213-.413-.468 0-.852.108-1.151.325a1.028 1.028 0 00-.439.87c0 .329.137.583.413.765.275.182.832.366 1.67.554.838.181 1.494.401 1.968.659.481.252.835.557 1.064.914.234.357.351.791.351 1.301 0 .855-.354 1.55-1.063 2.083-.709.527-1.638.791-2.786.791-.779 0-1.474-.141-2.083-.422-.61-.281-1.084-.668-1.424-1.16a2.746 2.746 0 01-.51-1.591h2.074c.03.504.22.893.572 1.169.351.269.817.404 1.397.404.563 0 .99-.105 1.283-.316.293-.217.44-.498.44-.844zm6.644-9.237v2.311h1.679v1.582h-1.679v5.309c0 .363.071.627.211.791.147.158.405.237.774.237.246 0 .495-.029.747-.088v1.653a5.294 5.294 0 01-1.406.202c-1.641 0-2.461-.905-2.461-2.716v-5.388h-1.565v-1.582h1.565v-2.311h2.135zm5.59 11.821h-2.136v-9.51h2.136V267zm-2.267-11.979c0-.329.102-.601.307-.818.211-.217.51-.325.897-.325.386 0 .685.108.896.325.211.217.317.489.317.818 0 .322-.106.591-.317.808-.211.211-.51.317-.896.317-.387 0-.686-.106-.897-.317a1.13 1.13 0 01-.307-.808zm6.583 2.469l.061 1.099c.703-.85 1.626-1.275 2.769-1.275 1.98 0 2.988 1.134 3.023 3.402V267h-2.136v-6.161c0-.604-.131-1.049-.395-1.336-.258-.293-.683-.44-1.275-.44-.861 0-1.502.39-1.924 1.169V267h-2.136v-9.51h2.013zm7.664 4.685c0-1.477.345-2.654 1.037-3.533.697-.885 1.62-1.328 2.768-1.328 1.084 0 1.937.378 2.558 1.134l.097-.958h1.924v9.22c0 1.248-.389 2.232-1.168 2.953-.774.721-1.82 1.081-3.138 1.081-.697 0-1.38-.146-2.048-.439-.662-.287-1.166-.665-1.512-1.134l1.011-1.283c.656.779 1.465 1.169 2.426 1.169.709 0 1.268-.194 1.678-.58.411-.381.616-.944.616-1.688v-.642c-.616.686-1.436 1.029-2.461 1.029-1.113 0-2.025-.443-2.734-1.327-.703-.885-1.054-2.11-1.054-3.674zm2.127.184c0 .955.193 1.708.58 2.259.392.545.934.818 1.626.818.861 0 1.5-.37 1.916-1.108v-4.183c-.405-.721-1.037-1.082-1.899-1.082-.703 0-1.251.279-1.643.835-.387.557-.58 1.377-.58 2.461zM317.65 415v-12.797h4.386c1.447 0 2.549.29 3.305.87.756.58 1.134 1.445 1.134 2.593 0 .586-.159 1.113-.475 1.582-.316.469-.779.832-1.389 1.09.692.187 1.225.542 1.6 1.063.381.516.571 1.137.571 1.864 0 1.201-.386 2.124-1.16 2.768-.768.645-1.869.967-3.305.967h-4.667zm2.224-5.774v3.999h2.47c.697 0 1.242-.173 1.635-.519.392-.346.588-.826.588-1.441 0-1.33-.679-2.01-2.039-2.039h-2.654zm0-1.635h2.18c.691 0 1.23-.155 1.617-.466.392-.316.589-.762.589-1.336 0-.633-.182-1.09-.545-1.371-.358-.281-.917-.422-1.679-.422h-2.162v3.595zm14.687 6.477c-.627.739-1.518 1.108-2.672 1.108-1.032 0-1.814-.302-2.347-.905-.527-.604-.791-1.477-.791-2.62v-6.161h2.136v6.135c0 1.207.501 1.811 1.503 1.811 1.037 0 1.737-.373 2.1-1.117v-6.829h2.136V415h-2.013l-.052-.932zm6.512.932h-2.135v-9.51h2.135V415zm-2.267-11.979c0-.329.102-.601.307-.818.211-.217.51-.325.897-.325.386 0 .685.108.896.325.211.217.317.489.317.818 0 .322-.106.591-.317.808-.211.211-.51.317-.896.317-.387 0-.686-.106-.897-.317a1.13 1.13 0 01-.307-.808zM345.679 415h-2.136v-13.5h2.136V415zm1.933-4.825c0-1.465.34-2.64 1.02-3.525.68-.89 1.591-1.336 2.733-1.336 1.008 0 1.823.352 2.444 1.055V401.5h2.135V415h-1.933l-.106-.984c-.638.773-1.491 1.16-2.557 1.16-1.114 0-2.016-.448-2.707-1.345-.686-.896-1.029-2.115-1.029-3.656zm2.136.184c0 .967.185 1.723.554 2.268.375.539.905.809 1.591.809.873 0 1.511-.39 1.916-1.169v-4.061c-.393-.762-1.026-1.143-1.899-1.143-.691 0-1.224.276-1.599.827-.375.545-.563 1.368-.563 2.469zm21.234-.017c0 1.47-.334 2.645-1.002 3.524-.668.873-1.564 1.31-2.689 1.31-1.043 0-1.878-.343-2.505-1.029v4.509h-2.136V405.49h1.969l.088.967c.627-.762 1.48-1.143 2.558-1.143 1.16 0 2.068.434 2.724 1.301.662.862.993 2.06.993 3.595v.132zm-2.127-.185c0-.949-.19-1.702-.571-2.259-.375-.556-.914-.835-1.617-.835-.873 0-1.5.361-1.881 1.082v4.218c.387.739 1.02 1.108 1.899 1.108.679 0 1.21-.273 1.59-.818.387-.55.58-1.382.58-2.496zm8.921-2.716a5.377 5.377 0 00-.87-.07c-.978 0-1.637.375-1.977 1.125V415h-2.136v-9.51h2.039l.053 1.064c.515-.826 1.23-1.24 2.144-1.24.305 0 .557.041.756.124l-.009 2.003zm.633 2.716c0-.931.185-1.769.554-2.513.369-.75.888-1.325 1.556-1.723.668-.404 1.435-.607 2.302-.607 1.283 0 2.324.414 3.12 1.24.803.826 1.237 1.922 1.301 3.287l.009.501c0 .937-.182 1.775-.545 2.513a3.95 3.95 0 01-1.547 1.714c-.668.405-1.441.607-2.32.607-1.342 0-2.417-.446-3.226-1.336-.802-.897-1.204-2.089-1.204-3.577v-.106zm2.136.185c0 .978.202 1.746.606 2.303.405.55.967.826 1.688.826s1.28-.282 1.679-.844c.404-.563.606-1.386.606-2.47 0-.961-.208-1.722-.624-2.285-.41-.562-.97-.844-1.679-.844-.697 0-1.251.279-1.661.835-.41.551-.615 1.377-.615 2.479zm12.419 3.129c.533 0 .975-.156 1.327-.466.352-.311.539-.694.563-1.151h2.012a3.157 3.157 0 01-.554 1.661 3.647 3.647 0 01-1.406 1.213 4.2 4.2 0 01-1.916.448c-1.33 0-2.385-.431-3.164-1.292-.779-.862-1.169-2.051-1.169-3.569v-.219c0-1.448.387-2.605 1.16-3.472.774-.873 1.829-1.31 3.164-1.31 1.131 0 2.051.332 2.76.994.715.656 1.09 1.52 1.125 2.592h-2.012c-.024-.545-.211-.993-.563-1.344-.346-.352-.788-.528-1.327-.528-.692 0-1.225.252-1.6.756-.375.498-.565 1.257-.571 2.277v.342c0 1.032.185 1.802.554 2.312.375.504.914.756 1.617.756zm9.703 1.705c-1.354 0-2.452-.425-3.296-1.275-.838-.855-1.257-1.992-1.257-3.41v-.263c0-.95.182-1.796.545-2.54.369-.75.885-1.334 1.547-1.75a4.077 4.077 0 012.215-.624c1.295 0 2.294.414 2.997 1.24.709.826 1.063 1.995 1.063 3.507v.861h-6.213c.064.785.325 1.406.782 1.863.463.457 1.043.686 1.74.686.979 0 1.775-.396 2.391-1.187l1.151 1.099a3.875 3.875 0 01-1.529 1.327c-.633.311-1.345.466-2.136.466zm-.255-8.148c-.586 0-1.06.205-1.424.616-.357.41-.586.981-.685 1.713h4.069v-.158c-.047-.715-.237-1.254-.571-1.617-.334-.369-.797-.554-1.389-.554zm11.066 5.388a.967.967 0 00-.475-.87c-.311-.199-.829-.375-1.556-.527-.726-.153-1.333-.346-1.819-.581-1.066-.515-1.6-1.262-1.6-2.241 0-.82.346-1.506 1.037-2.056.692-.551 1.571-.827 2.637-.827 1.137 0 2.054.282 2.751.844.703.563 1.055 1.292 1.055 2.189h-2.136c0-.41-.152-.75-.457-1.02-.305-.275-.709-.413-1.213-.413-.469 0-.852.108-1.151.325a1.03 1.03 0 00-.44.87c0 .329.138.583.413.765.276.182.832.366 1.67.554.838.181 1.494.401 1.969.659.481.252.835.557 1.064.914.234.357.351.791.351 1.301 0 .855-.354 1.55-1.063 2.083-.709.527-1.638.791-2.786.791-.78 0-1.474-.141-2.083-.422-.61-.281-1.084-.668-1.424-1.16a2.746 2.746 0 01-.51-1.591h2.074c.029.504.22.893.571 1.169.352.269.818.404 1.398.404.562 0 .99-.105 1.283-.316.293-.217.44-.498.44-.844zm9.298 0a.966.966 0 00-.474-.87c-.311-.199-.829-.375-1.556-.527-.726-.153-1.333-.346-1.819-.581-1.067-.515-1.6-1.262-1.6-2.241 0-.82.346-1.506 1.037-2.056.692-.551 1.571-.827 2.637-.827 1.137 0 2.054.282 2.751.844.703.563 1.055 1.292 1.055 2.189h-2.136c0-.41-.152-.75-.457-1.02-.305-.275-.709-.413-1.213-.413-.469 0-.853.108-1.151.325a1.03 1.03 0 00-.44.87c0 .329.138.583.413.765.276.182.832.366 1.67.554.838.181 1.494.401 1.969.659.48.252.835.557 1.063.914.235.357.352.791.352 1.301 0 .855-.355 1.55-1.064 2.083-.709.527-1.637.791-2.786.791-.779 0-1.473-.141-2.083-.422-.609-.281-1.084-.668-1.423-1.16a2.746 2.746 0 01-.51-1.591h2.074c.029.504.22.893.571 1.169.352.269.818.404 1.398.404.562 0 .99-.105 1.283-.316.293-.217.439-.498.439-.844zM147.69 412.021h-4.957L141.696 415h-2.311l4.834-12.797h1.995L151.057 415h-2.321l-1.046-2.979zm-4.333-1.793h3.709l-1.854-5.309-1.855 5.309zm14.283 2.188a.967.967 0 00-.475-.87c-.311-.199-.829-.375-1.556-.527-.726-.153-1.333-.346-1.819-.581-1.066-.515-1.6-1.262-1.6-2.241 0-.82.346-1.506 1.038-2.056.691-.551 1.57-.827 2.636-.827 1.137 0 2.054.282 2.751.844.703.563 1.055 1.292 1.055 2.189h-2.136c0-.41-.152-.75-.457-1.02-.305-.275-.709-.413-1.213-.413-.468 0-.852.108-1.151.325a1.03 1.03 0 00-.44.87c0 .329.138.583.414.765.275.182.832.366 1.669.554.838.181 1.495.401 1.969.659.481.252.835.557 1.064.914.234.357.351.791.351 1.301 0 .855-.354 1.55-1.063 2.083-.709.527-1.638.791-2.786.791-.78 0-1.474-.141-2.083-.422-.61-.281-1.084-.668-1.424-1.16a2.746 2.746 0 01-.51-1.591h2.074c.03.504.22.893.572 1.169.351.269.817.404 1.397.404.562 0 .99-.105 1.283-.316.293-.217.44-.498.44-.844zm9.298 0a.966.966 0 00-.474-.87c-.311-.199-.829-.375-1.556-.527-.726-.153-1.333-.346-1.819-.581-1.067-.515-1.6-1.262-1.6-2.241 0-.82.346-1.506 1.037-2.056.692-.551 1.571-.827 2.637-.827 1.137 0 2.054.282 2.751.844.703.563 1.055 1.292 1.055 2.189h-2.136c0-.41-.152-.75-.457-1.02-.305-.275-.709-.413-1.213-.413-.469 0-.852.108-1.151.325a1.03 1.03 0 00-.44.87c0 .329.138.583.413.765.276.182.832.366 1.67.554.838.181 1.494.401 1.969.659.48.252.835.557 1.064.914.234.357.351.791.351 1.301 0 .855-.354 1.55-1.063 2.083-.709.527-1.638.791-2.787.791-.779 0-1.473-.141-2.083-.422-.609-.281-1.084-.668-1.423-1.16a2.746 2.746 0 01-.51-1.591h2.074c.029.504.22.893.571 1.169.352.269.818.404 1.398.404.562 0 .99-.105 1.283-.316.293-.217.439-.498.439-.844zm8.157 2.76c-1.354 0-2.452-.425-3.296-1.275-.838-.855-1.257-1.992-1.257-3.41v-.263c0-.95.182-1.796.545-2.54.369-.75.885-1.334 1.547-1.75a4.077 4.077 0 012.215-.624c1.295 0 2.294.414 2.997 1.24.709.826 1.063 1.995 1.063 3.507v.861h-6.214c.065.785.326 1.406.783 1.863.462.457 1.043.686 1.74.686.978 0 1.775-.396 2.39-1.187l1.152 1.099a3.871 3.871 0 01-1.53 1.327c-.632.311-1.344.466-2.135.466zm-.255-8.148c-.586 0-1.061.205-1.424.616-.357.41-.586.981-.686 1.713h4.07v-.158c-.047-.715-.238-1.254-.571-1.617-.334-.369-.797-.554-1.389-.554zm8.411-3.849v2.311h1.679v1.582h-1.679v5.309c0 .363.07.627.211.791.146.158.404.237.773.237.246 0 .495-.029.747-.088v1.653a5.288 5.288 0 01-1.406.202c-1.64 0-2.461-.905-2.461-2.716v-5.388h-1.564v-1.582h1.564v-2.311h2.136zm8.648 9.237a.966.966 0 00-.474-.87c-.311-.199-.829-.375-1.556-.527-.726-.153-1.333-.346-1.819-.581-1.067-.515-1.6-1.262-1.6-2.241 0-.82.346-1.506 1.037-2.056.692-.551 1.571-.827 2.637-.827 1.137 0 2.054.282 2.751.844.703.563 1.055 1.292 1.055 2.189h-2.136c0-.41-.152-.75-.457-1.02-.305-.275-.709-.413-1.213-.413-.469 0-.853.108-1.151.325a1.03 1.03 0 00-.44.87c0 .329.138.583.413.765.276.182.832.366 1.67.554.838.181 1.494.401 1.969.659.48.252.835.557 1.063.914.235.357.352.791.352 1.301 0 .855-.354 1.55-1.063 2.083-.709.527-1.638.791-2.787.791-.779 0-1.473-.141-2.083-.422-.609-.281-1.084-.668-1.423-1.16a2.746 2.746 0 01-.51-1.591h2.074c.029.504.22.893.571 1.169.352.269.818.404 1.398.404.562 0 .99-.105 1.283-.316.293-.217.439-.498.439-.844zM356.993 4.203v8.552c0 1.36-.436 2.437-1.309 3.234-.868.791-2.025 1.187-3.472 1.187-1.465 0-2.628-.39-3.489-1.17-.862-.784-1.292-1.871-1.292-3.26V4.203h2.215v8.56c0 .856.216 1.51.65 1.96.433.452 1.072.677 1.916.677 1.711 0 2.566-.902 2.566-2.707v-8.49h2.215zm7.506 10.213c0-.38-.158-.67-.475-.87-.31-.2-.829-.375-1.555-.527-.727-.153-1.333-.346-1.82-.58-1.066-.516-1.599-1.263-1.599-2.242 0-.82.346-1.506 1.037-2.056.691-.551 1.57-.827 2.637-.827 1.136 0 2.053.282 2.751.844.703.563 1.054 1.292 1.054 2.189h-2.135c0-.41-.153-.75-.457-1.02-.305-.275-.709-.413-1.213-.413-.469 0-.853.108-1.152.325a1.028 1.028 0 00-.439.87c0 .329.138.583.413.765.275.182.832.366 1.67.554.838.181 1.494.401 1.969.659.48.252.835.557 1.063.914.234.357.352.791.352 1.3 0 .856-.355 1.55-1.064 2.084-.709.527-1.638.79-2.786.79-.779 0-1.474-.14-2.083-.421-.609-.281-1.084-.668-1.424-1.16a2.745 2.745 0 01-.51-1.591h2.075c.029.504.219.893.571 1.169.351.27.817.404 1.397.404.563 0 .991-.105 1.284-.316.293-.217.439-.498.439-.844zm8.156 2.76c-1.353 0-2.452-.425-3.296-1.275-.838-.855-1.256-1.992-1.256-3.41v-.264c0-.949.181-1.795.544-2.54.37-.75.885-1.333 1.547-1.749a4.08 4.08 0 012.215-.624c1.295 0 2.294.414 2.997 1.24.709.826 1.064 1.995 1.064 3.506v.862h-6.214c.064.785.325 1.406.782 1.863.463.457 1.043.686 1.74.686.979 0 1.776-.396 2.391-1.187l1.151 1.099a3.869 3.869 0 01-1.529 1.327c-.633.31-1.345.466-2.136.466zm-.255-8.148c-.586 0-1.06.205-1.423.616-.358.41-.586.981-.686 1.713h4.069V11.2c-.047-.715-.237-1.254-.571-1.617-.334-.37-.797-.554-1.389-.554zm10.714.413a5.28 5.28 0 00-.87-.07c-.978 0-1.638.375-1.977 1.125V17h-2.136V7.49h2.039l.053 1.064c.515-.826 1.23-1.24 2.144-1.24.305 0 .557.041.756.123l-.009 2.004zm6.68 4.975c0-.38-.158-.67-.475-.87-.31-.2-.829-.375-1.555-.527-.727-.153-1.333-.346-1.82-.58-1.066-.516-1.599-1.263-1.599-2.242 0-.82.345-1.506 1.037-2.056.691-.551 1.57-.827 2.637-.827 1.136 0 2.053.282 2.751.844.703.563 1.054 1.292 1.054 2.189h-2.136c0-.41-.152-.75-.457-1.02-.304-.275-.709-.413-1.212-.413-.469 0-.853.108-1.152.325a1.028 1.028 0 00-.439.87c0 .329.137.583.413.765.275.182.832.366 1.67.554.838.181 1.494.401 1.968.659.481.252.835.557 1.064.914.234.357.352.791.352 1.3 0 .856-.355 1.55-1.064 2.084-.709.527-1.638.79-2.786.79-.779 0-1.474-.14-2.083-.421-.609-.281-1.084-.668-1.424-1.16a2.745 2.745 0 01-.51-1.591h2.075c.029.504.219.893.571 1.169.351.27.817.404 1.397.404.563 0 .991-.105 1.283-.316.293-.217.44-.498.44-.844z" fill="#fff"/><path d="M372.707 317.293a.999.999 0 00-1.414 0l-6.364 6.364a.999.999 0 101.414 1.414l5.657-5.657 5.657 5.657a.999.999 0 101.414-1.414l-6.364-6.364zM373 368v-50h-2v50h2zM370.707 156.293a.999.999 0 00-1.414 0l-6.364 6.364a.999.999 0 101.414 1.414l5.657-5.657 5.657 5.657a.999.999 0 101.414-1.414l-6.364-6.364zM371 207v-50h-2v50h2zM267.707 407.707a.999.999 0 000-1.414l-6.364-6.364a.999.999 0 10-1.414 1.414l5.657 5.657-5.657 5.657a.999.999 0 101.414 1.414l6.364-6.364zM228 408h39v-2h-39v2zM478.293 406.293a.999.999 0 000 1.414l6.364 6.364a.999.999 0 101.414-1.414L480.414 407l5.657-5.657a.999.999 0 10-1.414-1.414l-6.364 6.364zM759 406H479v2h280v-2z" fill="#F0047F"/><path stroke="#F0047F" stroke-width="2" d="M758 316v91"/><path d="M442.293 115.293a.999.999 0 000 1.414l6.364 6.364a.999.999 0 101.414-1.414L444.414 116l5.657-5.657a.999.999 0 10-1.414-1.414l-6.364 6.364zM759 115H443v2h316v-2z" fill="#F0047F"/><path stroke="#F0047F" stroke-width="2" d="M758 207v-91"/><rect x="396" y="88" width="26" height="43" rx="5" stroke="#fff" stroke-width="2"/><path fill-rule="evenodd" clip-rule="evenodd" d="M325 67h75a4 4 0 014 4v18h2V71a6 6 0 00-6-6h-75a6 6 0 00-6 6v55a6 6 0 006 6h75a5.982 5.982 0 01-4.472-2H325a4 4 0 01-4-4V71a4 4 0 014-4z" fill="#fff"/><mask id="a" fill="#fff"><path fill-rule="evenodd" clip-rule="evenodd" d="M346 40a6 6 0 016-6h55a6 6 0 016 6v49h-9V73a6 6 0 00-6-6h-52V40z"/></mask><path d="M413 89v2h2v-2h-2zm-9 0h-2v2h2v-2zm-58-22h-2v2h2v-2zm6-35a8 8 0 00-8 8h4a4 4 0 014-4v-4zm55 0h-55v4h55v-4zm8 8a8 8 0 00-8-8v4a4 4 0 014 4h4zm0 49V40h-4v49h4zm-11 2h9v-4h-9v4zm-2-18v16h4V73h-4zm-4-4a4 4 0 014 4h4a8 8 0 00-8-8v4zm-52 0h52v-4h-52v4zm-2-29v27h4V40h-4z" fill="#fff" mask="url(#a)"/></svg>