<svg width="51" height="50" viewBox="0 0 51 50" fill="none" xmlns="http://www.w3.org/2000/svg">
<circle cx="25.5049" cy="24.9534" r="24.9307" fill="#D81467"/>
<path fill-rule="evenodd" clip-rule="evenodd" d="M34.8392 37.4536C37.0484 37.4536 38.8392 35.6628 38.8392 33.4536V17.4536C38.8392 15.2445 37.0484 13.4536 34.8392 13.4536H25.5059H20.1725L16.1725 13.4536C13.9634 13.4536 12.1725 15.2445 12.1725 17.4536V20.7869V25.4536V33.4536C12.1725 35.6627 13.9634 37.4536 16.1725 37.4536L34.8392 37.4536ZM34.8392 16.1203C35.5756 16.1203 36.1725 16.7172 36.1725 17.4536V18.7869H14.8392V17.4536C14.8392 16.7172 15.4362 16.1203 16.1725 16.1203L20.1725 16.1203L25.5059 16.1203L34.8392 16.1203ZM36.1725 21.4536H14.8392L14.8392 25.4536L14.8392 33.4536C14.8392 34.19 15.4362 34.7869 16.1725 34.7869H34.8392C35.5756 34.7869 36.1725 34.19 36.1725 33.4536V21.4536ZM19.2297 24.5108C18.709 25.0315 18.709 25.8757 19.2297 26.3964L20.9536 28.1203L19.2297 29.8441C18.709 30.3648 18.709 31.2091 19.2297 31.7298C19.7504 32.2505 20.5947 32.2505 21.1154 31.7298L23.782 29.0631C24.3027 28.5424 24.3027 27.6982 23.782 27.1775L21.1154 24.5108C20.5947 23.9901 19.7504 23.9901 19.2297 24.5108ZM32.1725 30.7869C32.1725 30.0506 31.5756 29.4536 30.8392 29.4536H26.8392C26.1028 29.4536 25.5059 30.0506 25.5059 30.7869C25.5059 31.5233 26.1028 32.1203 26.8392 32.1203H30.8392C31.5756 32.1203 32.1725 31.5233 32.1725 30.7869Z" fill="white"/>
</svg>
