<svg width="48" height="49" viewBox="0 0 48 49" fill="none" xmlns="http://www.w3.org/2000/svg">
<path fill-rule="evenodd" clip-rule="evenodd" d="M10.3158 4.47876C6.82768 4.47876 4 7.30644 4 10.7945V36.0577C4 39.5458 6.82768 42.3735 10.3158 42.3735H18.7368H24.3836C26.3842 43.7037 28.7858 44.4788 31.3684 44.4788C38.3447 44.4788 44 38.8234 44 31.8472C44 25.5882 39.4478 20.3925 33.4737 19.3903V10.7945C33.4737 7.30644 30.646 4.47876 27.1579 4.47876H10.3158ZM18.7368 31.8472C18.7368 34.1479 19.352 36.305 20.4267 38.163H18.7368H10.3158C9.15308 38.163 8.21053 37.2204 8.21053 36.0577V10.7945C8.21053 9.63184 9.15308 8.68929 10.3158 8.68929H12.4211V10.7945C12.4211 11.9573 13.3636 12.8998 14.5263 12.8998C15.689 12.8998 16.6316 11.9573 16.6316 10.7945V8.68929H27.1579C28.3206 8.68929 29.2632 9.63184 29.2632 10.7945V19.3903C23.289 20.3925 18.7368 25.5882 18.7368 31.8472ZM22.9474 31.8472C22.9474 27.1964 26.7176 23.4261 31.3684 23.4261C36.0192 23.4261 39.7895 27.1964 39.7895 31.8472C39.7895 36.498 36.0192 40.2682 31.3684 40.2682C26.7176 40.2682 22.9474 36.498 22.9474 31.8472ZM14.5263 21.3209C13.3636 21.3209 12.4211 20.3783 12.4211 19.2156V17.1103C12.4211 15.9476 13.3636 15.0051 14.5263 15.0051C15.689 15.0051 16.6316 15.9476 16.6316 17.1103V19.2156C16.6316 20.3783 15.689 21.3209 14.5263 21.3209ZM12.4211 27.6367C12.4211 28.7994 13.3636 29.7419 14.5263 29.7419C15.689 29.7419 16.6316 28.7994 16.6316 27.6367V25.5314C16.6316 24.3687 15.689 23.4261 14.5263 23.4261C13.3636 23.4261 12.4211 24.3687 12.4211 25.5314V27.6367ZM35.883 29.6308C36.403 28.5908 35.9815 27.3263 34.9415 26.8063C33.9016 26.2863 32.637 26.7078 32.117 27.7478L30.3987 31.1844L30.3542 31.131C29.6098 30.2378 28.2823 30.1171 27.3891 30.8615C26.4959 31.6058 26.3752 32.9333 27.1195 33.8265L29.2248 36.3528C29.6796 36.8986 30.3791 37.1782 31.0848 37.0963C31.7906 37.0144 32.4074 36.5821 32.7251 35.9466L35.883 29.6308Z" fill="white"/>
</svg>
