<svg width="48" height="49" viewBox="0 0 48 49" fill="none" xmlns="http://www.w3.org/2000/svg">
<path fill-rule="evenodd" clip-rule="evenodd" d="M24 4.83386C12.9543 4.83386 4 13.7882 4 24.8339C4 35.8796 12.9543 44.8339 24 44.8339C35.0457 44.8339 44 35.8796 44 24.8339C44 13.7882 35.0457 4.83386 24 4.83386ZM8 24.8339C8 15.9973 15.1634 8.83386 24 8.83386C32.8366 8.83386 40 15.9973 40 24.8339C40 33.6704 32.8366 40.8339 24 40.8339C15.1634 40.8339 8 33.6704 8 24.8339ZM22.0969 15.4519C22.6956 13.6093 25.3024 13.6093 25.9011 15.4519L27.4197 20.1257H32.334C34.2714 20.1257 35.077 22.6049 33.5095 23.7437L29.5338 26.6322L31.0524 31.306C31.6511 33.1486 29.5422 34.6809 27.9747 33.5421L23.999 30.6535L20.0232 33.5421C18.4558 34.6809 16.3469 33.1486 16.9456 31.306L18.4642 26.6322L14.4884 23.7437C12.921 22.6049 13.7265 20.1257 15.664 20.1257H20.5783L22.0969 15.4519Z" fill="white"/>
</svg>
