<svg width="51" height="51" viewBox="0 0 51 51" fill="none" xmlns="http://www.w3.org/2000/svg">
<circle cx="25.5049" cy="25.6611" r="24.9307" fill="#D81467"/>
<path fill-rule="evenodd" clip-rule="evenodd" d="M12.6667 26.1612C12.6667 33.525 18.6362 39.4945 26 39.4945C33.3638 39.4945 39.3334 33.525 39.3334 26.1612C39.3334 18.7974 33.3638 12.8278 26 12.8278C18.6362 12.8278 12.6667 18.7974 12.6667 26.1612ZM15.3334 26.1612C15.3334 20.2701 20.109 15.4945 26 15.4945C31.8911 15.4945 36.6667 20.2701 36.6667 26.1612C36.6667 32.0522 31.8911 36.8278 26 36.8278C20.109 36.8278 15.3334 32.0522 15.3334 26.1612ZM33.2725 21.9002C33.2032 21.5532 32.9989 21.248 32.7045 21.0518C32.4101 20.8555 32.0498 20.7843 31.7029 20.8538L28.1941 21.5571C27.4721 21.7018 27.0041 22.4045 27.1488 23.1265C27.2931 23.8463 27.992 24.3137 28.7117 24.1731L26.4613 27.0674L23.6525 24.9177C23.086 24.4842 22.2787 24.5733 21.8204 25.1199L18.3117 29.3045C17.8385 29.8687 17.9124 30.7097 18.4767 31.1829C19.0409 31.656 19.8819 31.5821 20.3551 31.0178L23.0445 27.8104L25.8914 29.9892C26.4731 30.4343 27.3048 30.327 27.7544 29.7488L31.228 25.2812L31.3591 25.9386C31.5032 26.6607 32.2055 27.1293 32.9276 26.9852C33.6498 26.8411 34.1184 26.1388 33.9742 25.4167L33.2725 21.9002Z" fill="white"/>
</svg>
