<svg width="51" height="51" viewBox="0 0 51 51" fill="none" xmlns="http://www.w3.org/2000/svg">
<circle cx="25.5049" cy="25.5225" r="24.9307" fill="#D81467"/>
<path fill-rule="evenodd" clip-rule="evenodd" d="M22.1149 13.4812C22.3289 12.9997 22.8064 12.6894 23.3334 12.6894H31.2174C31.6558 12.6894 32.0663 12.9049 32.3151 13.2659C32.564 13.6268 32.6195 14.087 32.4636 14.4968L29.673 21.8322H34C34.5377 21.8322 35.0228 22.1552 35.2302 22.6514C35.4376 23.1475 35.3267 23.7196 34.9489 24.1023L20.2822 38.9594C19.8528 39.3944 19.1827 39.4817 18.6561 39.1713C18.1296 38.8608 17.8816 38.2321 18.0544 37.6458L21.0867 27.3561H18C17.5487 27.3561 17.128 27.1277 16.882 26.7493C16.6361 26.3708 16.5983 25.8937 16.7816 25.4812L22.1149 13.4812ZM24.1999 15.3561L20.0517 24.6894H22.8696C23.2899 24.6894 23.6856 24.8876 23.9374 25.2242C24.1891 25.5608 24.2674 25.9964 24.1485 26.3996L22.1122 33.3099L30.8102 24.4989H27.7392C27.3007 24.4989 26.8903 24.2834 26.6415 23.9224C26.3926 23.5615 26.3371 23.1013 26.493 22.6915L29.2836 15.3561H24.1999Z" fill="white"/>
</svg>
