<svg width="23" height="19" viewBox="0 0 23 19" fill="none" xmlns="http://www.w3.org/2000/svg">
<path fill-rule="evenodd" clip-rule="evenodd" d="M15.8722 12.2871C17.2782 9.08351 16.0775 5.26705 12.9772 3.47713C9.65096 1.55671 5.39767 2.69637 3.47724 6.02265C1.55682 9.34893 2.69648 13.6022 6.02276 15.5226C9.12271 17.3124 13.0278 16.4443 15.0994 13.6255L21.8272 17.5098L22.6 16.1714L15.8722 12.2871ZM14.2715 12.0514C15.6448 9.48822 14.7431 6.2797 12.2067 4.81528C9.61959 3.32162 6.31147 4.20803 4.8178 6.79513C3.32414 9.38223 4.21055 12.6904 6.79765 14.184C9.3341 15.6484 12.5636 14.8251 14.0967 12.3542L14.2715 12.0514Z" fill="#BBBFD1"/>
</svg>
