<svg width="51" height="51" viewBox="0 0 51 51" fill="none" xmlns="http://www.w3.org/2000/svg">
<circle cx="25.5049" cy="25.7927" r="24.9307" fill="#D81467"/>
<path fill-rule="evenodd" clip-rule="evenodd" d="M30.8076 14.7276C30.8076 13.9928 31.4046 13.3971 32.1409 13.3971L37.4743 13.3971C37.828 13.3971 38.1672 13.5373 38.4173 13.7869C38.6673 14.0365 38.8077 14.3751 38.8076 14.728L38.8059 20.1071C38.8057 20.8419 38.2085 21.4374 37.4722 21.4371C36.7358 21.4369 36.139 20.841 36.1393 20.1062L36.1399 17.9542L30.4183 23.7028C29.8991 24.2239 29.0549 24.2264 28.5327 23.7083C28.0104 23.1903 28.0079 22.3479 28.5271 21.8268L34.2688 16.0581H32.1409C31.4046 16.0581 30.8076 15.4624 30.8076 14.7276ZM22.4143 29.7525C22.9365 30.2705 22.939 31.113 22.4199 31.6341L16.6781 37.4028H18.806C19.5424 37.4028 20.1394 37.9985 20.1394 38.7333C20.1394 39.4681 19.5424 40.0638 18.806 40.0638H13.4727C13.119 40.0638 12.7798 39.9235 12.5297 39.6739C12.2797 39.4243 12.1392 39.0858 12.1393 38.7329L12.1411 33.3538C12.1413 32.619 12.7384 32.0235 13.4748 32.0237C14.2112 32.024 14.808 32.6198 14.8077 33.3546L14.807 35.5066L20.5287 29.7581C21.0478 29.237 21.892 29.2345 22.4143 29.7525Z" fill="white"/>
</svg>
