<svg width="48" height="49" viewBox="0 0 48 49" fill="none" xmlns="http://www.w3.org/2000/svg">
<path fill-rule="evenodd" clip-rule="evenodd" d="M4 21.9366V21.2667C4 13.1277 10.5665 6.52979 18.6667 6.52979H29.3333C37.4335 6.52979 44 13.1277 44 21.2667C44 29.367 37.4958 35.9409 29.4487 36.0032L22.8203 41.5534C20.1119 43.8212 16 41.8861 16 38.3437V35.8612C9.21541 34.8861 4 29.0233 4 21.9366ZM20.2595 38.4658L27.3776 32.5057C27.7797 32.1689 28.2867 31.9845 28.8102 31.9845H29.3333C35.2244 31.9845 40 27.186 40 21.2667C40 15.3475 35.2244 10.5489 29.3333 10.5489H18.6667C12.7756 10.5489 8 15.3475 8 21.2667V21.9366C8 27.4859 12.4772 31.9845 18 31.9845C18.9356 31.9845 19.7211 32.63 19.9396 33.5019C19.979 33.6594 20 33.8243 20 33.9941V38.3437C20 38.4785 20.1565 38.5521 20.2595 38.4658ZM14 18.5298C14 17.4252 14.8954 16.5298 16 16.5298H32C33.1046 16.5298 34 17.4252 34 18.5298C34 19.6344 33.1046 20.5298 32 20.5298H16C14.8954 20.5298 14 19.6344 14 18.5298ZM16 22.5298C14.8954 22.5298 14 23.4252 14 24.5298C14 25.6344 14.8954 26.5298 16 26.5298H26C27.1046 26.5298 28 25.6344 28 24.5298C28 23.4252 27.1046 22.5298 26 22.5298H16Z" fill="white"/>
</svg>
