<svg width="49" height="49" viewBox="0 0 49 49" fill="none" xmlns="http://www.w3.org/2000/svg">
<path fill-rule="evenodd" clip-rule="evenodd" d="M33.9474 4.57559C35.3882 4.92814 36.5205 6.01953 36.9048 7.42616L38.8456 14.5293C41.3632 14.7215 43.5989 16.4392 44.2896 18.9674C44.9804 21.4957 43.9201 24.0795 41.8378 25.4804L43.7784 32.5829C44.1627 33.9895 43.7386 35.4899 42.6706 36.5017C41.6026 37.5135 40.0589 37.8773 38.6386 37.4521L34.1086 36.0956C30.5705 35.0361 26.8886 34.5935 23.2275 34.7705L24.7597 40.3783C25.0517 41.4471 24.405 42.5456 23.3152 42.832L17.3953 44.3875C16.3055 44.6739 15.1853 44.0397 14.8933 42.9709L13.0244 36.1307C9.22371 35.7817 5.8684 33.1656 4.82254 29.3378C3.47927 24.4216 6.45429 19.3684 11.4674 18.0511L11.6818 17.9947C17.4489 16.4793 22.6662 13.4063 26.7396 9.12554L29.9711 5.72955C30.9842 4.66486 32.5066 4.22305 33.9474 4.57559ZM17.1235 35.6519L18.3111 39.9988L20.2844 39.4802L19.1236 35.2317C18.4537 35.3506 17.7866 35.4906 17.1235 35.6519ZM40.3618 20.0783L40.3216 19.9314C40.3292 19.9555 40.3364 19.9799 40.3431 20.0045C40.3498 20.0291 40.356 20.0537 40.3618 20.0783ZM32.9582 8.4632L29.7267 11.8592L29.6719 11.9167C25.0846 16.716 19.2196 20.1622 12.7393 21.865L12.5249 21.9213C9.6914 22.6659 8.00986 25.5221 8.7691 28.3008C9.52834 31.0795 12.4408 32.7286 15.2744 31.984L15.4888 31.9277C21.9691 30.2249 28.8053 30.3335 35.225 32.2405L35.3018 32.2634L39.8318 33.6199L38.5852 29.0572L34.2049 13.0259L32.9582 8.4632Z" fill="white"/>
</svg>
