<svg width="51" height="51" viewBox="0 0 51 51" fill="none" xmlns="http://www.w3.org/2000/svg">
<circle cx="25.5049" cy="25.9243" r="24.9307" fill="#D81467"/>
<path fill-rule="evenodd" clip-rule="evenodd" d="M25.3639 37.3095C25.7606 37.5293 26.2394 37.5293 26.6361 37.3095L33.3028 33.6167C33.7324 33.3787 34 32.9199 34 32.421V20.0918C29.8582 14.969 22.1417 14.969 18 20.0918V32.421C18 32.9199 18.2675 33.3787 18.6972 33.6167L25.3639 37.3095ZM27.9083 39.7009C26.7181 40.3602 25.2818 40.3602 24.0916 39.7009L17.4249 36.0081C16.136 35.2941 15.3333 33.9176 15.3333 32.421V19.6999C15.3333 19.3472 15.4476 19.0043 15.6584 18.7247C20.8812 11.7967 31.1188 11.7967 36.3416 18.7247C36.5524 19.0043 36.6666 19.3472 36.6666 19.6999V32.421C36.6666 33.9176 35.864 35.2941 34.575 36.0081L27.9083 39.7009ZM30.4107 25.0459C30.8445 24.4388 30.7139 23.5878 30.1189 23.1451C29.5239 22.7024 28.6898 22.8357 28.256 23.4428L25.4008 27.4383L24.3787 26.1209C23.9216 25.5318 23.0831 25.4323 22.5057 25.8987C21.9284 26.3651 21.8308 27.2207 22.2879 27.8098L24.399 30.5309C24.6577 30.8642 25.0542 31.055 25.4708 31.0466C25.8874 31.0382 26.2763 30.8315 26.5218 30.488L30.4107 25.0459Z" fill="white"/>
</svg>
