<svg width="51" height="51" viewBox="0 0 51 51" fill="none" xmlns="http://www.w3.org/2000/svg">
<circle cx="25.5049" cy="25.0918" r="24.9307" fill="#D81467"/>
<path fill-rule="evenodd" clip-rule="evenodd" d="M26.8392 15.1185C28.7669 15.6923 30.1725 17.4781 30.1724 19.5921C30.1723 21.7107 28.7605 23.4994 26.8265 24.0691C26.8353 24.131 26.8398 24.1942 26.8398 24.2585L26.8392 37.5919C26.8391 38.3283 26.2422 38.9252 25.5058 38.9252C24.7694 38.9251 24.1725 38.3281 24.1725 37.5918L24.1731 24.2584C24.1731 24.1943 24.1777 24.1312 24.1864 24.0695C22.2515 23.5003 20.839 21.7109 20.8391 19.5917C20.8392 17.4777 22.2449 15.6921 24.1725 15.1185L24.1726 13.5918C24.1726 12.8554 24.7696 12.2584 25.506 12.2585C26.2424 12.2585 26.8393 12.8555 26.8393 13.5919L26.8392 15.1185ZM23.5058 19.5918C23.5058 18.4872 24.4013 17.5919 25.5058 17.5919C26.6104 17.592 27.5058 18.4874 27.5058 19.592C27.5057 20.6966 26.6102 21.592 25.5057 21.5919C24.4011 21.5919 23.5057 20.6964 23.5058 19.5918ZM29.5059 31.5921C29.5058 33.7062 30.9115 35.492 32.8392 36.0658L32.8391 37.5924C32.839 38.3288 33.436 38.9258 34.1724 38.9258C34.9087 38.9258 35.5057 38.3289 35.5058 37.5925L35.5058 36.0658C37.4335 35.4922 38.8392 33.7066 38.8393 31.5926C38.8394 29.4734 37.4269 27.684 35.4919 27.1148C35.5007 27.0531 35.5052 26.99 35.5052 26.9259L35.5058 13.5925C35.5059 12.8562 34.909 12.2592 34.1726 12.2591C33.4362 12.2591 32.8392 12.856 32.8392 13.5924L32.8385 26.9257C32.8385 26.9901 32.8431 27.0533 32.8519 27.1152C30.9178 27.6848 29.506 29.4736 29.5059 31.5921ZM36.1726 31.5925C36.1726 32.697 35.2771 33.5924 34.1725 33.5924C33.0679 33.5923 32.1726 32.6968 32.1726 31.5923C32.1727 30.4877 33.0681 29.5923 34.1727 29.5924C35.2773 29.5924 36.1727 30.4879 36.1726 31.5925ZM15.5061 36.0655C13.5783 35.4917 12.1725 33.7059 12.1726 31.5917C12.1727 29.473 13.5846 27.6842 15.5188 27.1146C15.51 27.0528 15.5055 26.9896 15.5055 26.9254L15.5061 13.5921C15.5061 12.8557 16.1031 12.2588 16.8395 12.2588C17.5759 12.2588 18.1728 12.8558 18.1728 13.5922L18.1721 26.9255C18.1721 26.9896 18.1676 27.0526 18.1589 27.1143C20.0938 27.6835 21.5063 29.4729 21.5062 31.5921C21.5061 33.7061 20.1004 35.4918 18.1728 36.0655L18.1727 37.5922C18.1726 38.3286 17.5757 38.9255 16.8393 38.9255C16.1029 38.9254 15.506 38.3285 15.506 37.5921L15.5061 36.0655ZM16.8393 33.592C17.944 33.5921 18.8395 32.6967 18.8395 31.592C18.8396 30.4874 17.9441 29.5918 16.8395 29.5918C15.7349 29.5917 14.8393 30.4872 14.8393 31.5918C14.8392 32.6965 15.7347 33.592 16.8393 33.592Z" fill="white"/>
</svg>
