<svg width="493" height="106" viewBox="0 0 493 106" fill="none" xmlns="http://www.w3.org/2000/svg">
<path d="M148.808 65.592C148.808 69.904 146.784 71.84 143.704 71.84C140.624 71.84 138.688 70.872 138.688 70.872L136.84 80.376C136.84 80.376 140.272 82.224 146.168 82.224C151.976 82.224 155.584 80.816 158.4 78C161.216 75.272 162.8 71.488 162.8 65.592V11.12H148.808V65.592ZM211.052 67C209.468 64.272 209.028 61.368 209.028 57.056V41.216C209.028 34.44 206.916 30.92 203.836 28.368C200.756 25.904 195.916 24.32 189.14 24.32C182.452 24.32 175.588 26.344 171.54 28.456L174.972 37.608C178.228 35.584 183.332 33.824 187.732 33.824C192.132 33.824 195.476 35.144 195.476 39.456V40.864C192.044 40.864 186.5 41.216 182.54 42.096C178.58 42.976 169.604 45.264 169.604 54.944C169.604 64.624 177.26 67.88 183.684 67.88C190.108 67.88 193.628 64.888 195.916 62.512C195.916 64.712 196.796 67 196.796 67H211.052ZM195.476 54.592C194.068 57.496 191.164 58.904 188.524 58.904C185.884 58.904 183.244 57.496 183.244 53.888C183.244 50.28 186.852 49.224 189.14 48.784C191.34 48.432 195.036 48.256 195.476 48.256V54.592ZM282.999 67V40.072C282.999 29.776 278.071 24.32 269.447 24.32C263.111 24.32 259.151 27.488 255.807 32.064C253.871 26.784 249.471 24.32 243.751 24.32C238.119 24.32 234.335 27.136 231.431 31.624L230.639 25.2H217.879V67H231.431V42.8C231.871 40.072 233.807 35.584 238.207 35.584C242.519 35.584 243.663 38.664 243.663 43.064V67H257.215V42.8C257.655 40.072 259.591 35.584 263.991 35.584C268.303 35.584 269.447 38.664 269.447 43.064V67H282.999ZM325.215 53.624C325.215 45.968 318.791 43.328 317.207 42.712C315.711 42.096 313.159 41.216 310.079 40.336C306.911 39.456 303.127 38.752 303.127 36.376C303.127 34 305.855 33.472 308.671 33.472C311.487 33.472 316.415 34.704 320.375 37.784L325.039 29.776C325.039 29.776 319.055 24.232 308.143 24.232C297.231 24.232 290.367 29.6 290.367 37.696C290.367 45.88 296.791 48.344 298.815 49.224C300.839 50.016 302.951 50.632 305.679 51.424C308.407 52.128 312.367 52.92 312.367 55.384C312.367 57.76 309.727 58.288 306.735 58.288C303.743 58.288 297.671 56.528 293.711 53.008L288.255 61.368C290.983 63.92 297.759 67.88 306.295 67.88C314.919 67.88 318.527 65.416 320.463 63.832C322.399 62.248 325.215 59.168 325.215 53.624ZM356.56 56.792C355.856 57.056 353.832 57.408 352.072 57.408C350.312 57.408 348.992 56.968 348.2 56C347.408 55.032 347.32 53.36 347.32 51.248V34.968H357.528V25.2H347.32V14.728H334.56L333.768 25.2H328.224V34.968H333.856V54.24C333.856 58.904 334.56 62.16 337.288 64.712C340.016 67.352 343.448 67.88 347.408 67.88C351.104 67.88 355.504 67.088 357.792 66.296L356.56 56.792ZM402.435 67C400.851 64.272 400.411 61.368 400.411 57.056V41.216C400.411 34.44 398.299 30.92 395.219 28.368C392.139 25.904 387.299 24.32 380.523 24.32C373.835 24.32 366.971 26.344 362.923 28.456L366.355 37.608C369.611 35.584 374.715 33.824 379.115 33.824C383.515 33.824 386.859 35.144 386.859 39.456V40.864C383.427 40.864 377.883 41.216 373.923 42.096C369.963 42.976 360.987 45.264 360.987 54.944C360.987 64.624 368.643 67.88 375.067 67.88C381.491 67.88 385.011 64.888 387.299 62.512C387.299 64.712 388.179 67 388.179 67H402.435ZM386.859 54.592C385.451 57.496 382.547 58.904 379.907 58.904C377.267 58.904 374.627 57.496 374.627 53.888C374.627 50.28 378.235 49.224 380.523 48.784C382.723 48.432 386.419 48.256 386.859 48.256V54.592ZM440.062 52.656C439.622 53.096 435.926 56.792 430.382 56.792C424.838 56.792 420.086 53.184 420.086 45.88C420.086 38.576 424.926 35.056 430.382 35.056C435.838 35.056 439.358 38.84 439.798 39.28L444.726 30.48C444.374 29.952 439.358 24.32 428.358 24.32C417.358 24.32 406.534 31.624 406.534 46.144C406.534 60.664 416.918 67.88 428.094 67.88C439.27 67.88 444.022 62.688 444.902 61.808L440.062 52.656ZM492.842 67L476.826 41.392L492.226 25.2H476.738L463.978 40.248V9.448H450.426V67H463.978V55.296L467.85 51.248L477.442 67H492.842Z" fill="white"/>
<path fill-rule="evenodd" clip-rule="evenodd" d="M0 48C0 21.458 21.458 0 48 0H96V48C96 74.542 74.542 96 48 96C21.458 96 0 74.542 0 48ZM46.9437 83.6534C28.0606 83.1252 12.8089 67.8735 12.2807 48.9904H46.9437V83.6534ZM48.9904 83.7196C67.8735 83.1914 83.1252 67.9397 83.6534 49.0566H48.9904V83.7196ZM48.9904 12.2807H83.6534V46.9437H48.9904V12.2807Z" fill="white"/>
</svg>
