<svg width="40" height="40" viewBox="0 0 40 40" version="1.1" xmlns="http://www.w3.org/2000/svg" xmlns:xlink="http://www.w3.org/1999/xlink"><title>check-circle copy 3</title><desc>Created with Sketch.</desc><g id="landing" stroke="none" stroke-width="1" fill="none" fill-rule="evenodd"><g id="jamstack-landing-copy" transform="translate(-730.000000, -1834.000000)" fill="#7FE3DB"><path d="M750.000099,1834 C761.045833,1834 770.000198,1842.9566 770.000198,1854.0051 C770.000198,1865.0536 761.045833,1874 750.000099,1874 C738.954364,1874 730,1865.0536 730,1854.0051 C730,1842.9566 738.954364,1834 750.000099,1834 Z M749.476407,1860.59693 L758.90472,1851.16626 C759.780321,1850.29044 759.78063,1848.8707 758.905338,1847.99458 L758.873206,1847.96244 C757.997605,1847.086 756.577611,1847.08569 755.701392,1847.96182 L748.23005,1855.43348 L745.527551,1852.72907 C744.651641,1851.85263 743.231029,1851.85202 742.35481,1852.72815 L742.322678,1852.76029 C741.44615,1853.63672 741.445842,1855.058 742.322061,1855.93444 L746.983385,1860.59693 C747.671754,1861.28547 748.788037,1861.28547 749.476407,1860.59693 Z" id="check-circle-copy-3"/></g></g></svg>