<svg width="300" height="300" viewBox="0 0 300 300" version="1.1" xmlns="http://www.w3.org/2000/svg" xmlns:xlink="http://www.w3.org/1999/xlink"><title>j</title><desc>Created with Sketch.</desc><g id="Page-1" stroke="none" stroke-width="1" fill="none" fill-rule="evenodd"><g id="jamstack-landing" transform="translate(-250.000000, -812.000000)"><g id="jam-breakdown" transform="translate(250.000000, 812.000000)"><g id="j"><circle id="Oval" fill="#00C7B7" opacity=".5" cx="150" cy="150" r="150"/><path d="M152.865234,107.0625 L167.236328,107.0625 L167.236328,158.453125 C167.236328,165.697953 165.196635,171.44464 161.117188,175.693359 C157.03774,179.942079 151.900422,182.066406 145.705078,182.066406 C139.00192,182.066406 133.695332,180.170592 129.785156,176.378906 C125.87498,172.587221 123.98763,167.001339 124.123047,159.621094 L124.275391,159.316406 L138.341797,159.316406 C138.341797,163.209655 139.027337,166.053376 140.398438,167.847656 C141.769538,169.641936 143.538401,170.539062 145.705078,170.539062 C147.66863,170.539062 149.352858,169.472667 150.757813,167.339844 C152.162767,165.207021 152.865234,162.244811 152.865234,158.453125 L152.865234,107.0625 Z" id="J" fill="#FFF"/></g></g></g></g></svg>