<?xml version="1.0" encoding="UTF-8"?>
<svg width="1440px" height="718px" viewBox="0 0 1440 718" version="1.1" xmlns="http://www.w3.org/2000/svg" xmlns:xlink="http://www.w3.org/1999/xlink">
    <!-- Generator: Sketch 41.2 (35397) - http://www.bohemiancoding.com/sketch -->
    <title>JAMSTACK</title>
    <desc>Created with Sketch.</desc>
    <defs></defs>
    <g id="Page-1" stroke="none" stroke-width="1" fill="none" fill-rule="evenodd" opacity="0.049999997">
        <g id="jamstack-landing" fill="#4A4A4A">
            <g id="hero" transform="translate(-104.000000, -2.000000)">
                <path d="M283.294683,0 L424.773416,0 L424.773416,492.939167 C424.773416,562.431597 404.693302,617.553854 364.532471,658.307593 C324.371641,699.061331 273.796415,719.437894 212.805278,719.437894 C146.814867,719.437894 94.5732425,701.253232 56.0788362,664.883362 C17.5844299,628.513492 -0.995924714,574.933684 0.337214897,504.14233 L1.83698946,501.219765 L140.316174,501.219765 C140.316174,538.563828 147.065092,565.840822 160.563131,583.051564 C174.061169,600.262306 191.475044,608.867548 212.805278,608.867548 C232.135802,608.867548 248.716478,598.638675 262.547801,578.180623 C276.379125,557.722571 283.294683,529.309037 283.294683,492.939167 L283.294683,0 Z M818.3092,558.696862 L626.338056,558.696862 L587.343917,709.20892 L443.865484,709.20892 L648.834674,0 L796.812431,0 L1001.2817,709.20892 L857.803263,709.20892 L818.3092,558.696862 Z M655.333697,447.152327 L789.313558,447.152327 L723.823402,196.298897 L720.823853,196.298897 L655.333697,447.152327 Z M1207.34566,0 L1337.82605,520.703527 L1340.8256,520.703527 L1472.80576,0 L1658.27788,0 L1658.27788,709.20892 L1516.79914,709.20892 L1516.79914,503.168142 L1528.79734,227.472916 L1525.79779,226.985822 L1386.81868,709.20892 L1292.33288,709.20892 L1154.85355,230.882574 L1151.854,231.369668 L1164.35212,503.168142 L1164.35212,709.20892 L1022.87339,709.20892 L1022.87339,0 L1207.34566,0 Z" id="JAMSTACK"></path>
            </g>
        </g>
    </g>
</svg>