<?xml version="1.0" encoding="UTF-8"?>
<svg width="260px" height="53px" viewBox="0 0 260 53" version="1.1" xmlns="http://www.w3.org/2000/svg" xmlns:xlink="http://www.w3.org/1999/xlink">
    <!-- Generator: Sketch 41 (35326) - http://www.bohemiancoding.com/sketch -->
    <title>jamstack-knockout</title>
    <desc>Created with Sketch.</desc>
    <defs></defs>
    <g id="Blog" stroke="none" stroke-width="1" fill="none" fill-rule="evenodd">
        <g id="blog-2.0-v4" transform="translate(-250.000000, -677.000000)">
            <g id="promo-sections" transform="translate(-3.000000, 493.000000)">
                <g id="jamstack-promo" transform="translate(3.000000, 0.000000)">
                    <g id="jamstack-knockout" transform="translate(250.000000, 184.000000)">
                        <g id="jamstack-logo">
                            <path d="M16.5919849,0.638265535 L24.8649755,0.638265535 L24.8649755,29.4117755 C24.8649755,33.4681404 23.6907878,36.6856994 21.3423771,39.0645489 C18.9939663,41.4433984 16.0365723,42.6328053 12.4701062,42.6328053 C8.61130688,42.6328053 5.55646988,41.5713426 3.30550358,39.4483852 C1.05453729,37.3254279 -0.0319517832,34.1979037 0.0460037593,30.0657189 L0.133703306,29.895125 L8.2312948,29.895125 C8.2312948,32.0749473 8.62593882,33.6671414 9.41523868,34.6717551 C10.2045386,35.6763689 11.2228176,36.1786682 12.4701062,36.1786682 C13.6004616,36.1786682 14.5700191,35.5815954 15.3788079,34.3874319 C16.1875966,33.1932684 16.5919849,31.5347329 16.5919849,29.4117755 L16.5919849,0.638265535 Z M47.8770406,33.250139 L36.6514986,33.250139 L34.3713104,42.0357265 L25.9813871,42.0357265 L37.9669918,0.638265535 L46.6200138,0.638265535 L58.5763853,42.0357265 L50.186462,42.0357265 L47.8770406,33.250139 Z M38.3470232,26.7391372 L46.181516,26.7391372 L42.3519692,12.0964914 L42.1765701,12.0964914 L38.3470232,26.7391372 Z M70.6260071,0.638265535 L78.2558676,31.0324179 L78.4312667,31.0324179 L86.1488269,0.638265535 L96.9943375,0.638265535 L96.9943375,42.0357265 L88.7213469,42.0357265 L88.7213469,30.0088543 L89.4229433,13.91616 L89.2475442,13.8877276 L81.1207195,42.0357265 L75.5956481,42.0357265 L67.5565229,14.1151862 L67.3811238,14.1436185 L68.1119534,30.0088543 L68.1119534,42.0357265 L59.8389628,42.0357265 L59.8389628,0.638265535 L70.6260071,0.638265535 Z M129.565653,32.1128461 C129.565653,29.5160144 128.586351,27.4404756 126.627718,25.8861676 C124.669085,24.3318595 121.273198,22.9102576 116.439954,21.6213193 C111.587222,20.3513359 108.035426,18.9060406 105.784459,17.2853901 C103.533493,15.6647397 102.408027,13.3001419 102.408027,10.1915258 C102.408027,7.10186465 103.733251,4.63775471 106.38374,2.79912202 C109.034228,0.960489326 112.415499,0.0411867703 116.527654,0.0411867703 C120.678787,0.0411867703 124.069802,1.16899094 126.700801,3.4246331 C129.331801,5.68027527 130.608304,8.58034313 130.530348,12.1249237 L130.471882,12.2955176 L129.127155,12.2955176 C129.127155,9.20585649 127.95784,6.64697308 125.619174,4.61879063 C123.280507,2.59060818 120.250031,1.57653217 116.527654,1.57653217 C112.668855,1.57653217 109.614018,2.41527728 107.363051,4.09279267 C105.112085,5.77030807 103.986619,7.78424408 103.986619,10.1346611 C103.986619,12.4850782 104.917199,14.4374114 106.778388,15.9917195 C108.639576,17.5460275 112.006231,18.92972 116.878452,20.1428385 C121.594762,21.355957 125.156303,22.8391616 127.56318,24.5924969 C129.970058,26.3458322 131.173478,28.8336355 131.173478,32.0559815 C131.173478,35.3351924 129.799532,37.9177691 127.0516,39.8037893 C124.303667,41.6898094 120.86393,42.6328053 116.732286,42.6328053 C112.46422,42.6328053 108.79062,41.6613774 105.711376,39.7184923 C102.632133,37.7756072 101.141255,34.7191632 101.2387,30.5490684 L101.297166,30.3784745 L102.612659,30.3784745 C102.612659,34.1315598 104.035326,36.8562967 106.880704,38.5527671 C109.726081,40.2492375 113.009909,41.0974599 116.732286,41.0974599 C120.474152,41.0974599 123.548478,40.2634535 125.955355,38.5954156 C128.362233,36.9273777 129.565653,34.7665428 129.565653,32.1128461 L129.565653,32.1128461 Z M161.702577,6.41112962 C161.702577,6.6182504 161.62272,6.80810827 161.463004,6.98070893 C161.303288,7.15330958 161.116955,7.23960861 160.904001,7.23960861 L148.552684,7.23960861 L148.552684,41.2590275 C148.552684,41.4661483 148.463954,41.6473762 148.286491,41.8027168 C148.109029,41.9580574 147.913823,42.0357265 147.700869,42.0357265 C147.487914,42.0357265 147.292708,41.9666873 147.115246,41.8286068 C146.937784,41.6905263 146.849054,41.5006684 146.849054,41.2590275 L146.849054,7.23960861 L134.444498,7.23960861 C134.231543,7.23960861 134.045211,7.15330958 133.885495,6.98070893 C133.725779,6.80810827 133.645922,6.6182504 133.645922,6.41112962 C133.645922,6.20400883 133.716906,6.00552105 133.858875,5.81566033 C134.000845,5.62579962 134.196051,5.53087068 134.444498,5.53087068 L160.904001,5.53087068 C161.152448,5.53087068 161.347654,5.62579962 161.489623,5.81566033 C161.631593,6.00552105 161.702577,6.20400883 161.702577,6.41112962 L161.702577,6.41112962 Z M185.864127,29.6676664 L165.050101,29.6676664 L160.314325,42.0357265 L158.589568,42.0357265 L174.492419,0.638265535 L176.421809,0.638265535 L192.353893,42.0357265 L190.629135,42.0357265 L185.864127,29.6676664 Z M165.634764,28.132321 L185.279463,28.132321 L176.363342,4.81781689 L175.544813,2.48636647 L175.369414,2.48636647 L174.580118,4.81781689 L165.634764,28.132321 Z M223.498333,29.3549109 L223.5568,29.5255048 C223.634755,33.7714195 222.314403,37.0174105 219.595704,39.2635751 C216.877004,41.5097398 213.295975,42.6328053 208.852509,42.6328053 C204.194665,42.6328053 200.4626,40.9600538 197.6562,37.6145005 C194.849801,34.2689472 193.446622,29.8761973 193.446622,24.4361192 L193.446622,18.2378729 C193.446622,12.8167497 194.849801,8.42873857 197.6562,5.07370779 C200.4626,1.718677 204.194665,0.0411867703 208.852509,0.0411867703 C213.295975,0.0411867703 216.877004,1.16899094 219.595704,3.4246331 C222.314403,5.68027527 223.634755,8.90257289 223.5568,13.0916226 L223.498333,13.2622166 L222.153607,13.2622166 C222.153607,9.52808625 220.959931,6.64697308 218.572542,4.61879063 C216.185154,2.59060818 212.945175,1.57653217 208.852509,1.57653217 C204.701377,1.57653217 201.359083,3.10238486 198.825528,6.15413603 C196.291973,9.20588719 195.025214,13.2148045 195.025214,18.1810083 L195.025214,24.4361192 C195.025214,29.4591878 196.291973,33.4917985 198.825528,36.5340722 C201.359083,39.5763459 204.701377,41.0974599 208.852509,41.0974599 C212.945175,41.0974599 216.185154,40.1212933 218.572542,38.1689307 C220.959931,36.2165682 222.153607,33.278591 222.153607,29.3549109 L223.498333,29.3549109 Z M238.184492,21.8203455 L231.665493,21.8203455 L231.665493,42.0357265 L230.086901,42.0357265 L230.086901,0.638265535 L231.665493,0.638265535 L231.665493,20.3134324 L238.62299,20.3134324 L256.689097,0.638265535 L258.56002,0.638265535 L258.618487,0.780427146 L239.938483,21.2801314 L259.963213,41.8651326 L259.875514,42.0357265 L258.033823,42.0357265 L238.184492,21.8203455 Z" id="JAMSTACK" fill="#FFFFFF"></path>
                            <path d="M161.436385,1.38847569 C161.436385,1.59559647 161.356528,1.77682444 161.196812,1.93216503 C161.037096,2.08750562 160.850763,2.16517475 160.637808,2.16517475 L134.444498,2.16517475 C134.231543,2.16517475 134.045211,2.08750562 133.885495,1.93216503 C133.725779,1.77682444 133.645922,1.59559647 133.645922,1.38847569 C133.645922,1.1813549 133.725779,1.00012693 133.885495,0.844786344 C134.045211,0.689445755 134.231543,0.611776626 134.444498,0.611776626 L160.637808,0.611776626 C160.850763,0.611776626 161.037096,0.689445755 161.196812,0.844786344 C161.356528,1.00012693 161.436385,1.1813549 161.436385,1.38847569 L161.436385,1.38847569 Z" id="Path" fill="#00C7B7"></path>
                        </g>
                        <path d="M257,47.6823204 C257,47.4051552 257.043859,47.1602221 257.131579,46.9475138 C257.219299,46.7348056 257.334795,46.5591628 257.47807,46.4205801 C257.621346,46.2819975 257.782163,46.1772563 257.960526,46.1063536 C258.13889,46.0354508 258.318713,46 258.5,46 C258.681287,46 258.86111,46.0354508 259.039474,46.1063536 C259.217837,46.1772563 259.378654,46.2819975 259.52193,46.4205801 C259.665205,46.5591628 259.780701,46.7348056 259.868421,46.9475138 C259.956141,47.1602221 260,47.4051552 260,47.6823204 L260,51.3176796 C260,51.6012906 259.956141,51.847835 259.868421,52.0573204 C259.780701,52.2668058 259.665205,52.4408372 259.52193,52.5794199 C259.378654,52.7180025 259.217837,52.8227437 259.039474,52.8936464 C258.86111,52.9645492 258.681287,53 258.5,53 C258.318713,53 258.13889,52.9645492 257.960526,52.8936464 C257.782163,52.8227437 257.621346,52.7180025 257.47807,52.5794199 C257.334795,52.4408372 257.219299,52.2668058 257.131579,52.0573204 C257.043859,51.847835 257,51.6012906 257,51.3176796 L257,47.6823204 Z M257.894737,51.3176796 C257.894737,51.5561706 257.954678,51.7318134 258.074561,51.8446133 C258.194445,51.9574131 258.336256,52.0138122 258.5,52.0138122 C258.663744,52.0138122 258.805555,51.9574131 258.925439,51.8446133 C259.045322,51.7318134 259.105263,51.5561706 259.105263,51.3176796 L259.105263,47.6823204 C259.105263,47.4438294 259.045322,47.2681866 258.925439,47.1553867 C258.805555,47.0425869 258.663744,46.9861878 258.5,46.9861878 C258.336256,46.9861878 258.194445,47.0425869 258.074561,47.1553867 C257.954678,47.2681866 257.894737,47.4438294 257.894737,47.6823204 L257.894737,51.3176796 Z" id="RADIO" fill="#00C7B7" opacity="0.800000012"></path>
                        <polygon id="Path" fill="#00C7B7" opacity="0.800000012" points="252 46 253 46 253 53 252 53"></polygon>
                        <path d="M245,46 L246.372727,46 C246.900003,46 247.303029,46.1589404 247.581818,46.4768258 C247.860607,46.7947113 248,47.2387612 248,47.8089888 L248,51.0828652 C248,51.7382992 247.853032,52.2216745 247.559091,52.5330056 C247.26515,52.8443368 246.842427,53 246.290909,53 L245,53 L245,46 Z M245.927273,52.0561798 L246.354545,52.0561798 C246.615153,52.0561798 246.799999,51.9857217 246.909091,51.8448034 C247.018182,51.7038851 247.072727,51.4826794 247.072727,51.1811798 L247.072727,47.8089888 C247.072727,47.5337065 247.021213,47.3206936 246.918182,47.1699438 C246.815151,47.019194 246.627274,46.9438202 246.354545,46.9438202 L245.927273,46.9438202 L245.927273,52.0561798 Z" id="Combined-Shape" fill="#00C7B7" opacity="0.800000012"></path>
                        <path d="M238.578164,46 L239.421836,46 L241,53 L239.987593,53 L239.689826,51.4957865 L238.310174,51.4957865 L238.012407,53 L237,53 L238.578164,46 Z M239.004963,48.0154494 L238.985112,48.0154494 L238.488834,50.5519663 L239.501241,50.5519663 L239.004963,48.0154494 Z" id="Combined-Shape" fill="#00C7B7" opacity="0.800000012"></path>
                        <path d="M230,46 L231.79235,46 C233.103832,46 233.759563,46.6849182 233.759563,48.0547753 C233.759563,48.4611444 233.688525,48.8101577 233.546448,49.1018258 C233.404371,49.393494 233.154829,49.6278081 232.797814,49.8047753 L234,53 L232.819672,53 L231.781421,50.011236 L231.114754,50.011236 L231.114754,53 L230,53 L230,46 Z M231.114754,49.1264045 L231.748634,49.1264045 C231.945356,49.1264045 232.102003,49.1018261 232.218579,49.0526685 C232.335155,49.003511 232.424408,48.9330529 232.486339,48.8412921 C232.54827,48.7495314 232.590164,48.6364707 232.612022,48.5021067 C232.63388,48.3677428 232.644809,48.2120795 232.644809,48.0351124 C232.644809,47.8581452 232.63388,47.7024819 232.612022,47.568118 C232.590164,47.433754 232.544627,47.3190548 232.47541,47.2240169 C232.406193,47.1289789 232.309655,47.0585208 232.185792,47.0126404 C232.06193,46.9667601 231.897997,46.9438202 231.693989,46.9438202 L231.114754,46.9438202 L231.114754,49.1264045 Z" id="Combined-Shape" fill="#00C7B7" opacity="0.800000012"></path>
                    </g>
                </g>
            </g>
        </g>
    </g>
</svg>