<?xml version="1.0" encoding="UTF-8"?>
<svg width="19px" height="19px" viewBox="0 0 19 19" version="1.1" xmlns="http://www.w3.org/2000/svg" xmlns:xlink="http://www.w3.org/1999/xlink">
    <!-- Generator: Sketch 41.2 (35397) - http://www.bohemiancoding.com/sketch -->
    <title>outlink</title>
    <desc>Created with Sketch.</desc>
    <defs></defs>
    <g id="Page-1" stroke="none" stroke-width="1" fill="none" fill-rule="evenodd">
        <g id="jamstack-landing" transform="translate(-1311.000000, -247.000000)" fill="#00C7B7">
            <g id="header" transform="translate(250.000000, 40.000000)">
                <path d="M1078.96692,213.130546 C1080.31517,211.782295 1080.31517,209.596572 1078.96692,208.248321 L1078.72968,208.01108 C1077.38158,206.662973 1075.19585,206.662973 1073.8476,208.01108 L1070.83262,211.026064 C1069.84765,212.01118 1069.61357,213.455221 1070.11758,214.66591 C1070.24233,214.965521 1070.15504,215.311515 1069.92557,215.540977 L1069.54098,215.925574 C1069.31151,216.155036 1068.96538,216.242327 1068.66577,216.117584 C1067.45508,215.613575 1066.01104,215.847646 1065.02606,216.832619 L1062.01108,219.847602 C1060.66297,221.195853 1060.66297,223.381576 1062.01108,224.729827 L1062.24832,224.967068 C1063.59657,226.309125 1065.78229,226.309125 1067.13055,224.967068 L1070.14553,221.952084 C1071.13165,220.965959 1071.36544,219.519758 1070.85927,218.308205 C1070.73395,218.008449 1070.82124,217.66188 1071.05085,217.432274 L1071.43213,217.050989 C1071.66188,216.821239 1072.00845,216.734093 1072.30821,216.859267 C1073.51976,217.365437 1074.96596,217.131654 1075.95194,216.145673 L1078.96692,213.130546 Z M1073.9395,214.825655 C1073.85207,214.73822 1073.82095,214.598786 1073.8731,214.486719 C1074.05459,214.095784 1073.9964,213.624184 1073.67345,213.301382 C1073.35065,212.978579 1072.87919,212.920386 1072.48812,213.101881 C1072.37605,213.154025 1072.23964,213.125936 1072.15221,213.038502 C1072.03639,212.922546 1072.03639,212.734713 1072.15221,212.618902 L1075.25275,209.518356 C1075.81524,208.955865 1076.72733,208.955865 1077.28982,209.518356 L1077.4595,209.68804 C1078.02214,210.250676 1078.02214,211.162618 1077.4595,211.725253 L1074.3591,214.825655 C1074.24329,214.94161 1074.05531,214.94161 1073.9395,214.825655 L1073.9395,214.825655 Z M1067.03418,218.148172 C1067.12262,218.236759 1067.14625,218.374753 1067.09151,218.487252 C1066.89921,218.881788 1066.95539,219.363759 1067.28338,219.691747 C1067.61136,220.019735 1068.09334,220.075768 1068.48773,219.883469 C1068.60023,219.828733 1068.73462,219.848611 1068.82321,219.937198 C1068.93657,220.05056 1068.94392,220.241707 1068.83055,220.355069 L1065.72554,223.46008 C1065.16291,224.022572 1064.25096,224.022572 1063.68833,223.46008 L1063.51864,223.290252 C1062.95615,222.727761 1062.95615,221.815819 1063.51864,221.253183 L1066.62366,218.148172 C1066.73702,218.03481 1066.92082,218.03481 1067.03418,218.148172 L1067.03418,218.148172 Z M1077.91013,221.830972 C1077.66134,221.830972 1077.45965,221.629282 1077.45965,221.380492 L1077.45965,219.738649 C1077.45965,219.491151 1077.25902,219.290476 1077.01148,219.290476 L1076.28033,219.290476 C1076.03283,219.290476 1075.8322,219.491151 1075.8322,219.738649 L1075.8322,221.380492 C1075.8322,221.629282 1075.63051,221.830972 1075.38172,221.830972 L1073.73988,221.830972 C1073.49238,221.830972 1073.29175,222.031601 1073.29175,222.2791 L1073.29175,223.010294 C1073.29175,223.257793 1073.49238,223.458421 1073.73988,223.458421 L1075.38172,223.458421 C1075.63051,223.458421 1075.8322,223.660111 1075.8322,223.908902 L1075.8322,225.550744 C1075.8322,225.799858 1076.03283,225.998226 1076.28033,225.998226 L1077.01148,225.998226 C1077.25902,225.998226 1077.45965,225.799858 1077.45965,225.550744 L1077.45965,223.908902 C1077.45965,223.660111 1077.66134,223.458421 1077.91013,223.458421 L1079.55197,223.458421 C1079.79947,223.458421 1080.0001,223.257793 1080.0001,223.010294 L1080.0001,222.2791 C1080.0001,222.031601 1079.79947,221.830972 1079.55197,221.830972 L1077.91013,221.830972 Z" id="outlink"></path>
            </g>
        </g>
    </g>
</svg>