<?xml version="1.0" encoding="UTF-8"?>
<svg width="32px" height="32px" viewBox="0 0 32 32" version="1.1" xmlns="http://www.w3.org/2000/svg" xmlns:xlink="http://www.w3.org/1999/xlink">
    <!-- Generator: Sketch 42 (36781) - http://www.bohemiancoding.com/sketch -->
    <title>Shape</title>
    <desc>Created with Sketch.</desc>
    <defs></defs>
    <g id="Page-1" stroke="none" stroke-width="1" fill="none" fill-rule="evenodd">
        <path d="M27.333,9.375 L22.02,9.375 C22.337,7.492 22.45,4.667 20.939,2.58 C19.759,0.951 17.887,0.125 15.375,0.125 C14.961,0.125 14.565,0.296 14.281,0.598 C13.998,0.9 13.852,1.306 13.878,1.72 C13.99,3.495 13.803,7.606 12.508,8.985 C12.251,9.259 11.993,9.376 11.646,9.376 L10.158,9.376 C9.951,8.795 9.402,8.376 8.75,8.376 L1.75,8.376 C0.921,8.376 0.25,9.047 0.25,9.876 L0.25,30.376 C0.25,31.204 0.921,31.876 1.75,31.876 L8.75,31.876 C9.402,31.876 9.952,31.457 10.158,30.876 L26.335,30.876 C28.748,30.876 30.716,28.931 30.751,26.525 L31.746,13.91 C31.749,13.87 31.751,13.831 31.751,13.792 C31.75,11.356 29.769,9.375 27.333,9.375 Z M3.249,11.375 L7.249,11.375 L7.249,28.875 L3.249,28.875 L3.249,11.375 Z M27.755,26.341 C27.752,26.38 27.75,26.42 27.75,26.459 C27.75,27.24 27.115,27.875 26.334,27.875 L10.249,27.875 L10.249,12.375 L11.645,12.375 C12.818,12.375 13.873,11.913 14.694,11.038 C16.486,9.13 16.853,5.5 16.899,3.3 C17.609,3.489 18.139,3.832 18.504,4.335 C19.732,6.024 19.06,9.293 18.698,10.407 C18.548,10.864 18.626,11.365 18.908,11.755 C19.19,12.145 19.641,12.376 20.123,12.376 L27.333,12.376 C28.098,12.376 28.723,12.985 28.748,13.743 L27.755,26.341 Z" id="Shape" fill="#00C7B7" fill-rule="nonzero"></path>
    </g>
</svg>