<svg width="39" height="32" viewBox="0 0 39 32" version="1.1" xmlns="http://www.w3.org/2000/svg" xmlns:xlink="http://www.w3.org/1999/xlink"><title>twitter</title><desc>Created with Sketch.</desc><g id="Page-1" stroke="none" stroke-width="1" fill="none" fill-rule="evenodd"><g id="jamstack-landing" transform="translate(-860.000000, -2364.000000)" fill="#1DA1F2"><g id="articles" transform="translate(0.000000, 2345.000000)"><g id="Group-3" transform="translate(330.000000, 0.000000)"><path d="M568.679179,23.1676699 C567.273959,23.7917335 565.767182,24.2105404 564.183719,24.4012841 C565.800343,23.4330524 567.041828,21.8988095 567.624227,20.0722311 C566.113305,20.9678973 564.438648,21.6209872 562.658289,21.9713751 C561.23027,20.449572 559.197054,19.5 556.946215,19.5 C552.624854,19.5 549.122167,23.0038791 549.122167,27.3246388 C549.122167,27.938336 549.190563,28.5354468 549.325282,29.1076779 C542.82355,28.7821696 537.057589,25.6659979 533.200489,20.9305778 C532.524823,22.0854066 532.137247,23.4309791 532.137247,24.8657036 C532.137247,27.5817282 533.519669,29.9763911 535.619208,31.3800161 C534.336271,31.33855 533.130021,30.9881621 532.07507,30.4014179 L532.07507,30.498863 C532.07507,34.290931 534.773589,37.4527154 538.350889,38.1742242 C537.695948,38.3525281 537.003702,38.4478999 536.288656,38.4478999 C535.785015,38.4478999 535.295883,38.400214 534.817113,38.3089888 C535.811959,41.4189406 538.70323,43.6809123 542.125085,43.7431113 C539.447292,45.8433654 536.075179,47.0935661 532.408757,47.0935661 C531.776616,47.0935661 531.154837,47.0562467 530.543421,46.9836811 C534.004656,49.2041867 538.116685,50.5 542.537532,50.5 C556.927562,50.5 564.797207,38.5743713 564.797207,28.2306715 C564.797207,27.8927234 564.790989,27.5547753 564.774409,27.2189005 C566.303984,26.1159042 567.628373,24.7371589 568.679179,23.1676699 L568.679179,23.1676699 Z" id="twitter"/></g></g></g></g></svg>