<svg width="40" height="40" viewBox="0 0 40 40" version="1.1" xmlns="http://www.w3.org/2000/svg" xmlns:xlink="http://www.w3.org/1999/xlink"><title>x</title><desc>Created with Sketch.</desc><g id="landing" stroke="none" stroke-width="1" fill="none" fill-rule="evenodd"><g id="jamstack-landing-copy" transform="translate(-730.000000, -1834.000000)" fill="#FC929A"><path d="M750,1834 C761.04568,1834 770,1842.95432 770,1854 C770,1865.04568 761.04568,1874 750,1874 C738.95432,1874 730,1865.04568 730,1854 C730,1842.95432 738.95432,1834 750,1834 Z M756.667078,1858.04523 L752.769221,1854.14737 C752.687964,1854.06612 752.687964,1853.93419 752.769221,1853.85262 L756.667079,1849.95508 C757.38356,1849.23829 757.383869,1848.07659 756.667388,1847.3598 L756.641126,1847.33354 C755.924644,1846.61613 754.762022,1846.61582 754.044922,1847.33292 L750.147374,1851.23078 C750.066117,1851.31204 749.934191,1851.31204 749.852625,1851.23078 L745.954767,1847.33292 C745.238286,1846.61644 744.076591,1846.61613 743.3598,1847.3323 L743.333538,1847.35856 C742.61613,1848.07505 742.615821,1849.23767 743.332921,1849.95477 L747.230469,1853.85232 C747.311726,1853.93388 747.311726,1854.06581 747.230469,1854.14707 L743.332921,1858.04492 C742.61613,1858.7614 742.61613,1859.9231 743.332303,1860.6402 L743.358565,1860.66615 C744.075355,1861.38356 745.237668,1861.38387 745.954767,1860.66677 L749.852625,1856.76922 C749.933882,1856.68766 750.065808,1856.68766 750.147374,1856.76922 L754.044922,1860.66677 C754.761713,1861.38356 755.923408,1861.38387 756.640198,1860.66739 L756.66646,1860.64143 C757.383869,1859.92464 757.383869,1858.76202 756.667078,1858.04523 Z" id="x"/></g></g></svg>