<svg width="602" height="173" viewBox="0 0 602 173" fill="none" xmlns="http://www.w3.org/2000/svg">
<rect width="602" height="173" fill="white"/>
<path d="M196.8 89.1118V53.3518H181.68V92.8718C181.68 96.1518 181.44 100.392 177.12 100.392C173.28 100.392 172.72 96.4718 172.56 93.5118H156.48C156.48 102.152 160 109.192 168.4 112.232C170.88 113.192 173.68 113.672 176.4 113.672C182.72 113.672 189.12 110.872 193.12 105.912C196.8 101.272 196.8 94.7918 196.8 89.1118ZM252.128 112.552V68.1518H238.848V72.8718H238.688C236.048 68.4718 230.608 66.6318 225.728 66.6318C212.368 66.6318 203.408 77.3518 203.408 90.3118C203.408 103.512 212.048 114.072 225.728 114.072C230.528 114.072 236.288 112.312 238.688 107.752H238.848V112.552H252.128ZM238.848 90.3118C238.848 96.7118 234.208 101.672 227.728 101.672C221.488 101.672 216.688 96.6318 216.688 90.4718C216.688 84.1518 221.168 79.0318 227.648 79.0318C234.128 79.0318 238.848 83.8318 238.848 90.3118ZM329.976 112.552V88.3118C329.976 81.5118 330.216 76.2318 325.176 71.1118C322.056 67.9118 317.896 66.6318 313.496 66.6318C307.496 66.6318 302.616 69.5118 299.416 74.5518C296.696 69.5118 292.376 66.6318 286.616 66.6318C281.576 66.6318 276.936 68.3118 274.376 72.8718H274.216V68.1518H261.816V112.552H275.096V88.9518C275.096 83.7518 276.456 79.1118 282.616 79.1118C288.216 79.1118 289.256 83.8318 289.256 88.3918V112.552H302.536V88.3118C302.536 83.2718 303.976 79.1118 309.896 79.1118C316.056 79.1118 316.696 84.0718 316.696 88.9518V112.552H329.976ZM372.596 98.9518C372.596 83.2718 350.276 87.1918 350.276 80.2318C350.276 78.2318 352.276 77.2718 354.036 77.2718C356.356 77.2718 358.116 78.1518 358.196 80.6318H371.236C370.356 71.1918 363.076 66.6318 354.196 66.6318C345.636 66.6318 336.996 71.9918 336.996 81.2718C336.996 87.5118 342.276 90.9518 347.556 92.8718C349.476 93.5918 351.396 94.2318 353.316 94.8718C355.716 95.8318 359.316 96.7918 359.316 99.9918C359.316 102.312 356.676 103.432 354.676 103.432C352.036 103.432 350.036 102.072 349.636 99.3518H336.436C337.476 109.112 345.236 114.072 354.516 114.072C363.556 114.072 372.596 108.952 372.596 98.9518ZM401.558 78.2318V68.1518H395.158V53.3518H381.878V68.1518H375.318V78.2318H381.878V112.552H395.158V78.2318H401.558ZM452.753 112.552V68.1518H439.473V72.8718H439.313C436.673 68.4718 431.233 66.6318 426.353 66.6318C412.993 66.6318 404.033 77.3518 404.033 90.3118C404.033 103.512 412.673 114.072 426.353 114.072C431.153 114.072 436.913 112.312 439.313 107.752H439.473V112.552H452.753ZM439.473 90.3118C439.473 96.7118 434.833 101.672 428.353 101.672C422.113 101.672 417.313 96.6318 417.313 90.4718C417.313 84.1518 421.793 79.0318 428.273 79.0318C434.753 79.0318 439.473 83.8318 439.473 90.3118ZM507.321 95.6718H493.801C491.801 99.5118 488.601 101.592 484.201 101.592C477.721 101.592 473.641 96.5518 473.641 90.3118C473.641 84.3118 477.481 79.0318 483.881 79.0318C488.441 79.0318 491.881 81.1118 493.801 85.2718H507.241C504.921 73.9918 495.081 66.6318 483.721 66.6318C470.521 66.6318 460.281 77.1118 460.281 90.2318C460.281 103.512 470.761 113.992 484.041 113.992C495.241 113.992 504.761 106.552 507.321 95.6718ZM555.456 68.1518H539.696L527.376 84.2318H527.216V53.3518H513.936V112.552H527.216V91.1918H527.376L539.936 112.552H554.976L538.736 87.6718L555.456 68.1518Z" fill="#8E8E8E"/>
<path d="M81.7 37.855C54.8981 37.855 33.2299 59.5232 33.2299 86.3251C33.2299 113.127 54.8981 134.795 81.7 134.795C108.502 134.795 130.17 113.127 130.17 86.3251V37.855H81.7Z" fill="#8E8E8E"/>
<path d="M80.1333 87.8252V121.81C61.7394 121.032 46.9269 106.219 46.1487 87.8252H80.1333Z" fill="white" stroke="#8E8E8E"/>
<path d="M83.2001 87.8916H117.185C116.406 106.285 101.594 121.098 83.2001 121.876V87.8916Z" fill="white" stroke="#8E8E8E"/>
<path d="M83.2001 84.7583V50.7559H117.203V84.7583H83.2001Z" fill="white" stroke="#8E8E8E"/>
</svg>
