<svg width="577" height="173" viewBox="0 0 577 173" fill="none" xmlns="http://www.w3.org/2000/svg">
<rect width="577" height="173" fill="white"/>
<path d="M190.8 89.4865V53.7265H175.68V93.2465C175.68 96.5265 175.44 100.767 171.12 100.767C167.28 100.767 166.72 96.8465 166.56 93.8865H150.48C150.48 102.527 154 109.567 162.4 112.607C164.88 113.567 167.68 114.047 170.4 114.047C176.72 114.047 183.12 111.247 187.12 106.287C190.8 101.647 190.8 95.1665 190.8 89.4865ZM246.128 112.927V68.5265H232.848V73.2465H232.688C230.048 68.8465 224.608 67.0065 219.728 67.0065C206.368 67.0065 197.408 77.7265 197.408 90.6865C197.408 103.887 206.048 114.447 219.728 114.447C224.528 114.447 230.288 112.687 232.688 108.127H232.848V112.927H246.128ZM232.848 90.6865C232.848 97.0865 228.208 102.047 221.728 102.047C215.488 102.047 210.688 97.0065 210.688 90.8465C210.688 84.5265 215.168 79.4065 221.648 79.4065C228.128 79.4065 232.848 84.2065 232.848 90.6865ZM323.976 112.927V88.6865C323.976 81.8865 324.216 76.6065 319.176 71.4865C316.056 68.2865 311.896 67.0065 307.496 67.0065C301.496 67.0065 296.616 69.8865 293.416 74.9265C290.696 69.8865 286.376 67.0065 280.616 67.0065C275.576 67.0065 270.936 68.6865 268.376 73.2465H268.216V68.5265H255.816V112.927H269.096V89.3265C269.096 84.1265 270.456 79.4865 276.616 79.4865C282.216 79.4865 283.256 84.2065 283.256 88.7665V112.927H296.536V88.6865C296.536 83.6465 297.976 79.4865 303.896 79.4865C310.056 79.4865 310.696 84.4465 310.696 89.3265V112.927H323.976ZM366.596 99.3265C366.596 83.6465 344.276 87.5665 344.276 80.6065C344.276 78.6065 346.276 77.6465 348.036 77.6465C350.356 77.6465 352.116 78.5265 352.196 81.0065H365.236C364.356 71.5665 357.076 67.0065 348.196 67.0065C339.636 67.0065 330.996 72.3665 330.996 81.6465C330.996 87.8865 336.276 91.3265 341.556 93.2465C343.476 93.9665 345.396 94.6065 347.316 95.2465C349.716 96.2065 353.316 97.1665 353.316 100.367C353.316 102.687 350.676 103.807 348.676 103.807C346.036 103.807 344.036 102.447 343.636 99.7265H330.436C331.476 109.487 339.236 114.447 348.516 114.447C357.556 114.447 366.596 109.327 366.596 99.3265ZM395.558 78.6065V68.5265H389.158V53.7265H375.878V68.5265H369.318V78.6065H375.878V112.927H389.158V78.6065H395.558ZM446.753 112.927V68.5265H433.473V73.2465H433.313C430.673 68.8465 425.233 67.0065 420.353 67.0065C406.993 67.0065 398.033 77.7265 398.033 90.6865C398.033 103.887 406.673 114.447 420.353 114.447C425.153 114.447 430.913 112.687 433.313 108.127H433.473V112.927H446.753ZM433.473 90.6865C433.473 97.0865 428.833 102.047 422.353 102.047C416.113 102.047 411.313 97.0065 411.313 90.8465C411.313 84.5265 415.793 79.4065 422.273 79.4065C428.753 79.4065 433.473 84.2065 433.473 90.6865ZM501.321 96.0465H487.801C485.801 99.8865 482.601 101.967 478.201 101.967C471.721 101.967 467.641 96.9265 467.641 90.6865C467.641 84.6865 471.481 79.4065 477.881 79.4065C482.441 79.4065 485.881 81.4865 487.801 85.6465H501.241C498.921 74.3665 489.081 67.0065 477.721 67.0065C464.521 67.0065 454.281 77.4865 454.281 90.6065C454.281 103.887 464.761 114.367 478.041 114.367C489.241 114.367 498.761 106.927 501.321 96.0465ZM549.456 68.5265H533.696L521.376 84.6065H521.216V53.7265H507.936V112.927H521.216V91.5665H521.376L533.936 112.927H548.976L532.736 88.0465L549.456 68.5265Z" fill="#242424"/>
<path d="M75.7 38.23C48.8981 38.23 27.2299 59.8982 27.2299 86.7001C27.2299 113.502 48.8981 135.17 75.7 135.17C102.502 135.17 124.17 113.502 124.17 86.7001V38.23H75.7Z" fill="#F0047F"/>
<path d="M39.6308 87.7002C40.1642 106.768 55.5653 122.169 74.6333 122.703V87.7002H39.6308Z" fill="white"/>
<path d="M76.7001 122.769C95.7681 122.236 111.169 106.835 111.703 87.7668H76.7001V122.769Z" fill="white"/>
<path d="M111.703 50.6309H76.7001V85.6333H111.703V50.6309Z" fill="white"/>
</svg>
