<svg width="577" height="173" viewBox="0 0 577 173" fill="none" xmlns="http://www.w3.org/2000/svg">
<rect width="577" height="173" fill="white"/>
<path d="M190.8 89.4868V53.7268H175.68V93.2468C175.68 96.5268 175.44 100.767 171.12 100.767C167.28 100.767 166.72 96.8468 166.56 93.8868H150.48C150.48 102.527 154 109.567 162.4 112.607C164.88 113.567 167.68 114.047 170.4 114.047C176.72 114.047 183.12 111.247 187.12 106.287C190.8 101.647 190.8 95.1668 190.8 89.4868ZM246.128 112.927V68.5268H232.848V73.2468H232.688C230.048 68.8468 224.608 67.0068 219.728 67.0068C206.368 67.0068 197.408 77.7268 197.408 90.6868C197.408 103.887 206.048 114.447 219.728 114.447C224.528 114.447 230.288 112.687 232.688 108.127H232.848V112.927H246.128ZM232.848 90.6868C232.848 97.0868 228.208 102.047 221.728 102.047C215.488 102.047 210.688 97.0068 210.688 90.8468C210.688 84.5268 215.168 79.4068 221.648 79.4068C228.128 79.4068 232.848 84.2068 232.848 90.6868ZM323.976 112.927V88.6868C323.976 81.8868 324.216 76.6068 319.176 71.4868C316.056 68.2868 311.896 67.0068 307.496 67.0068C301.496 67.0068 296.616 69.8868 293.416 74.9268C290.696 69.8868 286.376 67.0068 280.616 67.0068C275.576 67.0068 270.936 68.6868 268.376 73.2468H268.216V68.5268H255.816V112.927H269.096V89.3268C269.096 84.1268 270.456 79.4868 276.616 79.4868C282.216 79.4868 283.256 84.2068 283.256 88.7668V112.927H296.536V88.6868C296.536 83.6468 297.976 79.4868 303.896 79.4868C310.056 79.4868 310.696 84.4468 310.696 89.3268V112.927H323.976ZM366.596 99.3268C366.596 83.6468 344.276 87.5668 344.276 80.6068C344.276 78.6068 346.276 77.6468 348.036 77.6468C350.356 77.6468 352.116 78.5268 352.196 81.0068H365.236C364.356 71.5668 357.076 67.0068 348.196 67.0068C339.636 67.0068 330.996 72.3668 330.996 81.6468C330.996 87.8868 336.276 91.3268 341.556 93.2468C343.476 93.9668 345.396 94.6068 347.316 95.2468C349.716 96.2068 353.316 97.1668 353.316 100.367C353.316 102.687 350.676 103.807 348.676 103.807C346.036 103.807 344.036 102.447 343.636 99.7268H330.436C331.476 109.487 339.236 114.447 348.516 114.447C357.556 114.447 366.596 109.327 366.596 99.3268ZM395.558 78.6068V68.5268H389.158V53.7268H375.878V68.5268H369.318V78.6068H375.878V112.927H389.158V78.6068H395.558ZM446.753 112.927V68.5268H433.473V73.2468H433.313C430.673 68.8468 425.233 67.0068 420.353 67.0068C406.993 67.0068 398.033 77.7268 398.033 90.6868C398.033 103.887 406.673 114.447 420.353 114.447C425.153 114.447 430.913 112.687 433.313 108.127H433.473V112.927H446.753ZM433.473 90.6868C433.473 97.0868 428.833 102.047 422.353 102.047C416.113 102.047 411.313 97.0068 411.313 90.8468C411.313 84.5268 415.793 79.4068 422.273 79.4068C428.753 79.4068 433.473 84.2068 433.473 90.6868ZM501.321 96.0468H487.801C485.801 99.8868 482.601 101.967 478.201 101.967C471.721 101.967 467.641 96.9268 467.641 90.6868C467.641 84.6868 471.481 79.4068 477.881 79.4068C482.441 79.4068 485.881 81.4868 487.801 85.6468H501.241C498.921 74.3668 489.081 67.0068 477.721 67.0068C464.521 67.0068 454.281 77.4868 454.281 90.6068C454.281 103.887 464.761 114.367 478.041 114.367C489.241 114.367 498.761 106.927 501.321 96.0468ZM549.456 68.5268H533.696L521.376 84.6068H521.216V53.7268H507.936V112.927H521.216V91.5668H521.376L533.936 112.927H548.976L532.736 88.0468L549.456 68.5268Z" fill="#242424"/>
<path d="M75.7 38.23C48.8981 38.23 27.2299 59.8982 27.2299 86.7001C27.2299 113.502 48.8981 135.17 75.7 135.17C102.502 135.17 124.17 113.502 124.17 86.7001V38.23H75.7Z" fill="#242424"/>
<path d="M39.6308 87.7002C40.1642 106.768 55.5653 122.169 74.6333 122.703V87.7002H39.6308Z" fill="white"/>
<path d="M76.7001 122.769C95.7681 122.236 111.169 106.835 111.703 87.7666H76.7001V122.769Z" fill="white"/>
<path d="M111.703 50.6309H76.7001V85.6333H111.703V50.6309Z" fill="white"/>
</svg>
