<svg width="577" height="174" viewBox="0 0 577 174" fill="none" xmlns="http://www.w3.org/2000/svg">
<rect y="0.625" width="577" height="173" fill="white"/>
<path d="M190.8 90.1118V54.3518H175.68V93.8718C175.68 97.1518 175.44 101.392 171.12 101.392C167.28 101.392 166.72 97.4718 166.56 94.5118H150.48C150.48 103.152 154 110.192 162.4 113.232C164.88 114.192 167.68 114.672 170.4 114.672C176.72 114.672 183.12 111.872 187.12 106.912C190.8 102.272 190.8 95.7918 190.8 90.1118ZM246.128 113.552V69.1518H232.848V73.8718H232.688C230.048 69.4718 224.608 67.6318 219.728 67.6318C206.368 67.6318 197.408 78.3518 197.408 91.3118C197.408 104.512 206.048 115.072 219.728 115.072C224.528 115.072 230.288 113.312 232.688 108.752H232.848V113.552H246.128ZM232.848 91.3118C232.848 97.7118 228.208 102.672 221.728 102.672C215.488 102.672 210.688 97.6318 210.688 91.4718C210.688 85.1518 215.168 80.0318 221.648 80.0318C228.128 80.0318 232.848 84.8318 232.848 91.3118ZM323.976 113.552V89.3118C323.976 82.5118 324.216 77.2318 319.176 72.1118C316.056 68.9118 311.896 67.6318 307.496 67.6318C301.496 67.6318 296.616 70.5118 293.416 75.5518C290.696 70.5118 286.376 67.6318 280.616 67.6318C275.576 67.6318 270.936 69.3118 268.376 73.8718H268.216V69.1518H255.816V113.552H269.096V89.9518C269.096 84.7518 270.456 80.1118 276.616 80.1118C282.216 80.1118 283.256 84.8318 283.256 89.3918V113.552H296.536V89.3118C296.536 84.2718 297.976 80.1118 303.896 80.1118C310.056 80.1118 310.696 85.0718 310.696 89.9518V113.552H323.976ZM366.596 99.9518C366.596 84.2718 344.276 88.1918 344.276 81.2318C344.276 79.2318 346.276 78.2718 348.036 78.2718C350.356 78.2718 352.116 79.1518 352.196 81.6318H365.236C364.356 72.1918 357.076 67.6318 348.196 67.6318C339.636 67.6318 330.996 72.9918 330.996 82.2718C330.996 88.5118 336.276 91.9518 341.556 93.8718C343.476 94.5918 345.396 95.2318 347.316 95.8718C349.716 96.8318 353.316 97.7918 353.316 100.992C353.316 103.312 350.676 104.432 348.676 104.432C346.036 104.432 344.036 103.072 343.636 100.352H330.436C331.476 110.112 339.236 115.072 348.516 115.072C357.556 115.072 366.596 109.952 366.596 99.9518ZM395.558 79.2318V69.1518H389.158V54.3518H375.878V69.1518H369.318V79.2318H375.878V113.552H389.158V79.2318H395.558ZM446.753 113.552V69.1518H433.473V73.8718H433.313C430.673 69.4718 425.233 67.6318 420.353 67.6318C406.993 67.6318 398.033 78.3518 398.033 91.3118C398.033 104.512 406.673 115.072 420.353 115.072C425.153 115.072 430.913 113.312 433.313 108.752H433.473V113.552H446.753ZM433.473 91.3118C433.473 97.7118 428.833 102.672 422.353 102.672C416.113 102.672 411.313 97.6318 411.313 91.4718C411.313 85.1518 415.793 80.0318 422.273 80.0318C428.753 80.0318 433.473 84.8318 433.473 91.3118ZM501.321 96.6718H487.801C485.801 100.512 482.601 102.592 478.201 102.592C471.721 102.592 467.641 97.5518 467.641 91.3118C467.641 85.3118 471.481 80.0318 477.881 80.0318C482.441 80.0318 485.881 82.1118 487.801 86.2718H501.241C498.921 74.9918 489.081 67.6318 477.721 67.6318C464.521 67.6318 454.281 78.1118 454.281 91.2318C454.281 104.512 464.761 114.992 478.041 114.992C489.241 114.992 498.761 107.552 501.321 96.6718ZM549.456 69.1518H533.696L521.376 85.2318H521.216V54.3518H507.936V113.552H521.216V92.1918H521.376L533.936 113.552H548.976L532.736 88.6718L549.456 69.1518Z" fill="#8E8E8E"/>
<path d="M75.7 38.855C48.8981 38.855 27.2299 60.5232 27.2299 87.3251C27.2299 114.127 48.8981 135.795 75.7 135.795C102.502 135.795 124.17 114.127 124.17 87.3251V38.855H75.7Z" fill="#8E8E8E"/>
<path d="M39.6308 88.3252C40.1642 107.393 55.5653 122.794 74.6333 123.328V88.3252H39.6308Z" fill="white"/>
<path d="M76.7001 123.394C95.7681 122.861 111.169 107.46 111.703 88.3916H76.7001V123.394Z" fill="white"/>
<path d="M111.703 51.2559H76.7001V86.2583H111.703V51.2559Z" fill="white"/>
</svg>
