<svg xmlns="http://www.w3.org/2000/svg" xmlns:xlink="http://www.w3.org/1999/xlink" width="144" height="144" viewBox="0 0 144 144">
  <defs>
    <circle id="atlanta-illo-a" cx="72" cy="72" r="72"/>
  </defs>
  <g fill="none" fill-rule="evenodd">
    <mask id="atlanta-illo-b" fill="#fff">
      <use xlink:href="#atlanta-illo-a"/>
    </mask>
    <g stroke="#313D3E" stroke-linecap="round" stroke-linejoin="round" stroke-width="2" mask="url(#atlanta-illo-b)">
      <g transform="translate(20 11)">
        <path d="M60.9162497 26.8991641L43.3031404 115.150432M60.6253735 26.8991641C68.480741 39.5196429 70.9110189 55.2790693 67.916207 74.1774431 64.9213951 93.0758169 56.7170396 106.997173 43.3031404 115.941513"/>
        <path d="M60.9162497 26.8991641C80.9325057 35.9904935 89.6425357 50.0040297 87.0463398 68.9397728 84.4501438 87.8755158 69.9162096 103.279069 43.4445371 115.150432M60.9162497 26.8991641C41.5531555 30.1910581 30.2324468 43.8813552 26.9541234 67.9700553 23.6757999 92.0587555 28.6116445 107.785548 41.7616572 115.150432"/>
        <path d="M60.9162497,26.8985214 C31.4799557,26.8828851 15.88236,40.0663868 14.1234628,66.4490264 C12.3645656,92.8316661 21.577297,109.065468 41.7616572,115.150432"/>
        <path d="M60.664395,26.8989749 C29.4867019,23.1995127 10.4297609,35.4512946 3.49357212,63.6543204 C-1.82260003,91.9000974 11.4943883,109.065468 43.4445371,115.150432"/>
        <path d="M60.9162497,26.2554818 C38.4974325,16.6836751 20.298699,21.6986359 6.32004904,41.3003644 C-7.65860091,60.9020929 1.55117535,84.4530985 33.9493778,111.953381"/>
        <path d="M60.1661996,26.8989749 C88.4759578,32.3809898 101.342844,47.6816819 98.7668584,72.8010513 C96.1908728,97.9204206 77.750099,112.036881 43.4445371,115.150432"/>
        <path d="M60.6028752,26.2554818 C91.9550319,29.0909666 106.663077,44.014072 104.727011,71.0247983 C102.790945,98.0355245 82.3485265,112.744069 43.3997559,115.150432"/>
        <path fill="#ED1C40" d="M60.9162497,23.5093678 C65.1518845,12.2699188 64.1142367,4.43346283 57.8033061,0 C55.7378702,0 54.5720845,1.19417076 54.7820134,3.33550547 C55.1908326,7.50557826 60.2619844,7.79151662 59.0408023,12.622815 C58.2266809,15.8436806 57.8141822,17.1399747 57.8033061,16.5116974 C46.3631966,17.091939 39.1433107,19.4244958 36.1436483,23.5093678 C33.1439859,27.5942397 32.3322662,35.4450922 33.7084892,47.0619252 C38.7430578,42.1845904 42.4275459,39.4211499 44.7619535,38.7716035 C48.2635648,37.797284 58.4978802,37.2288959 60.6028752,33.6901137 C62.0062053,31.3309255 62.1106634,27.9373435 60.9162497,23.5093678 Z"/>
        <path fill="#ED1C40" d="M63.2830178,16.9554095 C75.0119883,22.3057013 81.7030846,26.2204705 83.3563067,28.699717 C85.0095288,31.1789635 77.7261077,30.8814763 61.5060435,27.8072554"/>
      </g>
    </g>
    <path fill="#313D3E" fill-rule="nonzero" d="M72,144 C32.235498,144 0,111.764502 0,72 C0,32.235498 32.235498,-1.69197989e-13 72,-1.69197989e-13 C111.764502,-1.69197989e-13 144,32.235498 144,72 C144,111.764502 111.764502,144 72,144 Z M72,141 C110.107648,141 141,110.107648 141,72 C141,33.8923523 110.107648,3 72,3 C33.8923523,3 3,33.8923523 3,72 C3,110.107648 33.8923523,141 72,141 Z" mask="url(#atlanta-illo-b)"/>
  </g>
</svg>
