<svg xmlns="http://www.w3.org/2000/svg" xmlns:xlink="http://www.w3.org/1999/xlink" width="144" height="144" viewBox="0 0 144 144">
  <defs>
    <circle id="bengaluru-illo-a" cx="72" cy="72" r="72"/>
  </defs>
  <g fill="none" fill-rule="evenodd">
    <mask id="bengaluru-illo-b" fill="#fff">
      <use xlink:href="#bengaluru-illo-a"/>
    </mask>
    <g stroke-linecap="round" stroke-linejoin="round" mask="url(#bengaluru-illo-b)">
      <g transform="translate(-150 -27)">
        <g transform="translate(222.39 46.604)">
          <path stroke="#313D3E" stroke-width="2" d="M215.756665 108.171812L215.756665 65.9562898 202.944591 65.9562898 205.910982 62.988419C204.975699 62.8481215 203.986902 61.8588312 202.944591 60.0205481 201.90228 58.1822651 201.251376 56.2796776 200.991878 54.3127858L202.944591 52.6619816 199.179472 52.6619816C201.689551 47.5825128 201.689551 45.0427784 199.179472 45.0427784 196.669392 45.0427784 194.107519 41.4226551 191.493851 34.1824086 188.436996 41.7896146 185.876282 45.5728122 183.811709 45.5320015 181.747136 45.4911908 181.747136 47.8678508 183.811709 52.6619816L179.959622 52.6619816 183.811709 54.3127858 179.959622 60.0205481 175.721399 62.988419 179.959622 65.9562898 162.952229 65.9562898 162.952229 68.9018738 138.540991 68.9018738 138.540991 66.8499838 141.107116 65.9562898 138.540991 63.6775077 138.540991 60.0205481 136.39347 57.8670279C137.825151 55.4975332 137.825151 54.3127858 136.39347 54.3127858 134.961789 54.3127858 133.113517 51.6743828 130.848655 46.3975766 128.614741 51.6743828 126.882265 54.3127858 125.651226 54.3127858 124.420187 54.3127858 124.420187 55.4975332 125.651226 57.8670279L123.202217 60.0205481 123.202217 63.6775077 120.124722 65.9562898 123.202217 66.8499838 123.202217 68.9018738 45.3522594 68.9018738 42.2260624 65.1927224C44.3101937 64.1825793 45.3522594 63.196933 45.3522594 62.2357836 45.3522594 60.7940595 40.0076329 55.6580112 39.2436519 54.3127858 38.7343313 53.4159689 39.7284681 52.8657008 42.2260624 52.6619816L39.2436519 51.4796857C40.2355106 48.091613 40.2355106 46.3975766 39.2436519 46.3975766 37.2553783 46.3975766 34.8703462 43.6780965 32.0885556 38.2391364 28.9657109 43.6780965 26.7372061 46.3975766 25.403041 46.3975766 24.0688759 46.3975766 24.0688759 48.091613 25.403041 51.4796857L22.4415028 52.6619816 25.403041 54.3127858 22.4415028 60.0205481 19.2909548 57.395492 19.2909548 52.6619816 19.2909548 45.5932176 22.4415028 40.6502582C19.0022758 41.0888686 16.5451499 40.5321006 15.0701251 38.979954 13.5951003 37.4278074 13.5951003 35.3989786 15.0701251 32.8934675 16.7274579 28.4289905 16.7274579 25.3535443 15.0701251 23.667129 12.5841259 21.1375059 11.5692857 22.2135485 9.44041948 20.8192068 7.31155321 19.4248652 7.31305919 19.5781907 5.9965007 17.7241852 4.67994222 15.8701798 5.53311376 16.2996516 4.46587014 13.8139415 3.75437439 12.1568015 2.99562999 10.5047024 2.18963695 8.85764417L4.46587014 1.3148405-3.52429197e-12.0859340143M46.8844391 81.7107526C47.7877133 81.7107526 48.691501 82.3178114 49.5958021 83.531929L49.5958021 98.8321775 44.2442234 98.8321775 44.2442234 83.531929C45.1010931 82.3178114 45.981165 81.7107526 46.8844391 81.7107526zM44.5860571 78.0884974C44.5860571 75.2184118 44.5860571 73.7089321 44.5860571 73.5600584 44.5860571 73.3367479 45.7796129 72.4623209 46.9731687 72.4623209 47.7688726 72.4623209 48.5645765 72.8282334 49.3602803 73.5600584L49.3602803 78.0884974 44.5860571 78.0884974zM55.9377126 81.7107526C56.8409867 81.7107526 57.7447744 82.3178114 58.6490756 83.531929L58.6490756 98.8321775 53.2974968 98.8321775 53.2974968 83.531929C54.1543665 82.3178114 55.0344384 81.7107526 55.9377126 81.7107526zM53.6393305 78.0884974C53.6393305 75.2184118 53.6393305 73.7089321 53.6393305 73.5600584 53.6393305 73.3367479 54.8328863 72.4623209 56.0264421 72.4623209 56.822146 72.4623209 57.6178499 72.8282334 58.4135538 73.5600584L58.4135538 78.0884974 53.6393305 78.0884974z"/>
          <path stroke="#313D3E" stroke-width="2" d="M64.8449655 81.7107526C65.7482396 81.7107526 66.6520273 82.3178114 67.5563285 83.531929L67.5563285 98.8321775 62.2047497 98.8321775 62.2047497 83.531929C63.0616194 82.3178114 63.9416913 81.7107526 64.8449655 81.7107526zM62.5465834 78.0884974C62.5465834 75.2184118 62.5465834 73.7089321 62.5465834 73.5600584 62.5465834 73.3367479 63.7401392 72.4623209 64.933695 72.4623209 65.7293989 72.4623209 66.5251028 72.8282334 67.3208067 73.5600584L67.3208067 78.0884974 62.5465834 78.0884974zM73.7522184 81.7107526C74.6554925 81.7107526 75.5592802 82.3178114 76.4635813 83.531929L76.4635813 98.8321775 71.1120026 98.8321775 71.1120026 83.531929C71.9688723 82.3178114 72.8489442 81.7107526 73.7522184 81.7107526zM71.4538363 78.0884974C71.4538363 75.2184118 71.4538363 73.7089321 71.4538363 73.5600584 71.4538363 73.3367479 72.6473921 72.4623209 73.8409479 72.4623209 74.6366518 72.4623209 75.4323557 72.8282334 76.2280595 73.5600584L76.2280595 78.0884974 71.4538363 78.0884974zM23.8013479 53.0641915C26.6086103 52.7504771 29.4158726 52.59362 32.223135 52.59362 35.0303974 52.59362 37.8376598 52.7504771 40.6449222 53.0641915"/>
        </g>
        <g transform="matrix(-1 0 0 1 222.39 46.604)">
          <path stroke="#313D3E" stroke-width="2" d="M215.756665 108.171812L215.756665 65.9562898 202.944591 65.9562898 205.910982 62.988419C204.975699 62.8481215 203.986902 61.8588312 202.944591 60.0205481 201.90228 58.1822651 201.251376 56.2796776 200.991878 54.3127858L202.944591 52.6619816 199.179472 52.6619816C201.689551 47.5825128 201.689551 45.0427784 199.179472 45.0427784 196.669392 45.0427784 194.107519 41.4226551 191.493851 34.1824086 188.436996 41.7896146 185.876282 45.5728122 183.811709 45.5320015 181.747136 45.4911908 181.747136 47.8678508 183.811709 52.6619816L179.959622 52.6619816 183.811709 54.3127858 179.959622 60.0205481 175.721399 62.988419 179.959622 65.9562898 162.952229 65.9562898 162.952229 68.9018738 138.540991 68.9018738 138.540991 66.8499838 141.107116 65.9562898 138.540991 63.6775077 138.540991 60.0205481 136.39347 57.8670279C137.825151 55.4975332 137.825151 54.3127858 136.39347 54.3127858 134.961789 54.3127858 133.113517 51.6743828 130.848655 46.3975766 128.614741 51.6743828 126.882265 54.3127858 125.651226 54.3127858 124.420187 54.3127858 124.420187 55.4975332 125.651226 57.8670279L123.202217 60.0205481 123.202217 63.6775077 120.124722 65.9562898 123.202217 66.8499838 123.202217 68.9018738 45.3522594 68.9018738 42.2260624 65.1927224C44.3101937 64.1825793 45.3522594 63.196933 45.3522594 62.2357836 45.3522594 60.7940595 40.0076329 55.6580112 39.2436519 54.3127858 38.7343313 53.4159689 39.7284681 52.8657008 42.2260624 52.6619816L39.2436519 51.4796857C40.2355106 48.091613 40.2355106 46.3975766 39.2436519 46.3975766 37.2553783 46.3975766 34.8703462 43.6780965 32.0885556 38.2391364 28.9657109 43.6780965 26.7372061 46.3975766 25.403041 46.3975766 24.0688759 46.3975766 24.0688759 48.091613 25.403041 51.4796857L22.4415028 52.6619816 25.403041 54.3127858 22.4415028 60.0205481 19.2909548 57.395492 19.2909548 52.6619816 19.2909548 45.5932176 22.4415028 40.6502582C19.0022758 41.0888686 16.5451499 40.5321006 15.0701251 38.979954 13.5951003 37.4278074 13.5951003 35.3989786 15.0701251 32.8934675 16.7274579 28.4289905 16.7274579 25.3535443 15.0701251 23.667129 12.5841259 21.1375059 11.5692857 22.2135485 9.44041948 20.8192068 7.31155321 19.4248652 7.31305919 19.5781907 5.9965007 17.7241852 4.67994222 15.8701798 5.53311376 16.2996516 4.46587014 13.8139415 3.75437439 12.1568015 2.99562999 10.5047024 2.18963695 8.85764417L4.46587014 1.3148405-3.52429197e-12.0859340143M46.8844391 81.7107526C47.7877133 81.7107526 48.691501 82.3178114 49.5958021 83.531929L49.5958021 98.8321775 44.2442234 98.8321775 44.2442234 83.531929C45.1010931 82.3178114 45.981165 81.7107526 46.8844391 81.7107526zM44.5860571 78.0884974C44.5860571 75.2184118 44.5860571 73.7089321 44.5860571 73.5600584 44.5860571 73.3367479 45.7796129 72.4623209 46.9731687 72.4623209 47.7688726 72.4623209 48.5645765 72.8282334 49.3602803 73.5600584L49.3602803 78.0884974 44.5860571 78.0884974zM55.9377126 81.7107526C56.8409867 81.7107526 57.7447744 82.3178114 58.6490756 83.531929L58.6490756 98.8321775 53.2974968 98.8321775 53.2974968 83.531929C54.1543665 82.3178114 55.0344384 81.7107526 55.9377126 81.7107526zM53.6393305 78.0884974C53.6393305 75.2184118 53.6393305 73.7089321 53.6393305 73.5600584 53.6393305 73.3367479 54.8328863 72.4623209 56.0264421 72.4623209 56.822146 72.4623209 57.6178499 72.8282334 58.4135538 73.5600584L58.4135538 78.0884974 53.6393305 78.0884974z"/>
          <path stroke="#313D3E" stroke-width="2" d="M64.8449655 81.7107526C65.7482396 81.7107526 66.6520273 82.3178114 67.5563285 83.531929L67.5563285 98.8321775 62.2047497 98.8321775 62.2047497 83.531929C63.0616194 82.3178114 63.9416913 81.7107526 64.8449655 81.7107526zM62.5465834 78.0884974C62.5465834 75.2184118 62.5465834 73.7089321 62.5465834 73.5600584 62.5465834 73.3367479 63.7401392 72.4623209 64.933695 72.4623209 65.7293989 72.4623209 66.5251028 72.8282334 67.3208067 73.5600584L67.3208067 78.0884974 62.5465834 78.0884974zM73.7522184 81.7107526C74.6554925 81.7107526 75.5592802 82.3178114 76.4635813 83.531929L76.4635813 98.8321775 71.1120026 98.8321775 71.1120026 83.531929C71.9688723 82.3178114 72.8489442 81.7107526 73.7522184 81.7107526zM71.4538363 78.0884974C71.4538363 75.2184118 71.4538363 73.7089321 71.4538363 73.5600584 71.4538363 73.3367479 72.6473921 72.4623209 73.8409479 72.4623209 74.6366518 72.4623209 75.4323557 72.8282334 76.2280595 73.5600584L76.2280595 78.0884974 71.4538363 78.0884974zM23.8013479 53.0641915C26.6086103 52.7504771 29.4158726 52.59362 32.223135 52.59362 35.0303974 52.59362 37.8376598 52.7504771 40.6449222 53.0641915"/>
        </g>
        <g transform="translate(167.34 77.137)">
          <path stroke="#313D3E" stroke-width="2" d="M34.1688062 11.0466084C41.2070517 10.4024987 48.2452973 10.0804438 55.2835429 10.0804438 62.3217884 10.0804438 69.360034 10.4024987 76.3982796 11.0466084M33.8767651 25.2176671C40.9150107 24.5735574 47.9532562 24.2515025 54.9915018 24.2515025 62.0297474 24.2515025 69.0679929 24.5735574 76.1062385 25.2176671M39.5715661.966164565C44.7115447.322054855 49.8515232 7.68471535e-14 54.9915018 7.68274333e-14 60.1314803 7.68274333e-14 65.2714589.322054855 70.4114375.966164565"/>
          <polygon stroke="#ED1C40" stroke-width="2" points="27.487 34.659 21.027 40.485 87.398 40.485 81.812 34.659 60.334 34.659 60.334 27.334 54.212 24.197 47.775 27.334 47.775 34.659"/>
          <path stroke="#ED1C40" stroke-width="2" d="M32.8112057,69.5760198 L32.8112057,46.6092987 C33.692431,44.3696667 34.567816,43.2498507 35.4373607,43.2498507 C36.3069055,43.2498507 37.1725263,44.3696667 38.0342231,46.6092987 L38.0342231,69.5760198 L40.7652376,69.5760198 L40.7652376,46.6092987 C41.7577243,44.3696667 42.781271,43.2498507 43.8358777,43.2498507 C44.8904843,43.2498507 45.9632767,44.3696667 47.0542549,46.6092987 L47.0542549,69.5760198 L50.171169,69.5760198 L50.171169,46.6092987 L51.345,43.0265401 L56.4911771,43.0265401 L58.0012375,46.6092987 L58.0012375,69.5760198 L60.6384304,69.5760198 L60.6384304,46.6092987 C61.7832586,44.3696667 62.876004,43.2498507 63.9166666,43.2498507 C64.9573292,43.2498507 65.9675739,44.3696667 66.9474007,46.6092987 L66.9474007,69.5760198 L69.8694546,69.5760198 L69.8694546,46.6092987 C70.5357824,44.220793 71.2654114,43.0265401 72.0583417,43.0265401 C72.8512719,43.0265401 73.6911378,44.220793 74.5779392,46.6092987 L74.5779392,69.5760198"/>
          <polygon stroke="#313D3E" stroke-width="2" points="26.652 70.892 77.44 70.892 90.741 77.638 17.062 77.638"/>
          <polygon stroke="#313D3E" stroke-width="2" points="0 83.674 17.062 77.638 90.514 77.638 107.026 83.674"/>
        </g>
      </g>
    </g>
    <path fill="#313D3E" fill-rule="nonzero" d="M72,144 C32.235498,144 0,111.764502 0,72 C0,32.235498 32.235498,0 72,0 C111.764502,0 144,32.235498 144,72 C144,111.764502 111.764502,144 72,144 Z M72,141 C110.107648,141 141,110.107648 141,72 C141,33.8923523 110.107648,3 72,3 C33.8923523,3 3,33.8923523 3,72 C3,110.107648 33.8923523,141 72,141 Z" mask="url(#bengaluru-illo-b)"/>
  </g>
</svg>
