<svg xmlns="http://www.w3.org/2000/svg" xmlns:xlink="http://www.w3.org/1999/xlink" width="144" height="144" viewBox="0 0 144 144">
  <defs>
    <circle id="a" cx="72" cy="72" r="72"/>
  </defs>
  <g fill="none" fill-rule="evenodd">
    <mask id="b" fill="#fff">
      <use xlink:href="#a"/>
    </mask>
    <g stroke-linecap="round" stroke-linejoin="round" stroke-width="2" mask="url(#b)">
      <g stroke="#313D3E">
        <path d="M288.1 127.8V85.6h-12.8l3-3c-1-.1-2-1.1-3-3-1-1.8-1.7-3.7-2-5.7l2-1.6h-3.7c2.5-5.1 2.5-7.7 0-7.7s-5.1-3.6-7.7-10.8c-3 7.6-5.6 11.4-7.7 11.3-2 0-2 2.4 0 7.2h-3.9l3.9 1.6-3.9 5.7-4.2 3 4.2 3h-17v3H211v-2.1l2.6-1-2.6-2.2v-3.7l-2.1-2.1c1.4-2.4 1.4-3.6 0-3.6s-3.3-2.6-5.6-7.9c-2.2 5.3-4 8-5.2 8-1.2 0-1.2 1.1 0 3.5l-2.4 2.1v3.7l-3 2.3 3 .9v2h-77.9l-3-3.7c2-1 3-2 3-3 0-1.4-5.3-6.5-6-7.9-.6-.9.4-1.4 3-1.6l-3-1.2c1-3.4 1-5.1 0-5.1-2 0-4.4-2.7-7.2-8.2-3.1 5.5-5.4 8.2-6.7 8.2-1.3 0-1.3 1.7 0 5l-3 1.3 3 1.6-3 5.7-3.1-2.6V65.2l3.1-5c-3.4.5-5.9 0-7.3-1.6-1.5-1.6-1.5-3.6 0-6.1 1.6-4.5 1.6-7.5 0-9.2-2.5-2.6-3.5-1.5-5.7-2.9-2.1-1.4-2.1-1.2-3.4-3-1.3-2-.5-1.5-1.5-4a110 110 0 0 0-2.3-5l2.3-7.5-4.5-1.2m46.9 81.6c.9 0 1.8.6 2.7 1.8v15.3h-5.4v-15.3c.9-1.2 1.8-1.8 2.7-1.8zm-2.3-3.6v-4.5c0-.3 1.2-1.1 2.4-1.1.8 0 1.6.3 2.4 1v4.6H117zm11.3 3.6c1 0 1.8.6 2.7 1.8v15.3h-5.3v-15.3c.8-1.2 1.7-1.8 2.6-1.8zm-2.3-3.6v-4.5c0-.3 1.2-1.1 2.4-1.1.8 0 1.6.3 2.4 1v4.6H126z"/>
        <path d="M137.2 101.3c1 0 1.8.6 2.7 1.8v15.3h-5.3v-15.3c.9-1.2 1.7-1.8 2.6-1.8zm-2.3-3.6v-4.5c0-.3 1.2-1.1 2.4-1.1.8 0 1.6.3 2.4 1v4.6H135zm11.2 3.6c1 0 1.8.6 2.8 1.8v15.3h-5.4v-15.3c.9-1.2 1.7-1.8 2.6-1.8zm-2.3-3.6v-4.5c0-.3 1.2-1.1 2.4-1.1.8 0 1.6.3 2.4 1v4.6h-4.8zm-47.6-25a75.8 75.8 0 0 1 16.8 0"/>
      </g>
      <g stroke="#313D3E">
        <path d="M-143.4 127.8V85.6h12.8l-3-3c1-.1 2-1.1 3-3 1-1.8 1.7-3.7 2-5.7l-2-1.6h3.8c-2.5-5.1-2.5-7.7 0-7.7s5-3.6 7.7-10.8c3 7.6 5.6 11.4 7.7 11.3 2 0 2 2.4 0 7.2h3.8l-3.8 1.6 3.8 5.7 4.3 3-4.3 3h17v3h24.4v-2.1l-2.5-1 2.5-2.2v-3.7l2.2-2.1c-1.4-2.4-1.4-3.6 0-3.6s3.3-2.6 5.5-7.9c2.3 5.3 4 8 5.2 8 1.3 0 1.3 1.1 0 3.5l2.5 2.1v3.7l3 2.3-3 .9v2H27l3.2-3.7c-2.1-1-3.2-2-3.2-3 0-1.4 5.4-6.5 6.1-7.9.6-.9-.4-1.4-3-1.6l3-1.2c-1-3.4-1-5.1 0-5.1 2 0 4.4-2.7 7.2-8.2 3.1 5.5 5.4 8.2 6.7 8.2 1.3 0 1.3 1.7 0 5l3 1.3-3 1.6 3 5.7L53 77V65.2l-3.2-5c3.5.5 6 0 7.4-1.6 1.5-1.6 1.5-3.6 0-6.1-1.6-4.5-1.6-7.5 0-9.2 2.5-2.6 3.5-1.5 5.6-2.9 2.2-1.4 2.2-1.2 3.5-3 1.3-2 .5-1.5 1.5-4a110 110 0 0 1 2.3-5L67.9 21l4.5-1.2m-46.9 81.6c-.9 0-1.8.6-2.7 1.8v15.3H28v-15.3c-.8-1.2-1.7-1.8-2.6-1.8zm2.3-3.6v-4.5c0-.3-1.2-1.1-2.4-1.1-.8 0-1.6.3-2.4 1v4.6h4.8zm-11.3 3.6c-1 0-1.9.6-2.8 1.8v15.3h5.4v-15.3c-.9-1.2-1.7-1.8-2.6-1.8zm2.3-3.6v-4.5c0-.3-1.2-1.1-2.4-1.1-.8 0-1.6.3-2.4 1v4.6h4.8z"/>
        <path d="M7.5 101.3c-.9 0-1.8.6-2.7 1.8v15.3h5.4v-15.3c-.9-1.2-1.8-1.8-2.7-1.8zm2.3-3.6v-4.5c0-.3-1.2-1.1-2.3-1.1-.8 0-1.6.3-2.4 1v4.6h4.7zm-11.2 3.6c-.9 0-1.8.6-2.7 1.8v15.3h5.4v-15.3c-.9-1.2-1.8-1.8-2.7-1.8zM1 97.7v-4.5C1 92.9-.3 92-1.5 92c-.7 0-1.5.3-2.3 1v4.6H.9zm47.7-25a75.8 75.8 0 0 0-16.9 0"/>
      </g>
      <path stroke="#313D3E" d="M51.5 61.2a231.6 231.6 0 0 1 42.2 0M51.2 75.4a231.6 231.6 0 0 1 42.2 0M57 51a123.9 123.9 0 0 1 30.9 0"/>
      <path stroke="#ED1C40" d="M44.8 84.8l-6.5 5.8h66.4l-5.6-5.8H77.6v-7.4l-6-3-6.5 3v7.4zM50.2 119.7v-23c.8-2.2 1.7-3.3 2.6-3.3.8 0 1.7 1.1 2.6 3.3v23H58v-23c1-2.2 2-3.3 3-3.3 1.1 0 2.2 1.1 3.3 3.3v23h3.1v-23l1.2-3.5h5.1l1.5 3.5v23H78v-23c1.1-2.2 2.2-3.3 3.3-3.3 1 0 2 1.1 3 3.3v23h3v-23c.6-2.3 1.3-3.5 2.1-3.5s1.6 1.2 2.5 3.5v23"/>
      <path stroke="#313D3E" d="M44 121h50.7l13.3 6.7H34.4zM17.3 133.8l17.1-6h73.4l16.5 6z"/>
    </g>
    <path fill="#313D3E" fill-rule="nonzero" d="M72 144A72 72 0 1 1 72 0a72 72 0 0 1 0 144zm0-3A69 69 0 1 0 72 3a69 69 0 0 0 0 138z" mask="url(#b)"/>
  </g>
</svg>
