<svg xmlns="http://www.w3.org/2000/svg" xmlns:xlink="http://www.w3.org/1999/xlink" width="160" height="144" viewBox="0 0 160 144">
  <defs>
    <path id="berlin-illo-a" d="M159.947977,74.762587 C158.496139,113.246844 126.839462,144 88,144 C50.591349,144 19.8460157,115.470945 16.3343001,78.9831352 L0.284735791,80.0970795 L0.284735791,48.7058681 L21.2167919,45.0416926 C31.8873939,18.6331275 57.7676969,0 88,0 C118.283137,0 144.199626,18.6958412 154.836897,45.1749532 L183.045756,46.2008151 L183.045756,73.1594507 L159.947977,74.762587 Z"/>
  </defs>
  <g fill="none" fill-rule="evenodd" transform="translate(-8)">
    <mask id="berlin-illo-b" fill="#fff">
      <use xlink:href="#berlin-illo-a"/>
    </mask>
    <g stroke-width="2" mask="url(#berlin-illo-b)">
      <g transform="translate(-50 19)">
        <path stroke="#313D3E" d="M69.5731733 46.0610867L206.876774 46.0610867C206.944237 46.0610867 206.998926 46.1157757 206.998926 46.1832379L206.998926 54.1722634C206.998926 54.2397257 206.944237 54.2944147 206.876774 54.2944147L69.5731733 54.2944147C69.505711 54.2944147 69.451022 54.2397257 69.451022 54.1722634L69.451022 46.1832379C69.451022 46.1157757 69.505711 46.0610867 69.5731733 46.0610867zM175.061216 55.8967007C176.223396 54.82851 177.385577 54.2944147 178.547757 54.2944147 179.709938 54.2944147 180.872119 54.82851 182.034299 55.8967007L182.034299 112.390866C180.872119 113.075025 179.709938 113.417105 178.547757 113.417105 177.385577 113.417105 176.223396 113.075025 175.061216 112.390866L175.061216 55.8967007zM198.972016 55.8967007C200.134196 54.82851 201.296377 54.2944147 202.458558 54.2944147 203.620738 54.2944147 204.782919 54.82851 205.9451 55.8967007L205.9451 112.390866C204.782919 113.075025 203.620738 113.417105 202.458558 113.417105 201.296377 113.417105 200.134196 113.075025 198.972016 112.390866L198.972016 55.8967007zM119.797989 55.8967007C120.960169 54.82851 122.12235 54.2944147 123.284531 54.2944147 124.446711 54.2944147 125.608892 54.82851 126.771072 55.8967007L126.771072 112.390866C125.608892 113.075025 124.446711 113.417105 123.284531 113.417105 122.12235 113.417105 120.960169 113.075025 119.797989 112.390866L119.797989 55.8967007zM95.338216 55.8967007C96.5003966 54.82851 97.6625773 54.2944147 98.8247579 54.2944147 99.9869386 54.2944147 101.149119 54.82851 102.3113 55.8967007L102.3113 112.390866C101.149119 113.075025 99.9869386 113.417105 98.8247579 113.417105 97.6625773 113.417105 96.5003966 113.075025 95.338216 112.390866L95.338216 55.8967007zM71.46898 55.8967007C72.6311606 54.82851 73.7933413 54.2944147 74.9555219 54.2944147 76.1177026 54.2944147 77.2798832 54.82851 78.4420638 55.8967007L78.4420638 112.390866C77.2798832 113.075025 76.1177026 113.417105 74.9555219 113.417105 73.7933413 113.417105 72.6311606 113.075025 71.46898 112.390866L71.46898 55.8967007z"/>
        <path stroke="#313D3E" d="M102.401431 55.9931275L111.031358 67.2610875C111.039521 67.2717464 111.043945 67.2847981 111.043945 67.2982239L111.043945 111.593369C111.043945 111.624913 111.019923 111.651267 110.988514 111.654183L102.358588 112.455258C102.325001 112.458376 102.295246 112.433676 102.292129 112.400089 102.291954 112.398213 102.291867 112.396329 102.291867 112.394444L102.291867 56.0302639C102.291867 55.9965327 102.319212 55.9691882 102.352943 55.9691882 102.37195 55.9691882 102.389874 55.9780375 102.401431 55.9931275zM175.042602 55.9925559C175.054159 55.977466 175.071919 55.9686415 175.090731 55.9686415 175.124419 55.9686415 175.151728 55.9964036 175.151728 56.0306499L175.151728 112.393523C175.151728 112.395406 175.151644 112.397287 175.151475 112.399162 175.148412 112.433266 175.118733 112.458389 175.085184 112.455275L166.455101 111.654185C166.423693 111.651269 166.39965 111.624495 166.39965 111.592433L166.39965 67.2988154C166.39965 67.2850156 166.404178 67.2716101 166.412518 67.2607214L175.042602 55.9925559zM78.5416848 55.9206438L93.0784286 67.7477967C93.0926838 67.7593949 93.1009589 67.7767954 93.1009589 67.7951728L93.1009589 111.215632C93.1009589 111.247464 93.0765096 111.273959 93.0447796 111.276511L78.5080358 112.445666C78.4744133 112.44837 78.4449646 112.423306 78.4422604 112.389683 78.4421294 112.388054 78.4420638 112.386421 78.4420638 112.384787L78.4420638 55.9680198C78.4420638 55.9342887 78.4694083 55.9069442 78.5031395 55.9069442 78.5171807 55.9069442 78.5307931 55.9117822 78.5416848 55.9206438zM198.892534 55.9202289C198.903351 55.9114281 198.916794 55.9066331 198.930648 55.9066331 198.964336 55.9066331 198.991645 55.9343952 198.991645 55.9686415L198.991645 112.383864C198.991645 112.385496 198.991582 112.387128 198.991455 112.388755 198.988798 112.422894 198.95942 112.44838 198.925838 112.445679L184.388936 111.276511C184.357214 111.27396 184.33275 111.247046 184.33275 111.214696L184.33275 67.7959225C184.33275 67.7770898 184.341169 67.7592776 184.355633 67.7475099L198.892534 55.9202289zM126.993893 56.3784577L129.597163 66.5921257C129.598419 66.5970555 129.599055 66.602123 129.599055 66.6072105L129.599055 110.91437C129.599055 110.936222 129.587381 110.956408 129.568441 110.967307L126.965171 112.465339C126.935935 112.482162 126.898596 112.4721 126.881772 112.442864 126.87644 112.433597 126.873634 112.423093 126.873634 112.412402L126.873634 56.3935424C126.873634 56.3598113 126.900978 56.3324668 126.934709 56.3324668 126.96263 56.3324668 126.986997 56.3514015 126.993893 56.3784577zM150.522955 56.3776135C150.529927 56.3502607 150.554207 56.3311583 150.582002 56.3311583 150.61569 56.3311583 150.642999 56.3589204 150.642999 56.3931667L150.642999 112.41166C150.642999 112.422365 150.640272 112.432889 150.635085 112.442206 150.61849 112.472008 150.581271 112.482492 150.551954 112.465622L147.948527 110.9675C147.929401 110.956494 147.917578 110.935879 147.917578 110.913537L147.917578 66.6074524C147.917578 66.602205 147.918233 66.5969788 147.919528 66.5918991L150.522955 56.3776135z"/>
        <polygon stroke="#313D3E" points="74.015 38.686 74.015 35.672 70.762 30.827 205.759 30.827 202.549 34.757 202.549 38.686"/>
        <path stroke="#313D3E" d="M150.601443,55.8967007 C151.763624,54.82851 152.925804,54.2944147 154.087985,54.2944147 C155.250166,54.2944147 156.412346,54.82851 157.574527,55.8967007 L157.574527,112.390866 C156.412346,113.075025 155.250166,113.417105 154.087985,113.417105 C152.925804,113.417105 151.763624,113.075025 150.601443,112.390866 L150.601443,55.8967007 Z"/>
        <polyline stroke="#313D3E" points="69.444 47.958 60.64 38.596 215.592 38.596 207.263 47.958"/>
        <polygon stroke="#313D3E" points="119.582 38.588 119.582 31.032 116.811 26.041 160.911 26.041 158.145 31.032 158.145 38.588"/>
        <path stroke="#ED1C40" d="M130.699871,25.751716 L129.3595,21.4952837 L126.779154,17.6251786 C125.89118,13.6823633 124.731978,11.7109557 123.301548,11.7109557 C121.155903,11.7109557 123.08879,16.8964251 123.301548,17.6251786 C123.514305,18.353932 123.818773,14.2977712 124.703944,16.5145535 C125.075449,17.4449343 123.971272,18.7380157 123.875016,20.9376059 C123.837256,21.8004918 124.113565,23.4051951 124.703944,25.751716 L130.699871,25.751716 Z"/>
        <path stroke="#ED1C40" d="M155.586622,25.4467432 L154.246251,21.1903109 L151.665905,17.3202058 C150.777931,13.3773905 149.618729,11.4059829 148.188299,11.4059829 C146.042654,11.4059829 147.975542,16.5914523 148.188299,17.3202058 C148.401056,18.0489592 148.705525,13.9927984 149.590695,16.2095807 C149.9622,17.1399615 148.858023,18.4330429 148.761768,20.6326331 C148.724007,21.4955189 149.000316,23.1002223 149.590695,25.4467432 L155.586622,25.4467432 Z" transform="matrix(-1 0 0 1 302.772 0)"/>
        <path stroke="#ED1C40" d="M138.080501,25.751716 L136.740129,21.4952837 L134.159784,17.6251786 C134.934673,12.651188 134.606902,10.1641928 133.176472,10.1641928 C131.030827,10.1641928 131.871816,15.5935477 132.084574,16.3223011 C132.297331,17.0510545 131.351902,18.7380157 131.255646,20.9376059 C131.217886,21.8004918 131.494195,23.4051951 132.084574,25.751716 L138.080501,25.751716 Z"/>
        <path stroke="#ED1C40" d="M145.339136,25.751716 L143.998765,21.4952837 L141.418419,17.6251786 C142.193308,12.651188 141.865538,10.1641928 140.435108,10.1641928 C138.289463,10.1641928 139.130452,15.5935477 139.343209,16.3223011 C139.555967,17.0510545 138.610537,18.7380157 138.514282,20.9376059 C138.476521,21.8004918 138.75283,23.4051951 139.343209,25.751716 L145.339136,25.751716 Z" transform="matrix(-1 0 0 1 283.85 0)"/>
        <ellipse cx="138.341" cy="10.186" stroke="#ED1C40" rx="2.074" ry="2.074"/>
        <path stroke="#ED1C40" d="M142.179369,2.49337582 C139.735356,6.04172779 138.482076,7.79497584 138.419527,7.75311998 C138.356978,7.71126412 137.103697,5.95801607 134.659685,2.49337582"/>
      </g>
    </g>
    <path fill="#313D3E" fill-rule="nonzero" d="M21.5000278,44.3511101 C32.3400619,18.3088809 58.0318968,0 88,0 C117.968103,0 143.659938,18.3088809 154.499972,44.3511101 L151.237214,44.3511101 C140.578585,20.0077394 116.275478,3 88,3 C59.7245224,3 35.4214153,20.0077394 24.7627864,44.3511101 L21.5000278,44.3511101 Z M20.1916578,96.2663123 L22.5978166,99.8411942 L22.5978166,94.0486317 C31.7962191,121.343851 57.6026398,141 88,141 C120.855344,141 148.347267,118.036466 155.301446,87.2837212 L155.647683,88.6945634 L158.054619,88.6945634 C150.525045,120.408873 122.017524,144 88,144 C56.750353,144 30.1505315,124.09173 20.1916578,96.2663123 Z" mask="url(#berlin-illo-b)"/>
  </g>
</svg>
