<svg width="145" height="162" viewBox="0 0 145 162" version="1.1" xmlns="http://www.w3.org/2000/svg" xmlns:xlink="http://www.w3.org/1999/xlink"><title>boston-art</title><desc>Created with Sketch.</desc><defs><path d="M60.2330381,1.06294774 C26.3000662,6.15318217 0.279376765,35.4281275 0.279376765,70.7793768 C0.279376765,109.714825 31.8439285,141.279377 70.7793768,141.279377 C109.714825,141.279377 141.279377,109.714825 141.279377,70.7793768 C141.279377,34.1995363 113.418622,4.1256885 77.7599036,0.620625434 L78.5,47 L80.9267578,59 L57.1132812,58 L59.5,47 L60.2330381,1.06294774 Z" id="path-1"/></defs><g id="meetups" stroke="none" stroke-width="1" fill="none" fill-rule="evenodd"><g id="boston-art" transform="translate(-9.000000, 2.000000)"><g id="Path-25-+-Path-25-Copy-+-Path-25-Copy-3-+-Path-25-Copy-2-Mask" transform="translate(12.000000, 16.000000)"><mask id="mask-2" fill="#fff"><use xlink:href="#path-1"/></mask><path d="M62.6138938,23.6823177 L62.5301033,23.8291285 L62.559409,23.7485377 L62.6138938,23.6823177 Z M1.36206897,73.3448276 L0.637931034,72.6551724 L60.7857143,9.5 L66.0403124,9.5 L65.3904344,10.3123475 L61.3701904,15.3360939 L-7.47814099,91.1690386 L-6.62530406,98.8445709 L2.6175444,88.6779321 L68.4331657,10.5218819 L63.4698967,24.1708715 L-1.06382154,102.649133 L3.92181982,103.480073 L7.66827888,101.606844 L63.5,25.4726784 L63.5,33.1552949 L8.61548621,112.987315 L13.8669139,119.989219 L15.5712535,115.742752 L68.9147231,26.8369695 L67.4743416,31.1581139 L63.441894,43.2339439 L18.441894,128.233944 L17.558106,127.766056 L62.5256584,42.8418861 L65.0857044,35.1617479 L16.4642383,116.185695 L14.1338151,122.011753 L7.38451379,113.012685 L62.5,32.8447051 L62.5,28.5273216 L8.33172112,102.393156 L4.07818018,104.519927 L-2.93617846,103.350867 L62.559409,23.7485377 L65.5668444,15.4780903 L3.36997004,89.3363364 L-7.37469199,101.155465 L-8.52185901,90.8309614 L60.6095656,14.6876525 L63.9596876,10.5 L61.2142857,10.5 L1.36206897,73.3448276 Z" id="Path-25-Copy-3" fill="#ED1C40" fill-rule="nonzero" mask="url(#mask-2)"/><path d="M130.403202,101.704318 L130.223607,101.552786 L130.331721,101.606844 L130.403202,101.704318 Z M76.6095656,15.3123475 L71.9596876,9.5 L77.2142857,9.5 L137.362069,72.6551724 L136.637931,73.3448276 L76.7857143,10.5 L74.0401089,10.5 L77.3701904,14.6639061 L146.521859,90.8309614 L145.374692,101.155465 L144.63003,100.336336 L134.617544,89.3220679 L72.4331657,15.4781181 L75.440591,23.7485377 L140.936178,103.350867 L133.92182,104.519927 L129.668279,102.393156 L75.5,28.5273216 L75.5,32.8447051 L130.615486,113.012685 L123.866185,122.011753 L123.535762,121.185695 L121.571254,116.257248 L72.9088892,35.1533074 L75.441894,42.7660561 L120.441894,127.766056 L119.558106,128.233944 L74.5256584,43.1581139 L69.0852769,26.8369695 L71.4287465,30.7427521 L122.464238,115.814305 L124.133815,119.988247 L129.384514,112.987315 L74.5,33.1552949 L74.5,25.4726784 L130.331721,101.606844 L134.07818,103.480073 L139.063822,102.649133 L74.6138938,24.3176823 L69.5668343,10.5218819 L71.3824556,12.6779321 L135.36997,88.6636636 L144.625308,98.8445354 L145.478141,91.1690357 L76.6095656,15.3123475 Z" id="Path-25-Copy-2" fill="#ED1C40" fill-rule="nonzero" mask="url(#mask-2)"/></g><path d="M77.5142579,157.999273 C40.428842,155.937012 10.9910885,125.21041 10.9910885,87.6095566 C10.9910885,48.6741083 42.5556402,17.1095566 81.4910885,17.1095566 C120.426537,17.1095566 151.991088,48.6741083 151.991088,87.6095566 C151.991088,117.376883 133.541404,142.835874 107.453523,153.17504" id="Shape" stroke="#313D3E" stroke-width="3" stroke-linecap="round" transform="translate(81.491088, 87.554415) rotate(-171.000000) translate(-81.491088, -87.554415)"/><rect id="Rectangle-4" stroke="#313D3E" stroke-width="2" x="73" y="11" width="7" height="51"/><rect id="Rectangle-4-Copy" stroke="#313D3E" stroke-width="2" x="80" y="11" width="9" height="51"/><polyline id="Path-26" stroke="#313D3E" stroke-width="2" points="98.796875 136 79.8552827 62 73.1700149 62 53 136 61.9136905 136 76.5126488 79 90.9973958 136"/><path d="M80.969494,99 L70.9415923,136" id="Path-28" stroke="#313D3E" stroke-width="2"/><path d="M89,62 L107,137" id="Path-29" stroke="#313D3E" stroke-width="2"/><polyline id="Path-30" stroke="#313D3E" stroke-width="2" points="73 10 81.8888889 0 89 10"/><path d="M80,11 L82,1" id="Path-31" stroke="#313D3E" stroke-width="2"/><path d="M31,136 L133.005319,136" id="Path-32" stroke="#313D3E" stroke-width="2"/><path d="M39,143 L123,143" id="Path-33" stroke="#313D3E" stroke-width="2"/></g></g></svg>