<svg xmlns="http://www.w3.org/2000/svg" width="144" height="183.901" viewBox="0 0 144 183.90147"><title>chicago-art</title><g fill="none"><g><g><path stroke="#313d3e" stroke-width="3" d="M82.74 42.2c1.16.2 2.32.4 3.47.63 4.6.94 9.02 2.33 13.24 4.1 8.44 3.58 16.03 8.74 22.4 15.12 12.77 12.76 20.66 30.38 20.66 49.85 0 38.94-31.56 70.5-70.5 70.5S1.5 150.84 1.5 111.9c0-19.47 7.9-37.1 20.65-49.85 6.38-6.38 13.97-11.54 22.4-15.1 2.12-.9 4.28-1.7 6.5-2.38"/><g><g><g><path stroke="#ff003d" stroke-width="1.5" d="M88.04 113.96V91.7h-1.7V61.75h-.53V91.7h-1.63v21.73l-5.03-.64v-3.93l-2.18-.2V54.53h-1.1V30.7h-1.7V.74h-.54V30.7h-1.7v23.84h-.52v53.53l-2.23-.26V94.46h-1.64V64.5h-.58v29.95H65.3v13l-1.9-.22-1.44.9V61.17h-1.1V37.32H59.2V7.42h-.57v29.9h-1.65v23.85h-.58v50.56l-4.98 3.23v4.4l-2.76 1.5V98.9h-1.64V68.97h-.58V98.9H44.8v23.85h-.6v.6l-4.97 2.7 27.15-14.96c3.47.46 45.03 5.9 21.66 2.86z"/><path stroke="#313d3e" stroke-width="2.5" d="M95.77 178.1v-63.05l-29.4-3.96-27.15 15.03v47.7"/></g></g><g stroke="#313d3e"><path stroke-width="1.104" d="M52.23 118.84v60" stroke-linecap="butt" stroke-linejoin="miter"/><path stroke-width=".552" d="M66.38 111.1v70.76" stroke-linecap="butt" stroke-linejoin="miter"/><path stroke-width=".552" d="M93.14 124.7v10M70.2 121.6v10m15.3-7.94v10m-7.65-11.03v10m11.47-8.45v10m-7.65-11.03v10m-18.83-10.13v10m11.2-10.9v10m-14.73-7.16v10m-3.62-8.02v9.9m-7-6.08v10m-3.52-8.06v10m-3.53-8.08v10m55.33-9.4l-3.82-.53-3.82-.52-3.83-.52-3.83-.5-3.82-.53-3.82-.5-3.82-.52-3.82-.5-3.54 1.92-3.53 1.94-3.53 1.93-3.54 1.93-3.54 1.93-3.54 1.94-3.54 1.93-3.54 1.94m58.88-21.36l-3.82-.5-3.82-.52-3.83-.52-3.83-.5-3.82-.53-3.82-.5-3.83-.53-3.82-.5-3.54 1.92-3.53 1.94-3.53 1.93-3.54 1.93-3.54 1.93-3.54 1.94-3.54 1.93-3.54 1.94" stroke-linecap="butt" stroke-linejoin="miter"/><path stroke-width=".552" d="M38.08 170.57l28.3-15.48 30.58 4.1m-58.88 7.37l28.3-15.48 30.58 4.1"/><path stroke-width=".552" d="M52.23 180.14l14.15-5.05 30.58 4.1"/></g></g></g></g></g></svg>