<svg xmlns="http://www.w3.org/2000/svg" xmlns:xlink="http://www.w3.org/1999/xlink" width="144" height="144" viewBox="0 0 144 144">
  <defs>
    <path id="cincinnati-illo-a" d="M101,6.07877636 L101,2 L120,2 L120,18.3334438 C134.729985,31.5171371 144,50.6760045 144,72 C144,111.764502 111.764502,144 72,144 C32.235498,144 0,111.764502 0,72 C0,32.235498 32.235498,0 72,0 C82.317373,0 92.12789,2.17010904 101,6.07877636 Z"/>
  </defs>
  <g fill="none" fill-rule="evenodd">
    <mask id="cincinnati-illo-b" fill="#fff">
      <use xlink:href="#cincinnati-illo-a"/>
    </mask>
    <path fill="#313D3E" fill-rule="nonzero" d="M72,144 C32.235498,144 0,111.764502 0,72 C0,32.235498 32.235498,-1.70530257e-13 72,-1.70530257e-13 C111.764502,-1.70530257e-13 144,32.235498 144,72 C144,111.764502 111.764502,144 72,144 Z M72,141 C110.107648,141 141,110.107648 141,72 C141,33.8923523 110.107648,3 72,3 C33.8923523,3 3,33.8923523 3,72 C3,110.107648 33.8923523,141 72,141 Z" mask="url(#cincinnati-illo-b)"/>
    <g mask="url(#cincinnati-illo-b)">
      <g transform="translate(-80 6)">
        <path stroke="#313D3E" stroke-linecap="round" stroke-linejoin="round" stroke-width="2" d="M185.57372,88.0876441 C185.597213,87.5760432 185.609088,87.0614092 185.609088,86.544 C185.609088,68.2788388 170.810454,53.472 152.555415,53.472 C134.300375,53.472 119.501742,68.2788388 119.501742,86.544 C119.501742,86.9859415 119.510405,87.4258583 119.527572,87.8635898"/>
        <path stroke="#313D3E" stroke-linecap="round" stroke-linejoin="round" stroke-width="2" d="M190.831886,88.6025991 C190.867918,87.9209669 190.886162,87.2346152 190.886162,86.544 C190.886162,65.3627753 173.724902,48.192 152.555415,48.192 C131.385928,48.192 114.224668,65.3627753 114.224668,86.544 C114.224668,87.0417302 114.234144,87.5372459 114.252925,88.0303763"/>
        <g stroke-linecap="round" stroke-linejoin="round" transform="translate(123.593 43.872)">
          <polygon stroke="#313D3E" stroke-width="2" points="23.518 10.56 23.518 44.216 26.309 44.216 26.309 9.6 26.309 5.839 26.309 .039 23.518 0"/>
          <path stroke="#313D3E" stroke-width="2" d="M2.85524032,23.04 C2.85524032,37.157096 2.85524032,44.2156441 2.85524032,44.2156441 L0,44.1875944 L0,26.907822"/>
          <polyline stroke="#313D3E" stroke-width="2" points="7.52 17.952 7.52 44.216 10.69 44.216 10.69 15.256"/>
          <polyline stroke="#313D3E" stroke-width="2" points="15.226 13.099 15.226 44.216 18.464 44.216 18.464 11.565"/>
        </g>
        <g stroke-linecap="round" stroke-linejoin="round" transform="matrix(-1 0 0 1 181.257 43.872)">
          <polygon stroke="#313D3E" stroke-width="2" points="23.518 10.56 23.518 44.216 26.309 44.216 26.309 9.6 26.309 0 23.518 0"/>
          <path stroke="#313D3E" stroke-width="2" d="M2.85524032,23.04 C2.85524032,37.157096 2.85524032,44.2156441 2.85524032,44.2156441 L0,44.1875944 L0,26.907822"/>
          <polyline stroke="#313D3E" stroke-width="2" points="7.52 17.952 7.52 44.216 10.69 44.216 10.69 15.256"/>
          <polyline stroke="#313D3E" stroke-width="2" points="15.226 13.099 15.226 44.216 18.464 44.216 18.464 11.565"/>
        </g>
        <g stroke-linecap="round" stroke-linejoin="round" transform="translate(4.13 33.6)">
          <polyline stroke="#313D3E" stroke-width="2" points="77.079 64.658 77.079 58.705 79.549 58.705 79.549 64.08"/>
          <polyline stroke="#313D3E" stroke-width="2" points="81.929 64.658 81.929 58.705 83.916 58.705 83.916 64.203"/>
          <path stroke="#313D3E" stroke-width="2" d="M102.101209 69.8874893L109.840777 70.0160608M99.0309115 71.4234893L106.77048 71.5520608M96.2484543 73.0554893L103.988022 73.1840608M92.506529 75.0714893L100.246097 75.2000608M88.2848697 77.3754893L96.0244378 77.5040608M82.9118488 79.6794893L90.6514169 79.8080608M75.7466128 82.848L86.8135448 82.848M67.995875 85.92L82.2080983 85.92M86.8135448 85.92L98.927939 86.016C100.510462 84.7338796 101.568218 84.0928194 102.101209 84.0928194 102.6342 84.0928194 103.391343 83.8518761 104.372637 83.3699896 104.805156 82.0672179 105.337942 81.1264417 105.970993 80.5476607 106.604045 79.9688798 107.609462 79.6794893 108.987247 79.6794893 109.527632 77.7552652 110.162173 76.7634354 110.890871 76.704 111.619569 76.6445646 112.464362 76.6148469 113.42525 76.6148469L114.785879 74.1684135C115.775043 73.3621236 116.696771 72.9911489 117.551062 73.0554893 118.8325 73.152 118.529627 70.5048738 120.045217 70.5048738 121.560806 70.5048738 121.712422 68.1321576 122.948466 68.1321576 124.184509 68.1321576 118.331422 65.5015119 115.897393 66.5983002 100.118238 77.472 83.9161509 81.1532855 86.8135448 85.92zM120.045217 66.3308199C122.967144 65.184462 132.347554 64.6267358 148.186448 64.6576415M100.118238 69.8874893C97.858205 70.2870402 96.6108965 70.7990402 96.376313 71.4234893 96.1417295 72.0479385 95.4292771 72.3595097 94.2389557 72.3582031L94.2389557 71.1228483 90.0081299 71.1228483C91.2535417 71.7720276 91.6721091 72.4162413 91.2638322 73.0554893 90.8555553 73.6947373 89.8625678 74.7340442 88.2848697 76.1734099L86.7816329 74.5517798 82.9118488 74.5517798C83.5813835 75.8283725 83.5850316 76.7696091 82.9227929 77.3754893 82.2605542 77.9813696 81.1358641 78.4365326 79.5487227 78.7409782L78.8230837 79.776 77.0790714 79.776 77.0790714 78.7409782 74.2052565 78.7409782 71.7707797 78.7409782C72.3675804 80.0922047 72.3675804 81.114515 71.7707797 81.807909 71.173979 82.501303 69.5492772 83.639773 66.8966744 85.2233189L66.1316006 81.807909 59.7308149 81.807909 58.8464203 85.92 53.2556564 85.2233189 53.2556564 83.5307056 46.4262507 82.848C49.2314716 85.4149185 50.4402071 87.402392 50.0524571 88.8104205 49.4708321 90.9224633 23.9074908 96.6753104 18.6526425 96.0418543 15.1494104 95.6195503 9.0423238 93.8789835.331382761 90.8201539-.541775304 83.6133556.310575081 79.5869637 2.88843392 78.7409782 6.75522217 77.472 25.7590112 76.2020582 30.5245368 78.7409782 35.2900624 81.2798983 36.8405599 76.1734099 41.9025315 76.1734099 45.2771792 76.1734099 50.4666667 76.5741031 57.4709939 77.3754893 60.9040192 74.6216041 63.7908881 72.9491754 66.1316006 72.3582031 69.6426693 71.4717447 71.6245763 67.2010889 77.0790714 67.2010889 82.5335666 67.2010889 85.7773042 66.3308199 90.0081299 66.3308199 94.2389557 66.3308199 100.118238 67.0292501 100.118238 68.506625 100.118238 69.4915417 100.118238 69.9518298 100.118238 69.8874893z"/>
          <path stroke="#313D3E" stroke-width="2" d="M2.58717644,63.747112 L2.70659728,48.5985134 L4.84084776,48.5985134 L4.84084776,63.747112 L9.17202741,63.812178 L10.4524848,62.9929782 L10.4782882,48.5985134 L11.2532739,44.16 L13.0004183,44.16 L13.0688519,48.5985134 L13.0688519,63.747112 L16.166212,63.812178 L16.8872186,65.420887 L28.4242588,65.420887 C28.4242588,57.1164143 28.4242588,52.964178 28.4242588,52.964178 C28.9812516,51.6810681 29.259748,51.0395131 29.259748,51.0395131 L30.3410243,51.2433584 L30.4959716,52.964178 L30.5311698,64.7340782 L41.6701267,64.7340782 C41.728006,55.6043682 41.7569456,51.0395131 41.7569456,51.0395131 L42.3420694,47.5395468 L44.0448225,47.5395468 L44.0596688,51.0395131 L44.0596688,65.420887 L73.5453473,64.7340782 L73.6112838,51.2433584 C76.9799973,50.5180559 78.664354,50.1554046 78.664354,50.1554046 C93.0953892,51.3117743 100.310907,51.8899591 100.310907,51.8899591 C100.195645,62.9926665 100.138015,68.5440202 100.138015,68.5440202 L95.3302137,67.8478608 L95.3302137,58.1567971 L83.0385231,57.4786093 L83.0385231,67.8478608 C80.1224104,67.1347142 78.664354,66.7781409 78.664354,66.7781409 L73.0425585,66.8365827 L52.2029912,66.8365827 L52.2029912,69.2457901 L114.466093,76.8750248" transform="matrix(-1 0 0 1 117.053 0)"/>
          <path stroke="#313D3E" stroke-width="2" d="M106.92057 54.4876441L190.685438 54.4876441 190.685438 57.2184313C176.250812 56.6728104 162.100473 56.4 148.234422 56.4 134.36837 56.4 120.597086 56.6728104 106.92057 57.2184313L106.92057 54.4876441zM188.149103 21.6215516C179.720197 8.60914297 165.078086-1.13686838e-13 148.426315-1.13686838e-13 131.598239-1.13686838e-13 116.822603 8.7924121 108.43789 22.0363464L103.284946 22.0363464 103.284946 26.1771806 98.9120517 26.1771806 98.9120517 29.9557977 90.0081299 31.296 90.0081299 37.179822 89.0562699 37.179822 89.0562699 50.589516"/>
          <path stroke="#313D3E" stroke-width="2" d="M90.0081299,37.179822 L96.7751993,36.4451823 L96.7751993,64.6576415"/>
          <polyline stroke="#313D3E" stroke-width="2" points="96.775 37.18 99.541 38.162 102.101 37.671 102.101 41.395 101.081 43.9 101.081 63.407"/>
          <path stroke="#313D3E" stroke-width="2" d="M96.7751993 44.6111471L101.080679 43.899822M102.101209 37.6709686L103.618454 39.0096113 104.372637 43.899822"/>
          <polyline stroke="#313D3E" stroke-width="2" points="89.056 42.23 86.877 42.23 86.877 45.217 85.653 45.217 85.653 52.704 76.011 52.704"/>
          <path stroke="#313D3E" stroke-width="2" d="M126.984114 69.984C126.552973 69.8553191 125.978717 69.8231489 125.261347 69.8874893 124.543978 69.9518298 124.155257 70.496 124.095185 71.52 123.862834 71.2982618 123.270785 71.4987422 122.319038 72.121441 121.367292 72.7441399 120.891418 73.4637031 120.891418 74.2801307 120.429513 74.2017703 119.75731 74.4977267 118.874811 75.168 117.992312 75.8382733 117.551062 76.6062733 117.551062 77.472 115.707607 77.6645567 114.785879 78.0966959 114.785879 78.7684176 114.785879 79.4401392 114.594301 80.2541832 114.211146 81.2105496 113.605038 80.8206277 112.725116 81.172885 111.571381 82.2673214 110.417645 83.3617578 109.840777 84.4043209 109.840777 85.3950106 109.110006 85.4590356 108.086573 85.9025071 106.77048 86.7254251 105.454386 87.548343 104.655105 88.9093327 104.372637 90.8083942M124.095185 71.52C137.593288 71.973226 145.623709 72.1998391 148.186448 72.1998391M121.27337 74.496C136.379388 75.008 145.366405 75.264 148.234422 75.264M118.011179 78.144C134.944971 78.848 145.019385 79.2 148.234422 79.2M114.557094 81.6C133.761627 82.9098725 144.971412 83.5648087 148.186448 83.5648087M110.143541 85.824C132.290443 87.259105 144.971412 87.9766575 148.186448 87.9766575"/>
        </g>
        <g stroke-linecap="round" stroke-linejoin="round" transform="matrix(-1 0 0 1 300.797 33.6)">
          <polyline stroke="#313D3E" stroke-width="2" points="77.079 64.658 77.079 58.705 79.549 58.705 79.549 64.08"/>
          <polyline stroke="#313D3E" stroke-width="2" points="81.929 64.658 81.929 58.705 83.916 58.705 83.916 64.203"/>
          <path stroke="#313D3E" stroke-width="2" d="M102.101209 69.8874893L109.840777 70.0160608M99.0309115 71.4234893L106.77048 71.5520608M96.2484543 73.0554893L103.988022 73.1840608M92.506529 75.0714893L100.246097 75.2000608M88.2848697 77.3754893L96.0244378 77.5040608M82.9118488 79.6794893L90.6514169 79.8080608M75.7466128 82.848L86.8135448 82.848M67.995875 85.92L82.2080983 85.92M86.8135448 85.92L98.927939 86.016C100.510462 84.7338796 101.568218 84.0928194 102.101209 84.0928194 102.6342 84.0928194 103.391343 83.8518761 104.372637 83.3699896 104.805156 82.0672179 105.337942 81.1264417 105.970993 80.5476607 106.604045 79.9688798 107.609462 79.6794893 108.987247 79.6794893 109.527632 77.7552652 110.162173 76.7634354 110.890871 76.704 111.619569 76.6445646 112.464362 76.6148469 113.42525 76.6148469L114.785879 74.1684135C115.775043 73.3621236 116.696771 72.9911489 117.551062 73.0554893 118.8325 73.152 118.529627 70.5048738 120.045217 70.5048738 121.560806 70.5048738 121.712422 68.1321576 122.948466 68.1321576 124.184509 68.1321576 118.331422 65.5015119 115.897393 66.5983002 100.118238 77.472 83.9161509 81.1532855 86.8135448 85.92zM120.045217 66.3308199C122.967144 65.184462 132.347554 64.6267358 148.186448 64.6576415M100.118238 69.8874893C97.858205 70.2870402 96.6108965 70.7990402 96.376313 71.4234893 96.1417295 72.0479385 95.4292771 72.3595097 94.2389557 72.3582031L94.2389557 71.1228483 90.0081299 71.1228483C91.2535417 71.7720276 91.6721091 72.4162413 91.2638322 73.0554893 90.8555553 73.6947373 89.8625678 74.7340442 88.2848697 76.1734099L86.7816329 74.5517798 82.9118488 74.5517798C83.5813835 75.8283725 83.5850316 76.7696091 82.9227929 77.3754893 82.2605542 77.9813696 81.1358641 78.4365326 79.5487227 78.7409782L78.8230837 79.776 77.0790714 79.776 77.0790714 78.7409782 74.2052565 78.7409782 71.7707797 78.7409782C72.3675804 80.0922047 72.3675804 81.114515 71.7707797 81.807909 71.173979 82.501303 69.5492772 83.639773 66.8966744 85.2233189L66.1316006 81.807909 59.7308149 81.807909 58.8464203 85.92 53.2556564 85.2233189 53.2556564 83.5307056 46.4262507 82.848C49.2314716 85.4149185 50.4402071 87.402392 50.0524571 88.8104205 49.4708321 90.9224633 23.9074908 96.6753104 18.6526425 96.0418543 15.1494104 95.6195503 9.0423238 93.8789835.331382761 90.8201539-.541775304 83.6133556.310575081 79.5869637 2.88843392 78.7409782 6.75522217 77.472 25.7590112 76.2020582 30.5245368 78.7409782 35.2900624 81.2798983 36.8405599 76.1734099 41.9025315 76.1734099 45.2771792 76.1734099 50.4666667 76.5741031 57.4709939 77.3754893 60.9040192 74.6216041 63.7908881 72.9491754 66.1316006 72.3582031 69.6426693 71.4717447 71.6245763 67.2010889 77.0790714 67.2010889 82.5335666 67.2010889 85.7773042 66.3308199 90.0081299 66.3308199 94.2389557 66.3308199 100.118238 67.0292501 100.118238 68.506625 100.118238 69.4915417 100.118238 69.9518298 100.118238 69.8874893z"/>
          <path stroke="#313D3E" stroke-width="2" d="M2.58717644,63.747112 L2.70659728,48.5985134 L4.84084776,48.5985134 L4.84084776,63.747112 L9.17202741,63.812178 L10.4524848,62.9929782 L10.4782882,48.5985134 L11.2532739,44.16 L13.0004183,44.16 L13.0688519,48.5985134 L13.0688519,63.747112 L16.166212,63.812178 L16.8872186,65.420887 L28.4242588,65.420887 C28.4242588,57.1164143 28.4242588,52.964178 28.4242588,52.964178 C28.9812516,51.6810681 29.259748,51.0395131 29.259748,51.0395131 L30.3410243,51.2433584 L30.4959716,52.964178 L30.5311698,64.7340782 L41.6701267,64.7340782 C41.728006,55.6043682 41.7569456,51.0395131 41.7569456,51.0395131 L42.3420694,47.5395468 L44.0448225,47.5395468 L44.0596688,51.0395131 L44.0596688,65.420887 L73.5453473,64.7340782 L73.6112838,51.2433584 C76.9799973,50.5180559 78.664354,50.1554046 78.664354,50.1554046 C93.0953892,51.3117743 100.310907,51.8899591 100.310907,51.8899591 C100.195645,62.9926665 100.138015,68.5440202 100.138015,68.5440202 L95.3302137,67.8478608 L95.3302137,58.1567971 L83.0385231,57.4786093 L83.0385231,67.8478608 C80.1224104,67.1347142 78.664354,66.7781409 78.664354,66.7781409 L73.0425585,66.8365827 L52.2029912,66.8365827 L52.2029912,69.2457901 L114.466093,76.8750248" transform="matrix(-1 0 0 1 117.053 0)"/>
          <path stroke="#313D3E" stroke-width="2" d="M106.92057 54.4876441L190.685438 54.4876441 190.685438 57.2184313C176.250812 56.6728104 162.100473 56.4 148.234422 56.4 134.36837 56.4 120.597086 56.6728104 106.92057 57.2184313L106.92057 54.4876441zM188.149103 21.6215516C179.720197 8.60914297 165.078086-1.13686838e-13 148.426315-1.13686838e-13 131.598239-1.13686838e-13 116.822603 8.7924121 108.43789 22.0363464L103.284946 22.0363464 103.284946 26.1771806 98.9120517 26.1771806 98.9120517 29.9557977 90.0081299 31.296 90.0081299 37.179822 89.0562699 37.179822 89.0562699 50.589516"/>
          <path stroke="#313D3E" stroke-width="2" d="M90.0081299,37.179822 L96.7751993,36.4451823 L96.7751993,64.6576415"/>
          <polyline stroke="#313D3E" stroke-width="2" points="96.775 37.18 99.541 38.162 102.101 37.671 102.101 41.395 101.081 43.9 101.081 63.407"/>
          <path stroke="#313D3E" stroke-width="2" d="M96.7751993 44.6111471L101.080679 43.899822M102.101209 37.6709686L103.618454 39.0096113 104.372637 43.899822"/>
          <polyline stroke="#313D3E" stroke-width="2" points="89.056 42.23 86.877 42.23 86.877 45.217 85.653 45.217 85.653 52.704 76.011 52.704"/>
          <path stroke="#313D3E" stroke-width="2" d="M126.984114 69.984C126.552973 69.8553191 125.978717 69.8231489 125.261347 69.8874893 124.543978 69.9518298 124.155257 70.496 124.095185 71.52 123.862834 71.2982618 123.270785 71.4987422 122.319038 72.121441 121.367292 72.7441399 120.891418 73.4637031 120.891418 74.2801307 120.429513 74.2017703 119.75731 74.4977267 118.874811 75.168 117.992312 75.8382733 117.551062 76.6062733 117.551062 77.472 115.707607 77.6645567 114.785879 78.0966959 114.785879 78.7684176 114.785879 79.4401392 114.594301 80.2541832 114.211146 81.2105496 113.605038 80.8206277 112.725116 81.172885 111.571381 82.2673214 110.417645 83.3617578 109.840777 84.4043209 109.840777 85.3950106 109.110006 85.4590356 108.086573 85.9025071 106.77048 86.7254251 105.454386 87.548343 104.655105 88.9093327 104.372637 90.8083942M124.095185 71.52C137.593288 71.973226 145.623709 72.1998391 148.186448 72.1998391M121.27337 74.496C136.379388 75.008 145.366405 75.264 148.234422 75.264M118.011179 78.144C134.944971 78.848 145.019385 79.2 148.234422 79.2M114.557094 81.6C133.761627 82.9098725 144.971412 83.5648087 148.186448 83.5648087M110.143541 85.824C132.290443 87.259105 144.971412 87.9766575 148.186448 87.9766575"/>
        </g>
        <ellipse cx="152.555" cy="64.896" fill="#ED1C40" fill-rule="nonzero" stroke="#ED1C40" rx="4.414" ry="4.416"/>
        <ellipse cx="152.555" cy="64.896" stroke="#313D3E" rx="2.015" ry="2.016"/>
      </g>
    </g>
  </g>
</svg>
