<svg width="143" height="160" viewBox="0 0 143 160" version="1.1" xmlns="http://www.w3.org/2000/svg" xmlns:xlink="http://www.w3.org/1999/xlink"><title>dallas-art</title><desc>Created with Sketch.</desc><g id="meetups" stroke="none" stroke-width="1" fill="none" fill-rule="evenodd"><g id="chapters" transform="translate(-649.000000, -292.000000)"><g id="meetup" transform="translate(-96.000000, -30.000000)"><g id="dallas-art" transform="translate(721.000000, 317.000000)"><path d="M120.947486,163.25367 C146.419139,152.944212 164.387585,127.972757 164.387585,98.8045476 C164.387585,60.4207575 133.271376,29.3045476 94.8875855,29.3045476 C63.3193225,29.3045476 36.6668741,50.3516519 28.1972155,79.1788851" id="Oval" stroke="#313D3E" stroke-width="3" stroke-linecap="round" stroke-linejoin="round" transform="translate(96.292401, 96.279109) rotate(135.000000) translate(-96.292401, -96.279109)"/><circle id="Oval-2" stroke="#313D3E" stroke-width="3" cx="95" cy="58" r="51"/><path d="M100.267464,11.7090682 C100.479107,11.6157673 100.664072,11.4736834 100.812182,11.3028451 C101.092118,10.9650864 101.237891,10.5303474 101.18629,10.085576 C101.18113,10.0354138 101.17081,9.98859577 101.160489,9.94512187 C100.203288,9.51038291 99.2331874,9.19937735 98.2463159,9.01879347 C97.9883103,9.24285125 97.8296368,9.57392169 97.8438271,9.99528406 C97.8618875,10.4266789 98.067002,10.8814827 98.3920891,11.2259297 C98.5769415,11.4244801 98.8013152,11.5870636 99.0488886,11.6931469 C98.8552178,11.7624806 98.6824267,11.8671084 98.5388229,12.0020928 C98.2514604,12.2709759 98.0757181,12.6563044 98.08878,13.1136173 C98.1054043,13.579399 98.3072705,14.0282432 98.6243192,14.3648763 C98.9461177,14.6993923 99.3878484,14.9259316 99.8604528,14.9386347 C100.33662,14.953455 100.755789,14.7502048 101.039589,14.4305092 C101.322202,14.1129308 101.47657,13.6704382 101.435009,13.2025393 C101.398198,12.7409919 101.172583,12.3429603 100.85316,12.0571397 C100.682547,11.9067373 100.483817,11.7883475 100.267464,11.7090682 Z M88.8540121,11.7941886 C89.2039135,11.7053092 89.5232438,11.5029889 89.7713623,11.2338894 C90.0977004,10.8860983 90.3015004,10.4379827 90.3234282,9.99655546 C90.336327,9.5618165 90.1699333,9.22405777 89.8887408,9 C89.8887408,9 89.887451,9 89.8887408,9 C88.9213356,9.16386315 87.9706987,9.45145969 87.0329606,9.8460689 C87.0110327,9.9263284 86.9903948,10.0132762 86.9800758,10.0935357 C86.9310606,10.5416512 87.0729467,10.9830785 87.3528493,11.3108048 C87.4592688,11.4379499 87.5852663,11.547209 87.7268717,11.6330681 C87.391998,11.6939584 87.0825832,11.8466167 86.8350059,12.0660537 C86.5145539,12.3522178 86.2902374,12.7528476 86.2486974,13.2149497 C86.209531,13.6749321 86.361449,14.1158368 86.6462953,14.4380364 C86.9299547,14.7581163 87.3465423,14.9594911 87.8212861,14.9467727 C88.2960298,14.9340543 88.7363547,14.7072427 89.0579936,14.3723247 C89.3796325,14.0374066 89.5802117,13.5880229 89.5956409,13.1238011 C89.6075095,12.6595793 89.4354149,12.2759074 89.1493818,12.0088208 C89.0612963,11.9252236 88.9622237,11.8532775 88.8540121,11.7941886 Z M77.7946717,12.2521154 C78.0415744,12.5030684 78.1656399,12.8794978 78.0993079,13.3382068 C78.0305191,13.7928019 77.7799312,14.24534 77.428617,14.5970855 C77.0773027,14.946774 76.6228052,15.193613 76.1535672,15.2326958 C75.6892427,15.2738356 75.2998489,15.0969344 75.0529462,14.7945567 C74.8072719,14.4901219 74.7053171,14.0602108 74.7962166,13.5891598 C74.8244691,13.4348854 74.8748323,13.284725 74.9448495,13.1407357 C75.5332395,12.6943685 76.1326849,12.2829703 76.7407288,11.8983129 C77.1792575,11.869515 77.5465406,12.0032195 77.7946717,12.2521154 Z M111.731433,15.2386859 C111.263653,15.1994612 110.80815,14.9537909 110.457008,14.5987043 C110.105866,14.2477467 109.857856,13.7997596 109.789101,13.3373214 C109.721573,12.8831409 109.849262,12.5032809 110.096043,12.2514172 C110.304764,12.0367137 110.599429,11.9211042 110.949344,11.9004596 C111.661451,12.3463822 112.353913,12.833594 113.037781,13.3744816 C113.059881,13.4405442 113.079525,13.5128002 113.093031,13.5891851 C113.182658,14.0578167 113.078297,14.4913526 112.832743,14.7948277 C112.587189,15.1024317 112.200442,15.279975 111.731433,15.2386859 Z M64.350457,21.807353 C63.8933919,21.9291619 63.5324777,21.8494597 63.3220606,21.6283991 C63.1102499,21.4088423 63.0433623,21.0524385 63.1645961,20.6148287 C63.246812,20.3260964 63.4000961,20.038868 63.5965783,19.7696854 C63.9672469,19.4328311 64.344883,19.1019921 64.7280931,18.7816797 C64.8744097,18.7034814 65.0263002,18.6403212 65.1767972,18.5952068 C65.6171404,18.4628712 65.9766611,18.5094894 66.2010132,18.7049852 C66.4253653,18.900481 66.5201227,19.2403429 66.4156108,19.6899832 C66.3445428,19.990746 66.1968327,20.3020354 65.993383,20.5892638 C65.7913268,20.8764923 65.5349245,21.1396597 65.2492588,21.3532012 C64.9649866,21.5682466 64.657025,21.7276508 64.350457,21.807353 Z M73.7082038,19.7620094 C73.4496014,19.4683473 73.3296192,19.0477375 73.4006766,18.5858314 C73.4461068,18.2768744 73.5719134,17.9847418 73.7489745,17.7354349 C73.9260356,17.486128 74.1590108,17.2765878 74.4222727,17.1221093 C74.68204,16.9676308 74.9755887,16.8743319 75.2749617,16.84986 C75.7246038,16.8177407 76.1101776,16.9599833 76.3722747,17.2245851 C76.6343717,17.4876575 76.7764866,17.876148 76.7229023,18.334995 C76.687956,18.6393636 76.5691387,18.9345552 76.3932425,19.202216 C76.2173462,19.4637588 75.9808764,19.6993003 75.7117901,19.8721327 C75.4427038,20.0449651 75.1398361,20.1535589 74.8264846,20.1841487 C74.3593694,20.2223859 73.9656414,20.054142 73.7082038,19.7620094 Z M86.3374975,19.5541273 C86.0961315,19.4072192 85.8968384,19.1946712 85.7684051,18.941489 C85.6366503,18.6867439 85.5735408,18.3944904 85.5945773,18.0850456 C85.6145066,17.7756007 85.7163675,17.4895986 85.8769091,17.2489192 C86.0363436,17.006677 86.2511372,16.805069 86.5024679,16.6612865 C86.7549058,16.5237554 87.0427735,16.4409242 87.3428203,16.4315471 C87.7934441,16.4190443 88.1953518,16.5800182 88.4865411,16.8597688 C88.7766232,17.1395195 88.9537726,17.538047 88.9438079,17.9990886 C88.9360576,18.3085335 88.8441614,18.6039127 88.6902629,18.8649092 C88.5374715,19.1243428 88.3193563,19.3462679 88.0613825,19.5088046 C87.8034087,19.6682156 87.5044691,19.7666753 87.1878146,19.7744896 C86.8711601,19.7823039 86.5810779,19.7025984 86.3374975,19.5541273 Z M99.9060929,16.4294064 C100.208262,16.4356634 100.494935,16.5201326 100.745083,16.6577862 C100.997444,16.8001325 101.213279,17.0019201 101.371558,17.2443781 C101.532051,17.4868361 101.631667,17.773093 101.652697,18.0812492 C101.675941,18.3909698 101.616171,18.6787909 101.48335,18.9353271 C101.350528,19.1918633 101.152402,19.4030363 100.907789,19.5500754 C100.664283,19.6986787 100.370969,19.7800194 100.056624,19.7721982 C99.7444932,19.764377 99.4412172,19.6673938 99.1866424,19.5047123 C98.929854,19.3467235 98.7118051,19.1214722 98.5579534,18.8618075 C98.401888,18.6005786 98.3122334,18.3018078 98.3044855,17.99678 C98.293417,17.536892 98.4727262,17.1364452 98.7638269,16.8564453 C99.052714,16.579574 99.4544994,16.4153282 99.9060929,16.4294064 Z M112.295037,16.8414995 C112.595257,16.8644694 112.888496,16.9578807 113.150317,17.1110138 C113.410974,17.2626157 113.643703,17.4724081 113.820577,17.7235465 C114.000943,17.9731536 114.123126,18.2671692 114.170835,18.5749669 C114.238327,19.0389604 114.118471,19.4600766 113.860141,19.7540923 C113.601812,20.048108 113.206172,20.2104291 112.73955,20.1767398 C112.426529,20.1522385 112.122817,20.03892 111.856342,19.8658795 C111.584048,19.6943703 111.347828,19.4600766 111.172117,19.1951562 C110.999898,18.9302358 110.881206,18.6300948 110.846296,18.3268912 C110.795096,17.8659603 110.93357,17.4815961 111.19539,17.2166757 C111.458375,16.950224 111.844705,16.8093415 112.295037,16.8414995 Z M122.702253,20.5970095 C122.498845,20.309098 122.352559,19.9970683 122.281505,19.698605 C122.175622,19.2478954 122.268966,18.9072252 122.494665,18.7112645 C122.698073,18.5333925 123.017117,18.4836486 123.403034,18.5755994 C124.110782,19.1529298 124.793452,19.760408 125.449651,20.3965266 C125.483088,20.4703887 125.509559,20.5472656 125.530457,20.6256499 C125.653059,21.0643004 125.586185,21.4200445 125.374418,21.6401235 C125.159865,21.8602024 124.800418,21.9385867 124.343447,21.8179955 C124.038335,21.7365964 123.729044,21.5783205 123.444831,21.3627637 C123.16201,21.1487143 122.905661,20.8819062 122.702253,20.5970095 Z M56.1935567,28.0899939 C56.2653089,28.1228463 56.3312434,28.1656973 56.3836031,28.2142617 C56.6143737,28.4256598 56.6841866,28.7956065 56.5251683,29.262682 C56.4146311,29.5769224 56.2168277,29.8968763 55.9666647,30.1839778 C55.7126231,30.4753643 55.4042825,30.7367552 55.0765495,30.946725 C54.7488165,31.1566947 54.4036303,31.3095298 54.073958,31.3838048 C53.7326502,31.4637933 53.4572769,31.4452245 53.2575343,31.3509524 C54.1495887,30.2182585 55.1308485,29.1312724 56.1935567,28.0899939 Z M62.6127472,28.805189 C62.1473101,28.8789484 61.7760213,28.7586041 61.5439658,28.5114454 C61.3145624,28.2642867 61.2296964,27.8916075 61.3304748,27.449051 C61.3981024,27.1553074 61.5360096,26.8628578 61.7256321,26.5988767 C61.9139286,26.3348957 62.1512882,26.0993832 62.4151685,25.9104555 C62.6803748,25.7215279 62.9707756,25.5856553 63.2691327,25.5196601 C63.7107012,25.4251962 64.0859681,25.514484 64.3312839,25.7487024 C64.5792518,25.9829209 64.6985946,26.3607762 64.6163806,26.8253311 C64.5646654,27.134603 64.4267581,27.4425809 64.2358096,27.7207962 C64.042209,27.9990116 63.7915891,28.2448763 63.5117965,28.4338039 C63.2306778,28.6227315 62.9203864,28.7547221 62.6127472,28.805189 Z M72.8720262,27.1113542 C72.6385151,26.9844713 72.4541642,26.7859812 72.3368499,26.5498032 C72.2217703,26.3086001 72.17261,26.0196588 72.2061284,25.7106173 C72.2385295,25.4015759 72.3524918,25.1088658 72.5212009,24.8525875 C72.6899099,24.600078 72.9144828,24.3814877 73.1725741,24.2244544 C73.4295481,24.0649086 73.7211577,23.9644073 74.0250574,23.9417945 C74.3267225,23.9191817 74.6049248,23.9769699 74.8384359,24.0963152 C75.0719471,24.2194293 75.2596498,24.4015879 75.3825504,24.6327409 C75.5110374,24.8613814 75.5691359,25.1390162 75.5434385,25.4455452 C75.5166238,25.7520741 75.4071305,26.0472967 75.2384215,26.3098563 C75.067478,26.572416 74.8373186,26.7998002 74.573641,26.9693961 C74.3077288,27.1389921 74.0060636,27.2495435 73.6965776,27.2759251 C73.3848569,27.2997941 73.1033028,27.2407496 72.8720262,27.1113542 Z M85.7803886,26.5354317 C85.5357174,26.3920374 85.3370527,26.1871883 85.2021698,25.9388087 C85.0672869,25.6904292 84.9982771,25.3985192 85.0139611,25.0899653 C85.0306908,24.7826916 85.1268863,24.492062 85.2837269,24.2449628 C85.4395218,23.9965832 85.6517794,23.7904538 85.900633,23.6444988 C86.1526235,23.4959832 86.4401645,23.4102027 86.7444352,23.4038012 C87.0466147,23.3961193 87.3278821,23.4678165 87.5694165,23.6009684 C87.8119966,23.73284 88.0117069,23.928727 88.1518178,24.1681444 C88.2940199,24.4062814 88.370349,24.6892292 88.3651209,24.9965029 C88.3609385,25.3024962 88.2720622,25.6008077 88.1194041,25.8568691 C87.9657003,26.1116502 87.7513516,26.3305826 87.4941331,26.4880604 C87.2379602,26.6429775 86.9441455,26.7377202 86.6294188,26.7466824 C86.3178289,26.7556445 86.0250599,26.6788261 85.7803886,26.5354317 Z M100.958124,23.6360419 C101.210182,23.781998 101.424588,23.9868487 101.579379,24.2301089 C101.73417,24.4772101 101.831437,24.7665617 101.843988,25.0751181 C101.859676,25.3849548 101.79274,25.6755867 101.657821,25.9252485 C101.524993,26.1749103 101.324184,26.3848823 101.079447,26.5244368 C100.83471,26.666552 100.545,26.7459317 100.230189,26.7382498 C99.9164235,26.7280072 99.6183465,26.6345441 99.3621049,26.4770651 C99.1058633,26.3221468 98.891457,26.1019323 98.738758,25.8484295 C98.5860589,25.5910858 98.4992505,25.2953326 98.4929752,24.9893369 C98.4866999,24.6807805 98.5661871,24.4003911 98.7063356,24.1596915 C98.8475299,23.9215525 99.0504314,23.7256641 99.2909848,23.5925111 C99.5315381,23.4606385 99.8139269,23.3863801 100.118279,23.3953423 C100.42054,23.4017439 100.709204,23.4900857 100.958124,23.6360419 Z M113.280335,23.9310959 C113.5842,23.9537039 113.873542,24.0541838 114.130486,24.2099276 C114.387431,24.3681834 114.615329,24.5854712 114.780667,24.8391829 C114.950474,25.0954066 115.06554,25.3880543 115.097938,25.6970299 C115.129218,26.0060056 115.08118,26.2923732 114.964997,26.533525 C114.847696,26.7721647 114.664484,26.9681005 114.430999,27.0974683 C114.197515,27.2280922 113.915993,27.2896361 113.606543,27.2645161 C113.295975,27.2393961 112.993228,27.1288683 112.729581,26.9593085 C112.460347,26.7922607 112.231332,26.5611569 112.061525,26.2999092 C111.892835,26.0374055 111.784472,25.7384779 111.758778,25.4357822 C111.735317,25.1293186 111.793409,24.8555109 111.91853,24.6231511 C112.042534,24.3933034 112.232449,24.2099276 112.465933,24.0893518 C112.699417,23.9662639 112.977588,23.907232 113.280335,23.9310959 Z M124.107544,25.7447321 C124.354339,25.5131342 124.728511,25.4212713 125.170353,25.5157218 C125.471548,25.5817078 125.762129,25.7175614 126.026173,25.9064625 C126.290216,26.0940697 126.526396,26.330843 126.717463,26.5947871 C126.90853,26.8587311 127.045195,27.1485519 127.112865,27.444842 C127.209725,27.8873364 127.126133,28.2599632 126.896588,28.5070873 C126.669696,28.7529175 126.296851,28.8771264 125.828472,28.8007897 C125.517988,28.7503298 125.210158,28.6183578 124.930193,28.4294567 C124.650227,28.2405556 124.398125,27.9934315 124.204404,27.7165491 C124.013338,27.4409605 123.875345,27.1304381 123.823598,26.8212096 C123.743987,26.3567199 123.862076,25.9789177 124.107544,25.7447321 Z M135.225456,31.193563 C134.860041,30.9727277 134.509851,30.6929021 134.227089,30.3858503 C133.939977,30.0757733 133.724642,29.7430078 133.602837,29.4102423 C133.43753,28.9579836 133.496258,28.5964793 133.709417,28.3635434 C134.844815,29.4344434 135.904085,30.5461828 136.861126,31.7063244 C136.70887,31.7123747 136.541388,31.6987616 136.34998,31.6564096 C135.982389,31.5777559 135.595222,31.4143983 135.225456,31.193563 Z M53.2507135,39.4581662 C52.7914229,39.5205859 52.4117673,39.3921454 52.1524903,39.1412664 C51.8969173,38.889187 51.7580189,38.5122683 51.7895025,38.0669281 C51.8154302,37.6203875 52.01174,37.1882514 52.3154644,36.8437429 C52.6136329,36.498034 53.0321801,36.2387524 53.4988786,36.1571267 C53.9637252,36.0743006 54.3915322,36.1823346 54.6952567,36.4320132 C54.9971292,36.6804915 55.1693632,37.069414 55.1341756,37.536361 C55.1063959,37.8472589 54.9952772,38.1485538 54.8156353,38.42224 C54.6378454,38.692325 54.3989402,38.933601 54.1304033,39.1136577 C53.8581624,39.292514 53.554438,39.416153 53.2507135,39.4581662 Z M60.8705929,37.5355316 C60.6406469,37.4141475 60.4569544,37.2286995 60.3327307,36.9994184 C60.2111501,36.7701372 60.1530028,36.495899 60.1754688,36.1935627 C60.1992563,35.8912263 60.2970495,35.5990052 60.4543114,35.3416259 C60.6102518,35.0842466 60.8269825,34.8572134 61.0767514,34.6875004 C61.3304849,34.5155395 61.6251858,34.3997751 61.9344235,34.3615615 C62.2449828,34.3222241 62.5317545,34.369429 62.7749158,34.4829457 C63.018077,34.5987102 63.2163064,34.7796624 63.3471377,35.0100675 C63.4806121,35.2404725 63.5440455,35.5203303 63.5189364,35.8294103 C63.4938274,36.1384902 63.3841405,36.4408266 63.2123418,36.7060734 C63.0431861,36.974692 62.8119186,37.205097 62.5489344,37.37481 C62.2846286,37.5467708 61.9859631,37.6569157 61.6820115,37.6850139 C61.3780599,37.7131121 61.1005389,37.6557918 60.8705929,37.5355316 Z M72.0351264,36.3219625 C71.7993211,36.1873527 71.6057011,35.9902838 71.479145,35.7522935 C71.3515073,35.5110726 71.2887701,35.2278534 71.3093219,34.9252504 C71.3320371,34.6194168 71.4315513,34.3308132 71.589476,34.0799004 C71.7474006,33.8289876 71.9637358,33.6125349 72.2179296,33.4542337 C72.4688783,33.2948556 72.7587674,33.1957827 73.0638,33.1731682 C73.3688325,33.1527075 73.6522316,33.2151665 73.8923636,33.3400845 C74.1303323,33.46931 74.3315239,33.6599176 74.4656517,33.8979078 C74.5997795,34.1358981 74.6722518,34.4201942 74.6571083,34.7292584 C74.6408832,35.0404765 74.5424507,35.338772 74.3823627,35.597223 C74.2201113,35.8567508 73.9972861,36.0796648 73.737684,36.237966 C73.4780818,36.3994978 73.1817026,36.4974938 72.8690984,36.5114933 C72.5597391,36.5265696 72.2763401,36.4554956 72.0351264,36.3219625 Z M85.3925641,35.7164447 C85.1473468,35.5723984 84.9453441,35.3673689 84.8046457,35.1202821 C84.6649522,34.8721438 84.5885731,34.5851026 84.598623,34.2791355 C84.6056579,33.9731684 84.6971119,33.6829728 84.8478602,33.435886 C84.9976035,33.1887992 85.2086511,32.9816669 85.4568833,32.8334148 C85.7041106,32.6872656 85.9915373,32.5989452 86.2990639,32.5915851 C86.6055854,32.5842251 86.8899972,32.6588769 87.1352145,32.7976661 C87.3804317,32.9343524 87.5844444,33.1362276 87.7281578,33.3780572 C87.8738812,33.6230412 87.9542803,33.9058767 87.9512653,34.2160495 C87.9482503,34.523068 87.8628263,34.8174693 87.712078,35.0698133 C87.5643447,35.3221573 87.352292,35.5355982 87.0990349,35.688056 C86.8467827,35.8405139 86.551316,35.9288343 86.2407745,35.9351429 C85.929228,35.9382972 85.6397913,35.8594397 85.3925641,35.7164447 Z M101.128442,32.828265 C101.37764,32.9764763 101.587649,33.1835517 101.734353,33.4305706 C101.886083,33.6796918 101.974507,33.9656031 101.984556,34.2735883 C101.991589,34.5794713 101.917232,34.868536 101.776556,35.1145037 C101.636885,35.3615226 101.434915,35.5654446 101.188732,35.7105025 C100.942549,35.8534581 100.654163,35.9322939 100.341662,35.9291405 C100.030165,35.9249359 99.7367553,35.8376909 99.4835386,35.6842239 C99.2303219,35.531808 99.0183032,35.3173745 98.8705934,35.0661511 C98.7208741,34.8128253 98.633454,34.5206072 98.6314444,34.2115708 C98.6294347,33.9025344 98.709821,33.6166232 98.8545162,33.3727577 C98.9972018,33.1288922 99.2031915,32.930226 99.4493744,32.7935772 C99.6945525,32.6548262 99.9789188,32.5791438 100.284387,32.5854507 C100.592869,32.5917575 100.879245,32.6790025 101.128442,32.828265 Z M114.8743,33.4429227 C115.123743,33.6011306 115.34079,33.8163795 115.499526,34.0692969 C115.660422,34.3200619 115.759767,34.6095716 115.780284,34.9141487 C115.799721,35.2198021 115.73817,35.4996257 115.60967,35.7396281 C115.482249,35.9785544 115.291117,36.1776596 115.053553,36.3111139 C114.814909,36.4445682 114.529832,36.5177528 114.219918,36.5016091 C113.907845,36.4865417 113.60873,36.3886035 113.350649,36.2282431 C113.089328,36.0668064 112.866882,35.8472526 112.707066,35.5868015 C112.54401,35.3263503 112.446825,35.0314594 112.431707,34.7204248 C112.418749,34.4104664 112.490018,34.1263379 112.623918,33.8895641 C112.758898,33.6495616 112.955428,33.4579901 113.198392,33.3320696 C113.441355,33.2050727 113.724273,33.1415743 114.027707,33.1641754 C114.332221,33.1846241 114.620538,33.285791 114.8743,33.4429227 Z M127.345596,34.6844529 C127.599814,34.8553426 127.811662,35.0790731 127.9679,35.3365319 C128.125462,35.595115 128.224766,35.8840534 128.247275,36.1887317 C128.26846,36.4911614 128.211526,36.76436 128.087065,36.9948362 C127.9679,37.2264367 127.785181,37.4108177 127.554796,37.5333635 C127.324411,37.6559094 127.047684,37.7109989 126.741829,37.682892 C126.433325,37.6547852 126.138061,37.5457306 125.874575,37.3725923 C125.611089,37.1994541 125.380704,36.9701022 125.207253,36.7036492 C125.040422,36.4383205 124.929202,36.1358908 124.902721,35.8267154 C124.880212,35.51754 124.93847,35.2375958 125.073524,35.0071196 C125.205929,34.7766434 125.401888,34.5956353 125.645514,34.479835 C125.893112,34.3685319 126.179107,34.3213124 126.488935,34.3584134 C126.798763,34.3966387 127.091378,34.512439 127.345596,34.6844529 Z M135.249295,36.4306123 C135.54903,36.1810476 135.97828,36.0730629 136.446384,36.1522517 C136.912638,36.2338402 137.330787,36.4930035 137.634222,36.8385546 C137.933957,37.1853056 138.122679,37.6172445 138.155983,38.0611817 C138.187436,38.5087184 138.04867,38.8830654 137.79334,39.1362296 C137.53431,39.3869941 137.151316,39.5177756 136.696163,39.4553845 C136.387177,39.4133904 136.083742,39.2898079 135.813611,39.1110332 C135.545329,38.9310586 135.306652,38.6922924 135.127181,38.4199309 C134.95141,38.1487693 134.836697,37.8452122 134.812644,37.5344562 C134.77194,37.0677222 134.94586,36.6789772 135.249295,36.4306123 Z M47.3989769,50.416014 C47.3419656,50.3621891 47.2916615,50.3018001 47.2380038,50.2309087 C47.1776389,50.1363868 47.1373957,50.0247985 47.0904452,49.9053333 C47.1575173,49.666403 47.2346502,49.4314111 47.321844,49.1937936 C47.5431819,48.562335 47.8081167,47.9361275 48.1300628,47.3191097 C48.1501844,47.3138585 48.1635989,47.3086073 48.1837205,47.3059817 C48.5626779,47.2403415 48.9516961,47.3742475 49.2434597,47.6446851 C49.5352234,47.9138098 49.7230253,48.3247175 49.7029037,48.7999525 C49.6894892,49.2751875 49.4715049,49.7228536 49.156266,50.054993 C48.8477343,50.3871323 48.4486553,50.6024322 48.0764051,50.6300011 C47.7980559,50.6523187 47.5700107,50.5709249 47.3989769,50.416014 Z M53.0138501,49.3265137 C52.5563325,49.3485432 52.1668753,49.1792642 51.8946334,48.9009973 C51.6242821,48.6204116 51.4730366,48.2250408 51.48438,47.775176 C51.4995045,47.329949 51.677218,46.9090704 51.966475,46.5867446 C52.2538415,46.2621 52.6584232,46.0360081 53.1253937,45.9919492 C53.5923642,45.9478903 54.0253045,46.0962993 54.3410294,46.3734067 C54.658645,46.6539925 54.8533736,47.0690739 54.8363585,47.5374897 C54.8174528,48.0117028 54.5962562,48.4511326 54.2616256,48.7746178 C53.9232137,49.1004219 53.4789301,49.3056437 53.0138501,49.3265137 Z M60.4828581,48.1148315 C60.2462162,47.9797458 60.0539446,47.7829675 59.9221781,47.5436426 C59.7917561,47.3053813 59.7218392,47.025637 59.7299065,46.7235557 C59.740663,46.4225381 59.8307483,46.1342845 59.9773049,45.8832592 C60.122517,45.6343613 60.3295786,45.4163096 60.5756325,45.2578233 C60.8257199,45.0972097 61.113455,44.997225 61.4227029,44.9770154 C61.7332954,44.9546784 62.0237196,45.0206257 62.2764962,45.1482657 C62.52255,45.2790967 62.7323008,45.4737476 62.8734792,45.7162636 C63.0160022,45.9598432 63.0926419,46.2470331 63.0818854,46.5597511 C63.071129,46.872469 62.9729764,47.169232 62.8143187,47.4266393 C62.6529719,47.6851102 62.4324647,47.9031618 62.1716208,48.0584572 C61.9121214,48.2137525 61.6190081,48.3062914 61.3097602,48.3158644 C61.0018568,48.3265011 60.7208445,48.2520444 60.4828581,48.1148315 Z M71.5681739,47.4402869 C71.3234992,47.2991045 71.1254293,47.0974155 70.9887928,46.8543801 C70.8532156,46.6093279 70.7780125,46.3249463 70.7886045,46.0203959 C70.7960189,45.7148369 70.8871099,45.4294469 71.0364567,45.1793524 C71.1847444,44.9312749 71.3944655,44.7205098 71.6433769,44.569243 C71.8922883,44.4179762 72.18039,44.3262077 72.4886165,44.3161232 C72.7957837,44.3060388 73.0860038,44.3786468 73.3306785,44.5157954 C73.5774715,44.6539524 73.7829558,44.8536246 73.9259474,45.0976684 C74.0699983,45.343729 74.1462605,45.6291191 74.1409645,45.9417371 C74.1335501,46.2523383 74.0435184,46.5447874 73.8888755,46.7989156 C73.7363511,47.0520354 73.5202748,47.2648174 73.2660674,47.4160842 C73.0108008,47.5643257 72.7174031,47.6540773 72.4070583,47.6591195 C72.0967134,47.6641617 71.8107301,47.5834861 71.5681739,47.4402869 Z M85.1910387,47.1286563 C84.9428589,46.9848448 84.7380121,46.7789777 84.5961951,46.5297701 C84.4543781,46.2835176 84.374606,45.9958947 84.3795302,45.6885715 C84.3814999,45.3822333 84.4691507,45.0936254 84.6139222,44.8473729 C84.7626331,44.6001353 84.9704344,44.3913132 85.2186142,44.2455317 C85.4687637,44.0997502 85.756337,44.0140543 86.0636072,44.0101143 C86.3708774,44.0081442 86.6584508,44.08596 86.9066306,44.2297715 C87.1538255,44.371613 87.360642,44.5755101 87.5054135,44.8217626 C87.6492002,45.0690001 87.7338965,45.3566231 87.7329116,45.6649313 C87.7319268,45.9712694 87.6462457,46.2628324 87.4975348,46.51401 C87.3507936,46.7642025 87.1410226,46.9749947 86.8898883,47.1207762 C86.6377692,47.2685277 86.3452716,47.3532386 86.0370165,47.3542236 C85.7277767,47.3542236 85.4382336,47.2724678 85.1910387,47.1286563 Z M101.224965,44.244494 C101.472018,44.3902733 101.681669,44.6000771 101.830295,44.8482958 C101.975969,45.0935594 102.064553,45.3811779 102.066522,45.6894812 C102.070459,45.9958145 101.989748,46.283433 101.848012,46.5296816 C101.705292,46.7769153 101.499578,46.9847492 101.253509,47.1285584 C101.005471,47.2733526 100.715109,47.3551072 100.40703,47.3541222 C100.098951,47.3531372 99.8076048,47.2684276 99.5546455,47.1206784 C99.3036547,46.9748992 99.0940035,46.7641104 98.9473462,46.5139217 C98.797736,46.2627481 98.7150566,45.9721747 98.7130881,45.6648563 C98.7111195,45.355568 98.7957674,45.0679496 98.9394719,44.8217009 C99.0831765,44.5754522 99.2908591,44.3705734 99.5369285,44.2297191 C99.7849664,44.0859099 100.074344,44.0071103 100.381439,44.0100653 C100.687549,44.0140053 100.975942,44.0996998 101.224965,44.244494 Z M115.301856,44.5607431 C115.552349,44.7109143 115.761622,44.9215572 115.91065,45.1715066 C116.060735,45.4204482 116.150574,45.7056728 116.160086,46.0120624 C116.168542,46.3164364 116.095613,46.6016609 115.958212,46.8445554 C115.821868,47.0884577 115.622107,47.2910376 115.380069,47.4321381 C115.138031,47.5752544 114.851602,47.6548754 114.539807,47.6508439 C114.230125,47.6458046 113.937354,47.556105 113.682633,47.4069416 C113.427912,47.2567704 113.212298,47.0431039 113.057985,46.7901309 C112.906844,46.53615 112.815947,46.2438704 112.807492,45.9344572 C112.80115,45.6210125 112.881477,45.3357879 113.022049,45.0908778 C113.165792,44.8459676 113.369781,44.6464112 113.61816,44.5073265 C113.862312,44.3702574 114.150855,44.2976914 114.456309,44.30777 C114.76599,44.3188565 115.05559,44.409564 115.301856,44.5607431 Z M127.933849,45.2577265 C128.183883,45.4151458 128.388213,45.6321291 128.538771,45.8820854 C128.686641,46.1331054 128.774019,46.4202892 128.783429,46.7223641 C128.792839,47.0244389 128.722936,47.3031136 128.591198,47.5424335 C128.458115,47.782817 128.268573,47.9795911 128.027948,48.1146739 C127.794045,48.2497567 127.513092,48.326339 127.205254,48.3157026 C126.894727,48.3071935 126.594954,48.2135928 126.339543,48.0583008 C126.080098,47.9030088 125.859638,47.6849618 125.699669,47.4264963 C125.538357,47.1690945 125.442913,46.8734015 125.432159,46.5585629 C125.418716,46.2469153 125.496684,45.9597314 125.636488,45.716157 C125.778981,45.4757735 125.987343,45.2779357 126.240066,45.1481711 C126.487412,45.0184066 126.777775,44.954588 127.088302,44.9769245 C127.401517,44.9981974 127.685159,45.0981799 127.933849,45.2577265 Z M136.896248,45.9919488 C137.361729,46.0360053 137.768551,46.2632441 138.056165,46.5867117 C138.345672,46.9090198 138.52543,47.3275566 138.534891,47.775078 C138.551921,48.2237587 138.396761,48.6202673 138.126177,48.9008377 C137.855592,49.1790893 137.463908,49.3495184 137.002211,49.3263308 C136.542407,49.3066213 136.097741,49.0979326 135.759038,48.7744651 C135.424119,48.4509975 135.202732,48.0104325 135.18381,47.5374047 C135.164888,47.0678551 135.361676,46.6539558 135.675781,46.3733854 C135.989886,46.0962932 136.434552,45.9478923 136.896248,45.9919488 Z M143.288497,50.7809722 C142.912893,50.7512596 142.513814,50.5311165 142.201929,50.1880712 C141.890044,49.8463766 141.675413,49.3858316 141.655291,48.8969247 C141.631816,48.4080177 141.826325,47.9852888 142.118089,47.707071 C142.235465,47.5909218 142.369609,47.5031347 142.520522,47.4410084 C143.063806,48.5147129 143.456177,49.6113771 143.707698,50.7188459 C143.576907,50.7701677 143.439409,50.7958285 143.288497,50.7809722 Z M49.2073611,59.7847795 C48.9088902,60.0773947 48.519872,60.2322314 48.1509754,60.1981149 C47.7753716,60.1613739 47.4903152,59.9435527 47.2958061,59.6286305 C47.2253804,59.5131591 47.1750763,59.3806293 47.1281258,59.244163 C47.0509929,59.0066592 47.0040424,58.7429118 47.0006888,58.4621062 C46.990628,58.0172786 47.0912362,57.624938 47.2723308,57.3323228 C47.2723308,57.3323228 47.2756845,57.3296985 47.2756845,57.3270741 C47.4601327,57.0423319 47.7418356,56.8586273 48.1073785,56.8586273 C48.4796287,56.8586273 48.8720005,57.0488928 49.1771786,57.3611907 C49.4790031,57.6748007 49.6869266,58.1143796 49.6902802,58.5933238 C49.6969874,59.0709558 49.5024783,59.4934764 49.2073611,59.7847795 Z M53.0380444,60.1941567 C52.5704015,60.1688227 52.1692931,59.9615439 51.8841449,59.6506258 C51.6008978,59.3397077 51.4336108,58.9263018 51.4279079,58.4771978 C51.4222049,58.0292455 51.5837889,57.627355 51.8613331,57.3325586 C52.1369763,57.0366106 52.5323817,56.8523628 52.9962227,56.8523628 C53.4581627,56.8523628 53.9029938,57.0400652 54.2299637,57.3521349 C54.5607356,57.663053 54.7755472,58.0971868 54.7812501,58.5704733 C54.7869531,59.0437597 54.5835474,59.466378 54.2622805,59.7600229 C53.9391126,60.0548193 53.4999844,60.2183392 53.0380444,60.1941567 Z M60.457918,59.9362955 C60.2125147,59.7858349 60.0116077,59.5743483 59.8659838,59.32814 C59.7257533,59.0808796 59.6421544,58.7957409 59.6381093,58.4927154 C59.6354126,58.1917941 59.7109213,57.9087598 59.848455,57.6667602 C59.9832919,57.4226563 60.1801539,57.2206393 60.4201636,57.0764917 C60.6615218,56.9323441 60.943331,56.8502747 61.2521077,56.8502747 C61.5622326,56.8502747 61.8561772,56.9323441 62.1150642,57.0807004 C62.3685576,57.2290566 62.5842968,57.4394911 62.7407076,57.6920124 C62.8944218,57.9455859 62.9847625,58.2401941 62.9915044,58.5547935 C62.9955495,58.8683408 62.9119506,59.1608447 62.7649783,59.4081051 C62.6153093,59.6553656 62.4049636,59.8584348 62.1514701,59.9952172 C61.899325,60.1319995 61.6040321,60.2056516 61.2952555,60.1930255 C60.9891756,60.1803995 60.7033212,60.0888605 60.457918,59.9362955 Z M71.5145075,59.95423 C71.2678202,59.8058105 71.060139,59.5976248 70.9146567,59.3515872 C70.767066,59.1045534 70.6848369,58.8186717 70.68062,58.5128678 C70.6774573,58.2080601 70.7544153,57.9211822 70.8956807,57.6761406 C71.0358919,57.4310991 71.2414647,57.2249056 71.4849894,57.0804706 C71.7306225,56.9350394 72.016316,56.8523628 72.3273107,56.8523628 C72.6340885,56.8523628 72.9282157,56.9360356 73.1791199,57.0814667 C73.4331868,57.2259017 73.6450849,57.4360796 73.7937298,57.6861017 C73.9455374,57.9371198 74.0309292,58.2289782 74.0340919,58.5397626 C74.0362003,58.8495509 73.9539712,59.1404132 73.8084889,59.3874469 C73.6630066,59.6344806 73.4542712,59.839678 73.2054754,59.9811248 C72.9545712,60.1235676 72.6657151,60.2012637 72.3568288,60.1962832 C72.0489968,60.1893104 71.7611949,60.1006572 71.5145075,59.95423 Z M85.1616731,59.9677957 C84.9107164,59.8217664 84.7058338,59.6134313 84.5597691,59.366155 C84.4137045,59.1169317 84.3293987,58.8287672 84.3274381,58.5230792 C84.3274381,58.2164176 84.4097833,57.9282531 84.552907,57.6819504 C84.6970111,57.4337006 84.9038543,57.2273125 85.1499095,57.0822567 C85.3979254,56.9372009 85.6871138,56.854451 85.9949279,56.854451 C86.3047026,56.854451 86.5948713,56.9372009 86.8448477,57.0822567 C87.0948241,57.2273125 87.3036279,57.4366212 87.4516532,57.686818 C87.5986981,57.9360414 87.6810433,58.2261529 87.6810433,58.5347615 C87.6810433,58.8414231 87.5986981,59.1305611 87.4526335,59.3788109 C87.3075491,59.6270607 87.1007059,59.8334488 86.8507295,59.975584 C86.6017334,60.1186927 86.3115647,60.2014426 86.0057112,60.198522 C85.6978971,60.198522 85.4096889,60.1138251 85.1616731,59.9677957 Z M101.2557,57.0801714 C101.504696,57.2262025 101.709578,57.4335666 101.852701,57.680846 C101.995825,57.9281253 102.07817,58.2153198 102.077189,58.5219851 C102.075229,58.8286504 101.989943,59.1168185 101.844859,59.3650713 C101.701736,59.6113771 101.492932,59.8206884 101.245897,59.9657459 C100.996902,60.111777 100.707714,60.1964751 100.401862,60.1964751 C100.093068,60.1984222 99.8038803,60.1156712 99.5548848,59.9735343 C99.304909,59.8304238 99.0980663,59.6250067 98.9529824,59.3767538 C98.8078984,59.1285009 98.7235928,58.8393594 98.7235928,58.5317205 C98.7235928,58.2240817 98.809859,57.9339665 98.9529824,57.6847401 C99.1010072,57.4345402 99.3107908,57.2262025 99.5607666,57.0801714 C99.8107424,56.9351138 100.101891,56.8523628 100.408724,56.8523628 C100.717517,56.8523628 101.008665,56.9351138 101.2557,57.0801714 Z M115.431129,57.078308 C115.675396,57.2236917 115.876496,57.4278263 116.016528,57.6727879 C116.156561,57.9177495 116.238685,58.2045337 116.234474,58.509242 C116.230262,58.8159418 116.146032,59.1017303 116.000735,59.3496792 C115.856491,59.5956366 115.648022,59.8037543 115.401649,59.9531211 C115.15317,60.0985048 114.866788,60.1881249 114.558295,60.1940996 C114.247696,60.2000743 113.959208,60.1224035 113.710729,59.9800072 C113.462251,59.836615 113.252728,59.6324804 113.107431,59.3855273 C112.960029,59.1385741 112.878957,58.846811 112.881063,58.5371238 C112.883169,58.2274366 112.970557,57.9346777 113.121119,57.6837415 C113.27168,57.433801 113.481202,57.2236917 113.733893,57.078308 C113.988689,56.9329243 114.281388,56.8502747 114.588828,56.8502747 C114.898374,56.8502747 115.186862,56.9329243 115.431129,57.078308 Z M128.106607,57.0775388 C128.346797,57.2216936 128.541107,57.4258251 128.681443,57.6699412 C128.815031,57.9119528 128.890597,58.1950011 128.886548,58.4959373 C128.88385,58.7989779 128.797489,59.0841307 128.657154,59.3314034 C128.515469,59.5765717 128.314412,59.7859643 128.067475,59.9395891 C127.823237,60.0900572 127.537169,60.1837052 127.228161,60.1952796 C126.916454,60.2068541 126.624988,60.1363551 126.374004,59.9974614 C126.12167,59.8606723 125.90442,59.6554885 125.760036,59.4103203 C125.612954,59.1619953 125.527943,58.8694769 125.53334,58.5559141 C125.536039,58.2423512 125.630496,57.9477284 125.784325,57.6941423 C125.935456,57.4416085 126.156754,57.2311636 126.411786,57.0828 C126.670867,56.9344363 126.962333,56.8523628 127.271341,56.8523628 C127.581698,56.8523628 127.866418,56.9344363 128.106607,57.0775388 Z M137.047602,56.8565392 C137.509802,56.8565392 137.909234,57.0407451 138.185033,57.336626 C138.462733,57.6313555 138.620604,58.0331547 138.6168,58.4810055 C138.609192,58.9300075 138.438007,59.3433196 138.156502,59.6541672 C137.869291,59.9650148 137.467957,60.1733978 137.007658,60.1987261 C136.541654,60.2206005 136.100376,60.058269 135.778928,59.7623882 C135.45748,59.46881 135.255862,59.0462875 135.26347,58.5742598 C135.271078,58.0999294 135.482207,57.6670454 135.813165,57.3561978 C136.138417,57.0430477 136.585401,56.8565392 137.047602,56.8565392 Z M143.285682,56.8586273 C143.580799,56.8586273 143.822259,56.976792 144,57.1724203 C143.996646,57.2984627 143.993293,57.424505 143.989939,57.5505474 C143.969818,57.8840345 143.942989,58.2162086 143.899392,58.5457569 C143.822259,59.0709334 143.714944,59.5895452 143.580799,60.108157 C143.47013,60.1541099 143.362815,60.1856205 143.245439,60.197437 C142.866481,60.2341993 142.480817,60.0792723 142.192407,59.7864864 C141.89729,59.4963264 141.696073,59.0722463 141.70278,58.5930228 C141.709488,58.1151121 141.917411,57.6765897 142.219236,57.3614838 C142.517706,57.0503168 142.916786,56.8586273 143.285682,56.8586273 Z M47.8315007,66.9924865 C48.1936901,67.1113326 48.5659402,67.4349596 48.8711183,67.8902315 C49.1930644,68.380243 49.434524,69.0165267 49.4613528,69.6674375 C49.4714137,69.9106149 49.4479384,70.130023 49.4076952,70.3366324 C48.8040462,69.2395916 48.2808838,68.1242669 47.8315007,66.9924865 Z M54.5466845,71.3508883 C54.2402054,71.6097526 53.8047808,71.7326836 53.3394558,71.664126 C52.8722621,71.5908402 52.4630003,71.3449781 52.1639963,71.0069178 C51.8668611,70.6688575 51.6818524,70.240963 51.6556895,69.794156 C51.6276579,69.3485311 51.7734223,68.9667357 52.0350508,68.7031432 C52.3004169,68.4407328 52.6835158,68.2988893 53.1432345,68.3485345 C53.6029531,68.3946336 54.0514591,68.6274933 54.3953137,68.9690997 C54.7354308,69.3095241 54.9708965,69.7575131 55.0026656,70.2255966 C55.032566,70.6936801 54.8512949,71.0908419 54.5466845,71.3508883 Z M60.8667702,72.4350997 C60.6149656,72.2696773 60.40313,72.0461927 60.2539125,71.7865561 C60.0993657,71.5313017 60.0061048,71.2420863 59.9861203,70.9397248 C59.9688004,70.6406498 60.0314185,70.363485 60.1553223,70.1301408 C60.2805584,69.8967966 60.465748,69.7083684 60.6975681,69.5812889 C60.9333851,69.4564005 61.2118357,69.3917652 61.5169322,69.414771 C61.8246934,69.4366813 62.1204638,69.542946 62.3815945,69.7072729 C62.6453898,69.8737908 62.8718807,70.100562 63.0397504,70.363485 C63.2076201,70.6264081 63.3128718,70.9276741 63.3341886,71.2387997 C63.3515084,71.5488299 63.2848935,71.8336632 63.1503312,72.0670074 C63.0144367,72.3025426 62.8132595,72.4887798 62.5667841,72.6070952 C62.321641,72.7232195 62.0311998,72.7758042 61.720774,72.7462253 C61.4103483,72.7155509 61.119907,72.6016176 60.8667702,72.4350997 Z M71.9688447,73.1967451 C71.7180756,73.04089 71.5048147,72.8264586 71.348352,72.579601 C71.1929609,72.3254213 71.0943679,72.0398614 71.0782929,71.7354734 C71.062218,71.4300394 71.1286611,71.1455255 71.2604756,70.9049439 C71.3901468,70.6622703 71.5841178,70.463529 71.8252419,70.3254561 C72.0642227,70.1915672 72.3503566,70.1162547 72.6611388,70.1277608 C72.9708494,70.1392669 73.2687716,70.2334075 73.5259707,70.3892625 C73.7853131,70.5461636 74.0060756,70.764779 74.16361,71.0220967 C74.3211445,71.2794144 74.4175941,71.5754344 74.4283107,71.8850524 C74.440099,72.1957165 74.3661543,72.4823223 74.2279098,72.7229039 C74.0918086,72.9624395 73.890336,73.1559508 73.6470686,73.2877477 C73.4059445,73.4184985 73.1208822,73.486489 72.8122433,73.4676608 C72.5100344,73.4509247 72.2196138,73.3526001 71.9688447,73.1967451 Z M85.3555121,73.5478945 C85.1075328,73.3998502 84.8973977,73.1946301 84.7490085,72.9455072 C84.6006193,72.6984263 84.5119841,72.4115267 84.5050128,72.104207 C84.4990374,71.7958664 84.5747259,71.5089667 84.714152,71.2629069 C84.8555699,71.016847 85.0587337,70.8106059 85.3057171,70.6666456 C85.5517046,70.5216642 85.8435035,70.4399846 86.1542246,70.4440686 C86.4629539,70.4491736 86.7577405,70.5359582 87.0087075,70.6860445 C87.2626622,70.8371518 87.4727973,71.0495188 87.6231783,71.3006837 C87.7705717,71.5528695 87.8562191,71.8438532 87.8582109,72.1542358 C87.8611986,72.4615554 87.7785389,72.7494761 87.6351291,72.993494 C87.4907235,73.2364909 87.284572,73.438648 87.0385845,73.5764824 C86.7935929,73.7163587 86.5057776,73.7929334 86.200036,73.7878284 C85.8932986,73.7827234 85.6044873,73.6969598 85.3555121,73.5478945 Z M101.216371,70.6655136 C101.463053,70.8104507 101.667959,71.0156082 101.809205,71.2626137 C101.949456,71.5075778 102.027042,71.797452 102.020079,72.1026365 C102.013116,72.4119037 101.924589,72.6966745 101.774391,72.94368 C101.626182,73.1906855 101.416303,73.398905 101.16962,73.5458835 C100.922938,73.6928619 100.633483,73.7816614 100.326124,73.7857442 C100.018766,73.7908476 99.7313008,73.715317 99.4876022,73.5754833 C99.2409195,73.437691 99.035019,73.2345749 98.8917838,72.9906315 C98.7455646,72.7487294 98.6640002,72.4619172 98.6669843,72.1536707 C98.6689736,71.8413414 98.7535222,71.5504465 98.9027254,71.300379 C99.0499393,71.0462287 99.2618079,70.8339265 99.5144588,70.6838859 C99.7671096,70.5358868 100.057559,70.448108 100.367901,70.4419839 C100.680234,70.4379011 100.969688,70.5215972 101.216371,70.6655136 Z M115.202087,70.3297062 C115.439677,70.4656301 115.637669,70.6663791 115.768237,70.9068598 C115.897734,71.1494316 115.963018,71.431735 115.946965,71.7370409 C115.928771,72.0413012 115.835661,72.3288325 115.679408,72.5797688 C115.526366,72.8317507 115.31018,73.0460922 115.059747,73.2008363 C114.809314,73.3576715 114.519282,73.4538638 114.213198,73.4705929 C113.907113,73.487322 113.624573,73.4214512 113.379491,73.2897096 C113.135479,73.1600591 112.936417,72.9645379 112.798358,72.7240572 C112.660299,72.4835765 112.584313,72.1970909 112.597155,71.8876027 C112.609998,71.5760234 112.704178,71.2811732 112.860431,71.0239634 C113.022035,70.7667537 113.240362,70.5482299 113.497216,70.3924403 C113.759422,70.2356051 114.056945,70.1415039 114.36624,70.1300027 C114.675536,70.119547 114.961286,70.1916912 115.202087,70.3297062 Z M127.762998,69.5872041 C127.99573,69.7131531 128.181915,69.9026244 128.310915,70.1402848 C128.437256,70.3746597 128.498431,70.6506524 128.481142,70.9496446 C128.465183,71.2519224 128.368101,71.5399625 128.215163,71.7962415 C128.063555,72.0525206 127.849441,72.2748481 127.599421,72.4402247 C127.34807,72.6066965 127.054163,72.7205983 126.745627,72.7512642 C126.434431,72.7819301 126.147173,72.7304552 125.901142,72.6121726 C125.655112,72.49389 125.454297,72.3077044 125.319978,72.0722343 C125.182998,71.8389547 125.113844,71.5542003 125.133792,71.244256 C125.15773,70.9332165 125.264122,70.6320339 125.429029,70.3691836 C125.595266,70.1041429 125.822679,69.8774346 126.082008,69.7131531 C126.343998,69.5466813 126.641895,69.4426364 126.946441,69.4207322 C127.253647,69.3966376 127.531596,69.4623502 127.762998,69.5872041 Z M136.836446,68.3446711 C137.298231,68.2961972 137.681493,68.4380721 137.943234,68.6993585 C138.206843,68.9630095 138.348931,69.3448896 138.322757,69.7917957 C138.304061,70.2375196 138.113365,70.6643267 137.816103,71.0036444 C137.51884,71.3405974 137.105665,71.5888786 136.638271,71.6609983 C136.170878,71.728389 135.737137,71.6077952 135.434266,71.3476911 C135.123917,71.087587 134.942568,70.6903372 134.97622,70.2209675 C135.004264,69.7539624 135.237961,69.3046917 135.583832,68.9653741 C135.925964,68.6236919 136.378401,68.3919628 136.836446,68.3446711 Z M55.5053091,80.9259207 C55.7415257,81.2092515 55.9250477,81.515964 56.0231685,81.821301 C56.1721666,82.2806821 56.1031187,82.6437856 55.8832556,82.8583468 C55.7451598,82.9903845 55.5489183,83.0674064 55.3036165,83.0756588 C54.3769208,82.0895025 53.5247242,81.0620845 52.7488437,79.9975309 C52.7506607,79.9934047 52.7506607,79.9865278 52.7579289,79.9824016 C52.9359998,79.7609634 53.2721542,79.6715629 53.7318679,79.773342 C54.0407665,79.843487 54.3660185,79.9920293 54.6731,80.1928366 C54.9801815,80.3922685 55.2690926,80.646716 55.5053091,80.9259207 Z M64.0980312,84.785927 C63.8477591,85.0264235 63.4736683,85.1231311 63.0271302,85.0302409 C62.7307554,84.9691625 62.4396495,84.8355533 62.1762052,84.6497729 C61.9127609,84.465265 61.6769783,84.226041 61.4899328,83.965185 C61.3015702,83.701784 61.1645791,83.4116613 61.1013525,83.1164486 C61.0038781,82.6723572 61.092132,82.2957066 61.3226457,82.0463028 C61.5518422,81.7956265 61.9272503,81.6709247 62.3948639,81.7396379 C62.7017765,81.7854468 63.013958,81.9114212 63.2945261,82.0972015 C63.5737771,82.2855268 63.8240492,82.5272958 64.0163635,82.8072388 C64.2073606,83.082092 64.3417172,83.3900293 64.3930888,83.6992391 C64.4694876,84.1675074 64.3483033,84.546703 64.0980312,84.785927 Z M73.8791673,86.3777842 C73.5755027,86.3556507 73.285186,86.2523608 73.0271267,86.097426 C72.7701797,85.9363429 72.5454902,85.7174667 72.3808661,85.4617013 C72.2129051,85.2059358 72.0983357,84.9157404 72.0671906,84.6071004 C72.0360455,84.29969 72.0894371,84.0094946 72.2062312,83.7709442 C72.3241376,83.5311641 72.5065588,83.3344214 72.7379223,83.2065387 C72.9737351,83.0774263 73.2551532,83.0184035 73.5654918,83.044226 C73.8758303,83.0700485 74.1772703,83.1807162 74.4420035,83.3504068 C74.7067368,83.5200973 74.9369879,83.7451217 75.1049489,84.0094946 C75.2729099,84.2714083 75.3819178,84.5665222 75.4063889,84.872703 C75.4319724,85.1776541 75.3696822,85.4543234 75.2439895,85.685496 C75.1194092,85.915439 74.9280893,86.0986556 74.6956135,86.2203901 C74.460913,86.3421246 74.1828319,86.3999178 73.8791673,86.3777842 Z M86.673373,87.0380632 C86.3711435,87.0280511 86.0844929,86.9429481 85.8341929,86.7977724 C85.5838929,86.6500937 85.3709821,86.4423423 85.2162323,86.1982969 C85.0604439,85.950497 84.9638551,85.6601457 84.9493149,85.3510216 C84.9347746,85.045652 85.0033215,84.7527976 85.1383381,84.5037462 C85.2712775,84.2546948 85.4738024,84.0469434 85.7178709,83.9067738 C85.9609008,83.7653526 86.2506672,83.6865072 86.5643211,83.6952678 C86.8800522,83.7052799 87.1750116,83.7991435 87.4305045,83.9543313 C87.6870361,84.1120221 87.9020241,84.3297857 88.0546967,84.5850947 C88.2063307,84.8416551 88.2946108,85.1357611 88.3008423,85.4411306 C88.3049967,85.7490032 88.2271025,86.033097 88.0858543,86.2696332 C87.9456448,86.5086725 87.7431199,86.7051603 87.5021672,86.8390724 C87.2601759,86.9717329 86.9776796,87.0468238 86.673373,87.0380632 Z M101.10431,83.9112136 C101.349328,84.053991 101.549702,84.2593901 101.683631,84.5061194 C101.819637,84.7566061 101.888159,85.0471706 101.873624,85.3565216 C101.858051,85.6646202 101.760459,85.9539323 101.60888,86.201914 C101.45211,86.4498958 101.237201,86.6565473 100.990107,86.8018296 C100.737821,86.9483642 100.451275,87.0347821 100.148118,87.0422967 C99.8439221,87.0523162 99.5615288,86.9784226 99.3196257,86.8444123 C99.0777227,86.7116544 98.877348,86.5137699 98.7351132,86.2758076 C98.5949547,86.0390977 98.5160507,85.7535429 98.52228,85.4466968 C98.5264328,85.1373458 98.6157189,84.8455288 98.7672977,84.58878 C98.9199147,84.3345361 99.1327478,84.1153603 99.3902241,83.9588061 C99.6456239,83.8035044 99.9425521,83.7095719 100.256092,83.6995524 C100.567555,83.6920378 100.858254,83.7696887 101.10431,83.9112136 Z M114.539724,83.2182065 C114.772047,83.3474352 114.955459,83.5418935 115.073288,83.7818896 C115.190005,84.0243472 115.24225,84.3086502 115.212237,84.6175683 C115.18,84.9264863 115.068841,85.2206354 114.89988,85.4741697 C114.735364,85.7301655 114.5086,85.9467774 114.252934,86.105544 C113.993934,86.2643107 113.701585,86.3640013 113.399233,86.3873856 C113.095769,86.4107698 112.817871,86.3529246 112.585549,86.2310804 C112.351003,86.1080055 112.15981,85.9258546 112.0342,85.6944738 C111.90859,85.463093 111.848564,85.1861744 111.871908,84.8821794 C111.895251,84.5769536 112.005299,84.280343 112.173149,84.0181934 C112.340999,83.7560439 112.573321,83.5308168 112.83788,83.3597426 C113.101327,83.1886685 113.404791,83.0791318 113.713813,83.0532861 C114.023947,83.0299019 114.307402,83.0902086 114.539724,83.2182065 Z M126.009828,81.7422342 C126.471892,81.6747632 126.848389,81.8020669 127.078763,82.050309 C127.309137,82.2998242 127.397338,82.67537 127.302555,83.1196598 C127.23805,83.4150043 127.099826,83.7052566 126.911577,83.9687752 C126.724645,84.2297477 126.489006,84.4652595 126.225721,84.6511228 C125.963753,84.8395323 125.675456,84.9719281 125.375312,85.0330338 C124.932993,85.1272385 124.553864,85.0292147 124.306376,84.7898838 C124.054939,84.550553 123.931195,84.168642 124.010181,83.7027106 C124.062838,83.3933627 124.195796,83.0852878 124.386678,82.8103119 C124.580192,82.5302438 124.828996,82.2870939 125.108078,82.1012305 C125.388476,81.9179132 125.699152,81.7880635 126.009828,81.7422342 Z M136.326837,79.7745148 C136.653264,79.7070979 136.918732,79.7239521 137.117342,79.8012006 C136.259978,80.9374553 135.30036,82.0287654 134.264052,83.0765355 C134.159831,83.0414226 134.073308,82.9908599 133.998584,82.9248476 C133.764579,82.7057429 133.687888,82.3349502 133.849135,81.8658414 C133.957289,81.555443 134.153932,81.2408311 134.409568,80.9515005 C134.66717,80.6663834 134.981799,80.4079522 135.312159,80.2014881 C135.646452,79.995024 135.996477,79.8461452 136.326837,79.7745148 Z M66.5010013,93.7487476 C66.7055077,94.0466765 66.8606505,94.3590994 66.9339907,94.6618596 C67.044001,95.1143896 66.9565569,95.4509689 66.7365363,95.6345575 C66.6772999,95.6844808 66.6081909,95.7215206 66.5292091,95.7505083 C65.5207811,94.9694512 64.551844,94.123977 63.6280393,93.2189171 C63.6238081,92.9693009 63.6957379,92.7663871 63.833956,92.6246695 C64.0412832,92.4104828 64.3967012,92.339624 64.8550776,92.4765103 C65.1597215,92.5650838 65.4685967,92.735789 65.7534952,92.9580279 C66.0341626,93.1802668 66.2950846,93.4540394 66.5010013,93.7487476 Z M76.7455334,95.2178223 C76.9249551,95.4833438 77.0429956,95.7832848 77.081949,96.09306 C77.1397889,96.548708 77.0052226,96.9322392 76.7455334,97.1944827 C76.4870246,97.4567262 76.1057535,97.5993211 75.6548386,97.5649016 C75.3573763,97.5419553 75.0658162,97.4501701 74.8014053,97.2993801 C74.5381748,97.145312 74.3068153,96.9371562 74.1250328,96.6896639 C73.9432504,96.4388936 73.8145862,96.1487867 73.7650091,95.8406506 C73.6882828,95.3751684 73.8039625,94.9539397 74.0589301,94.6572768 C74.3138978,94.3589748 74.7069728,94.1934336 75.1744135,94.2311311 C75.4848602,94.2540774 75.7905852,94.3688089 76.0608981,94.5425452 C76.3300306,94.7146425 76.569653,94.9506617 76.7455334,95.2178223 Z M88.6616961,97.6147192 C88.3719799,97.8930124 87.9717884,98.0506001 87.519741,98.0388648 C87.0676936,98.0254531 86.6494652,97.8494243 86.3349484,97.5543665 C86.0170498,97.2660145 85.7983535,96.856957 85.7656618,96.3925762 C85.7307155,95.9298719 85.8885375,95.5006968 86.1759991,95.1855214 C86.4634607,94.8736989 86.8805617,94.6825819 87.3540278,94.6959936 C87.6696719,94.7026995 87.9684065,94.8016109 88.2265582,94.9659045 C88.4858373,95.1268451 88.7045335,95.3531679 88.8589736,95.61302 C89.0156684,95.8779014 89.108107,96.1729593 89.1137435,96.4831053 C89.1272711,96.9441332 88.950285,97.3381025 88.6616961,97.6147192 Z M101.183102,95.1925601 C101.469285,95.5040719 101.63153,95.9361688 101.593222,96.4034364 C101.561674,96.8640049 101.34422,97.2709799 101.027616,97.5623941 C100.708759,97.8554831 100.291878,98.0330113 99.8400691,98.0430601 C99.389387,98.0547837 98.9894067,97.8940034 98.6998435,97.6176623 C98.411407,97.3396465 98.2333876,96.944395 98.2457814,96.4871762 C98.254795,96.1756644 98.342678,95.8792258 98.49929,95.6179579 C98.6536486,95.35669 98.8722294,95.1305928 99.1313716,94.9698125 C99.3882603,94.8073574 99.6890906,94.7102194 100.002315,94.7001706 C100.478911,94.6867723 100.893538,94.8793736 101.183102,95.1925601 Z M113.591095,94.6619407 C113.845822,94.957362 113.962573,95.3824405 113.891815,95.8436261 C113.841105,96.1571009 113.712562,96.4459573 113.533309,96.693783 C113.351698,96.9399675 113.117018,97.1516861 112.855214,97.3026792 C112.592231,97.4553136 112.300945,97.5472224 112.001404,97.5701996 C111.552092,97.5981005 111.17118,97.458596 110.911735,97.1976405 C110.649931,96.936685 110.515492,96.550996 110.570918,96.093093 C110.607477,95.7911067 110.727765,95.4874792 110.907018,95.2216 C111.081553,94.9557208 111.319771,94.7193837 111.591009,94.5454134 C111.861068,94.3730843 112.164147,94.2598394 112.475481,94.235221 C112.944841,94.1958315 113.335187,94.3648781 113.591095,94.6619407 Z M123.922647,92.4787214 C124.38094,92.3374851 124.743874,92.4105956 124.953095,92.6299274 C125.037068,92.7130076 125.098269,92.8259967 125.131004,92.9556018 C124.153217,93.9575491 123.121345,94.8880473 122.048199,95.7504199 C122.042506,95.7437734 122.029696,95.7421118 122.02258,95.737127 C121.799126,95.544381 121.715153,95.1971057 121.826169,94.7335182 C121.900179,94.4211366 122.052469,94.0987854 122.260266,93.7913886 C122.466641,93.4906383 122.729946,93.2081656 123.0146,92.9788642 C123.300677,92.7462397 123.61522,92.5701096 123.922647,92.4787214 Z M89.7738338,103.588871 C90.0975795,103.933318 90.3013717,104.388122 90.3232987,104.819517 C90.3374868,105.254255 90.1685198,105.602047 89.8886281,105.826104 C89.8022099,105.896331 89.7016036,105.949838 89.5945482,106 C88.7651915,105.836137 87.9474433,105.578638 87.1400136,105.237535 C87.0600445,105.077016 87.0032922,104.913153 86.9800754,104.72588 C86.9310621,104.284453 87.0729427,103.84637 87.3528345,103.505267 C87.6327262,103.184229 88.0480495,102.963516 88.5265741,102.980236 C89.0025191,103.003645 89.4475083,103.24108 89.7738338,103.588871 Z M100.813494,103.513519 C101.093503,103.841245 101.239314,104.286016 101.187699,104.737476 C101.169634,104.881274 101.136085,105.011696 101.085761,105.135429 C100.235411,105.50663 99.3734491,105.787538 98.498583,105.97481 C98.4198709,105.93468 98.3476106,105.891206 98.2818021,105.834356 C97.9992126,105.60361 97.8275943,105.265851 97.8456594,104.831112 C97.8624341,104.386341 98.0676018,103.941569 98.3927733,103.593778 C98.7166544,103.242643 99.1618295,103.005209 99.6405542,102.988488 C100.117988,102.975111 100.532195,103.179104 100.813494,103.513519 Z" id="Combined-Shape" fill="#ED1C40" fill-rule="nonzero" transform="translate(95.500000, 57.500000) scale(1, -1) translate(-95.500000, -57.500000)"/><path d="M70.5,104.582643 L70.5,156.770797" id="Path-2" stroke="#313D3E" stroke-width="3" stroke-linecap="round" stroke-linejoin="round"/><path d="M89.5,110.062844 L89.5,160.878002" id="Path-2-Copy-2" stroke="#313D3E" stroke-width="3" stroke-linecap="round" stroke-linejoin="round"/><path d="M99.5,110.062844 L99.5,160.878002" id="Path-2-Copy-3" stroke="#313D3E" stroke-width="3" stroke-linecap="round" stroke-linejoin="round"/><path d="M120.5,104.582643 L120.5,156.770797" id="Path-2-Copy" stroke="#313D3E" stroke-width="3" stroke-linecap="round" stroke-linejoin="round"/></g></g></g></g></svg>