<?xml version="1.0" encoding="utf-8"?>
<!-- Generator: Adobe Illustrator 23.0.1, SVG Export Plug-In . SVG Version: 6.00 Build 0)  -->
<svg version="1.1" id="Layer_1" xmlns="http://www.w3.org/2000/svg" xmlns:xlink="http://www.w3.org/1999/xlink" x="0px" y="0px"
	 viewBox="0 0 800 800" style="enable-background:new 0 0 800 800;" xml:space="preserve">
<style type="text/css">
	.st0{display:none;}
	.st1{display:inline;}
	.st2{fill-rule:evenodd;clip-rule:evenodd;fill:#313D3E;}
	.st3{fill-rule:evenodd;clip-rule:evenodd;fill:#ED1C40;}
	.st4{fill:none;stroke:#ED1C40;stroke-width:10;stroke-linecap:round;stroke-linejoin:round;stroke-miterlimit:10;}
	.st5{fill:none;stroke:#313D3E;stroke-width:10;stroke-linecap:round;stroke-linejoin:round;stroke-miterlimit:10;}
	.st6{fill:#ED1C40;stroke:#ED1C40;stroke-width:11;stroke-linecap:round;stroke-linejoin:round;stroke-miterlimit:10;}
	.st7{fill:none;stroke:#313D3E;stroke-width:10;stroke-linecap:round;stroke-miterlimit:10;}
	.st8{fill:none;stroke:#ED1C40;stroke-width:10;stroke-linecap:square;stroke-linejoin:round;stroke-miterlimit:10;}
	.st9{fill:#ED1C40;stroke:#ED1C40;stroke-width:10;stroke-linecap:square;stroke-linejoin:round;stroke-miterlimit:10;}
	.st10{fill:#ED1C40;stroke:#ED1C40;stroke-width:10;stroke-linecap:round;stroke-linejoin:round;stroke-miterlimit:10;}
	.st11{fill:none;stroke:#313D3E;stroke-width:10;stroke-linejoin:round;stroke-miterlimit:10;}
	.st12{fill-rule:evenodd;clip-rule:evenodd;fill:none;stroke:#313D3E;stroke-width:10;stroke-linecap:round;stroke-miterlimit:10;}
</style>
<g id="sf-reference" class="st0">
	<g id="chapters" transform="translate(-319.000000, -300.000000)" class="st1">
		<g id="meetup" transform="translate(-96.000000, -30.000000)">
			<g id="san-fran-art" transform="translate(415.000000, 330.000000)">
				<path id="sf" class="st2" d="M-314.96,658.28c1.9,2.73,1.24,6.47-1.47,8.37C-367.11,702.21-426.73,721-488.87,721
					c-54.51,0-107.9-14.75-154.4-42.65c-2.84-1.7-3.75-5.39-2.05-8.23s5.39-3.73,8.23-2.05c44.62,26.79,95.88,40.92,148.23,40.92
					c59.67,0,116.89-18.02,165.54-52.15C-320.6,654.94-316.88,655.57-314.96,658.28z M-544.63,560.21c-3.32,0-6,2.68-6,6.01v19.91
					c0,3.32,2.69,5.99,6,5.99c3.31,0,6-2.67,6-5.99v-19.91C-538.62,562.89-541.32,560.21-544.63,560.21z M-522.86,560.21
					c-3.32,0-5.99,2.68-5.99,6.01v19.91c0,3.32,2.68,5.99,5.99,5.99c3.32,0,5.99-2.67,5.99-5.99v-19.91
					C-516.87,562.89-519.54,560.21-522.86,560.21z M-501.1,560.21c-3.32,0-6,2.68-6,6.01v19.91c0,3.32,2.68,5.99,6,5.99
					c3.31,0,5.99-2.67,5.99-5.99v-19.91C-495.1,562.89-497.8,560.21-501.1,560.21z M-479.35,560.21c-3.31,0-6,2.68-6,6.01v19.91
					c0,3.32,2.69,5.99,6,5.99c3.32,0,5.99-2.67,5.99-5.99v-19.91C-473.35,562.89-476.02,560.21-479.35,560.21z M-457.58,560.21
					c-3.31,0-6,2.68-6,6.01v19.91c0,3.32,2.69,5.99,6,5.99s5.99-2.67,5.99-5.99v-19.91C-451.59,562.89-454.28,560.21-457.58,560.21z
					 M-435.83,560.21c-3.32,0-6.01,2.68-6.01,6.01v19.91c0,3.32,2.69,5.99,6.01,5.99s5.99-2.67,5.99-5.99v-19.91
					C-429.84,562.89-432.51,560.21-435.83,560.21z M-544.63,164.71c3.31,0,6-2.68,6-6v-19.92c0-3.32-2.69-6-6-6c-3.32,0-6,2.68-6,6
					v19.92C-550.63,162.02-547.94,164.71-544.63,164.71z M-522.86,164.71c3.32,0,5.99-2.68,5.99-6v-19.92c0-3.32-2.68-6-5.99-6
					c-3.32,0-5.99,2.68-5.99,6v19.92C-528.85,162.02-526.18,164.71-522.86,164.71z M-501.1,164.71c3.31,0,5.99-2.68,5.99-6v-19.92
					c0-3.32-2.69-6-5.99-6c-3.32,0-6,2.68-6,6v19.92C-507.1,162.02-504.42,164.71-501.1,164.71z M-479.35,164.71
					c3.32,0,5.99-2.68,5.99-6v-19.92c0-3.32-2.67-6-5.99-6c-3.31,0-6,2.68-6,6v19.92C-485.35,162.02-482.65,164.71-479.35,164.71z
					 M-457.58,164.71c3.32,0,5.99-2.68,5.99-6v-19.92c0-3.32-2.68-6-5.99-6c-3.31,0-6,2.68-6,6v19.92
					C-463.59,162.02-460.9,164.71-457.58,164.71z M-435.83,164.71c3.32,0,5.99-2.68,5.99-6v-19.92c0-3.32-2.68-6-5.99-6
					s-6.01,2.68-6.01,6v19.92C-441.84,162.02-439.14,164.71-435.83,164.71z M-334.07,177.03
					c83.75,53.32,133.77,144.34,133.77,243.48c0,41.31-8.54,81.16-25.4,118.49c-1.34,3.03-0.02,6.59,3.01,7.97
					c0.8,0.35,1.65,0.52,2.46,0.52c2.3,0,4.47-1.3,5.46-3.52c17.57-38.91,26.47-80.44,26.47-123.45
					c0-103.25-52.08-198.06-139.36-253.6c-2.77-1.77-6.5-0.95-8.28,1.84C-337.7,171.54-336.87,175.25-334.07,177.03z M-759,544.09
					c0.79,0,1.6-0.17,2.39-0.52c3.03-1.31,4.42-4.86,3.09-7.89c-15.87-36.39-23.92-75.13-23.92-115.19
					c0-93.42,45.62-181.51,122.02-235.6h0.01c4.71-3.34,9.59-6.57,14.48-9.6c2.81-1.75,3.68-5.44,1.94-8.26
					c-1.75-2.81-5.46-3.67-8.27-1.93c-5.1,3.17-10.16,6.54-15.09,10.01l-0.01,0.01c-79.57,56.32-127.07,148.05-127.07,245.37
					c0,41.72,8.37,82.08,24.92,119.99C-763.53,542.75-761.32,544.09-759,544.09z M-544.63,346.51c-3.32,0-6,2.68-6,5.99v19.92
					c0,3.32,2.69,5.99,6,5.99c3.31,0,6-2.68,6-5.99V352.5C-538.62,349.19-541.32,346.51-544.63,346.51z M-522.86,346.51
					c-3.32,0-5.99,2.68-5.99,5.99v19.92c0,3.32,2.68,5.99,5.99,5.99c3.32,0,5.99-2.68,5.99-5.99V352.5
					C-516.87,349.19-519.54,346.51-522.86,346.51z M-501.1,346.51c-3.32,0-6,2.68-6,5.99v19.92c0,3.32,2.68,5.99,6,5.99
					c3.31,0,5.99-2.68,5.99-5.99V352.5C-495.1,349.19-497.8,346.51-501.1,346.51z M-479.35,346.51c-3.31,0-6,2.68-6,5.99v19.92
					c0,3.32,2.69,5.99,6,5.99c3.32,0,5.99-2.68,5.99-5.99V352.5C-473.35,349.19-476.02,346.51-479.35,346.51z M-457.58,346.51
					c-3.31,0-6,2.68-6,5.99v19.92c0,3.32,2.69,5.99,6,5.99s5.99-2.68,5.99-5.99V352.5C-451.59,349.19-454.28,346.51-457.58,346.51z
					 M-435.83,346.51c-3.32,0-6.01,2.68-6.01,5.99v19.92c0,3.32,2.69,5.99,6.01,5.99s5.99-2.68,5.99-5.99V352.5
					C-429.84,349.19-432.51,346.51-435.83,346.51z M-69.9,642.02c-2.83,1.69-6.53,0.77-8.23-2.08
					c-23.29-38.95-68.71-58.21-112.96-47.92c-38.41,8.96-68.13,38.3-77.54,76.62c-0.68,2.74-3.13,4.55-5.84,4.55
					c-0.49,0-0.96-0.05-1.43-0.15c-3.23-0.81-5.17-4.07-4.41-7.28c2.92-11.84,7.57-22.91,13.68-32.96
					c-17.45-12.26-38.4-18.95-59.87-18.95c-33.7,0-65.46,16.41-84.97,43.92c4.33,3.44,8.39,7.29,12.07,11.58
					c2.15,2.51,1.85,6.3-0.66,8.45c-1.13,0.96-2.51,1.43-3.9,1.43c-1.7,0-3.38-0.69-4.56-2.09c-14.22-16.63-34.95-26.16-56.82-26.16
					c-14.19,0-27.98,4.03-39.85,11.51c7.63,2.95,14.5,7.74,19.97,14.11c2.15,2.51,1.85,6.31-0.66,8.45
					c-1.13,0.96-2.51,1.43-3.9,1.43c-1.69,0-3.38-0.72-4.56-2.1c-7.2-8.4-17.67-13.24-28.74-13.24c-9.17,0-18,3.33-24.9,9.36
					c-2.48,2.18-6.28,1.92-8.45-0.56c-2.19-2.5-1.94-6.27,0.55-8.45c9.08-7.94,20.73-12.31,32.8-12.31c0.7,0,1.39,0.02,2.09,0.05
					c4.56-3.81,9.48-7.16,14.68-9.95c-10.35-29.69-38.92-50.18-70.62-50.18c-27.32,0-52.73,15.25-65.71,39.13
					c1.85,2.22,3.61,4.52,5.27,6.93c1.89,2.73,1.21,6.46-1.53,8.34c-1.03,0.72-2.23,1.07-3.4,1.07c-1.91,0-3.77-0.89-4.93-2.61
					c-16.16-23.35-42.76-37.32-71.13-37.32c-18.24,0-36.03,5.84-50.7,16.45c6.81,9.61,12.22,20.32,15.94,31.89
					c1.01,3.14-0.72,6.55-3.88,7.55c-0.6,0.19-1.24,0.27-1.85,0.27c-2.52,0-4.88-1.6-5.69-4.15
					c-10.81-33.72-37.67-59.38-71.84-68.66c-3.19-0.87-5.08-4.15-4.21-7.35c0.87-3.2,4.15-5.09,7.35-4.21
					c12.11,3.28,23.4,8.41,33.56,15.1c109.94-96.94,178.07-285.68,178.07-494.19c0-0.22,0.05-0.43,0.07-0.65v-6.3
					c0-3.32,2.69-5.99,6-5.99h8.08v-9.43c0-3.32,2.68-5.99,5.99-5.99h15.88c3.32,0,5.99,2.68,5.99,5.99v9.43h8.08
					c3.32,0,5.99,2.67,5.99,5.99v12.14h150.38v-12.14c0-3.32,2.69-5.99,6.01-5.99h8.07v-9.43c0-3.32,2.69-5.99,6.01-5.99h15.86
					c3.32,0,5.99,2.68,5.99,5.99v9.43h8.07c3.33,0,6,2.67,6,5.99v23.12c3.16,188.8,61.6,359,157.88,458.78
					c2.43-0.73,4.89-1.38,7.39-1.97c49.35-11.5,99.98,9.99,125.95,53.43C-66.13,636.63-67.07,640.28-69.9,642.02z M-787.56,606.8
					c-0.74,0.66-1.49,1.36-2.23,2.03c0.77,0.61,1.49,1.27,2.23,1.93V606.8z M-753.79,571.61c-7.08,8.37-14.39,16.33-21.85,23.8
					c0.03,0.28,0.09,0.53,0.09,0.84v24.8c6.75-4.81,14.07-8.77,21.77-11.74L-753.79,571.61L-753.79,571.61z M-720.01,526.09
					c-6.99,10.74-14.26,20.97-21.78,30.71v48.76c7.09-1.75,14.39-2.69,21.78-2.83V526.09z M-686.24,466.38
					c-6.88,14.05-14.15,27.54-21.78,40.42v96.42c7.47,0.78,14.77,2.39,21.78,4.82V466.38z M-652.46,383.42
					c-2.69,8.03-5.48,15.97-8.4,23.79c-4.23,11.33-8.7,22.4-13.38,33.17v172.76c7.87,3.95,15.19,8.97,21.79,14.88L-652.46,383.42
					L-652.46,383.42z M-621.51,256.62c-4.86,29.91-11.2,59.12-18.96,87.34v270.99c5.59-5.99,11.96-11.17,18.96-15.38V256.62z
					 M-577.46,106.4h-8.09c-3.32,0-5.99-2.68-5.99-5.99v-9.43h-3.89v9.43c0,3.32-2.69,5.99-6,5.99h-8.08v487.15
					c10.05-4.08,20.91-6.36,32.05-6.43V106.4L-577.46,106.4z M-415.1,618.2c-0.37-2.92-2.83-5.17-5.85-5.17h-94.26
					c8.69,8.75,15.56,19.41,19.88,31.34c9.53-3.51,19.68-5.34,30.02-5.34c15.64,0,30.82,4.23,43.99,11.97
					c1.95-2.76,4.07-5.46,6.21-8.04L-415.1,618.2L-415.1,618.2z M-415.1,551.49c-1.82,0.65-3.79,1-5.85,1h-138.6
					c-2.07,0-4.07-0.35-5.92-1.01v36.4c12.78,1.73,24.86,6.31,35.45,13.13h109.07c2.05,0,4.03,0.35,5.85,0.98V551.49L-415.1,551.49z
					 M-415.1,403.9c-0.37-2.9-2.83-5.16-5.85-5.16h-138.6c-3.27,0-5.92,2.65-5.92,5.91c0,0.03-0.02,0.07-0.02,0.12v129.72
					c0,0.03,0.02,0.09,0.02,0.14c0,3.25,2.65,5.89,5.92,5.89h138.6c3.02,0,5.48-2.28,5.85-5.16V403.9L-415.1,403.9z M-415.1,337.23
					c-1.82,0.64-3.79,0.98-5.85,0.98h-138.6c-2.07,0-4.07-0.36-5.92-1v50.54c1.86-0.65,3.84-1.01,5.92-1.01h138.6
					c2.05,0,4.03,0.35,5.85,0.98V337.23L-415.1,337.23z M-415.1,190.24c-0.37-2.91-2.83-5.17-5.85-5.17h-138.6
					c-3.27,0-5.92,2.65-5.92,5.91c0,0.05-0.02,0.08-0.02,0.13v129.1c0,0.04,0.02,0.09,0.02,0.11c0,3.28,2.65,5.92,5.92,5.92h138.6
					c3.02,0,5.48-2.27,5.85-5.17V190.24L-415.1,190.24z M-415.1,124.54h-150.37v49.54c1.86-0.66,3.84-1.01,5.92-1.01h138.6
					c2.05,0,4.03,0.35,5.85,0.98V124.54L-415.1,124.54z M-371.04,123.3c-0.1-5.3-0.15-10.62-0.15-15.94c0-0.32,0.05-0.64,0.1-0.96
					h-8.04c-3.33,0-5.99-2.68-5.99-5.99v-9.43H-389v9.43c0,3.32-2.69,5.99-5.99,5.99h-8.08v11.43c0.03,0.24,0.07,0.48,0.07,0.73
					v286.09c0,0.25-0.07,129.21-0.07,129.21c0.03,0.24,0.07,0.49,0.07,0.75v84.34c0,0.24-0.03,0.5-0.07,0.73v11.09
					c9.53-8.37,20.38-15.11,32.05-19.98L-371.04,123.3L-371.04,123.3z M-340.3,343.91c-7.64-27.87-13.9-56.71-18.75-86.25v348.88
					c6.1-1.78,12.37-3.05,18.75-3.82V343.91z M-306.52,440.37c-7.04-16.16-13.57-32.94-19.55-50.28c-0.75-2.22-1.5-4.43-2.25-6.65
					v218.44c0.61-0.02,1.24-0.02,1.85-0.02c6.73,0,13.38,0.6,19.95,1.75V440.37z M-272.75,506.74
					c-7.64-12.89-14.92-26.38-21.78-40.41v140.06c7.53,2.15,14.81,5.07,21.78,8.7V506.74z M-238.97,556.78
					c-7.53-9.77-14.8-20.02-21.8-30.74v96.26c0.3,0.21,0.61,0.42,0.9,0.63c6.01-7.91,13.03-14.98,20.86-21.08v-44.99
					C-238.98,556.82-238.97,556.81-238.97,556.78z M-213.48,586.79c-4.58-4.89-9.07-9.97-13.52-15.2v22.06
					C-222.67,591.09-218.15,588.78-213.48,586.79z"/>
				<path id="Path" class="st3" d="M-433.36,266.2c-10.94,0-21.61,3.41-31.15,9.94c-9.51-6.53-20.2-9.94-31.14-9.94
					c-3.31,0-5.99,2.68-5.99,5.98c0,3.32,2.69,6.01,5.99,6.01c9.65,0,19.13,3.47,27.42,10.07c1.09,0.88,2.4,1.3,3.73,1.3
					c1.33,0,2.64-0.43,3.74-1.3c8.27-6.6,17.75-10.07,27.4-10.07c3.32,0,5.99-2.69,5.99-6.01
					C-427.36,268.88-430.05,266.2-433.36,266.2z"/>
				<path class="st3" d="M-495.66,229c6.66-5.41,14.31-8.32,22.12-8.4c3.32-0.03,5.97-2.74,5.93-6.05
					c-0.03-3.32-2.75-5.97-6.05-5.94c-9.1,0.1-17.95,2.96-25.87,8.33c-8.01-5.22-16.92-7.91-26.04-7.81
					c-3.31,0.03-5.97,2.75-5.93,6.05c0.03,3.31,2.75,5.97,6.06,5.94c7.81-0.08,15.51,2.67,22.29,7.96c1.1,0.87,2.42,1.29,3.73,1.26
					C-498.07,230.33-496.76,229.89-495.66,229z"/>
				<path class="st3" d="M-222.86,359.6c0-3.32-2.68-5.99-5.99-5.99c-10.94,0-21.63,3.41-31.13,9.94
					c-9.51-6.53-20.21-9.94-31.14-9.94c-3.32,0-5.99,2.68-5.99,5.99c0,3.32,2.67,5.99,5.99,5.99c9.66,0,19.13,3.49,27.41,10.08
					c1.1,0.89,2.41,1.3,3.73,1.3c1.31,0,2.64-0.43,3.73-1.3c8.29-6.59,17.75-10.08,27.42-10.08
					C-225.55,365.6-222.86,362.92-222.86,359.6z"/>
			</g>
		</g>
	</g>
</g>
<g id="SMF-expanded">
	<polyline class="st4" points="23.9,217.82 23.9,190.51 142.87,190.51 142.87,217.82 	"/>
	<line class="st5" x1="21.95" y1="519.57" x2="421.43" y2="519.57"/>
	<line class="st5" x1="22.8" y1="635.37" x2="551.43" y2="635.37"/>
	<line class="st4" x1="142.87" y1="217.82" x2="135.55" y2="232.61"/>
	<line class="st4" x1="31.21" y1="232.61" x2="23.9" y2="217.82"/>
	<path class="st5" d="M82.61,278.76c-12.57,0-22.75,10.19-22.75,22.75v76.06h45.51v-76.06C105.36,288.95,95.18,278.76,82.61,278.76z
		"/>
	<g>
		<path class="st5" d="M68.71,430.59c-8.1,0-14.67,6.57-14.67,14.67v49.04h29.34v-49.04C83.38,437.16,76.81,430.59,68.71,430.59z"/>
		<path class="st5" d="M98.05,430.59c-8.1,0-14.67,6.57-14.67,14.67v49.04h29.34v-49.04C112.72,437.16,106.15,430.59,98.05,430.59z"
			/>
	</g>
	<g>
		<path class="st5" d="M68.71,546.39c-8.1,0-14.67,6.57-14.67,14.67v49.04h29.34v-49.04C83.38,552.95,76.81,546.39,68.71,546.39z"/>
		<path class="st5" d="M98.05,546.39c-8.1,0-14.67,6.57-14.67,14.67v49.04h29.34v-49.04C112.72,552.95,106.15,546.39,98.05,546.39z"
			/>
	</g>
	<polygon class="st6" points="82.61,175.7 112.72,189.35 54.04,189.35 	"/>
	<line class="st4" x1="83.38" y1="176.86" x2="83.38" y2="116.9"/>
	<path class="st5" d="M551.13,677.27"/>
	<path class="st5" d="M31.21,677.27"/>
	<rect x="421.43" y="404.54" class="st5" width="18.53" height="115.03"/>
	<rect x="439.96" y="404.54" class="st5" width="111.47" height="115.03"/>
	<rect x="551.43" y="404.54" class="st5" width="111.47" height="115.03"/>
	<rect x="662.9" y="404.54" class="st7" width="18.53" height="115.03"/>
	<path class="st8" d="M439.96,396.94c0-64.94,50.02-158.33,90.04-158.33c70.71,0-24.58,0,43,0c41.04,0,89.9,93.39,89.9,158.33"/>
	<path class="st8" d="M421.43,396.94C421.43,312.1,487,239,527.02,239c0,0-21.61-0.39,45.98-0.39
		c41.04,0,108.43,71.54,108.43,158.33"/>
	<line class="st8" x1="551.13" y1="238.61" x2="551.13" y2="396.94"/>
	<circle class="st5" cx="495.7" cy="460.87" r="18.22"/>
	<circle class="st5" cx="607.17" cy="460.87" r="18.22"/>
	<polyline class="st8" points="529.67,231.54 529.67,175.97 572.58,175.97 572.58,231.54 	"/>
	<polygon class="st4" points="550.99,112.67 572.58,175.97 529.67,175.97 	"/>
	<polyline class="st9" points="513.91,238.87 513.91,222.45 529.67,210.1 529.67,238.87 	"/>
	<polyline class="st9" points="572.58,237.71 572.58,210.1 588.34,222.45 588.34,237.71 	"/>
	<circle class="st10" cx="551.28" cy="103.48" r="7.65"/>
	<line class="st4" x1="550.99" y1="60.98" x2="550.99" y2="94.05"/>
	<line class="st4" x1="542.17" y1="72.89" x2="559.81" y2="72.89"/>
	<line class="st7" x1="21.95" y1="403.77" x2="681.43" y2="403.77"/>
	<line class="st5" x1="135.55" y1="494.3" x2="421.43" y2="494.3"/>
	<line class="st5" x1="551.43" y1="519.57" x2="551.43" y2="635.37"/>
	<line class="st11" x1="264.58" y1="520.34" x2="264.58" y2="636.14"/>
	<line class="st11" x1="409.72" y1="520.34" x2="409.72" y2="636.14"/>
	<circle class="st5" cx="480.57" cy="579.03" r="27.47"/>
	<circle class="st5" cx="335.92" cy="579.03" r="27.47"/>
	<circle class="st5" cx="200.07" cy="579.03" r="27.47"/>
	<line class="st5" x1="200.07" y1="636.14" x2="200.07" y2="664.46"/>
	<line class="st5" x1="335.92" y1="636.14" x2="335.92" y2="716.88"/>
	<line class="st5" x1="483.07" y1="636.14" x2="483.07" y2="700.57"/>
	<g>
		<path class="st5" d="M251.99,426.33c-5.77,0-10.46,4.68-10.46,10.46c0-5.77-4.68-10.46-10.46-10.46
			c-5.77,0-10.46,4.68-10.46,10.46v34.95h20.91h20.91v-34.95C262.45,431.01,257.76,426.33,251.99,426.33z"/>
		<path class="st5" d="M293.81,426.33c-5.77,0-10.46,4.68-10.46,10.46c0-5.77-4.68-10.46-10.46-10.46
			c-5.77,0-10.46,4.68-10.46,10.46v34.95h20.91h20.91v-34.95C304.27,431.01,299.59,426.33,293.81,426.33z"/>
	</g>
	<g>
		<path class="st5" d="M616.43,675.1"/>
		<line class="st5" x1="681.43" y1="677.27" x2="681.43" y2="610.1"/>
		<polyline class="st5" points="551.43,610.1 551.13,610.1 551.13,667.95 		"/>
		<path class="st5" d="M616.43,545.1c-35.9,0-65,29.1-65,65h130C681.43,574.2,652.33,545.1,616.43,545.1z"/>
	</g>
	<line class="st5" x1="681.43" y1="519.57" x2="681.43" y2="677.27"/>
	<polyline class="st5" points="758.55,701 758.55,519.57 681.43,519.57 681.43,747 	"/>
	<polygon class="st5" points="778.05,519.57 681.43,519.57 681.43,460.87 778.05,494.3 	"/>
	<polyline class="st5" points="31.21,701 31.21,232.61 135.55,232.61 135.55,747 	"/>
</g>
<g id="circle">
	<path class="st12" d="M135.55,148.36C199.26,85.68,286.67,47,383.11,47c29.88,0,58.89,3.71,86.6,10.7
		c10.52,2.65,20.86,5.78,30.98,9.35"/>
	<path class="st12" d="M646.19,635.37c-3.21,3.59-6.49,7.1-9.84,10.56c-32.35,33.31-71.22,60.26-114.55,78.79
		C479.22,742.92,432.34,753,383.11,753c-52.7,0-102.7-11.55-147.61-32.25c-11.61-5.35-22.88-11.31-33.77-17.85
		c-12.85-7.71-25.17-16.22-36.89-25.45"/>
	<path class="st12" d="M588.95,113.19c18.9,13.59,36.41,29,52.25,45.98c58.88,63.07,94.91,147.74,94.91,240.83
		c0,16.64-1.15,33.01-3.38,49.03"/>
</g>
<g id="clouds">
	<path class="st7" d="M206.85,240.19c0-28.53,23.13-51.66,51.66-51.66c28.53,0,51.66,23.13,51.66,51.66"/>
	<path class="st7" d="M258.82,187.74c11.42-35.22,49.23-54.51,84.45-43.09s54.51,49.23,43.09,84.45"/>
	<path class="st7" d="M284.34,266.02c0-14.27,11.56-25.83,25.83-25.83c14.27,0,25.83,11.56,25.83,25.83"/>
</g>
<path id="bird" class="st3" d="M295.89,312.16c0-3.86-3.12-6.98-6.98-6.98c-12.74,0-25.2,3.97-36.27,11.58
	c-11.08-7.61-23.55-11.58-36.28-11.58c-3.87,0-6.98,3.12-6.98,6.98c0,3.86,3.11,6.98,6.98,6.98c11.25,0,22.29,4.06,31.93,11.75
	c1.28,1.03,2.81,1.52,4.35,1.52c1.53,0,3.08-0.5,4.35-1.52c9.65-7.67,20.68-11.75,31.94-11.75
	C292.77,319.14,295.89,316.03,295.89,312.16z"/>
</svg>
