<svg xmlns="http://www.w3.org/2000/svg" xmlns:xlink="http://www.w3.org/1999/xlink" width="144" height="144" viewBox="0 0 144 144">
  <defs>
    <path id="hamburg-illo-a" d="M7.61735888,46.5758628 L3.27737837e-13,45.2327169 L5.67027651,13.0749808 L28.4288028,17.0879231 C40.9836172,6.42957905 57.2409543,0 75,0 C114.764502,0 147,32.235498 147,72 C147,111.764502 114.764502,144 75,144 C35.235498,144 3,111.764502 3,72 C3,63.0499726 4.63302195,54.4813579 7.61735888,46.5758628 Z"/>
  </defs>
  <g fill="none" fill-rule="evenodd" transform="translate(-3)">
    <mask id="hamburg-illo-b" fill="#fff">
      <use xlink:href="#hamburg-illo-a"/>
    </mask>
    <g mask="url(#hamburg-illo-b)">
      <g transform="translate(-1 19)">
        <g stroke-linecap="round" stroke-linejoin="round" transform="translate(.444 .384)">
          <path stroke="#313D3E" stroke-width="2" d="M19.1239761,72.640108 L25.2976783,0.032634028 C33.718837,5.91929265 41.6440105,9.73276131 49.0731987,11.47304 C56.502387,13.2133187 64.8375841,13.208823 74.0787901,11.4595528 C81.498479,18.5347033 90.0851149,23.7503777 99.8386978,27.106576 C109.592281,30.4627742 118.888983,27.3773089 127.728804,17.85018 C133.247579,23.6151906 137.697227,27.0668308 141.077748,28.2051004 C144.458268,29.3433701 148.773131,28.842866 154.022337,26.7035883 L168.833455,96.0372074 L86.65901,83.0848073 C85.323225,66.9038317 82.535032,58.5188051 78.2944311,57.9297275 C74.0538302,57.3406499 71.7684215,64.8446296 71.4382048,80.4416665 L19.1239761,72.640108 Z"/>
          <path stroke="#313D3E" stroke-width="2" d="M19.1513741,72.4185553 L2.24376799,107.23947 L6.94311466,64.2362812 C7.47831593,63.6411665 8.4503907,60.6207018 9.85933897,55.1748871 C11.2682872,49.7290723 12.8441305,43.112928 14.5868688,35.3264542 C15.4606902,35.1756055 16.982192,31.5955169 19.1513741,24.5861884 C21.3205562,17.5768599 23.3588526,9.65409011 25.2662632,0.817879104 L19.1513741,72.4185553 Z"/>
          <polygon stroke="#313D3E" stroke-width="2" points="18.719 79.902 46.542 83.526 45.068 127.065 14.907 127.065"/>
          <polygon stroke="#313D3E" stroke-width="2" points="18.854 79.902 2.134 110.995 .061 127.445 14.93 127.065"/>
          <polygon stroke="#313D3E" stroke-width="2" points="52.805 84.702 96.529 90.649 99.34 129.375 52.036 130.586"/>
          <polygon stroke="#313D3E" stroke-width="2" points="101.49 91.973 135.127 96.117 139.937 128.078 104.745 129.202"/>
          <polygon stroke="#313D3E" stroke-width="2" points="139.159 96.75 169.449 100.79 175.183 127.445 144.19 127.948"/>
        </g>
        <path stroke="#313D3E" stroke-linecap="round" stroke-linejoin="round" stroke-width="2" d="M.0442527479 56.6531794L51.8588782 65.8412964M52.43583 60.3711288L.46762287 50.396333M1.13825156 44.1108308L53.3851105 55.117766M1.60957023 38.3714873L26.9348935 44.0497952M2.09774847 32.565862L27.060029 38.4566539M2.54995963 26.9064884L119.4531 56.0084529M3.05612141 21.5088657L27.2851979 27.8887192M3.51265423 16.1776377L27.5133641 22.6359455M3.94630674 10.908607L141.1154 50.1916845M4.86121945.833542687L139.585675 43.202453M138.06719 35.9778564L90.2658106 19.7278369M100.675103 15.6226194L136.579953 28.9230802M27.6746234 25.4519878L118.291621 49.6641825M27.1855762 41.4736559L120.331511 62.4030717M64.3903039 57.4972317L146.12889 74.0243684M65.5950133 62.7970709L147.102046 78.2429231M66.3776721 68.258255L147.866579 82.3876091M120.176961 60.4070433L144.531834 65.9667703M118.801196 51.8841845L142.775506 58.1943968" transform="translate(20.171 9.049)"/>
        <path stroke="#313D3E" stroke-linecap="round" stroke-linejoin="round" stroke-width="2" d="M.0103678596 69.1699608L4.78276847.52154195M8.63425603 70.4622607L12.0442517 4.01258796M17.049244 71.720783L19.2015286 6.33697528M24.7673719 72.6065103L26.1189908 7.89264688M32.5653051 74.0095767L32.5653051 8.1225446M39.9374111 75.1025155L38.9537549 7.54521333M46.3153214 54.3476761L45.0614736 6.55977951M52.8827262 55.7856348L51.1279499 11.73324M60.55059 78.6263039L56.7543642 15.7317122M66.8542804 79.5501048L62.6695768 18.9320705M73.007602 80.5625541L67.9995538 21.2228817M78.7704883 81.3928449L73.204269 22.9777022M85.3726523 82.2913111L79.1705633 23.5602693M91.8558479 83.1635931L85.1968865 23.1093469M101.240831 84.7615501L92.4818298 19.4292073M110.150183 86.3713321L98.6878471 13.0075259M114.525602 87.0791979L103.896186 18.0002529M123.540479 88.4993672L111.587243 23.3270253" transform="translate(29.407 5.284)"/>
        <path stroke="#ED1C40" stroke-width="2" d="M87.1031748,83.4689342 C85.7673898,67.2879587 82.9791969,58.9029321 78.738596,58.3138545 C74.497995,57.7247769 72.2125863,65.2287565 71.8823697,80.8257935 L87.1031748,83.4689342 Z"/>
      </g>
    </g>
    <path fill="#313D3E" fill-rule="nonzero" d="M8.99560318,43.1895333 C5.1393357,52.0117509 3,61.7560411 3,72 C3,111.764502 35.235498,144 75,144 C114.764502,144 147,111.764502 147,72 C147,32.235498 114.764502,0 75,0 C58.9571879,0 44.1398592,5.24691805 32.1704439,14.1183241 L36.3232519,14.8505762 C47.3549611,7.37011467 60.6671331,3 75,3 C113.107648,3 144,33.8923523 144,72 C144,110.107648 113.107648,141 75,141 C36.8923523,141 6,110.107648 6,72 C6,61.9253093 8.15918639,52.3549237 12.0400507,43.7263515 L8.99560318,43.1895333 Z" mask="url(#hamburg-illo-b)"/>
  </g>
</svg>
