<svg xmlns="http://www.w3.org/2000/svg" xmlns:xlink="http://www.w3.org/1999/xlink" width="144" height="144" viewBox="0 0 144 144">
  <defs>
    <path id="istanbul-illo-a" d="M143.753557,78 C140.704652,114.957183 109.743983,144 72,144 C32.235498,144 0,111.764502 0,72 C0,32.235498 32.235498,0 72,0 C85.5292541,0 98.1869545,3.73156487 109.000027,10.2216202 L109,-12 L164,-12 L164,78 L143.753557,78 Z"/>
  </defs>
  <g fill="none" fill-rule="evenodd">
    <mask id="istanbul-illo-b" fill="#fff">
      <use xlink:href="#istanbul-illo-a"/>
    </mask>
    <g stroke-linecap="round" stroke-linejoin="round" stroke-width="2" mask="url(#istanbul-illo-b)">
      <g transform="translate(-122 4)">
        <path stroke="#ED1C40" d="M252.039837,70.1742592 L254.648493,70.1742592 L254.648493,65.4549586 C254.481579,64.417724 254.142594,63.8991067 253.631538,63.8991067 C253.120482,63.8991067 252.589915,64.417724 252.039837,65.4549586 L252.039837,70.1742592 Z"/>
        <polyline stroke="#313D3E" points="255.856 95.681 255.856 74.109 256.5 71.442 255.856 62.428 257.105 60.221 254.485 58.224 254.485 54.324 252.462 53.714 242.244 25.458 232.994 53.714 230.611 54.324 230.611 58.224 228.555 60.221 229.492 62.428 229.492 71.426 230.611 74.109 230.611 102.365"/>
        <path stroke="#313D3E" d="M233.045965 53.7142606L252.613421 53.7142606M228.842463 60.8512874L256.840333 60.9563847M229.075508 72.4070129C233.992212 72.9447791 238.683252 73.2136623 243.148626 73.2136623 247.614 73.2136623 252.30504 72.9447791 257.221744 72.4070129"/>
        <path stroke="#ED1C40" d="M232.016625 70.1742592L235.200027 70.1742592 235.200027 65.4549586C235.200027 64.417724 234.66946 63.8991067 233.608326 63.8991067 232.547192 63.8991067 232.016625 64.417724 232.016625 65.4549586L232.016625 70.1742592zM238.691029 70.1742592L241.874431 70.1742592 241.874431 65.4549586C241.874431 64.417724 241.343864 63.8991067 240.28273 63.8991067 239.221596 63.8991067 238.691029 64.417724 238.691029 65.4549586L238.691029 70.1742592zM245.365433 70.1742592L248.548835 70.1742592 248.548835 65.4549586C248.548835 64.417724 248.018268 63.8991067 246.957134 63.8991067 245.896 63.8991067 245.365433 64.417724 245.365433 65.4549586L245.365433 70.1742592z"/>
        <path stroke="#313D3E" d="M251.73956 118.995633C251.73956 118.488122 251.73956 110.738753 251.73956 95.7475249L269.295816 95.7475249 269.295816 119.831326M241.988103 25.4576362L241.988103 16.4903686"/>
        <polyline stroke="#313D3E" points="255.731 108.881 263.682 108.881 263.682 114.77 255.731 114.77"/>
        <polyline stroke="#313D3E" points="255.803 92.299 268.879 91.96 268.879 95.748"/>
        <path stroke="#313D3E" d="M251.799358,105.998381 C251.241645,105.998381 247.044342,105.918869 239.207448,105.759846 L239.207448,115.895379"/>
        <path stroke="#313D3E" d="M239.332605 105.998381C238.028712 103.926243 236.561788 102.890173 234.931831 102.890173 233.301874 102.890173 231.91363 102.890173 230.767098 102.890173M230.677073 102.364687L227.401607 102.364687 227.401607 105.203607C226.395967 105.272809 225.893147 105.552636 225.893147 106.04309 225.893147 106.533544 225.893147 107.479418 225.893147 108.880715L200.235052 108.880715 200.235052 111.297951 195.06907 111.350499 195.06907 124.795503 193.810922 124.754699 193.810922 122.016729 190.655122 120.893844 186.084181 120.893844 186.084181 128.954283 184.931427 129.632275 184.931427 132.84288"/>
        <polyline stroke="#313D3E" points="191.803 122.017 191.803 129.375 185.711 129.375"/>
        <polyline stroke="#313D3E" points="194.462 132.691 194.462 130.215 195.696 128.429 204.947 128.429 204.947 133.428"/>
        <polyline stroke="#313D3E" points="211.456 132.843 211.456 126.484 218.421 126.262 218.421 135.736"/>
        <polyline stroke="#313D3E" points="211.357 126.064 214.388 106.779 217.935 126.262"/>
        <polyline stroke="#313D3E" points="218.672 123.384 232.831 123.069 232.831 128.156 229.126 127.408 220.803 129.866 221.504 135.736"/>
        <polyline stroke="#313D3E" points="232.74 123.15 235.414 123.15 235.414 120.894 242.619 120.894 242.619 123.15 245.576 123.384 251.301 123.15 251.301 119.942 257.483 120.13 257.483 123.15 259.857 123.069 262.139 125.276 255.97 126.064 255.97 134.104"/>
        <polyline stroke="#313D3E" points="256.055 127.376 251.859 127.376 249.855 125.881 256.055 125.276"/>
        <polygon stroke="#313D3E" points="253.352 99.18 253.352 100.861 257.806 100.861 257.806 99.002"/>
        <polygon stroke="#313D3E" points="259.867 99.18 259.867 100.861 264.321 100.861 264.321 99.002"/>
        <path stroke="#313D3E" d="M264.175031 109.879138L269.449153 109.879138M264.385194 114.050979L269.659316 114.050979"/>
        <polyline stroke="#313D3E" points="261.169 91.75 263.969 89.332 263.969 87.441 265.958 87.441 265.958 89.595 268.708 89.332 268.708 87.441 272.227 87.441 272.227 89.819 274.629 89.595"/>
        <path stroke="#313D3E" d="M215.886495 112.874409L226.912738 114.34577M226.259857 104.15134L226.259857 99.5270625 220.266693 96.8127054 220.266693 89.3319366 198.956064 89.3319366 195.32133 91.1192853 193.604961 88.450551 189.343797 87.4408828 187.809585 89.3319366 175.336303 89.0745096 175.336303 91.9600631 165.818695 91.7498686 165.608532 93.3307925 155.835947 91.7498686 141.866808 91.7498686 137.894811 94.2722018 132.386199 93.3307925 132.386199 91.7498686 126.455558 93.3307925 126.455558 97.2149238 118.569279 97.1098266 118.569279 101.52391 116.5421 101.52391 113.666656 98.0682526 111.705006 96.8127054 111.705006 89.6509612C111.254121 87.2575203 110.337321 86.0607998 108.954607 86.0607998 107.571893 86.0607998 106.856288 87.2575203 106.807793 89.6509612L106.807793 96.8127054 104.303878 98.0682526 104.303878 100.893326 100.232687 101.418812 94.9922012 101.418812 93.8397391 108.464791 91.715169 108.464791 91.715169 102.890173 89.5887953 102.364687 89.5887953 108.464791 84.9729352 108.464791 84.9729352 103.415659 83.292637 103.154054 83.292637 108.464791 80.8452332 108.464791 80.8452332 102.890173 80.0420567 95.0692494 78.9220584 102.364687 78.9220584 108.464791 75.8169636 108.464791 72.7972364 104.046243 72.7972364 108.464791 67.6379095 108.464791 67.6379095 95.7475249 65.6906875 102.890173 65.6906875 110.352076 62.1809986 111.190527 58.782528 114.030478 48.3400312 114.030478 48.3400312 116.182211 45.6100728 116.182211C45.6100728 118.334695 45.6100728 119.410937 45.6100728 119.410937 45.6100728 119.410937 43.8812795 119.551067 40.4236928 119.831326L37.9035462 120.893844 32.6281916 120.893844 28.7776337 118.759853 22.2957108 123.150375.0658775264 123.38413M291.142842 126.484498C290.690286 126.484498 287.257782 125.661237 280.845331 124.014714L271.416764 124.014714 268.069887 119.831326 261.474435 119.410937 261.474435 124.014714"/>
        <polyline stroke="#313D3E" points="220.195 98.476 200.576 98.476 200.576 91.96 177.664 91.96 177.664 102.89 208.356 102.89"/>
        <path stroke="#313D3E" d="M182.336449 98.0682526L197.210932 98.0682526M201.210777 107.514451L198.638311 107.514451 198.638311 105.759846 192.322665 105.759846 183.343691 105.759846 176.524424 105.203607 175.541257 106.359029 173.854496 106.04309C173.565862 105.14669 173.254189 104.712395 172.919477 104.740206 172.584765 104.768018 170.708219 103.976178 167.289837 102.364687L159.829046 102.364687 158.778231 104.046243 158.883312 107.094062 151.737767 107.094062"/>
        <polyline stroke="#313D3E" points="141.968 131.372 141.968 108.881 145.089 106.779 148.795 109.827 149.388 108.881 162.036 108.881 168.513 111.35 168.513 120.894 166.029 120.894 166.029 124.015 164.348 124.755 164.242 132.691"/>
        <polygon stroke="#313D3E" points="144.487 111.403 146.863 111.403 146.863 114.823 144.487 114.823"/>
        <polygon stroke="#313D3E" points="149.321 111.403 151.697 111.403 151.697 114.823 149.321 114.823"/>
        <polygon stroke="#313D3E" points="154.155 111.403 156.531 111.403 156.531 114.823 154.155 114.823"/>
        <polygon stroke="#313D3E" points="144.487 117.604 146.863 117.604 146.863 121.024 144.487 121.024"/>
        <polygon stroke="#313D3E" points="144.487 123.384 146.863 123.384 146.863 126.804 144.487 126.804"/>
        <polygon stroke="#313D3E" points="144.382 129.585 146.758 129.585 146.758 133.005 144.382 133.005"/>
        <polygon stroke="#313D3E" points="149.321 117.604 151.697 117.604 151.697 121.024 149.321 121.024"/>
        <polygon stroke="#313D3E" points="149.321 123.384 151.697 123.384 151.697 126.804 149.321 126.804"/>
        <polygon stroke="#313D3E" points="149.216 129.585 151.592 129.585 151.592 133.005 149.216 133.005"/>
        <polygon stroke="#313D3E" points="154.155 117.604 156.531 117.604 156.531 121.024 154.155 121.024"/>
        <path stroke="#313D3E" d="M159.618883,132.84288 C159.548829,132.336719 159.548829,126.065919 159.618883,114.030478 L168.426884,114.030478"/>
        <polyline stroke="#313D3E" points="166.344 124.015 175.847 124.015 175.847 132.843"/>
        <polyline stroke="#313D3E" points="169.286 120.208 172.904 120.208 174.512 119.411 184.34 119.411 184.34 131.056"/>
        <path stroke="#313D3E" d="M194.868884 114.325681L190.597751 114.325681 190.597751 109.406201 188.987487 109.406201 188.987487 114.325681C185.87043 114.143664 184.311902 114.17229 184.311902 114.41156 184.311902 114.650829 184.311902 116.494385 184.311902 119.942229M199.004926 111.66777C199.004926 111.66777 198.857435 113.801607 198.562454 118.069281L200.206749 117.833692 202.389865 111.350499 203.780161 118.069281 206.050468 117.833692 207.774203 112.24948 213.559267 111.943474"/>
        <polyline stroke="#313D3E" points="212.193 122.017 206.644 122.017 206.644 126.484 211.494 126.484"/>
        <polyline stroke="#313D3E" points="141.787 108.881 132.36 108.881 110.179 108.881 110.179 132.843"/>
        <path stroke="#313D3E" d="M103.683278,132.083639 C104.712611,130.277661 105.707394,129.374672 106.667627,129.374672 C108.107975,129.374672 110.043181,127.402451 111.746517,127.402451 C113.449853,127.402451 114.993385,127.225318 115.836162,128.428797 C116.678939,129.632275 117.134254,126.829127 118.405673,126.829127 C119.677092,126.829127 122.167519,126.255803 123.225085,126.829127 C124.282651,127.402451 124.66637,124.795503 126.269097,124.795503 C127.871824,124.795503 129.868799,126.895001 129.375814,130.499524"/>
        <path stroke="#313D3E" d="M128.09761 125.591172C129.572275 124.68607 131.090849 124.407245 132.653332 124.754699 134.997058 125.27588 136.766141 122.753547 138.148698 124.014714 139.070402 124.855491 139.338303 126.029511 138.952401 127.536772 141.031189 128.691974 142.070583 129.970222 142.070583 131.371519M137.656838 115.297751L139.414925 115.297751 139.414925 112.532693C139.176738 111.989791 138.883724 111.718339 138.535881 111.718339 138.188039 111.718339 137.895024 111.989791 137.656838 112.532693L137.656838 115.297751zM130.196048 115.297751L131.954134 115.297751 131.954134 112.532693C131.715948 111.989791 131.422933 111.718339 131.075091 111.718339 130.727248 111.718339 130.434234 111.989791 130.196048 112.532693L130.196048 115.297751zM137.76192 121.078098L139.520006 121.078098 139.520006 118.31304C139.28182 117.770137 138.988805 117.498686 138.640963 117.498686 138.29312 117.498686 138.000106 117.770137 137.76192 118.31304L137.76192 121.078098zM130.301129 121.078098L132.059216 121.078098 132.059216 118.31304C131.821029 117.770137 131.528015 117.498686 131.180172 117.498686 130.83233 117.498686 130.539316 117.770137 130.301129 118.31304L130.301129 121.078098zM134.189147 121.078098L135.947233 121.078098 135.947233 118.31304C135.709047 117.770137 135.416032 117.498686 135.06819 117.498686 134.720348 117.498686 134.427333 117.770137 134.189147 118.31304L134.189147 121.078098zM126.728356 121.078098L128.486443 121.078098 128.486443 118.31304C128.248256 117.770137 127.955242 117.498686 127.6074 117.498686 127.259557 117.498686 126.966543 117.770137 126.728356 118.31304L126.728356 121.078098zM134.189147 115.402848L135.947233 115.402848 135.947233 112.63779C135.709047 112.094888 135.416032 111.823437 135.06819 111.823437 134.720348 111.823437 134.427333 112.094888 134.189147 112.63779L134.189147 115.402848zM126.728356 115.402848L128.486443 115.402848 128.486443 112.63779C128.248256 112.094888 127.955242 111.823437 127.6074 111.823437 127.259557 111.823437 126.966543 112.094888 126.728356 112.63779L126.728356 115.402848zM122.735257 115.297751L124.493344 115.297751 124.493344 112.532693C124.255157 111.989791 123.962143 111.718339 123.6143 111.718339 123.266458 111.718339 122.973444 111.989791 122.735257 112.532693L122.735257 115.297751zM122.840339 121.078098L124.598425 121.078098 124.598425 118.31304C124.360239 117.770137 124.067224 117.498686 123.719382 117.498686 123.371539 117.498686 123.078525 117.770137 122.840339 118.31304L122.840339 121.078098zM157.832497 103.836048C157.832497 103.555789 157.832497 101.214675 157.832497 96.8127054L144.197984 96.8127054 144.197984 104.15134 118.504945 104.15134 118.504945 108.880715"/>
      </g>
    </g>
    <path fill="#313D3E" fill-rule="nonzero" d="M110,10.8329351 C98.9706617,3.96643706 85.9485364,-1.69197989e-13 72,-1.69197989e-13 C32.235498,-1.69197989e-13 0,32.235498 0,72 C0,111.764502 32.235498,144 72,144 C111.764502,144 144,111.764502 144,72 C144,59.2963774 140.709981,47.36118 134.935519,36.9999851 L131.476985,37 C137.528333,47.2611575 141,59.2251531 141,72 C141,110.107648 110.107648,141 72,141 C33.8923523,141 3,110.107648 3,72 C3,33.8923523 33.8923523,3 72,3 C86.0410042,3 99.1024595,7.19394794 110,14.3974782 L110,10.8329351 Z" mask="url(#istanbul-illo-b)"/>
  </g>
</svg>
