<svg version="1.0" xmlns="http://www.w3.org/2000/svg"
 width="1024.000000pt" height="1022.000000pt" viewBox="0 0 1024.000000 1022.000000"
 preserveAspectRatio="xMidYMid meet">
<metadata>
Created by potrace 1.15, written by Peter Selinger 2001-2017
</metadata>
<g transform="translate(0.000000,1022.000000) scale(0.100000,-0.100000)"
fill="#000000" stroke="none">
<path d="M4785 10209 c-1002 -67 -1956 -422 -2752 -1025 -956 -725 -1632
-1765 -1902 -2925 -52 -226 -104 -588 -117 -822 l-7 -118 39 3 39 3 7 125 c34
579 197 1217 448 1760 690 1490 2054 2549 3670 2849 563 105 1242 107 1800 5
1263 -230 2386 -924 3153 -1948 384 -515 673 -1109 831 -1716 76 -289 126
-570 145 -820 6 -74 14 -163 17 -197 l6 -63 33 0 c19 0 36 3 38 8 6 8 -17 304
-33 429 -90 706 -338 1412 -708 2013 -571 926 -1405 1640 -2401 2057 -369 154
-745 260 -1188 333 -307 51 -773 71 -1118 49z"/>
<path d="M6586 8939 c-439 -64 -841 -400 -945 -791 -11 -40 -23 -93 -26 -118
l-7 -45 -121 0 c-118 0 -125 -1 -189 -33 -182 -89 -256 -311 -145 -430 24 -26
78 -56 117 -65 14 -3 768 -7 1675 -9 l1650 -3 57 28 c160 79 173 291 23 386
-57 36 -196 65 -457 97 l-48 5 0 52 c0 34 -9 70 -24 102 -27 57 -112 143 -175
175 -85 43 -196 54 -262 26 -13 -6 -24 7 -49 51 -82 145 -203 288 -322 379
-207 160 -487 232 -752 193z m403 -63 c271 -75 491 -261 642 -540 22 -42 45
-76 50 -76 5 0 22 8 36 18 73 47 233 1 329 -95 69 -69 89 -113 89 -193 l0 -65
142 -17 c162 -19 292 -43 343 -65 100 -41 145 -144 105 -240 -20 -49 -41 -71
-90 -95 -39 -20 -51 -21 -1685 -19 -1120 1 -1658 5 -1685 12 -91 25 -131 84
-122 181 16 177 206 303 402 267 106 -19 97 -25 112 76 24 167 89 316 199 454
175 218 420 362 709 417 111 21 309 12 424 -20z"/>
<path d="M2500 8079 c-119 -23 -225 -108 -279 -224 -18 -39 -36 -77 -40 -85
-5 -8 -21 -17 -37 -21 -65 -13 -134 -69 -167 -135 -14 -28 -22 -32 -70 -37
-145 -15 -250 -144 -217 -268 16 -60 55 -108 104 -129 38 -17 99 -19 991 -21
873 -2 953 -1 982 15 87 45 82 175 -9 216 -24 11 -64 20 -89 20 -42 0 -48 3
-77 43 -57 74 -146 117 -246 117 l-54 0 -30 54 c-34 59 -75 90 -141 105 -23 5
-44 11 -45 13 -1 1 -12 30 -26 63 -59 151 -170 247 -315 274 -68 13 -170 13
-235 0z m255 -41 c123 -30 229 -137 276 -277 17 -51 25 -61 43 -61 72 0 140
-47 165 -114 l19 -51 50 3 c114 8 228 -50 278 -141 13 -24 19 -27 48 -22 41 8
111 -10 137 -36 26 -26 26 -92 0 -118 -11 -11 -36 -23 -55 -27 -20 -3 -451 -5
-958 -3 -910 4 -924 4 -958 25 -43 25 -80 87 -80 135 0 107 87 186 217 197 59
4 62 6 68 34 13 59 108 138 167 138 33 0 43 10 57 60 60 211 280 319 526 258z"/>
<path d="M4350 6235 c0 -72 -3 -95 -13 -95 -8 0 -114 -7 -238 -15 -245 -17
-394 -33 -596 -67 l-133 -23 -74 74 -75 74 -73 -19 -73 -19 1 -35 c0 -19 4
-60 8 -90 l8 -55 -94 -24 c-51 -13 -113 -30 -138 -37 -132 -40 -511 -144 -523
-144 -8 0 -48 24 -89 54 -42 30 -84 58 -94 63 -16 8 -67 9 -137 4 -16 -1 -18
-11 -15 -112 l3 -112 -185 -67 c-102 -37 -226 -84 -276 -104 l-90 -38 -100 41
c-55 23 -106 41 -113 41 -24 0 -111 -51 -111 -65 0 -9 9 -48 20 -87 15 -56 17
-74 7 -80 -6 -4 -65 -38 -131 -74 l-118 -66 -158 21 -159 21 -35 -21 c-20 -12
-36 -26 -36 -32 0 -7 9 -46 20 -87 27 -104 26 -112 -22 -151 l-43 -34 -118 4
c-103 3 -125 0 -178 -19 -45 -17 -58 -27 -55 -39 7 -23 132 -580 155 -686 42
-198 73 -336 102 -463 17 -73 30 -135 27 -137 -2 -2 -36 -5 -76 -7 -73 -3 -76
-5 -66 -45 6 -22 9 -23 113 -16 58 3 107 6 108 7 1 1 -5 28 -13 62 -7 33 -27
123 -43 200 -16 76 -57 258 -89 404 -152 672 -148 651 -126 667 15 12 46 14
151 11 l133 -5 65 54 c36 30 65 59 65 64 0 5 -9 50 -20 101 -12 50 -17 95 -13
99 4 4 79 -2 166 -15 l158 -22 157 88 c99 55 157 93 156 102 -1 8 -10 47 -19
87 -15 60 -16 73 -4 80 24 15 46 10 145 -31 l96 -40 87 36 c124 52 352 137
454 170 l89 29 -7 103 -7 102 32 0 c22 0 55 -17 113 -58 45 -32 88 -62 95 -66
7 -4 74 10 155 32 410 115 693 195 698 198 3 2 0 40 -8 85 -12 67 -12 84 -1
90 29 19 55 6 124 -62 l71 -70 229 36 c239 38 438 59 687 71 l147 7 0 93 0 94
34 0 c34 0 34 0 54 -76 12 -42 23 -78 25 -80 2 -2 64 0 138 5 173 12 706 6
877 -9 73 -7 136 -10 139 -7 3 3 10 42 15 87 l11 81 36 -3 36 -3 1 -80 0 -80
60 -7 c32 -4 151 -14 264 -23 113 -8 306 -28 430 -45 124 -16 251 -31 284 -32
l59 -3 47 60 c41 52 51 60 81 60 l34 0 3 -87 c3 -81 4 -88 25 -93 39 -8 558
-133 700 -168 l138 -34 57 41 c102 75 107 78 136 67 25 -10 26 -13 26 -95 l0
-84 63 -22 c137 -51 299 -115 429 -171 l137 -58 108 50 c89 42 111 48 130 40
26 -12 27 -19 9 -117 l-13 -72 102 -46 c56 -26 140 -70 186 -98 l84 -51 105
27 c119 30 129 31 154 13 16 -12 16 -17 -2 -95 l-20 -83 62 -55 61 -56 107 6
c126 7 188 0 188 -22 0 -14 -198 -830 -260 -1073 -17 -63 -30 -121 -30 -127 0
-9 43 -12 154 -12 151 0 154 0 160 23 13 48 13 47 -114 40 -112 -6 -120 -5
-120 12 0 10 18 89 40 174 84 329 250 1014 246 1018 -2 2 -33 11 -67 20 -48
11 -92 13 -172 9 l-107 -6 -40 37 -40 38 20 83 c11 46 20 87 20 91 0 4 -26 20
-57 34 l-58 27 -108 -29 -109 -30 -66 41 c-37 23 -107 61 -156 84 -49 24 -91
45 -92 47 -2 2 3 41 11 87 8 46 14 85 12 86 -1 1 -25 13 -54 28 l-52 26 -113
-51 c-100 -44 -116 -49 -138 -38 -14 7 -140 58 -280 115 l-255 102 -3 84 -3
84 -64 21 -64 21 -82 -60 -81 -59 -197 50 c-108 27 -279 68 -381 91 -102 22
-191 44 -199 48 -11 6 -14 30 -14 93 1 53 -3 87 -10 91 -7 4 -43 8 -82 8 l-70
0 -45 -60 c-29 -39 -52 -60 -65 -60 -11 0 -130 13 -265 29 -135 16 -337 37
-450 46 -113 9 -220 18 -237 21 l-33 5 0 84 0 85 -95 0 c-107 0 -96 11 -112
-105 -7 -50 -11 -60 -27 -58 -270 23 -965 28 -1019 7 -13 -4 -21 11 -40 73
l-23 78 -87 3 -87 3 0 -96z"/>
<path d="M4680 5878 c-74 -4 -140 -10 -146 -12 -8 -3 -11 -26 -8 -68 2 -35 13
-265 24 -513 11 -247 23 -482 26 -521 l5 -72 68 -21 c231 -73 395 -94 552 -72
89 13 368 78 388 91 9 5 19 94 31 281 11 151 29 413 40 582 12 170 20 310 18
312 -1 1 -120 8 -263 14 -292 12 -535 12 -735 -1z m809 -65 l123 -6 -6 -121
c-4 -67 -11 -179 -16 -251 -5 -71 -17 -257 -26 -412 l-17 -281 -73 -22 c-212
-62 -402 -82 -549 -57 -93 17 -265 63 -277 75 -8 8 -63 1060 -56 1068 21 21
562 25 897 7z"/>
<path d="M4175 5854 c-196 -18 -415 -49 -595 -85 -80 -16 -171 -35 -202 -41
-69 -14 -66 0 -38 -201 11 -78 36 -277 56 -442 50 -418 49 -414 60 -424 13
-13 221 -49 354 -62 132 -13 291 -1 480 34 l115 22 3 608 2 607 -42 -1 c-24
-1 -110 -8 -193 -15z m173 -601 l-3 -548 -90 -17 c-228 -42 -413 -42 -655 0
l-95 17 -21 170 c-12 94 -38 297 -58 452 -32 254 -41 343 -33 343 1 0 92 18
202 40 199 40 532 81 713 88 l42 2 -2 -547z"/>
<path d="M5778 5279 l-3 -591 25 -10 c14 -5 81 -25 150 -45 157 -43 282 -52
423 -29 109 18 348 74 359 85 8 7 49 261 113 691 19 129 40 259 46 288 6 30 9
55 7 56 -4 4 -222 40 -463 75 -178 27 -362 47 -582 65 l-73 6 -2 -591z m298
501 c115 -10 243 -24 284 -30 133 -19 465 -72 468 -75 2 -1 -17 -130 -43 -286
-25 -156 -57 -360 -71 -454 -14 -93 -29 -177 -34 -185 -19 -39 -364 -105 -500
-97 -79 5 -248 42 -312 68 l-28 11 0 534 c0 435 2 534 13 534 7 0 108 -9 223
-20z"/>
<path d="M7025 5678 c-3 -7 -18 -134 -35 -283 -17 -148 -39 -340 -50 -425 -11
-85 -23 -190 -28 -233 l-8 -78 34 -14 c147 -62 329 -100 438 -91 90 7 287 53
355 83 l44 20 23 129 c12 71 42 237 67 369 25 132 48 258 51 280 l6 40 -63 18
c-280 76 -432 115 -612 153 -114 24 -210 44 -213 44 -2 0 -7 -6 -9 -12z m259
-103 c143 -29 550 -136 562 -147 2 -2 -8 -67 -21 -143 -70 -402 -86 -494 -96
-541 l-10 -52 -114 -31 c-168 -46 -261 -56 -365 -38 -93 16 -182 39 -233 61
l-34 14 9 68 c4 38 17 152 27 254 26 248 60 540 66 568 3 12 13 22 22 22 9 0
93 -16 187 -35z"/>
<path d="M2935 5599 c-371 -100 -670 -182 -672 -183 -7 -5 169 -811 179 -822
12 -11 183 -35 293 -40 105 -5 136 -3 247 20 105 21 285 71 296 81 3 3 -39
443 -78 810 -11 105 -20 191 -20 193 0 6 -41 -4 -245 -59z m195 -28 c0 -8 47
-473 74 -741 8 -69 11 -128 7 -132 -12 -14 -239 -68 -329 -78 -103 -13 -326 1
-372 23 -21 10 -28 25 -42 97 -31 150 -90 422 -114 525 -12 55 -20 103 -16
106 4 3 104 31 222 63 118 31 285 77 370 100 160 45 200 52 200 37z"/>
<path d="M8080 5404 c0 -3 -20 -105 -44 -227 -74 -368 -106 -532 -106 -543 0
-11 179 -56 300 -75 76 -11 165 -8 331 13 48 5 92 13 98 17 6 4 36 115 67 247
30 131 57 247 60 256 4 14 -28 33 -163 99 -92 45 -197 93 -233 106 -141 54
-310 112 -310 107z m233 -145 c89 -34 215 -88 280 -120 97 -49 117 -63 117
-82 0 -21 -87 -408 -93 -414 -9 -9 -173 -24 -270 -26 -85 -1 -137 4 -218 22
-58 13 -112 26 -118 31 -10 5 2 79 48 309 34 165 61 310 61 321 0 11 7 20 15
20 9 0 89 -28 178 -61z"/>
<path d="M2049 5350 c-145 -42 -365 -144 -520 -242 l-76 -48 27 -98 c15 -53
45 -168 66 -255 45 -183 37 -174 176 -207 144 -34 296 -21 453 39 58 22 70 31
73 51 3 23 -17 162 -84 603 -16 104 -32 177 -38 176 -6 0 -41 -9 -77 -19z m41
-67 c0 -7 26 -187 71 -498 11 -77 21 -149 22 -159 2 -16 -14 -25 -88 -50 -79
-26 -104 -30 -205 -30 -98 -1 -125 3 -184 24 l-70 25 -52 205 c-29 113 -53
213 -54 222 0 30 235 158 420 228 102 38 140 47 140 33z"/>
<path d="M8917 4923 c-33 -135 -87 -369 -87 -375 0 -10 126 -67 173 -79 58
-14 183 -7 253 15 l51 16 27 92 c15 51 32 103 37 116 5 13 9 31 9 42 0 26 -90
103 -189 162 -81 48 -224 118 -241 118 -4 0 -19 -48 -33 -107z m319 -116 c36
-26 67 -54 70 -62 3 -7 -7 -55 -23 -106 l-29 -93 -50 -13 c-72 -19 -156 -16
-221 7 -91 32 -89 23 -43 216 23 93 43 175 45 182 6 17 157 -62 251 -131z"/>
<path d="M1195 4937 c-101 -53 -271 -166 -307 -204 l-26 -28 35 -115 c19 -63
40 -118 46 -122 31 -20 145 -48 196 -48 75 0 235 56 255 89 6 9 -4 55 -60 291
-38 159 -44 180 -52 180 -4 0 -43 -20 -87 -43z m94 -219 c47 -197 51 -182 -46
-218 -65 -24 -141 -25 -208 -2 l-49 17 -27 88 -27 87 42 34 c61 50 247 165
267 166 3 0 25 -78 48 -172z"/>
<path d="M9507 4575 c-15 -52 -27 -103 -27 -114 0 -28 85 -81 130 -81 44 0
117 36 141 70 10 14 20 39 23 55 6 29 3 32 -109 98 -64 37 -119 67 -124 67 -4
0 -19 -43 -34 -95z"/>
<path d="M635 4618 c-71 -30 -175 -105 -174 -126 0 -9 8 -39 18 -67 17 -50 18
-50 90 -74 71 -24 74 -24 124 -8 86 28 83 19 42 158 -21 68 -40 127 -44 131
-3 4 -28 -3 -56 -14z m37 -128 c9 -30 17 -61 19 -69 6 -22 -41 -29 -91 -15
-47 14 -70 36 -70 65 0 19 110 94 121 81 3 -4 13 -32 21 -62z"/>
<path d="M4988 4425 c-54 -8 -163 -26 -243 -41 l-145 -28 0 -122 0 -122 128
-31 c213 -52 322 -65 427 -51 96 13 257 42 368 66 l67 16 0 122 0 122 -147 32
c-151 33 -275 52 -328 51 -16 -1 -74 -7 -127 -14z m400 -89 c67 -14 127 -28
132 -31 6 -3 10 -37 10 -75 0 -78 10 -70 -115 -94 -220 -42 -332 -57 -385 -51
-62 7 -275 49 -332 65 l-38 11 0 68 c0 66 1 69 28 79 15 6 88 20 162 31 74 11
146 23 160 25 62 11 262 -3 378 -28z"/>
<path d="M6095 4425 c-60 -7 -163 -23 -227 -35 -115 -22 -118 -23 -119 -49 -2
-105 0 -243 5 -248 9 -10 181 -42 313 -59 107 -14 144 -14 233 -4 117 13 359
55 368 65 3 3 13 64 22 136 l16 130 -50 14 c-90 26 -192 44 -303 55 -124 11
-113 12 -258 -5z m385 -79 c41 -9 92 -20 113 -26 l39 -11 -7 -72 c-4 -40 -10
-75 -14 -79 -7 -7 -221 -50 -342 -69 -68 -10 -91 -9 -230 15 -85 15 -170 30
-189 34 l-35 8 -3 77 c-3 73 -1 78 20 86 20 7 205 41 303 55 58 8 271 -3 345
-18z"/>
<path d="M3927 4390 c-105 -13 -222 -39 -316 -69 l-86 -27 0 -104 0 -103 70
-24 c234 -79 478 -75 741 13 123 41 114 29 114 155 0 128 10 117 -140 143
-120 20 -294 27 -383 16z m401 -80 l52 -13 0 -73 0 -73 -67 -20 c-199 -58
-320 -74 -455 -61 -57 6 -110 13 -118 15 -8 2 -48 13 -87 25 l-73 21 0 59 0
59 64 20 c66 20 146 38 231 51 76 12 392 5 453 -10z"/>
<path d="M6978 4383 c-81 -3 -98 -6 -102 -21 -7 -23 -29 -263 -25 -266 2 -1
36 -14 74 -28 256 -97 375 -100 641 -18 54 17 99 31 100 33 3 3 34 230 31 232
-1 1 -42 12 -92 24 -206 49 -293 55 -627 44z m532 -86 c129 -26 119 -15 105
-120 -7 -56 -5 -54 -160 -94 -171 -44 -298 -37 -477 29 l-58 21 0 47 c0 26 3
68 6 93 l7 46 96 4 c181 8 361 -2 481 -26z"/>
<path d="M8106 4370 c-109 -10 -206 -28 -206 -38 0 -4 -9 -61 -20 -127 -11
-66 -20 -128 -20 -137 0 -12 25 -26 82 -48 119 -46 209 -63 293 -55 73 6 239
41 265 55 9 5 28 59 46 132 l31 123 -41 22 c-66 36 -192 73 -264 77 -37 2
-111 0 -166 -4z m239 -70 c47 -11 103 -29 124 -40 l38 -19 -21 -81 c-12 -45
-28 -86 -37 -90 -8 -5 -60 -17 -114 -26 -121 -20 -221 -15 -325 18 -87 28 -88
29 -68 148 l13 74 40 8 c32 6 151 19 247 27 10 0 56 -8 103 -19z"/>
<path d="M2835 4359 c-22 -5 -92 -25 -155 -45 -63 -19 -123 -38 -132 -40 -16
-5 -18 -19 -18 -104 l0 -99 38 -11 c92 -26 275 -52 362 -53 88 0 283 28 373
53 l37 11 0 128 c0 150 19 132 -163 156 -129 16 -279 18 -342 4z m265 -59 c63
-6 130 -13 148 -16 l33 -6 -3 -81 -3 -82 -59 -13 c-138 -30 -280 -39 -398 -25
-62 7 -138 19 -168 26 l-55 12 0 55 0 54 86 27 c105 34 211 57 264 58 22 1 92
-4 155 -9z"/>
<path d="M8831 4300 c-29 -4 -56 -12 -61 -17 -8 -9 -60 -257 -60 -286 0 -21
61 -50 158 -74 56 -14 78 -15 142 -5 42 6 95 18 117 27 l40 16 27 136 c31 153
35 138 -54 181 -47 23 -69 27 -155 29 -55 1 -124 -2 -154 -7z m270 -71 c27
-12 49 -27 49 -34 0 -8 -9 -54 -21 -103 l-20 -90 -47 -13 c-26 -8 -76 -14
-112 -14 -72 1 -170 29 -170 50 0 7 9 57 20 110 11 53 20 99 20 100 0 6 63 12
148 13 65 2 94 -3 133 -19z"/>
<path d="M1903 4275 c-74 -13 -202 -52 -216 -65 -14 -12 43 -208 62 -213 266
-82 394 -80 574 10 40 20 46 27 42 46 -3 12 -16 69 -29 127 l-23 105 -169 2
c-104 1 -197 -4 -241 -12z m379 -129 c15 -63 16 -81 6 -88 -24 -15 -163 -56
-205 -61 -44 -5 -143 11 -243 39 -55 15 -61 19 -70 53 -19 72 -17 83 15 93
114 35 206 47 340 45 l139 -2 18 -79z"/>
<path d="M1223 4259 c-47 -9 -155 -58 -189 -86 l-21 -18 34 -105 c19 -57 39
-110 45 -117 6 -7 42 -23 80 -34 93 -29 196 -23 291 16 79 32 77 15 23 205
-27 96 -36 117 -56 126 -32 15 -153 22 -207 13z m166 -68 c16 -10 73 -209 62
-215 -3 -2 -30 -11 -60 -21 -64 -21 -138 -21 -202 0 -46 16 -47 17 -73 89 -14
41 -26 79 -26 84 0 9 69 46 120 65 25 9 164 7 179 -2z"/>
<path d="M9433 4218 l-43 -9 -35 -113 c-19 -62 -35 -120 -35 -128 0 -17 81
-82 121 -96 25 -10 107 5 145 26 16 9 28 36 48 116 32 127 31 125 3 157 -52
59 -101 71 -204 47z m141 -70 l25 -23 -21 -87 c-18 -70 -26 -89 -45 -97 -37
-17 -78 -13 -109 11 -16 12 -31 23 -33 25 -2 2 6 41 20 88 22 78 26 86 54 94
51 15 83 12 109 -11z"/>
<path d="M698 4181 c-58 -19 -130 -65 -154 -99 -11 -16 -9 -33 11 -113 14 -55
31 -99 41 -106 40 -29 129 -55 171 -49 59 8 154 56 149 76 -3 8 -17 76 -32
150 -14 74 -30 138 -33 142 -16 18 -98 17 -153 -1z m126 -148 c10 -53 20 -103
23 -110 7 -17 -55 -43 -102 -43 -45 0 -101 23 -113 47 -19 37 -33 125 -21 139
21 26 113 64 154 64 l41 0 18 -97z"/>
<path d="M5010 3840 c-80 -10 -212 -41 -305 -73 l-70 -24 -3 -98 -3 -98 483 7
c266 5 485 10 487 12 2 2 0 45 -5 96 l-9 92 -85 23 c-183 50 -382 76 -490 63z
m232 -70 c36 -5 116 -21 176 -35 l110 -26 4 -40 c2 -22 1 -42 -2 -44 -4 -2
-194 -7 -423 -11 l-417 -7 0 46 0 46 83 25 c90 26 158 43 197 49 51 8 207 6
272 -3z"/>
<path d="M6120 3833 c-89 -14 -188 -37 -272 -63 l-98 -31 0 -86 0 -86 452 6
c249 4 455 10 459 15 4 4 1 44 -8 88 l-15 81 -86 27 c-155 47 -325 67 -432 49z
m240 -68 c101 -15 197 -40 218 -57 6 -6 12 -23 12 -39 l0 -29 -103 0 c-57 0
-233 -3 -390 -7 l-287 -6 0 36 c0 21 2 37 4 37 1 0 55 14 119 30 197 52 277
58 427 35z"/>
<path d="M2950 3803 c-93 -14 -225 -37 -281 -49 l-66 -15 -42 -110 c-23 -61
-39 -114 -37 -117 4 -6 797 6 803 12 3 3 43 214 43 227 0 9 -115 36 -205 49
-69 9 -165 11 -215 3z m278 -75 l74 -11 -6 -31 c-4 -17 -9 -47 -12 -67 l-6
-36 -211 -6 c-346 -11 -460 -9 -454 7 3 8 11 33 18 56 15 51 21 53 177 79 189
32 256 34 420 9z"/>
<path d="M3835 3795 c-60 -8 -146 -20 -190 -27 l-80 -13 -27 -100 c-14 -55
-27 -107 -27 -115 -1 -13 37 -14 306 -9 170 4 386 7 481 8 l173 1 -3 113 -3
112 -130 16 c-198 25 -373 30 -500 14z m455 -69 l115 -11 3 -56 3 -56 -233 -6
c-354 -10 -588 -9 -588 4 0 33 24 99 39 103 19 6 258 35 316 38 61 4 217 -3
345 -16z"/>
<path d="M7120 3804 c-78 -10 -172 -25 -220 -35 l-51 -11 7 -71 c4 -40 8 -79
9 -87 2 -12 37 -14 246 -12 401 4 599 13 599 27 0 7 -9 43 -20 79 -23 74 -12
67 -155 92 -89 15 -347 26 -415 18z m404 -79 c50 -8 92 -19 97 -27 22 -34 11
-38 -98 -38 -60 0 -219 -3 -355 -7 l-248 -6 0 30 c0 18 6 33 15 37 13 4 83 14
215 30 56 7 278 -5 374 -19z"/>
<path d="M7955 3780 c-27 -5 -64 -12 -82 -15 l-32 -6 28 -77 28 -77 304 4
c167 1 305 4 306 5 2 2 -5 27 -15 57 l-19 54 -109 29 c-119 31 -312 43 -409
26z m363 -75 c40 -9 70 -21 66 -26 -3 -5 -102 -9 -224 -9 -225 0 -230 1 -230
40 0 24 280 20 388 -5z"/>
<path d="M2080 3749 c-99 -7 -176 -26 -241 -58 -47 -23 -60 -37 -106 -111
l-52 -85 72 -3 c40 -1 182 1 316 5 l245 8 33 93 c18 52 30 98 27 104 -22 35
-163 57 -294 47z m189 -66 c31 -5 33 -8 28 -37 -3 -17 -10 -43 -16 -58 l-11
-28 -158 0 c-88 0 -193 -3 -235 -6 -89 -8 -97 2 -49 54 63 67 278 104 441 75z"/>
<path d="M8753 3709 c-37 -11 -38 -13 -22 -58 l11 -31 112 0 c62 0 161 3 219
7 102 6 107 7 107 28 0 20 -9 25 -72 40 -85 20 -307 29 -355 14z"/>
<path d="M1245 3675 c-140 -59 -158 -72 -192 -136 l-33 -59 207 2 208 3 54 93
c34 59 50 97 44 103 -5 5 -58 12 -119 14 -101 5 -113 4 -169 -20z m190 -45 c8
-13 -21 -67 -43 -79 -22 -11 -248 -15 -255 -4 -6 9 4 14 123 65 66 28 163 38
175 18z"/>
<path d="M653 3650 c-26 -11 -26 -11 -13 -82 22 -109 10 -98 103 -98 l83 0 42
75 c23 41 42 79 42 84 0 27 -201 43 -257 21z"/>
<path d="M546 2808 c230 -460 558 -916 920 -1283 652 -659 1400 -1099 2305
-1355 208 -59 480 -112 754 -146 171 -22 852 -31 1040 -14 968 87 1862 428
2628 1004 544 409 997 915 1343 1501 70 118 214 387 214 399 0 3 -19 6 -42 6
l-43 0 -62 -123 c-454 -898 -1241 -1687 -2157 -2163 -425 -220 -863 -373
-1357 -473 -563 -114 -1273 -120 -1859 -15 -794 143 -1562 485 -2200 982 -579
451 -1044 1007 -1386 1659 l-69 133 -43 0 -42 0 56 -112z"/>
</g>
</svg>
