<svg xmlns="http://www.w3.org/2000/svg" xmlns:xlink="http://www.w3.org/1999/xlink" width="147" height="144" viewBox="0 0 147 144">
  <defs>
    <path id="lisbon-illo-a" d="M143.753557,78 C140.704652,114.957183 109.743983,144 72,144 C32.235498,144 0,111.764502 0,72 C0,32.235498 32.235498,0 72,0 C85.5292541,0 98.1869545,3.73156487 109.000027,10.2216202 L109,-12 L164,-12 L164,78 L143.753557,78 Z"/>
  </defs>
  <g fill="none" fill-rule="evenodd">
    <mask id="lisbon-illo-b" fill="#fff">
      <use xlink:href="#lisbon-illo-a"/>
    </mask>
    <g stroke-linecap="round" stroke-linejoin="round" stroke-width="2" mask="url(#lisbon-illo-b)">
      <g transform="translate(-13 1)">
        <path stroke="#313D3E" d="M83 69L83 80.2317206 79 86.2405481C79 95.4533058 79 100.059685 79 100.059685L81.704153 103.482115 81.704153 109M82.6778213 68.6323361L80 64.9678788 80 61.305466 126 49C126 51.9091168 126 53.3636752 126 53.3636752L125.348489 58.7953676 126 88"/>
        <polyline stroke="#313D3E" points="126.775 49 159 60.211 159 63.444 155.565 68.468 155.565 108.177 155.565 123.766 157.01 126.462 157.01 139.024 127.418 139.935 127.418 131.59 109.879 131.368 101 131.368 101.357 142 110.444 142 109.879 131.921"/>
        <path stroke="#313D3E"/>
        <polygon stroke="#313D3E" points="95 119.113 94.791 123.184 76.309 122.615 22 125 22.575 121.185 75.891 118"/>
        <polyline stroke="#313D3E" points="22.295 125.758 20 134.897 20 143.177 76.411 144 93.965 140.88 95 123"/>
        <polygon stroke="#ED1C40" points="80 56.728 82.267 56 83 56.914 83 60.281 80.599 61 80.599 58.049"/>
        <path stroke="#ED1C40" d="M84,55.7145735 L86.7530886,55 L88,55.1878699 L88,58.9581085 C85.5862189,59.7456688 84.3793283,60.0867446 84.3793283,59.9813358 C84.3793283,59.875927 84.3793283,59.0488151 84.3793283,57.5 L84,55.7145735 Z"/>
        <path stroke="#313D3E" d="M102,51 C102.14388,48.5934073 102.854163,47.2741371 104.130847,47.0421895 C105.407532,46.8102419 106.363916,47.5346872 107,49.2155253"/>
        <path stroke="#ED1C40" d="M89 54.7145735L91.7530886 54 93 54.1878699 93 57.9581085C90.5862189 58.7456688 89.3793283 59.0867446 89.3793283 58.9813358 89.3793283 58.875927 89.3793283 58.0488151 89.3793283 56.5L89 54.7145735zM94 52.7145735L96.7530886 52 98 52.1878699 98 55.9581085C95.5862189 56.7456688 94.3793283 57.0867446 94.3793283 56.9813358 94.3793283 56.875927 94.3793283 56.0488151 94.3793283 54.5L94 52.7145735zM99 51.7145735L101.753089 51 103 51.1878699 103 54.9581085C100.586219 55.7456688 99.3793283 56.0867446 99.3793283 55.9813358 99.3793283 55.875927 99.3793283 55.0488151 99.3793283 53.5L99 51.7145735zM105 49.6379565L107.576184 49 109 49.1677264 109 53.0698207C106.569969 53.7729384 105.354954 54.0774438 105.354954 53.983337 105.354954 53.8892302 105.354954 52.9721007 105.354954 51.2319484L105 49.6379565z"/>
        <path stroke="#313D3E" d="M136.000048,47.4550712 C135.994692,43.5506477 136.879572,41.7421441 138.654688,42.0295603 C140.429804,42.3169765 141.544908,44.9737897 142,50"/>
        <path stroke="#ED1C40" d="M111 48.6444811L113.576184 48 115 48.1694418 115 52.0603075C112.569969 52.7706162 111.354954 53.0782359 111.354954 52.9831666 111.354954 52.8880973 111.354954 51.9786336 111.354954 50.2547754L111 48.6444811zM117 46.6444811L119.576184 46 121 46.1694418 121 50.0603075C118.569969 50.7706162 117.354954 51.0782359 117.354954 50.9831666 117.354954 50.8880973 117.354954 49.9786336 117.354954 48.2547754L117 46.6444811z"/>
        <polygon stroke="#ED1C40" points="123 44.886 126.186 44 128 44.886 127.677 50 126.186 49.27 124.045 50 123.616 46.544"/>
        <polygon stroke="#ED1C40" points="128 45.248 129.394 45 132 46.06 131.624 47.901 131.624 51 129.11 49.869 128 49.427"/>
        <polygon stroke="#ED1C40" points="133 47.248 134.394 47 137 48.06 136.624 49.901 136.624 53 134.11 51.869 133 51.427"/>
        <polygon stroke="#ED1C40" points="137 48.248 138.394 48 141 49.06 140.624 50.901 140.624 54 138.11 52.869 137 52.427"/>
        <polygon stroke="#ED1C40" points="141 50.248 142.394 50 145 51.06 144.624 52.901 144.624 56 142.11 54.869 141 54.427"/>
        <polygon stroke="#ED1C40" points="145 52.223 146.394 52 149 52.953 148.624 54.607 148.624 57 146.11 55.984 145 55.587"/>
        <polygon stroke="#ED1C40" points="151.61 58 151.61 55.393 152 53.899 150.013 53 149 53.276 149 56.808"/>
        <polygon stroke="#ED1C40" points="155.61 60 155.61 57.393 156 55.899 154.013 55 153 55.276 153 58.808"/>
        <polygon stroke="#ED1C40" points="158.61 61 158.61 58.393 159 56.899 157.013 56 156 56.276 156 59.808"/>
        <path stroke="#313D3E" d="M80,64.9776588 L126.046196,53 L159,64.3525471 C156.265241,66.8590779 154.897861,68.1123433 154.897861,68.1123433 L125.491941,58.4806604 L82.8761318,69"/>
        <polygon stroke="#313D3E" points="82 65.199 84.46 69 86 68.745 83.644 65"/>
        <polygon stroke="#313D3E" points="88 63.199 90.46 67 92 66.745 89.644 63"/>
        <polygon stroke="#313D3E" points="95 61.199 97.46 65 99 64.745 96.644 61"/>
        <polygon stroke="#313D3E" points="101 60.199 103.46 64 105 63.745 102.644 60"/>
        <polygon stroke="#313D3E" points="107 58.199 109.46 62 111 61.745 108.644 58"/>
        <polygon stroke="#313D3E" points="113 57.199 115.46 61 117 60.745 114.644 57"/>
        <polygon stroke="#313D3E" points="120 54.231 121.549 59 123 58.704 121.549 54"/>
        <polygon stroke="#313D3E" points="128.643 54 130 54.518 129.322 60 128 59.399"/>
        <polygon stroke="#313D3E" points="134.643 56 136 56.518 135.322 62 134 61.399"/>
        <polygon stroke="#313D3E" points="140.643 58 142 58.518 141.322 64 140 63.399"/>
        <polygon stroke="#313D3E" points="147.643 61 149 61.456 148.322 66 147 65.471"/>
        <polygon stroke="#313D3E" points="154.643 63 156 63.456 155.322 68 154 67.471"/>
        <path stroke="#313D3E" d="M87.8030519,46 C87.4905485,45.3888844 87.3342968,44.9593843 87.3342968,44.7114997 C87.3342968,44.463615 87.4905485,44.2029946 87.8030519,43.9296383 L86.8712792,41.4428446 C86.1785697,41.1602855 85.8989136,40.721539 86.0323109,40.1266049 C86.1657081,39.5316709 86.4453643,39.2342038 86.8712792,39.2342038 L86.8712792,31.4481801 L86.2750078,30.5985923 L86.8712792,29.7324014 C87.4617653,28.1062741 88.2152925,27.0517605 89.1318607,26.5688606 C90.5067131,25.8445108 89.1318607,25.8445108 89.5614573,25.4481241 C89.847855,25.1838663 90.022132,24.0344916 90.0842885,22 C90.2939947,24.0428951 90.5026968,25.1922698 90.7103949,25.4481241 C91.0219421,25.8319055 91.6780271,26.5329681 91.194211,26.7684487 C90.7103949,27.0039293 93.6959394,28.1959211 93.4524975,29.7324014 C93.2902029,30.7567215 93.4727037,30.9373034 94,30.2741471"/>
        <path stroke="#313D3E" d="M86 31C87.3064868 29.7242819 88.4961206 29.0588783 89.5689015 29.0037893 90.6416823 28.9487002 91.7853818 29.4942834 93 30.6405387M86 39.1602511C88.0008564 38.0313825 89.4772471 37.7262651 90.429172 38.2448989 91.3810969 38.7635326 91.1424342 39.8610674 89.7131839 41.5375032L89.2264586 43.5181237C89.9345508 44.127261 90.0244606 44.5880015 89.4961878 44.9003451 88.7037788 45.3688604 87.5662064 46.0571493 87.2733535 45.9962153M91 38L91 35.5673463 92.9349923 34.8091384 93.17588 32.4663512 92.650818 31.8640554 94.2152408 29.8862694 95.786645 32.1308553 95.3220888 32.4663512 95.3220888 33.9431347 96.416283 33.5699381 96.416283 31.1942733 95.786645 30.7457446C96.8102664 29.3031867 97.3220771 28.5819078 97.3220771 28.5819078L98.8477125 30.9234759 98.3835173 31.3790856 98.3835173 32.8362117 99.582982 32.4663512 99.4187762 30.0364398 98.9204012 29.6105419 100.441111 27.2876907 101.97418 29.6105419 101.588472 30.0364398 101.588472 31.841906 102.553446 31.4379964 102.553446 29.042123 102.139114 28.2615205 103.547666 26.1849329 105.362117 28.5819078 104.796056 29.042123 104.796056 30.7457446 106.077714 30.1689478 106.077714 27.5240937 105.362117 27.2876907 106.970755 25.0600776 108.618955 27.2876907 108.101166 27.7853357 108.101166 29.1922345 109.302118 29.042123 109.099947 26.5554394 108.618955 26.0157586 110.174911 23.5717076 111.907646 26.0157586 111.348695 26.6120919 111.348695 28.2615205C112.271214 27.944064 112.732474 27.7853357 112.732474 27.7853357 112.787549 26.1115651 112.815087 25.2746798 112.815087 25.2746798 112.352373 24.9021158 112.121017 24.7158337 112.121017 24.7158337 113.283425 23.0665757 113.864629 22.2419466 113.864629 22.2419466 114.976035 23.9306316 115.531737 24.7749741 115.531737 24.7749741 115.144753 25.0551438 114.95126 25.1952287 114.95126 25.1952287 114.952909 26.3773381 114.953733 26.9683927 114.953733 26.9683927 115.885076 26.6513847 116.350747 26.4928807 116.350747 26.4928807 116.311379 24.7086154 116.291696 23.8164828 116.291696 23.8164828 115.884348 23.4896181 115.680675 23.3261857 115.680675 23.3261857 116.82243 21.7753952 117.393307 21 117.393307 21 118.524203 22.6258608 119.08965 23.4387912 119.08965 23.4387912 118.706641 23.6468775 118.515136 23.7509207 118.515136 23.7509207 118.446486 25.0434452 118.41216 25.6897075 118.41216 25.6897075L120 25.1148815M120 28L120 18.3267529C120.416207 16.7755843 121.716269 16 123.900185 16 126.084101 16 127.450706 16.5081095 128 17.5243285L128 25.6300299 128 28C126.915967 27.0639781 125.582634 26.6657314 124 26.8052597 122.417366 26.9447881 121.084033 27.3430349 120 28z"/>
        <path stroke="#313D3E" d="M120.392626 18L120 17.2668398C120.425824 15.7556133 121.9348 15 124.526928 15 127.119055 15 128.610079 15.5 129 16.5L128.529174 17.6007256M120 15C120.878865 12.7822765 121.760445 11.5026622 122.644739 11.1611571 123.529034 10.8196519 123.88436 9.43259957 123.710717 7 124.025321 9.55922862 124.385136 10.892562 124.790164 11 125.397705 11.1611571 128 13.9604926 128 14.9412924M123 19.3926544C123.5 19.1308848 124 19 124.5 19 125 19 125.5 19.1308848 126 19.3926544L126 22 123 22 123 19.3926544zM91 38.9524334L119.573875 29.1625083C120.582477 27.7208361 122.071234 27 124.040146 27 126.009058 27 127.555766 27.7852483 128.680269 29.355745L147.913381 38.8718456C150.357066 38.7433713 151.691892 39.0659451 151.917859 39.8395671 152.143826 40.613189 151.903573 41 151.197098 41 150.165356 40.1636242 149.070784 39.9353847 147.913381 40.3152812L127.591884 30.9971407C127.588665 29.645228 126.404752 29.0336839 124.040146 29.1625083 121.67554 29.2913327 120.440568 29.8271708 120.335231 30.7700226L91.2040344 40.3152812"/>
        <path stroke="#313D3E" d="M121 30C121 30.2062361 121.412617 31.2499586 122.237852 33.1311674 121.693525 33.7512413 121.557443 34.242214 121.829607 34.6040854 122.237852 35.1468925 123.365757 34.5114069 124.679952 34.6040854 125.994147 34.6967639 126.895086 35.2019275 126.895086 34.910391 126.895086 34.6188546 127.323227 34.0673511 127.323227 33.3661852 127.323227 32.8987412 127.244035 32.6650192 127.085649 32.6650192L128 30.2985817M124 35L124 44M152 41L151 43.7726996C151.419181 44.1756812 151.585848 44.6209376 151.5 45.1084686 151.414152 45.5959997 151.30258 45.9047991 151.165284 46.0348669L151.165284 53M128 23.4309401L129.290606 22C130.509495 23.4994918 131.11894 24.2492378 131.11894 24.2492378 130.752941 24.3234329 130.569942 24.3605305 130.569942 24.3605305 130.537157 26.1389641 130.520765 27.0281808 130.520765 27.0281808 131.081032 27.256942 131.361166 27.3713226 131.361166 27.3713226 131.402342 26.5342228 131.42293 26.1156728 131.42293 26.1156728 131.095278 25.8110884 130.931452 25.6587962 130.931452 25.6587962 131.998224 24.155614 132.53161 23.4040229 132.53161 23.4040229 133.53252 24.8582244 134.032975 25.5853251 134.032975 25.5853251 133.645998 26.0767927 133.45251 26.3225264 133.45251 26.3225264 133.407821 27.6307082 133.385477 28.2847991 133.385477 28.2847991 134.321012 28.6822716 134.78878 28.8810079 134.78878 28.8810079 134.815222 27.5867547 134.828444 26.9396281 134.828444 26.9396281 134.929823 25.4916069 135.009443 24.7929168 135.067304 24.8435579 136.159152 26.2003514 136.705077 26.8787481 136.705077 26.8787481 136.296341 27.3807313 136.091973 27.6317229 136.091973 27.6317229 136.038112 28.8454484 136.011182 29.4523112 136.011182 29.4523112 136.599258 29.7421368 136.893296 29.8870497 136.893296 29.8870497 136.756595 28.9443323 136.688245 28.4729736 136.688245 28.4729736 137.220119 26.8312433 137.486056 26.0103781 137.486056 26.0103781 138.644254 27.3464171 139.223353 28.0144366 139.223353 28.0144366 138.758415 28.5451072 138.525946 28.8104424 138.525946 28.8104424 138.496674 29.9429024 138.482038 30.5091324 138.482038 30.5091324 139.563446 31.0713499 140.10415 31.3524586 140.10415 31.3524586 140.075561 29.9797072 140.061266 29.2933314 140.061266 29.2933314 140.826243 29.3575321 141.208732 29.3896325 141.208732 29.3896325 141.097888 31.0402181 141.042466 31.8655109 141.042466 31.8655109 141.987662 32.234665 142.460259 32.419242 142.460259 32.419242 142.452844 31.0686287 142.449136 30.3933221 142.449136 30.3933221 143.159082 30.467854 143.514054 30.5051199 143.514054 30.5051199 143.46917 32.1134584 143.446728 32.9176277 143.446728 32.9176277 144.549993 33.4321559 145.101625 33.6894199 145.101625 33.6894199 145.129434 32.2046862 145.143338 31.4623193 145.143338 31.4623193 145.879823 31.7063005 146.248066 31.8282911 146.248066 31.8282911 146.079069 33.3218801 145.99457 34.0686746 145.99457 34.0686746L148 35"/>
        <polyline stroke="#313D3E" points="139 27.792 139.652 27 141.058 29.449 142 28.379 143.39 30.628 144.498 30.07 146 32"/>
        <path stroke="#313D3E" d="M144,29.8519399 C145.231764,28.6173133 146.450165,28 147.655204,28 C149.462762,28 152,28.6984508 152,29.2751953 C152,29.6596917 151.811574,30.1395701 151.434722,30.7148306 L151.434722,39"/>
        <path stroke="#313D3E" d="M144 30C144.570812 27.6255356 145.318546 26.2046987 146.2432 25.7374893 147.630182 25.0366752 147.314762 20.8067152 147.314762 21.0068775 147.314762 21.2070398 147.767054 25.0978613 148.445562 25.4176753 149.124069 25.7374893 151 27.3280437 151 28.8070771M71.7206381 118L71.7206381 110.669221 71 109.042587 71.7206381 108.311238C72.1474176 105.229321 73.2984865 103.688363 75.1738448 103.688363 77.049203 103.688363 77.5608048 100.792242 76.7086501 95 76.5197661 100.518278 77.1722234 103.414399 78.6660219 103.688363 80.1598205 103.962327 81.2711465 105.127326 82 107.183359L82 109.042587 82 118"/>
        <path stroke="#313D3E" d="M71 108.587272C73.729202 108.195757 75.5730051 108 76.5314092 108 77.4898132 108 79.3126769 108.333333 82 109M75 115L78 115 78 111.480011C77.3980035 111.160004 76.8980035 111 76.5 111 76.1019965 111 75.6019965 111.160004 75 111.480011L75 115zM20.0746175 134L18.0485509 129.795206 16.8345878 126.159875 16 124.417198 16.257236 114.576266C16.17708 111.386205 17.236511 109.629244 19.435529 109.305385 21.6345471 108.981525 22.2140584 106.546397 21.174063 102 20.3326156 106.489187 20.7741087 108.924315 22.4985423 109.305385 24.2229759 109.686454 25.3901285 111.086516 26 113.50557L26 116.808724M15 113.184286C18.3213832 112.692857 21.6547165 112.692857 25 113.184286M16 124.215C18.3739075 123.727985 20.3739075 123.654662 22 123.995033M17 127.877143L21 128.122857"/>
        <path stroke="#313D3E" d="M27 117L27 120.871672C26.6492682 122.290557 26.0622066 123 25.2388152 123 24.4154239 123 24.1045291 122.359789 24.3061309 121.079368L24.3061309 118.198089 24 117 27 117zM31 116L31 119.871672C30.6492682 121.290557 30.0622066 122 29.2388152 122 28.4154239 122 28.1045291 121.359789 28.3061309 120.079368L28.3061309 117.198089 28 116 31 116zM35 116L35 119.871672C34.6492682 121.290557 34.0622066 122 33.2388152 122 32.4154239 122 32.1045291 121.359789 32.3061309 120.079368L32.3061309 117.198089 32 116 35 116zM39 116L39 119.871672C38.6492682 121.290557 38.0622066 122 37.2388152 122 36.4154239 122 36.1045291 121.359789 36.3061309 120.079368L36.3061309 117.198089 36 116 39 116zM44 115L44 118.871672C43.6492682 120.290557 43.0622066 121 42.2388152 121 41.4154239 121 41.1045291 120.359789 41.3061309 119.079368L41.3061309 116.198089 41 115 44 115zM48 115L48 118.871672C47.6492682 120.290557 47.0622066 121 46.2388152 121 45.4154239 121 45.1045291 120.359789 45.3061309 119.079368L45.3061309 116.198089 45 115 48 115zM53 115L53 118.871672C52.6492682 120.290557 52.0622066 121 51.2388152 121 50.4154239 121 50.1045291 120.359789 50.3061309 119.079368L50.3061309 116.198089 50 115 53 115zM58 115L58 118.871672C57.6492682 120.290557 57.0622066 121 56.2388152 121 55.4154239 121 55.1045291 120.359789 55.3061309 119.079368L55.3061309 116.198089 55 115 58 115zM63 114L63 117.871672C62.6492682 119.290557 62.0622066 120 61.2388152 120 60.4154239 120 60.1045291 119.359789 60.3061309 118.079368L60.3061309 115.198089 60 114 63 114zM68 114L68 117.871672C67.6492682 119.290557 67.0622066 120 66.2388152 120 65.4154239 120 65.1045291 119.359789 65.3061309 118.079368L65.3061309 115.198089 65 114 68 114zM84 113L89 113.176742 88.6543517 114.9907 88.6543517 118.797768C88.4964254 119.599256 87.9236659 120 86.9360731 120 85.4546838 120 84.4563443 118.004938 84.4563443 118.004938 84.4563443 118.004938 84.3042295 116.336625 84 113zM89 114L94 114.176742 93.6543517 115.9907 93.6543517 119.797768C93.4964254 120.599256 92.9236659 121 91.9360731 121 90.4546838 121 89.4563443 119.004938 89.4563443 119.004938 89.4563443 119.004938 89.3042295 117.336625 89 114zM87 46L87 55M100.213081 73.9900724C100.213081 73.9330091 100.142054 71.8090467 100 67.6181854 100.254489 65.8727285 100.695861 65 101.324117 65 102.266501 65 103.1445 66.4941448 102.98003 67.1416107 102.870383 67.5732546 102.870383 69.6671409 102.98003 73.4232696 101.135397 73.8582014 100.213081 74.0471357 100.213081 73.9900724z"/>
        <path stroke="#313D3E" d="M103.213081,72.9900724 C103.213081,72.9330091 103.142054,70.8090467 103,66.6181854 C103.254489,64.8727285 103.695861,64 104.324117,64 C105.266501,64 106.1445,65.4941448 105.98003,66.1416107 C105.870383,66.5732546 105.870383,68.6671409 105.98003,72.4232696 C104.135397,72.8582014 103.213081,73.0471357 103.213081,72.9900724 Z"/>
        <polygon stroke="#313D3E" points="97 83 102.078 78 102.9 78 105 81.084"/>
        <polyline stroke="#313D3E" points="102 78 107 81 104.405 80.706"/>
        <polyline stroke="#313D3E" points="97 83 97.757 91.542 97.427 96 104.5 94.71 107 95.153 106.741 90.85 104.5 90.617"/>
        <path stroke="#313D3E" d="M106 91L106 82M104 90L104 81M98 91L98 86.0047167C98.0204573 84.6682389 98.4152644 84 99.1844213 84 100.338157 84 101 85.2456747 101 86.0047167 101 86.5107447 101 88.0440573 101 90.6046544L98 91zM101 90L101 85.0047167C101.020457 83.6682389 101.415264 83 102.184421 83 103.338157 83 104 84.2456747 104 85.0047167 104 85.5107447 104 87.0440573 104 89.6046544L101 90z"/>
        <polygon stroke="#313D3E" points="81 91.49 84 91 84 95.601 81.26 96"/>
        <path stroke="#313D3E" d="M98,96 L100,100"/>
        <polyline stroke="#313D3E" points="104 95 106.186 99 107 95.451"/>
        <path stroke="#313D3E" d="M100.438852 111C100.525719 111 102.046102 110.930076 105 110.790228L105 104.985457C104.609519 102.995152 103.773424 102 102.491716 102 101.210007 102 100.379435 103.190566 100 105.571699 100.205701 109.190566 100.351985 111 100.438852 111zM120 115.741434L120 102.767542C120.497837 97.6997807 121.643214 94.895273 123.436131 94.3540192 125.229048 93.8127654 126.025159 91.694759 125.824463 88 125.977314 92.2333425 126.565804 94.4976101 127.589932 94.7928029 128.61406 95.0879957 129.75075 97.003975 131 100.540741L131 115.785656 128.274363 126 124.437848 126 120 115.741434z"/>
        <path stroke="#313D3E" d="M119 101C121.445361 100.333333 123.757531 100 125.936511 100 128.11549 100 130.136653 100.198333 132 100.594998M119 102C121.445361 101.333333 123.757531 101 125.936511 101 128.11549 101 130.136653 101.198333 132 101.594998M120 116C124.719085 114.784318 128.719085 114.677048 132 115.678191M120 118C124.719085 116.784318 128.719085 116.677048 132 117.678191M122 122C125.395147 120.666667 128.061814 120.666667 130 122M125.038489 107.923265C127.01283 107.974422 128 108 128 108 127.956835 105.404587 127.935252 104.106881 127.935252 104.106881L125 104C125.025659 106.61551 125.038489 107.923265 125.038489 107.923265z"/>
        <polyline stroke="#313D3E" points="95 124.058 123.186 123 124 124.429 95.21 125"/>
        <polyline stroke="#313D3E" points="130 123 154.896 124.058 156 125 130 124.429"/>
        <path stroke="#313D3E" d="M139.278554,72.6534739 L139,65.842115 C139.016664,64.4841944 139.378598,63.8770203 140.085801,64.0205925 C140.793005,64.1641647 141.089901,65.140987 140.976489,66.9510594 L140.976489,73 L139.278554,72.6534739 Z"/>
        <path stroke="#313D3E" d="M141.278554 73.6534739L141 66.842115C141.016664 65.4841944 141.378598 64.8770203 142.085801 65.0205925 142.793005 65.1641647 143.089901 66.140987 142.976489 67.9510594L142.976489 74 141.278554 73.6534739zM140 81.8138857C140 81.6841419 140.707933 80.1620697 142.1238 77.2476691L142.1238 75 143.363568 77.2192376 148 83 142.743949 81.4420429C140.91465 81.8196819 140 81.9436295 140 81.8138857zM139 82L139.240234 86.961651 139.435764 91 142 90.5995706 142 85.770648C141.290509 84.9260278 140.435764 84.5037177 139.435764 84.5037177"/>
        <polyline stroke="#313D3E" points="141.597 90 146.604 90.992 146.604 94.787 148 96 146.604 96 141.597 95.019 139 95.437 139 90.529"/>
        <path stroke="#313D3E" d="M140 99C140.1745 99 141.1745 98 143 96M142 99C142.1745 99 143.1745 98 145 96M144 99C144.1745 99 145.1745 98 147 96M146 99C146.1745 99 147.1745 98 149 96M142 85.3641833C142.370054 83.6194484 142.953536 82.8404064 143.750448 83.0270571 144.54736 83.2137079 144.963877 84.0878565 145 85.6495029L145 91M145 85.3641833C145.370054 83.6194484 145.953536 82.8404064 146.750448 83.0270571 147.54736 83.2137079 147.963877 84.0878565 148 85.6495029L148 91M141.245729 111.765771C141.245729 111.637607 141.163819 109.594379 141 105.636087 141.278308 103.804029 141.781155 102.926919 142.508542 103.004759 143.235929 103.082598 143.733082 104.166053 144 106.255123L144 112C142.163819 111.972012 141.245729 111.893936 141.245729 111.765771zM153 104.879212C153.334844 101.797139 153.847682 100.281912 154.538516 100.333531 155.229349 100.38515 155.879088 98.607306 156.487731 95 156.685226 98.0953811 157.009597 99.8990341 157.460843 100.410959 158.137712 101.178846 159.667251 103.173744 159.667251 105.100908 159.667251 106.385684 159.778167 110.704532 160 118.057454L159.132967 122.318228 156.882572 129"/>
        <polyline stroke="#313D3E" points="153 118.097 161 118 161 119 153 119"/>
        <polyline stroke="#313D3E" points="153 105 160 105.261 159.783 106 153 105.961"/>
        <path stroke="#313D3E" d="M153,105 L153,124"/>
        <polyline stroke="#313D3E" points="71 123.145 76.058 136 82 123"/>
        <path stroke="#313D3E" d="M72 127C73.3253776 126.333333 74.5183922 126 75.579044 126 76.6396958 126 78.1133478 126.166667 80 126.5M75 132.05L78 131.95M76 136L76 144"/>
        <polygon stroke="#313D3E" points="62 135 66 135 66 141 62 140.517"/>
        <polygon stroke="#313D3E" points="52 135 56 135 56 141 52 140.517"/>
        <polygon stroke="#313D3E" points="42 134 46 134 46 140 42 139.517"/>
        <polygon stroke="#313D3E" points="34 134 37 134 37 139 34 138.598"/>
        <polygon stroke="#313D3E" points="26 135 30 135 30 140 26 139.598"/>
        <path stroke="#313D3E" d="M85 123L83 126M89 123L87 126M92 123L90 126M86 139.360522C86 139.171275 86 136.850622 86 132.398564 86.673287 130.132855 87.8843688 129 89.6332454 129 91.382122 129 92.5043735 130.132855 93 132.398564L93 140C88.3333333 139.762929 86 139.54977 86 139.360522z"/>
      </g>
    </g>
    <path fill="#313D3E" fill-rule="nonzero" d="M103.000004,6.99683713 C93.6113934,2.51136108 83.0989766,-1.69197989e-13 72,-1.69197989e-13 C32.235498,-1.69197989e-13 0,32.235498 0,72 C0,111.764502 32.235498,144 72,144 C111.764502,144 144,111.764502 144,72 C144,70.9950499 143.979411,69.9949085 143.938632,68.9999748 L140.935955,69 C140.978507,69.9946903 141,70.9948352 141,72 C141,110.107648 110.107648,141 72,141 C33.8923523,141 3,110.107648 3,72 C3,33.8923523 33.8923523,3 72,3 C83.1484842,3 93.6794335,5.64398106 103.000006,10.3391015 L103,6.99683511 Z" mask="url(#lisbon-illo-b)"/>
  </g>
</svg>
