<?xml version="1.0" encoding="UTF-8"?>
<svg width="145px" height="145px" viewBox="0 0 145 145" version="1.1" xmlns="http://www.w3.org/2000/svg" xmlns:xlink="http://www.w3.org/1999/xlink">
    <!-- Generator: Sketch 42 (36781) - http://www.bohemiancoding.com/sketch -->
    <title>london-art</title>
    <desc>Created with Sketch.</desc>
    <defs></defs>
    <g id="meetups" stroke="none" stroke-width="1" fill="none" fill-rule="evenodd" stroke-linecap="round" stroke-linejoin="round">
        <g id="chapters" transform="translate(-958.000000, -308.000000)" stroke-width="3">
            <g id="meetup" transform="translate(-96.000000, -30.000000)">
                <g id="london-art" transform="translate(1056.000000, 340.000000)">
                    <polygon id="Shape" stroke="#313D3E" points="24.3103448 87.5172414 116.689655 87.5172414 116.689655 77.7931034 24.3103448 77.7931034"></polygon>
                    <path d="M7,65.637931 L7,72.9310345" id="Shape" stroke="#313D3E"></path>
                    <path d="M7,87.5172414 L7,89.9482759" id="Shape" stroke="#313D3E"></path>
                    <path d="M17,87.5172414 L17,89.9482759" id="Shape" stroke="#313D3E"></path>
                    <path d="M7,97.2413793 L7,99.6724138" id="Shape" stroke="#313D3E"></path>
                    <path d="M17,97.2413793 L17,99.6724138" id="Shape" stroke="#313D3E"></path>
                    <path d="M17,65.637931 L17,72.9310345" id="Shape" stroke="#313D3E"></path>
                    <path d="M65,72.9310345 L65,87.5172414" id="Shape" stroke="#313D3E"></path>
                    <path d="M77,72.9310345 L77,87.5172414" id="Shape" stroke="#313D3E"></path>
                    <path d="M46,77.7931034 L46,87.5172414" id="Shape" stroke="#313D3E"></path>
                    <path d="M97,77.7931034 L97,87.5172414" id="Shape" stroke="#313D3E"></path>
                    <path d="M123,65.637931 L123,72.9310345" id="Shape" stroke="#313D3E"></path>
                    <path d="M123,87.5172414 L123,89.9482759" id="Shape" stroke="#313D3E"></path>
                    <path d="M133,87.5172414 L133,89.9482759" id="Shape" stroke="#313D3E"></path>
                    <path d="M123,97.2413793 L123,99.6724138" id="Shape" stroke="#313D3E"></path>
                    <path d="M133,97.2413793 L133,99.6724138" id="Shape" stroke="#313D3E"></path>
                    <path d="M133,65.637931 L133,72.9310345" id="Shape" stroke="#313D3E"></path>
                    <path d="M141,70.5 C141,109.435448 109.435448,141 70.5,141 C31.5645517,141 0,109.435448 0,70.5 C0,31.5645517 31.5645517,0 70.5,0 C109.435448,0 141,31.5645517 141,70.5 L141,70.5 Z" id="Shape" stroke="#313D3E"></path>
                    <path d="M4.30536207,46.1896552 L21.8793103,46.1896552 L14.946,27.1230517 C10.4753276,32.8408448 6.85308621,39.2539138 4.30536207,46.1896552 L4.30536207,46.1896552 Z" id="Shape" stroke="#313D3E"></path>
                    <path d="M119.12069,46.1896552 L136.694638,46.1896552 C134.146914,39.2539138 130.524672,32.8408448 126.054,27.1230517 L119.12069,46.1896552 L119.12069,46.1896552 Z" id="Shape" stroke="#313D3E"></path>
                    <path d="M136.694638,46.1896552 L116.689655,46.1896552 L116.689655,58.3448276 L139.935207,58.3448276 C139.205897,54.1561552 138.126517,50.0890345 136.694638,46.1896552 L136.694638,46.1896552 Z" id="Shape" stroke="#313D3E"></path>
                    <path d="M116.689655,58.3448276 L116.689655,123.734793 C131.574879,110.808983 141,91.7618276 141,70.5 C141,66.3526552 140.620759,62.2952586 139.935207,58.3448276 L116.689655,58.3448276 L116.689655,58.3448276 Z" id="Shape" stroke="#313D3E"></path>
                    <path d="M140.31615,80.2241379 L116.688926,80.2241379 L116.688926,106.965517 L130.84484,106.965517 C135.694753,98.9576897 138.979081,89.9020862 140.31615,80.2241379 L140.31615,80.2241379 Z" id="Shape" stroke="#313D3E"></path>
                    <path d="M77.7931034,109.396552 L77.7931034,116.689655 L99.266431,134.859207 C102.263897,133.517276 105.151966,131.978431 107.908759,130.247534 L77.7931034,109.396552 L77.7931034,109.396552 Z" id="Shape" stroke="#313D3E"></path>
                    <path d="M42.227069,135.083834 L65.637931,116.690628 L65.637931,109.397524 L33.1471552,130.282541 C36.0400862,132.093662 39.0715862,133.700576 42.227069,135.083834 L42.227069,135.083834 Z" id="Shape" stroke="#313D3E"></path>
                    <path d="M1.06576552,58.3448276 L24.3113172,58.3448276 L24.3113172,46.1896552 L4.30633448,46.1896552 C2.87202414,50.0890345 1.79507586,54.1561552 1.06576552,58.3448276 L1.06576552,58.3448276 Z" id="Shape" stroke="#313D3E"></path>
                    <path d="M24.3103448,123.736009 L24.3103448,58.3460431 L1.0647931,58.3460431 C0.379241379,62.2964741 0,66.3514397 0,70.5012155 C0,91.7606121 9.42512069,110.810198 24.3103448,123.736009 L24.3103448,123.736009 Z" id="Shape" stroke="#313D3E"></path>
                    <path d="M10.1539448,106.965517 L24.3098586,106.965517 L24.3098586,80.2241379 L0.682634483,80.2241379 C2.01970345,89.9020862 5.30403103,98.9576897 10.1539448,106.965517 L10.1539448,106.965517 Z" id="Shape" stroke="#313D3E"></path>
                    <path d="M87.5172414,36.4655172 C87.5172414,45.8638966 79.8983793,53.4827586 70.5,53.4827586 C61.1016207,53.4827586 53.4827586,45.8638966 53.4827586,36.4655172 C53.4827586,27.0671379 61.1016207,19.4482759 70.5,19.4482759 C79.8983793,19.4482759 87.5172414,27.0671379 87.5172414,36.4655172 L87.5172414,36.4655172 Z" id="Shape" stroke="#FB6D77"></path>
                </g>
            </g>
        </g>
    </g>
</svg>