<svg width="400" height="192" viewBox="0 0 400 192" version="1.1" xmlns="http://www.w3.org/2000/svg" xmlns:xlink="http://www.w3.org/1999/xlink"><title>meetup-map</title><desc>Created with Sketch.</desc><g id="meetups" stroke="none" stroke-width="1" fill="none" fill-rule="evenodd"><g id="chapters" transform="translate(-250.000000, -1006.000000)" fill-rule="nonzero"><g id="meetup" transform="translate(-96.000000, -30.000000)"><g id="meetup-map" transform="translate(346.000000, 1036.000000)"><g id="global-cdn"><g id="Landing"><g id="Above-the-fold-Tests"><g id="workflow-v2"><g id="global-cdn"><g id="Group" fill-opacity=".211" fill="#BCBCBC"><path d="M164.893983,30.9225866 C164.864445,30.7920189 164.729414,30.762536 164.729414,30.6024854 C165.505842,29.5158261 168.046114,29.461072 166.982745,27.0687367 C167.463793,26.3864158 167.936401,26.0115605 167.468012,25.1397059 C167.852007,24.6679779 168.552479,24.5121391 169.236075,24.3352412 C169.734001,22.797913 170.523089,21.555415 170.683438,19.6811384 C170.117996,18.8514024 168.569359,19.0072412 168.915376,17.2719557 C170.147534,16.5475162 170.936621,18.1353866 171.489405,18.0722087 C171.877619,17.7647431 172.219416,17.4151588 172.130802,16.6275415 C171.742588,16.3200759 171.337495,16.0294577 170.518869,16.1473898 C170.286785,15.0944253 169.539895,14.5595193 168.269759,14.542672 C168.611556,13.2243605 169.674925,12.6220648 170.518869,11.8133881 C170.632801,11.2195162 170.244587,11.1226435 170.35852,10.5287715 C172.012649,10.1117976 174.029676,9.50107826 174.054994,7.95953835 C175.726003,7.43305612 177.57846,7.0876838 178.076387,5.39030514 C176.645902,4.32049328 172.544334,4.48054388 171.485185,5.71040633 C170.826909,5.7820079 170.455573,5.5629913 170.037821,5.39030514 C168.85208,6.29585455 167.164192,7.5552 165.85186,7.79948775 C166.59875,6.82654861 167.273904,5.79043162 168.10519,4.91015336 C167.400497,4.43842529 166.421522,4.23625612 165.69151,3.78558735 C166.088164,3.43600316 166.923668,3.52024032 166.978525,2.82107193 C165.066992,2.56414861 163.345345,0.639329647 161.189069,0.251838735 C158.593941,-0.211465612 156.003034,0.731990518 153.146283,0.0917881427 L152.179968,0.0917881427 C149.922418,2.26089486 143.398732,0.913100391 140.276139,1.69650593 C140.470246,2.0376664 140.883778,2.16402213 140.921756,2.66102134 C140.440708,2.96848696 140.124229,2.4462166 139.955441,2.98533438 C140.132669,3.50760475 141.238235,3.94563794 141.082106,4.26573913 C139.634742,3.61290119 137.765405,2.56414861 135.613348,3.14538497 C135.330628,4.07620553 136.630301,4.26152727 136.419316,4.59005217 C135.191376,4.8764585 134.571077,3.64659605 133.524587,3.46548616 C130.980097,3.02745297 128.186642,4.87224664 125.642151,4.91015336 C125.380529,5.13338182 125.464923,5.70198261 125.156884,5.87466878 C123.485874,6.71282846 121.346477,7.58468301 119.367428,8.43969011 C118.869501,8.65449486 117.738616,8.50286798 117.755495,9.40420553 C117.941163,10.0191368 119.164882,9.60216284 119.848476,9.72430672 C119.882234,10.3813565 120.39282,10.5666783 120.489874,11.1689739 C117.793473,12.4535905 114.012604,12.2050909 112.126389,14.542672 C112.750908,15.519823 114.632903,15.250264 115.502165,15.991551 C115.211004,16.3916775 114.405038,16.2821692 114.3755,16.9518545 C116.573974,20.7509503 123.663103,17.4951842 127.245645,20.0054514 C127.836405,20.4140016 130.77755,24.0235636 130.946339,24.9796553 C131.212182,26.5169835 130.524367,26.8665675 130.461071,28.3533534 C131.144666,29.5368854 133.174351,28.8587763 133.520367,27.8732016 C134.279917,28.454438 134.807382,29.2673265 135.609128,29.8022325 C134.587957,30.3371384 133.537247,30.8636206 132.393702,30.1223336 C132.296649,30.5603668 131.722767,30.5224601 131.752305,31.086849 C132.153178,31.7649581 132.532953,31.5080347 131.912654,32.211415 C132.58781,32.4514909 132.992903,32.9569139 133.845286,33.0158798 C134.600616,32.9147952 134.604836,32.064 135.452999,32.0513644 C135.659766,32.6999905 135.74416,34.1530814 135.452999,34.7806482 C134.731427,34.7048347 134.246159,34.8648854 133.684936,34.9449107 C132.237572,36.5748996 133.102615,38.0532616 133.684936,39.5990134 C134.68501,42.2735431 137.69367,45.3776822 138.832995,47.9469154 C141.039908,47.7447462 145.22165,50.7183178 145.749115,47.6268143 C145.896806,46.7254766 145.428417,46.5612143 145.263848,45.6977835 C146.365195,44.4889802 147.918051,43.7434814 147.517178,41.0394688 C148.939224,39.287336 151.787534,40.0918008 153.471202,38.9503874 C154.821512,38.0364143 154.960763,36.2927052 156.20558,35.4166388 C161.286123,35.1849866 164.543746,33.1380237 167.94906,31.2426878 C167.223269,30.5393074 165.666191,31.3100775 164.893983,30.9225866 Z" id="Shape"/><path d="M0.173008504,98.838792 L0.173008504,99.3189438 C0.843943921,99.702223 1.2701356,98.6450466 2.42633877,98.9988427 C2.60356699,98.489208 2.43899793,98.636623 2.42633877,98.0343273 C1.55285682,98.514479 1.23637784,98.7756143 0.173008504,98.838792 Z" id="Shape"/><path d="M293.574333,10.0486198 C293.502597,10.6003731 293.637628,10.9457455 293.734682,11.3332364 C295.663094,12.2640569 297.954401,13.6286989 300.334323,13.5781566 C300.119117,12.1166419 300.743636,10.7056696 300.650802,9.88856917 C299.553675,9.80012016 298.013477,10.1623399 297.587286,9.40841739 C297.874226,8.52392727 298.393252,8.32596996 298.072554,7.15928538 C295.224242,6.24531225 293.274732,7.85845375 291.160653,8.60816443 C291.084698,9.42526482 291.540427,9.72430672 291.802051,10.2128822 C292.468766,10.2255178 293.127042,10.2423652 293.574333,10.0486198 Z" id="Shape"/><path d="M203.500197,12.942166 C204.441195,14.1425455 206.352728,14.3741976 207.357021,15.5071874 C207.217771,15.7935937 206.913951,15.9157375 207.036322,16.4717028 C208.517445,16.6570245 208.947855,17.8784633 209.935269,18.5607842 C210.939563,16.5138213 211.59362,14.1088506 213.800534,13.2580553 C214.117013,13.5276143 214.547424,13.6918766 214.598061,14.2225707 C214.644477,14.9133154 214.108573,15.0144 214.281582,15.8230766 C215.458883,16.4464316 218.155284,16.2948048 218.459104,15.0228237 C217.366196,14.3447146 215.96103,13.9824948 215.728945,12.4535905 C214.623379,11.8386593 212.526178,12.2219384 212.184381,10.8488727 C213.960883,10.958381 215.669869,12.1166419 217.817707,11.8133881 C219.438079,11.581736 220.543645,9.94753518 222.159798,10.0486198 C220.649138,8.85666403 218.138405,9.03356206 216.049644,8.76400316 C212.838438,8.35124111 211.074595,9.12622293 208.804385,10.0486198 C208.542762,10.3729328 208.821265,11.2405755 208.487906,11.493287 C207.6946,11.4848632 208.673574,10.1791873 208.006858,10.3687209 C207.373901,9.7959083 206.973028,10.8236016 206.399145,10.8488727 C206.403364,9.56004427 204.483392,10.1876111 203.335628,10.0444079 C203.031808,11.1015842 203.871533,11.6449138 203.500197,12.942166 Z" id="Shape"/><path d="M82.048228,10.5329834 C82.6896254,10.6382798 83.1495748,10.9331099 83.6559411,11.1731858 C84.8880993,10.0444079 81.8836589,8.44811384 82.048228,10.5329834 Z" id="Shape"/><path d="M76.9043898,12.942166 C76.8157757,13.565521 77.3094829,13.6034277 77.3854378,14.0667321 C80.1155965,13.6918766 81.4701265,14.6942989 83.1748931,15.3513486 C83.8838061,14.5763668 83.3563411,13.978283 83.0145438,13.1022165 C81.0439347,12.6220648 78.0352746,10.2550008 76.0984234,11.8176 C76.5035164,12.3735653 77.5331281,12.3103874 78.0268352,12.7821154 C77.5078097,12.6852427 77.2799448,12.8874119 76.9043898,12.942166 Z" id="Shape"/><path d="M300.013624,14.7069343 C301.891399,15.0354593 305.136364,14.3699857 306.769395,13.4223178 C306.153317,11.8976253 303.24171,10.9078387 301.946256,11.9776506 C302.77754,13.1443352 300.043162,13.354928 300.013624,14.7069343 Z" id="Shape"/><path d="M72.3977293,14.3826213 C72.5032222,13.5276143 72.325994,12.9505898 71.9124614,12.6220648 C70.3174076,12.8452933 68.2919421,12.6431241 67.7307194,13.9024696 C69.0092944,14.3405028 71.3976557,13.6708174 72.3977293,14.3826213 Z" id="Shape"/><path d="M88.1626017,14.2225707 C87.5423029,13.1274878 85.3691473,12.4241074 84.1369892,12.9379542 C84.4281499,13.8814102 84.9471753,14.5932143 85.5885727,15.1828744 C86.2974857,14.7153581 87.9853734,15.2207811 88.1626017,14.2225707 Z" id="Shape"/><path d="M67.5745897,15.3513486 C68.0725167,17.2551083 70.566371,16.4548553 71.7563319,15.6714497 C71.8702643,15.1281202 71.1613514,15.4103146 71.1107147,15.0312475 C71.5411262,14.925951 71.9293404,14.7743241 72.2415997,14.5510957 C71.199329,13.9024696 69.3131142,14.5721549 68.2202069,14.8754087 C67.8235531,14.420528 65.9964147,13.9277407 66.1272259,15.1955098 C66.6167134,15.5872126 66.772843,15.3218657 67.5745897,15.3513486 Z" id="Shape"/><path d="M90.2555826,15.3513486 C89.6057458,15.0986371 86.6561617,14.7027225 86.3903194,15.8272885 C87.4157113,16.050517 89.8969065,16.3369234 90.2555826,15.3513486 Z" id="Shape"/><path d="M93.7959274,16.4717028 C94.3909078,15.2713234 91.7113859,14.9512221 91.7029465,16.3116521 C92.5764284,16.1895083 92.9477637,16.5685755 93.7959274,16.4717028 Z" id="Shape"/><path d="M59.5275845,19.2009866 C59.6583958,19.5042403 59.7385704,19.8538245 60.0128522,20.0054514 C61.24923,19.4031557 62.7092531,20.4476965 63.8696759,19.5252996 C63.7515238,19.9886039 63.1101265,19.9422735 63.2282785,20.6456538 C63.7726224,21.6354403 65.5280257,21.2142545 66.7686233,21.1300174 C66.4099471,21.7702198 66.8614571,22.2293122 67.089322,22.7347352 C70.203475,23.1432854 71.8111883,20.7804332 74.6468399,21.9302703 C75.4485866,21.496449 76.3431671,21.1637122 77.0605195,20.6456538 C76.9719054,20.0096633 76.9719054,20.165502 77.0605195,19.5252996 C76.2165755,19.0662071 75.1700851,19.6263842 74.1657918,19.5252996 C73.7480395,19.0956902 73.5075155,18.1353866 73.8450931,17.4362182 C72.8197013,17.322498 72.2922363,17.705777 71.2710641,17.5962688 C71.1318134,17.9879716 70.8997288,18.2954371 70.9503654,18.8808854 C71.5073684,19.0704189 72.1994024,19.1335968 72.5580786,19.5252996 C72.2373799,20.0012395 71.3638979,19.9380616 70.790016,20.165502 C68.9586578,17.469913 64.6123466,18.3796744 62.1058331,19.040936 C61.9961205,18.240683 62.5362445,18.0764206 62.9075798,17.7563193 C63.2535968,18.1101154 63.6924477,18.3712506 64.5152931,18.240683 C65.1313721,17.9458529 65.629299,16.6822957 65.1566904,15.8272885 C64.9963411,16.0041866 63.8232591,15.2671115 63.7093266,16.1516016 C60.4559228,15.6293312 60.3546495,18.2575304 57.5991726,18.240683 C57.713105,18.7292585 57.4346036,18.8261312 57.4388232,19.2009866 C57.8987728,19.5084521 59.0423167,19.3820965 59.5275845,19.2009866 Z" id="Shape"/><path d="M249.980409,28.9977675 L249.980409,30.1181217 C251.140831,30.3539857 253.221153,31.027883 254.33094,30.2823842 C253.744399,29.2589028 252.643052,29.2715384 252.394089,28.1975146 C251.790669,25.5566798 255.001876,23.8593011 256.255132,22.5746846 C257.702496,22.3640917 258.297477,21.2984917 259.474778,20.8099162 C260.639421,20.3213407 262.230255,20.283434 263.656521,19.8454008 C264.618617,19.5463588 266.833969,18.8092838 266.876167,17.9163699 C266.981659,15.5156111 262.542515,17.8237091 261.892678,17.9163699 C260.947461,18.0511494 260.05288,17.798438 259.310209,17.9163699 C256.824794,18.3164965 255.541999,20.2497391 253.039706,20.3255525 C252.284376,21.7112538 251.385575,22.9579636 249.980409,23.6992506 C251.187249,25.7672727 247.469676,26.0578909 247.735518,28.6734545 C248.30518,28.9598609 249.410747,28.7071494 249.980409,28.9977675 Z" id="Shape"/><path d="M89.2892669,22.2545835 C89.6901402,21.7997028 90.0867938,21.3363984 89.9348839,20.3255525 C88.9390301,19.5042403 86.0907194,20.519298 85.1075247,19.6853503 C85.1792599,19.0283004 84.9556148,18.6534451 84.7826063,18.240683 C83.6010848,18.0553612 82.7487014,17.4151588 81.7275293,17.5962688 C80.9089038,17.7436838 80.8034107,18.5228775 80.1198161,18.5607842 C78.9382947,18.6281739 78.9593932,17.4741249 77.5500069,17.4362182 C77.1913307,18.5228775 78.6808918,19.0662071 78.9973707,20.0054514 C78.8032636,20.1865612 78.7062101,20.4603321 78.1914043,20.3255525 C78.7863848,22.0945328 80.107157,19.929638 81.731749,20.3255525 C82.1621604,20.6877723 81.5038842,21.1300174 81.8920983,21.4501186 C83.9386623,22.5452016 84.6517949,20.3297644 86.3987589,20.8099162 C86.3354631,21.5427794 86.1329166,21.9302703 86.5591082,22.414634 C87.3819536,22.797913 88.2090186,21.6143811 89.2892669,22.2545835 Z" id="Shape"/><path d="M349.557352,21.1300174 C349.793657,20.7720095 349.962445,20.3550356 349.878051,19.6853503 C348.523521,19.1167494 346.88627,20.0686293 345.852439,19.040936 C344.540105,20.4055779 340.797215,17.528879 341.189649,21.4501186 C343.814314,22.4778119 346.709041,21.1215937 349.557352,21.1300174 Z" id="Shape"/><path d="M355.988205,21.4501186 C355.372125,20.6582893 351.021595,19.9717566 351.000497,21.6143811 C351.823341,22.1956174 355.460741,22.6252269 355.988205,21.4501186 Z" id="Shape"/><path d="M57.2784739,29.6379699 C58.2236911,29.5074024 58.7469363,28.9640727 59.6921535,28.837717 C60.5656355,26.3400854 63.3675293,25.7672727 65.6419581,24.6595542 C65.3465779,23.7245217 64.1650563,23.0253534 63.2282785,22.8947857 C62.6712756,22.8189723 62.0298782,23.2696412 61.4602161,23.214887 C61.0804412,23.181192 60.7766215,22.7263115 60.3293312,22.5746846 C59.0549759,22.1408633 56.43453,22.1703462 55.3458423,22.2545835 C56.6708342,24.3563004 55.2783269,26.3737802 53.8984786,27.5531004 C55.7804734,27.4983462 56.1264905,28.9682846 57.2784739,29.6379699 Z" id="Shape"/><path d="M79.7991174,25.3039684 C79.6218892,25.6072221 79.5965709,26.0621028 79.4784187,26.4285343 C80.6472811,27.4520158 82.8373155,27.4604395 83.6601609,28.837717 C84.5927189,28.7071494 84.9049782,28.2059384 85.9134912,28.5134039 C86.38188,28.0121929 86.8122914,27.0013471 86.3945392,26.1084332 C86.1160377,25.7420016 85.2509952,25.9568063 85.1075247,25.4640189 C85.1919191,24.9080538 86.0696207,25.1439178 85.9092714,24.3394529 C85.3775868,22.7473707 81.2844587,23.3454545 80.7612135,24.6595542 C81.1325488,25.0428332 82.1284027,24.7943336 82.048228,25.6240696 C81.2464813,26.1379162 80.6008641,25.3081802 79.7991174,25.3039684 Z" id="Shape"/><path d="M344.244726,24.8196048 C345.22792,25.1860364 347.498129,25.4008412 348.430687,24.8196048 C348.266118,23.303336 344.375536,23.1769802 344.244726,24.8196048 Z" id="Shape"/><path d="M391.218645,28.837717 C389.644689,28.2017265 387.028462,28.1174893 386.391284,29.6379699 C387.437775,30.4550703 391.14269,30.5098245 391.218645,28.837717 Z" id="Shape"/><path d="M175.350448,38.4702356 C173.535968,37.5773217 172.400864,39.5400475 169.881692,38.9503874 C169.404863,39.1188616 169.409083,39.7632759 168.594677,39.5905898 C168.362593,38.2680664 165.375031,37.952177 165.054333,39.4263273 C165.24,39.4515984 165.231561,39.6832506 165.218902,39.9106909 C165.522722,40.1928854 166.278051,40.0244111 166.826615,40.0707415 C166.510136,40.7699098 165.649313,40.9299605 165.218902,41.5154087 C166.227414,41.6291289 167.113555,41.8734165 167.95328,42.1556111 C167.569285,42.631551 166.860372,42.7747542 166.024868,42.7958134 C170.096898,45.028098 174.485405,42.5178308 177.603778,41.0310451 C176.726076,40.3023937 175.831496,39.5863779 175.350448,38.4702356 Z" id="Shape"/><path d="M188.216374,59.0198893 C187.66359,59.6516679 186.46941,59.6306087 185.958823,60.3087178 C187.153003,61.841834 185.891308,63.4507636 185.317425,64.6427193 C188.326086,64.592177 190.022413,63.2359588 192.879164,63.0380016 C192.554245,62.0524269 192.900262,60.9784032 194.166178,61.1131826 C193.765305,59.9591336 192.208228,59.9591336 191.592149,59.0241011 C191.398041,57.402536 188.971703,56.8929011 188.532853,55.0102008 C188.933726,54.2815494 189.891601,54.117287 189.824087,52.9211193 C189.300841,52.6136538 188.212154,53.2243731 187.570757,52.7568569 C187.66359,52.4241202 187.908334,52.2387984 188.056024,51.9566039 C186.515826,50.4782419 185.676102,52.4704506 184.836377,52.9211193 C185.123319,54.3278798 185.199274,54.9975653 185.317425,56.4548679 C186.777449,56.8170878 187.878795,57.5373154 188.216374,59.0198893 Z" id="Shape"/><path d="M185.157076,60.4645566 C184.435504,58.939864 185.743618,58.6703052 185.317425,57.2509091 C183.351037,56.5348933 182.528192,58.3080854 180.819204,58.379687 C181.35089,59.9633455 180.363476,60.4687684 180.333937,61.9092237 C182.355182,62.7179004 184.376429,61.9471304 185.157076,60.4645566 Z" id="Shape"/><path d="M346.021228,70.101287 C346.468517,69.3220933 347.354658,69.7559146 347.94542,70.101287 C348.312534,68.5808063 346.730141,66.8244616 348.266118,65.7630735 C348.742947,65.8683699 348.915955,66.8034024 349.392783,66.4074878 C349.60799,64.9080664 348.38849,63.5097297 348.105769,61.7491731 C347.93698,60.6372427 348.22814,59.4158039 347.628941,58.3838989 C347.422174,58.3712633 347.405295,58.1775178 347.147893,58.2154245 C345.852439,60.1992095 346.780776,64.3815842 346.502276,67.3677913 C346.202675,68.0416885 345.497982,69.1494071 346.021228,70.101287 Z" id="Shape"/><path d="M341.185429,80.5340585 C340.839411,81.8439462 340.392122,83.0611731 339.261237,83.5876553 C336.336971,83.3812744 334.007686,84.9228143 332.986513,87.1214039 C333.404265,87.833208 333.50132,88.8566893 334.277747,89.2104854 C335.509906,89.1220364 336.125984,86.6917944 335.244063,85.996838 C336.261016,85.6767367 337.729478,84.9522972 338.784409,85.196585 C337.877168,85.6346182 336.425585,85.5251098 336.050029,86.4812016 C336.872876,88.5450119 338.071276,85.6725249 339.430026,86.321151 C340.307728,85.0870766 342.51464,84.4089675 344.253165,84.5563826 C344.489469,82.4336063 346.903149,80.2897707 346.827194,78.1332996 C346.784996,76.9202846 345.801802,76.4232854 345.53596,75.0839146 C345.772264,75.046008 345.806021,74.8227794 346.025447,74.7638134 C346.607768,74.9280759 347.012861,75.2692364 347.63316,75.4040158 C348.266118,74.8733217 349.063645,74.1615178 350.202969,74.599551 C350.152332,73.9635605 350.578525,73.7950861 350.523668,73.150672 C348.515082,72.9105961 347.962298,71.2174293 346.025447,70.9057518 C346.409442,73.2728158 344.881903,73.7319083 344.248945,75.0839146 C344.903002,77.0676996 343.729919,78.3438926 343.772117,80.2181692 C343.202455,80.8710071 341.911221,81.3680063 341.185429,80.5340585 Z" id="Shape"/><path d="M324.783379,96.1095083 C322.6482,94.757502 321.555293,99.6516807 323.171446,100.599349 C323.601857,98.9904189 324.669447,98.0259035 324.783379,96.1095083 Z" id="Shape"/><path d="M4.19440129,99.8033074 C4.54041829,100.258188 5.08476212,100.515111 5.80211446,100.60356 C6.3084808,99.5169011 4.67544933,98.5902926 4.19440129,99.8033074 Z" id="Shape"/><path d="M9.18210986,101.568076 C8.87407032,100.439298 7.1017881,99.8749091 5.96668352,100.439298 C6.6080809,100.868907 7.03005286,100.801518 6.93299931,101.723915 C7.43092622,101.854482 7.84023903,100.991051 7.57439669,101.723915 C8.19047576,101.757609 8.7601379,101.732338 9.18210986,101.568076 Z" id="Shape"/><path d="M9.34245921,102.048228 C8.81921397,102.91587 8.77701677,104.187851 9.34245921,105.101824 C10.0049552,104.748028 10.6463526,104.373173 11.4312204,104.137309 C11.0345668,103.147522 10.3889497,102.397812 9.34245921,102.048228 Z" id="Shape"/><path d="M319.474972,114.734343 C322.082758,115.378757 321.89709,110.412977 324.4669,111.520696 C324.521756,111.899763 324.724302,112.122991 324.627249,112.649473 C325.218009,112.910609 325.787671,113.192803 326.234962,113.609777 C326.323576,114.18259 325.66108,114.009904 325.753914,114.574293 C327.408045,114.136259 328.125397,112.767406 328.808991,111.356433 C328.699279,110.547757 327.213937,110.657265 327.682326,109.751715 C326.846822,109.743292 326.492365,109.494792 325.753914,109.751715 C324.104003,108.585031 324.741181,105.615671 325.753914,104.133097 C323.808624,102.465202 321.960386,104.583766 322.05322,106.862381 C322.35704,107.4731 323.10393,107.633151 323.175666,108.467099 C323.023755,108.795624 322.850747,109.098878 322.698837,109.431614 C322.973118,109.642207 323.327576,109.768563 323.336015,110.236079 C322.703057,110.295045 322.171372,110.459307 321.732521,110.712019 C321.939287,113.020117 320.09949,113.272828 319.474972,114.734343 Z" id="Shape"/><path d="M328.648641,112.805312 C328.53049,114.397394 327.239256,114.827004 325.589345,114.894394 C325.129395,115.395605 324.888871,116.120044 324.46268,116.663374 C325.618883,117.01717 326.015536,115.922087 326.547221,116.17901 C327.028269,116.819213 327.159081,117.825847 327.838455,118.268092 C328.437656,117.636313 328.50939,116.465417 329.610738,116.334849 C329.57698,114.869122 329.703571,113.243345 328.648641,112.805312 Z" id="Shape"/><path d="M278.779995,113.929878 C278.725138,115.374545 278.450857,116.878179 279.096474,117.947991 C279.598621,117.85533 280.147184,117.817423 280.552277,117.627889 C281.455298,115.981053 280.649331,114.110988 278.779995,113.929878 Z" id="Shape"/><path d="M313.525167,120.673063 C313.149612,121.317477 313.234006,122.416772 312.55885,122.766356 C312.208614,122.362017 312.11578,121.709179 311.432185,121.637578 C309.288569,124.013066 311.655831,124.977581 311.913233,127.091934 C314.027314,127.601568 315.909308,128.351279 317.706909,129.181015 C319.458093,127.774255 318.837794,123.992006 321.403383,123.398134 C321.183958,122.016645 320.057293,121.532281 320.272499,119.708547 C320.635394,119.308421 321.424482,119.358963 321.888651,119.064133 C321.610149,117.897448 320.420189,117.640525 320.116369,116.499111 C317.588756,116.916085 316.829207,120.496164 313.525167,120.673063 Z" id="Shape"/><path d="M305.803079,126.13163 C304.516065,122.378865 300.08536,121.780781 298.245562,118.583981 C296.962767,118.794574 296.734902,117.956414 295.675753,117.947991 C294.587065,119.485319 296.658947,119.683276 297.595725,120.513012 C297.899545,120.774147 298.329956,121.389078 298.566261,121.797628 C300.482014,125.095513 302.819738,129.909666 306.609046,130.634106 C307.022578,129.492693 307.204027,128.123839 307.410793,126.776044 C307.085874,126.354858 306.347424,126.342223 305.803079,126.13163 Z" id="Shape"/><path d="M326.070393,125.811529 C326.061954,125.432462 326.344674,125.339801 326.230742,124.847013 C324.952167,124.413192 324.285452,124.750141 323.496364,125.487216 C323.09971,125.24714 322.842308,124.855437 322.20935,124.847013 C320.031975,126.182172 321.854893,128.178593 321.567952,130.301369 C321.956167,130.604623 322.36126,130.903665 323.171446,130.785733 C323.947875,129.69065 322.466752,127.416247 323.496364,127.091934 C323.217862,128.144898 324.547074,128.860914 323.981632,130.14553 C324.720083,130.153954 325.07032,130.55408 325.905824,130.465632 C326.665373,128.818795 324.91419,127.416247 324.302331,126.13163 C324.690545,125.828376 325.348821,125.786258 326.070393,125.811529 Z" id="Shape"/><path d="M347.308242,127.896398 C346.58245,127.546814 345.780703,127.193018 344.894562,126.771832 C344.101255,126.401189 343.156038,125.516699 342.645452,125.487216 C340.957564,125.394555 340.303508,127.593145 338.61984,127.576297 C338.16411,126.754985 338.054396,125.575665 337.657744,124.678539 C336.298994,124.413192 333.792479,124.215235 333.792479,125.807317 C334.606885,126.283257 335.910779,126.262198 336.687207,126.771832 C336.066909,126.792892 335.936097,127.306738 335.564762,127.576297 C337.290628,129.269464 341.413293,128.587143 342.324753,131.105835 C342.236139,131.830274 341.409073,131.805002 341.518787,132.710552 C342.004055,133.237035 343.101181,133.296 343.932466,133.030653 C344.713115,133.856177 346.160479,134.016228 346.991763,134.799634 C347.738653,134.370024 348.131087,133.582407 348.595256,132.874814 C352.232654,132.777942 352.274852,136.273784 356.317343,135.768361 C355.384786,134.167855 352.443641,133.936202 353.097697,131.270097 C352.401443,129.505328 349.852733,129.151532 347.308242,127.896398 Z" id="Shape"/><path d="M357.920836,130.469843 C358.00945,129.762251 358.444082,129.383184 358.401884,128.540813 C357.916617,128.321796 357.828003,128.620838 357.11065,128.540813 C357.195045,130.55408 354.70963,130.002327 353.089258,130.305581 C354.599917,130.566716 356.604284,131.425935 357.920836,130.469843 Z" id="Shape"/><path d="M315.29323,132.238824 C315.913528,132.150375 316.082316,132.52523 316.744813,132.398875 C316.816548,131.783944 316.428334,131.64074 316.259545,131.270097 C312.027166,131.670223 310.077656,131.333275 307.094314,130.469843 C307.022578,131.185859 307.204027,131.64074 307.415012,132.082985 C311.643172,132.028231 313.909161,133.940414 318.192177,133.843542 C317.964312,132.567348 315.972604,133.055925 315.29323,132.238824 Z" id="Shape"/><path d="M318.673225,133.354965 C319.145834,134.58904 321.694543,134.685913 321.572172,132.879026 C320.610076,132.52523 319.49607,133.076984 318.673225,133.354965 Z" id="Shape"/><path d="M326.395311,135.604097 C327.939728,134.959684 329.408192,134.218397 330.897752,133.519229 C329.526343,132.09562 326.234962,133.456051 326.395311,135.604097 Z" id="Shape"/><path d="M321.728302,134.803845 C322.213569,135.06498 322.593345,135.435624 323.496364,135.283997 C323.572319,134.677489 323.179885,134.530075 323.015316,134.159431 C322.323282,134.113101 321.715643,134.155219 321.728302,134.803845 Z" id="Shape"/><path d="M355.988205,148.610315 C355.574672,148.378662 354.8531,148.458688 354.540841,148.130163 C354.258121,145.876819 352.021669,145.60726 351.165066,144.280526 C350.19875,142.785316 349.991983,139.950735 348.261899,139.137847 C348.09311,137.634213 347.523448,135.229243 346.017008,136.08425 C345.400928,138.093306 346.557132,141.871343 345.206822,143.151747 C342.417587,143.155959 341.92388,140.868921 339.421586,140.582514 C339.712746,139.32738 340.776115,138.834593 340.864731,137.368866 C340.088302,136.509648 339.2106,137.419409 338.299141,137.213028 C337.661963,137.065612 337.497394,136.44647 336.847556,136.408563 C335.809505,136.345385 335.058396,137.356231 333.78826,137.213028 C332.978074,137.950102 332.745989,139.276838 332.501245,140.582514 C331.193133,140.388768 330.593932,139.163118 329.441949,139.457947 C328.522051,139.693811 328.82165,141.113208 327.834236,141.707079 C327.032489,142.178808 326.707571,141.622843 325.585125,142.022969 C324.92263,142.920095 324.91419,144.465847 324.45846,145.560929 C321.580611,146.917147 316.997996,146.567564 315.445138,149.250517 C315.681443,150.594099 315.786937,152.666334 315.12022,153.58873 C316.175151,156.174812 317.339793,158.655595 318.023388,161.61232 C317.622515,161.907149 316.812329,161.79343 316.736374,162.416784 C317.052853,163.966747 318.782937,164.114163 320.597417,164.177341 C321.60171,162.892725 324.513317,162.795852 326.543002,163.052775 C328.948242,159.447425 338.649377,158.209139 339.577715,164.01729 C340.771896,163.823544 340.573569,162.227251 341.822606,162.092471 C342.464003,162.256734 342.299434,163.221249 342.312094,164.01729 C343.924027,165.992652 345.282777,168.224936 348.257679,168.839867 C349.063645,168.738783 349.059426,167.816386 349.869612,167.706878 C351.274778,170.394043 352.641967,166.569675 354.85732,167.87114 C355.557794,167.428895 355.072526,166.594947 355.338368,165.62622 C355.781439,164.01729 357.182386,163.124376 357.912397,161.61232 C358.895591,159.565357 359.37242,156.364344 359.039062,153.744569 C358.77322,151.630216 356.473472,151.13743 355.988205,148.610315 Z" id="Shape"/><path d="M245.15727,137.697391 C244.355523,138.539763 243.524238,139.373711 243.233078,140.742565 C242.199246,141.370131 240.376327,141.214293 239.211685,141.707079 C239.228564,143.396034 239.992332,144.347915 240.33835,145.716768 C238.059701,147.51102 238.329764,153.710875 242.266762,152.624215 C245.093974,151.836598 243.254176,145.118684 245.642538,143.471848 C245.532824,142.772679 245.921038,142.566298 245.807107,141.86713 C246.05185,141.576512 246.908454,141.900825 246.773422,141.222716 C246.520239,139.756989 246.267056,138.299687 245.15727,137.697391 Z" id="Shape"/><path d="M384.298303,167.230938 C383.960726,165.756788 381.981677,165.912626 382.049193,164.021503 C381.525948,163.844604 381.095536,163.583469 380.44148,163.54135 C380.610269,165.516711 382.648394,165.609372 382.369892,168.043826 C381.964799,168.212301 381.580804,168.431317 381.243227,168.679816 C382.015436,169.619061 382.293937,171.051093 382.85094,172.209353 C383.89743,171.653389 384.79623,170.933161 384.779352,169.320019 C386.952507,169.269477 387.07066,166.241151 384.298303,167.230938 Z" id="Shape"/><path d="M380.44148,171.724989 C379.85072,171.409101 379.778984,170.566729 378.989897,170.444585 C379.091169,175.043934 373.879816,174.336342 373.841839,178.792487 C374.592948,178.948325 375.301862,179.158919 375.93482,179.436902 C376.787203,178.73352 377.783057,178.177556 378.660759,177.507871 C378.513068,174.302647 381.79601,174.521663 382.044973,171.720778 C381.580804,171.312228 381.125075,171.876616 380.44148,171.724989 Z" id="Shape"/><path d="M349.557352,170.768897 C349.460299,171.152177 349.321048,171.497549 349.392783,172.057726 C350.139673,172.811649 350.608062,173.830919 351.169285,174.778587 C352.042767,174.690138 352.490058,174.685925 353.093477,174.622747 C353.123015,173.237047 354.004936,171.914523 353.574525,170.608848 C352.506937,171.173236 350.249387,171.169025 349.557352,170.768897 Z" id="Shape"/><path d="M394.758989,36.7012553 C394.218865,36.8697297 394.535344,37.8721518 394.113372,38.1459225 C393.607005,37.7794909 394.320138,37.2951273 394.282161,36.8655178 C390.058221,33.7403193 384.171713,31.4322213 377.546752,31.2426878 C376.955992,32.122966 378.264105,32.2956521 378.18815,33.1717186 C376.711248,34.0309375 376.128926,32.8389818 375.614121,31.887102 C373.094949,31.558577 369.373155,33.2896506 368.377302,31.086849 C367.896254,31.4406451 369.090435,31.9797629 368.702221,32.211415 C366.782248,33.3486165 366.942597,31.5333059 365.478355,30.4466466 C364.934011,30.0423083 363.832664,29.5916395 363.068894,29.4821312 C361.587773,29.2715384 360.229023,29.9538593 358.566453,29.8022325 C357.292098,29.6885122 356.346882,28.5976412 355.026109,28.5134039 C354.777145,26.7823304 352.633528,26.9465929 350.844367,26.7528475 C350.105916,26.7444237 351.080671,26.2979668 350.844367,25.7883321 C349.667065,27.443592 345.772264,25.6872475 343.767897,26.588585 C343.447199,27.0771605 343.784776,28.2185739 343.442979,28.6776664 C340.662183,28.0627352 337.328604,29.8317154 336.366508,27.3930497 C335.716672,27.2456347 335.868582,28.3280822 335.400193,27.8774134 C335.007759,26.9844996 334.800993,25.8978403 334.433877,24.9838672 C333.94439,26.647551 335.88968,27.7805407 335.239843,29.6421818 C334.868509,29.8696221 333.699646,30.1349692 333.467561,29.962283 C331.598226,29.4315889 332.708012,25.906264 331.699499,24.5079273 C329.935656,24.3352412 328.403898,23.9435384 326.547221,23.863513 C326.023976,25.3334514 324.77072,26.0747384 323.327576,25.9525944 C322.20513,25.8599336 321.483558,24.6427067 320.112149,24.3478766 C317.639393,23.8129707 315.078024,24.3394529 312.7192,23.8677249 C312.668564,23.3791494 313.229786,23.2443699 312.875329,22.9032095 C311.858378,24.5668933 309.178855,24.5668933 307.406573,25.4724427 C308.368669,23.7329455 312.364744,23.0464126 314.483042,21.7786434 C315.149759,21.3827289 316.04012,20.7593739 316.090757,20.0138751 C316.276424,17.1666593 311.402648,17.0318798 308.533238,17.9247937 C307.828545,17.617328 307.807446,16.6191178 306.760956,16.640177 C307.090094,16.1895083 307.047897,15.9789154 306.921305,15.3555605 C304.942256,14.8417139 303.060262,15.7641107 301.937817,16.640177 C301.904059,17.1413881 302.043309,17.8194972 301.777467,18.0848443 C300.477794,17.886887 299.372227,18.9482751 297.912204,19.2051984 C296.91635,19.3863083 295.768586,19.099902 294.700998,19.2051984 C293.110163,19.3694609 291.076259,20.194985 289.548719,20.3297644 C289.038134,20.3803067 288.455813,20.2160443 288.097136,20.3297644 C286.717288,20.7720095 285.63704,22.5494134 285.362758,23.7034625 C282.430053,23.1517091 278.4171,23.6739794 278.927686,26.2726957 C279.15977,27.3719905 280.425686,27.3593549 281.666283,27.7173629 C279.965737,28.9767083 277.628012,27.1656095 276.522445,26.2726957 C275.9992,26.3442972 275.577228,26.5169835 275.70804,27.2372111 C274.813459,27.0350419 274.678428,27.5910071 274.585594,28.2017265 C274.65733,29.0398861 275.935905,28.6734545 276.357876,29.1662419 C275.357802,29.8401391 274.319752,29.1873011 273.458929,28.8461407 C273.762749,27.7510577 274.94005,26.1673992 273.458929,25.4724427 C273.096033,25.6451289 273.399853,26.4832885 273.29858,26.9171098 C271.247796,27.0561011 271.63179,29.2631146 272.501053,30.4508585 C272.425098,31.3648316 271.517859,31.7565343 271.695086,32.5399399 C272.146596,34.5700553 277.37061,31.9123731 276.041397,35.1091731 C275.501273,34.2499542 274.65733,33.7066245 272.977881,33.9846071 C272.657183,36.9834497 271.441903,39.0851668 267.509125,38.4828711 C268.986026,37.6826182 271.281554,37.3119747 271.526298,35.2734356 C271.602253,34.6711399 271.167621,34.4605471 271.04525,33.8287684 C270.758308,32.2745929 271.538957,29.7348427 270.078934,29.0104032 C270.332117,28.0837944 271.19294,27.7636933 271.526298,26.9213217 C271.02837,25.7125186 269.163254,25.8599336 267.669474,25.640917 C266.82131,27.3088126 265.31487,28.3196585 264.129128,29.6548174 C264.213523,30.640392 265.049028,30.8762562 264.766306,32.2198388 C265.078566,33.306498 266.639862,33.1422356 266.38246,34.789072 C265.040589,34.5405723 264.091152,33.0285154 262.517196,32.5441518 C261.221742,32.1440253 259.765939,32.1777202 258.500023,31.7438989 C257.314281,31.3353486 256.347966,30.3708332 255.280377,30.9436458 C255.010315,31.9966102 256.866992,32.2240506 257.529487,32.8726766 C257.449313,33.4328538 257.457752,34.0856917 257.208789,34.4773944 C256.246693,34.6332332 256.457679,33.6223874 255.761425,33.512879 C253.533413,33.6434466 251.91726,34.3889455 250.296888,35.1175968 C250.195615,34.431064 250.811693,34.4647588 250.777936,33.8329802 C248.212347,33.689777 246.326131,35.5893249 243.697247,35.9178497 C243.224638,36.4316965 243.958869,36.7265265 243.853377,37.362517 C242.692953,37.6868301 241.443916,37.804762 241.118997,36.562264 C241.794153,36.6633486 242.372255,36.090536 242.406012,35.1175968 C241.401719,34.6290213 239.58302,34.2625898 238.713757,34.1530814 C239.059775,35.6230198 239.962795,36.5454165 239.836203,38.4912948 C237.519578,37.4593898 237.055408,39.3505139 234.848494,39.2915479 C234.890692,40.2181566 235.52787,40.5466814 235.65868,41.3806293 C234.131142,41.8734165 233.316736,40.4455968 231.793417,40.4161139 C230.987451,41.5912221 232.877886,42.1850941 232.759733,42.661034 C231.434742,42.7579067 230.730048,42.2230008 229.860786,41.8607811 C230.459986,39.0725312 228.223535,38.9882941 227.290977,37.362517 C230.333395,38.2975494 234.734562,40.6814609 236.781126,37.362517 C236.401352,36.4653913 235.498331,35.0417835 234.367446,34.4731826 C233.941255,34.2583779 233.093091,34.3805217 232.443254,34.1488696 C231.249073,33.7403193 230.291197,32.569423 228.257293,33.3486165 C227.607456,32.5525755 226.012402,32.0260933 225.041866,32.064 C224.611455,31.6175431 225.189557,31.2721707 225.197996,30.7835952 C223.923641,30.1560284 221.944592,29.2420553 220.539426,30.1391811 C219.885369,30.1981471 220.286243,29.2125723 219.56889,29.338928 C218.252337,29.3262926 217.792387,30.5940616 216.518033,30.1391811 C215.551717,30.2192063 215.294314,31.2300521 214.420831,31.5880601 C213.7077,31.8744664 212.846877,31.6386024 212.167501,31.9081612 C211.43327,32.2029913 211.057715,32.9653375 210.399439,33.1927779 C209.92683,33.3570403 209.445782,33.1927779 208.947855,33.3528284 C207.703039,33.7698024 206.62279,34.5110893 205.5763,34.9617581 C205.922316,35.5219352 206.766261,35.5893249 207.665061,35.6019605 C207.070081,36.5791115 206.099545,36.9160601 205.5763,37.8510926 C205.373754,38.2048885 205.462368,38.8198198 205.251381,39.1357091 C204.609984,40.117072 203.209038,40.3782071 203.002271,41.7049423 C200.622348,43.8866846 195.503828,44.6448189 197.373165,50.0486325 C197.537734,50.6930466 197.119982,50.7646482 196.892117,51.0131479 C198.001903,53.7761265 201.934682,52.2430102 203.00649,50.5287842 C204.415877,52.1166545 204.593105,54.9343874 205.901218,56.631766 C207.323264,56.5011984 207.732576,55.3471494 209.281213,55.3471494 C210.217991,53.6539826 209.969028,51.5733249 212.175941,51.0131479 C212.408025,49.2357438 211.618938,48.4649739 210.247529,48.283864 C210.555569,45.3271399 212.517739,44.021464 214.589621,42.8252965 C214.74575,41.6923067 215.332292,41.001562 215.720506,40.0960126 C216.838732,39.9865043 217.648918,39.5568948 218.931713,39.6158609 C218.66165,42.0292553 215.96103,42.307238 215.074889,44.2741755 C215.547497,45.7778087 215.011593,48.2964996 215.876636,49.4084301 C218.252337,49.6906245 219.328366,48.6797787 220.868564,48.1238134 C221.408688,48.4439146 221.893956,48.8103462 222.636626,48.9240664 C223.294902,48.7808633 223.32444,48.0100933 223.602942,47.4793992 C225.096723,48.9998798 222.379224,49.5516332 221.83066,50.5329961 C220.708214,49.7832854 218.227019,50.0065139 217.007521,50.5329961 C216.940005,51.7712822 217.75441,52.1419256 218.134186,52.9421787 C217.779728,53.4981438 218.003374,54.6269217 217.16787,54.7069471 C216.716359,54.2478545 216.619306,53.4307542 216.686822,52.4620269 C214.901879,53.2496443 214.268923,55.182887 213.792094,57.280392 C212.813118,58.2491193 211.125231,57.5078325 209.7707,57.7605438 C208.732649,57.9585011 208.243162,58.8387794 207.352801,58.8893217 C205.816824,57.314087 203.934829,59.6853629 202.690011,58.2449074 C202.799724,56.9097486 204.436976,57.1034941 204.778772,55.9999874 C204.006565,55.0102008 202.774406,54.4668711 202.690011,52.7863399 C201.407217,52.8958482 201.014783,53.8940585 200.115983,54.3952696 C200.056906,56.0589534 200.75738,56.9729265 201.411436,57.9248063 C201.086518,59.5168885 199.580078,58.7124237 198.508269,59.0493723 C197.820455,59.2726008 197.30143,60.3002941 196.579858,60.9784032 C195.086076,62.3809518 193.284257,62.7179004 193.039513,64.8322529 C192.351698,65.4092775 191.376943,65.274498 190.465484,65.6325059 C189.267084,66.1126577 188.56661,67.1192917 186.60444,66.2769202 C185.912407,68.1132902 187.937872,68.5681707 189.3346,68.8461534 C190.2334,69.9496601 190.389529,72.5652237 189.3346,73.5002562 C186.342817,73.9972553 183.540924,72.2703937 181.616731,73.6645186 C181.705345,75.1723636 182.481774,76.2800822 182.258129,77.5183684 C182.131538,78.2343842 181.270715,78.5460616 181.131464,79.2831367 C180.954236,80.2644996 181.612512,80.576177 181.616731,81.6923193 C182.270788,81.8776412 183.194907,82.1598356 183.865842,81.8565818 C184.405966,82.4420301 184.773083,83.1959525 185.313206,83.7814008 C184.102146,84.3963321 183.431211,85.5419573 182.903746,86.8349976 C181.228517,87.1972174 180.519605,88.5239525 180.004799,90.0444332 C180.004799,90.6846356 180.156709,91.177423 180.485847,91.4933122 C179.570168,92.5589122 178.321131,93.2917755 176.789372,93.7424443 C175.839935,94.4542482 175.502358,96.0673898 174.531823,97.5962941 C173.422036,99.3484269 170.902864,101.273246 173.084459,102.894811 C173.236369,104.272089 173.725856,106.087399 172.92411,107.068762 C172.215197,110.501426 174.303958,111.204806 175.662707,113.167532 C177.283079,115.517749 179.713639,119.409505 181.452162,119.750666 C185.579049,120.559342 191.305208,119.476895 194.161959,117.821635 C195.824527,118.040651 196.676911,119.055709 197.537734,120.066555 C198.95978,120.205546 200.567493,120.155004 201.559127,120.710969 C202.099251,122.943254 200.592811,123.815108 200.592811,125.365072 C200.60125,127.972212 204.006565,128.734558 203.812457,131.463842 C205.863241,132.146163 204.715476,136.025284 205.901218,137.566824 C204.799871,139.205236 203.382046,142.039816 203.812457,144.630109 C204.107838,146.420148 205.930757,147.991171 206.386486,149.928626 C206.576374,150.762574 206.373827,151.676547 206.542615,152.497859 C207.289505,156.090574 209.92683,158.331282 210.564008,160.845762 C211.045056,162.728461 210.639963,164.055197 212.171721,164.375297 C213.25197,164.602739 216.11716,164.059409 217.484349,163.890934 C222.742119,163.259156 225.113602,159.48112 227.620115,155.547244 C227.822662,154.586941 227.109529,154.56167 227.134847,153.782475 C229.345981,153.601365 230.822882,149.629584 229.063259,148.003807 C230.611896,144.97127 234.970867,144.592202 235.6629,140.940521 C235.975159,139.243144 235.152314,138.042764 234.852714,136.286419 C234.515137,134.285787 235.101677,132.18407 234.371666,130.183437 C235.869667,128.726134 236.570141,126.767621 237.91201,125.205021 C238.642023,124.358438 239.798226,123.970947 240.642169,123.275991 C243.984187,120.55513 245.916819,117.021382 246.916893,111.878704 C244.6931,111.840797 240.4776,114.233132 238.22849,112.198805 C238.059701,109.608512 235.105897,109.153632 233.886398,107.220389 C233.662753,106.858169 233.666972,106.175848 233.40957,105.615671 C233.173266,105.122884 232.582505,104.693274 232.443254,104.326843 C232.033941,103.311785 232.118336,102.486261 231.641507,101.601771 C231.257513,100.911026 230.578138,100.300307 230.189924,99.5126893 C229.244707,97.5962941 229.088577,95.2713486 227.772025,93.5697581 C227.961912,93.7045375 228.210875,93.7845629 228.582211,93.7340206 C230.527501,90.6003984 227.763586,89.2862989 224.881517,89.3958071 C223.873003,89.4337139 222.851832,90.2086957 222.147139,90.200272 C221.649212,90.1876364 221.176603,89.6527304 220.379076,89.3958071 C219.585769,89.1473074 218.615234,89.282087 217.965397,89.0757059 C216.564449,88.6334609 215.35339,87.1887937 213.142256,88.2754529 C212.783581,88.9156553 213.184454,89.4210783 213.142256,90.2044838 C212.665429,90.5330087 212.070448,90.7436016 211.851022,91.324838 C210.758116,90.8657455 210.475394,89.5937644 208.787506,89.7243321 C208.601839,86.7002182 204.145814,88.6629438 202.837702,86.9950482 C203.31875,85.196585 202.221622,84.1394087 202.360873,82.6610466 C199.668692,82.4041234 196.904776,82.4293944 193.832821,82.8210972 C190.718667,83.2254356 189.17847,86.4096 185.785814,84.4300269 C185.861769,83.4318165 186.456751,82.9516648 186.912479,82.3367336 C189.444312,82.9095462 190.954972,81.439608 192.060538,80.0918134 C192.144933,79.3673739 191.980364,78.891434 191.900189,78.3270451 C192.625981,76.4822514 195.402555,76.6802087 195.275965,73.9930434 C197.309869,73.7950861 199.622276,74.6669407 201.069639,72.7084269 C202.55076,72.8347826 203.529736,73.4665612 203.643668,74.9533471 C205.13323,76.2548111 207.289505,76.878166 208.631376,78.3270451 C208.555421,79.097815 208.74531,79.603238 209.112424,79.9317629 C208.260042,80.9131256 205.462368,79.1399336 205.251381,80.8962783 C205.896998,81.8523699 207.584886,81.7765566 207.985759,82.9853597 C208.449929,80.7320158 210.361462,80.8794308 210.074521,77.8426814 C210.737016,77.9858846 211.770848,78.4281297 212.4882,78.0069438 C209.703186,76.2842941 205.622717,75.0165249 205.892779,70.783608 C208.618717,71.6554625 209.517517,74.3384158 212.327851,75.1176095 C211.686453,78.9588237 215.036911,80.0918134 215.863976,82.9853597 C218.391588,82.1556237 216.319706,79.3378909 216.994862,77.526792 C218.35361,77.707902 219.130039,77.3035636 220.049938,77.0466403 C219.944445,80.576177 221.763144,82.1893186 224.396249,82.9895716 C226.750852,82.741072 228.843833,82.383064 231.15202,82.505208 C231.194218,83.0948679 230.746927,84.5942893 231.312369,85.3945423 C229.400836,86.3422102 231.451621,90.7857202 229.860786,92.3019889 C230.645654,94.4500364 232.312444,96.2021692 233.40535,98.4007588 C234.299931,100.207646 234.202877,101.98505 236.135509,102.57471 C236.688292,104.00253 237.637729,105.034435 238.384619,106.268509 C238.544969,107.578397 238.122997,108.884073 238.384619,109.798046 C240.878473,111.567026 248.00136,108.205964 249.642832,106.268509 C250.351745,106.382229 250.554291,105.994738 251.254765,106.104247 C252.82028,105.101824 253.685323,103.387598 255.601076,102.730549 C255.482924,100.847848 256.575831,100.178163 257.204569,99.0451731 C256.381724,97.8869122 254.748692,97.5331162 253.668444,96.6317787 C253.622027,96.088449 253.795036,95.3303146 253.503875,95.0270609 C251.896162,96.4422451 248.773569,99.285249 247.077242,96.471728 C246.975968,95.852585 246.946431,95.8104664 247.233372,95.347162 C246.840938,94.5090024 246.077168,94.0414861 245.140391,93.7424443 C244.773275,92.8242593 244.642463,91.678634 243.372329,91.6533629 C243.95465,89.5095273 246.845158,90.5498562 247.55829,91.8134134 C247.625806,94.7406545 251.385575,95.3640095 253.668444,94.2225961 C254.111514,94.6859004 254.183249,95.5240601 254.63476,95.9873644 C258.069612,96.058966 260.626762,96.8044648 263.79999,95.9873644 C264.778966,96.4043384 264.711451,97.8658529 265.411923,98.5565976 C266.108177,98.7334957 267.213744,98.4513011 267.985953,98.8766989 C268.310872,99.3989692 267.492245,99.9254514 267.340335,100.481417 C268.133642,101.854482 270.011418,100.620408 271.205599,100.481417 C269.872167,106.255873 273.58552,110.87207 275.226992,115.256613 C278.045764,114.498479 280.421467,111.596509 279.083815,108.189116 C280.5143,105.763086 284.113721,103.846691 286.320634,101.766033 C287.042206,101.10056 287.582331,99.9717818 288.417834,99.8412143 C290.966545,99.4410878 292.456107,101.723915 294.207291,103.054862 C294.013183,104.954409 294.485792,106.196907 295.009038,107.38044 C296.393105,107.612092 296.31715,105.784145 297.097799,105.775722 C298.249782,105.767298 299.245635,109.296835 299.827957,110.273986 C299.692926,110.926824 298.625337,113.761404 298.701292,114.768038 C298.781467,115.732553 299.954548,115.972629 300.473574,117.173009 C300.667681,117.619466 300.51999,118.154372 300.633924,118.457625 C301.452549,120.626732 303.532871,123.086457 305.461283,122.631576 C305.604753,121.047918 303.613045,120.230817 304.659536,118.777727 C303.587728,117.813211 302.634071,116.739187 300.954622,116.368544 C300.089579,114.212073 300.465135,111.554391 300.477794,109.465309 C303.587728,110.160266 304.916938,112.636838 306.1069,115.24819 C307.182928,114.506903 308.102827,113.971997 309.001627,113.159108 C310.373036,111.91661 311.66005,109.979156 310.773909,107.54049 C310.238006,106.049493 307.520506,105.190273 307.398134,103.846691 C307.275762,102.532591 308.942551,101.361695 309.170416,100.472993 C312.301448,100.611984 314.52524,100.009689 316.888283,99.1883763 C318.449579,98.6492585 319.80411,98.6492585 320.749327,97.5836585 C321.403383,96.8423716 322.407676,94.6016633 323.314917,93.5697581 C323.914116,92.9042846 324.686325,92.5167937 324.7665,91.9650403 C324.863553,91.2742957 324.133542,90.436136 323.968973,89.7201202 C323.551221,87.9637755 323.5681,85.5588048 322.196691,84.5816538 C322.559586,83.3939098 323.968973,83.2464948 324.926849,82.652623 C325.21379,80.6898972 326.43329,79.6622039 327.500878,78.478672 C328.433435,79.0514846 327.32365,80.1381438 327.661228,80.8878545 C328.053662,81.405913 329.184546,81.1826846 329.754208,81.5280569 C329.682473,82.6778941 329.041076,84.2699763 329.754208,85.2176443 C329.939876,85.1923731 330.032709,85.2513391 330.074907,85.3776948 C331.636203,85.4366609 332.44639,84.7543399 333.129984,83.9288158 C333.535077,81.0142102 331.741697,80.2939826 331.197352,78.3144095 C331.876727,78.1332996 332.353555,77.7584443 333.129984,77.6699952 C333.826238,77.202479 333.518198,76.2800822 333.931731,75.7451763 C334.716599,74.7427542 335.801066,75.071279 337.472075,74.6206102 C338.851923,74.2457549 340.438538,72.6536727 341.653817,70.9268111 C342.717187,69.4147542 344.244726,67.3677913 344.708894,66.1126577 C345.143526,64.9417612 344.987396,63.8972206 345.189942,63.0590609 C345.37983,62.3009265 346.080304,61.2648095 346.000129,60.4940395 C345.814461,58.8472032 343.742578,58.0343146 341.809947,58.8893217 C341.075716,58.5523731 340.653744,57.9121707 339.725405,57.7605438 C340.518713,56.395902 341.92388,55.8146657 343.26575,54.5511083 C344.248945,53.6160759 345.274338,51.7249518 346.481177,51.1816221 C347.970738,50.5119367 349.878051,50.9541818 352.110283,50.6972585 C352.266413,51.4932996 351.679871,51.5522657 351.633455,52.1419256 C352.435201,52.0913835 352.249534,51.0384189 352.595551,50.537208 C354.958593,49.0630577 357.562161,51.9776633 360.317637,50.537208 C360.773367,47.7826529 362.727097,46.5233074 365.786393,46.3632569 C366.280102,46.8728917 365.516332,47.0371542 365.626044,47.6520854 C367.288614,48.4439146 368.263369,46.8981629 368.849911,46.6875699 C367.845617,48.1196016 365.53743,50.8488854 367.879374,48.4523384 C368.385741,47.9384917 368.820372,47.6857802 369.01026,47.1677217 C369.335179,46.4727653 368.925866,45.0533692 370.297275,45.4029534 C370.913353,47.2224759 369.14951,47.8837375 367.883595,49.0967525 C366.816005,50.1286577 366.178828,51.3753675 365.318006,51.8260364 C364.820078,52.0871716 364.166021,52.0155699 363.706072,52.3061881 C360.617238,54.2689139 360.980133,59.175728 361.77344,63.5434245 C364.499379,62.995883 365.84969,61.0879115 366.60502,58.5692206 C367.162023,58.2154245 367.980648,58.1185518 368.537652,57.7647557 C368.411059,55.448234 371.132779,53.4139067 368.537652,52.3061881 C369.723392,50.3224032 370.567336,49.8506751 373.035872,49.2568032 C373.419867,49.1683542 373.8334,48.8019225 374.162538,48.7724395 C375.310301,48.6671431 376.183783,49.471608 377.221834,49.4126419 C378.378037,49.3536759 379.382331,47.7489581 380.601829,47.0034593 C382.534461,45.828351 384.268766,45.1418182 386.547414,45.7230545 C387.994778,44.4552854 386.783718,41.8144506 385.10427,41.7091542 C386.049487,41.1574008 387.6572,41.2669091 388.800744,40.9046893 C389.277572,40.352936 388.134029,39.3842087 388.480045,38.9798703 C389.758621,39.5274119 390.691179,40.411902 392.501439,40.4245375 C393.100639,41.4353835 394.176667,41.9576538 395.235817,42.5136189 C396.349824,42.336721 396.332944,41.0394688 396.839311,40.264487 C397.733891,40.028623 398.65379,39.8222419 399.577909,39.6200727 L399.577909,39.139921 C398.214939,38.0658972 396.657862,37.215102 394.758989,36.7012553 Z" id="Shape"/><path d="M152.665235,129.665379 C150.441443,130.111835 149.778947,127.538391 148.162795,127.096145 C146.943296,126.763409 145.597205,127.407823 144.466321,126.455943 C143.563301,126.413824 143.554862,127.260408 142.694038,127.260408 C142.710917,126.839222 143.322777,127.024544 143.335436,126.611782 C142.702478,125.782046 140.921756,124.678539 139.638962,124.851225 C138.588252,124.990217 138.592471,126.055817 137.5502,126.135842 C137.959513,125.584089 138.845654,125.504063 138.997564,124.686963 C138.584032,124.135209 137.681011,124.076243 137.064933,123.722447 C137.322335,122.340958 136.723134,121.8229 135.938268,121.477527 C135.777918,120.84996 136.296943,120.538283 135.938268,120.192911 C135.140741,118.954624 134.10269,117.750033 132.402141,117.463627 C130.62986,117.168797 128.874456,117.754245 127.739352,116.499111 C128.190862,115.265037 126.675983,114.835428 125.80672,114.41003 C125.317233,114.405818 124.988095,114.557445 124.840404,114.894394 C124.464849,114.557445 125.452264,114.220496 125.325672,113.605565 C125.131565,113.0496 124.059756,113.373913 123.55761,113.125413 C123.439458,112.636838 123.722179,112.539965 123.717959,112.160898 C122.519559,111.659687 121.481508,112.417821 120.823231,112.956939 C119.93709,112.308313 118.962335,112.784253 117.928504,112.480999 C116.582413,112.085085 115.586559,110.257138 113.907111,112.005059 C113.303691,112.830583 114.400818,113.576082 113.742542,114.085717 C112.388012,113.462362 113.755201,111.204806 114.548508,110.712019 C113.590632,110.004427 112.809984,111.293255 111.81413,111.676534 C111.037702,111.975576 110.168439,111.697594 109.5608,112.156686 C108.687318,112.826372 108.80125,114.249979 107.953087,114.88597 C106.813762,113.635048 104.172218,113.546599 102.809248,114.565869 C100.024234,113.668743 100.07065,110.754137 100.716268,107.498372 C99.6149207,106.205331 96.6611169,106.980313 94.9225924,106.698119 C95.2348517,106.091611 95.5555504,105.510375 95.4036405,104.448987 C96.344638,103.509742 96.450131,101.740762 97.0155735,100.435086 C95.922666,99.6348332 93.8381245,100.426663 92.8338313,100.763611 C92.4456172,101.382754 92.5637692,102.519956 92.0320846,103.008531 C90.386394,103.661369 88.445323,104.027801 86.8840267,103.16437 C85.5759136,101.370119 84.1116709,97.6889549 85.7573615,95.2966198 C85.6856262,94.5679684 85.4662009,93.9783083 85.4324431,93.2075384 C86.7574351,92.5757597 87.3524155,91.2785074 88.9727878,90.9584063 C91.2345575,90.5161612 93.7832682,92.478887 94.7664629,90.1581534 C97.3700299,89.5432221 98.2519513,91.4259225 100.07487,90.6383052 C101.505355,92.2051162 101.522234,95.1913234 103.294516,96.4211857 C106.25254,94.462672 102.349299,91.6912696 102.973818,88.5534356 C104.805176,86.6917944 107.142901,85.3313644 109.088191,83.5750198 C108.742174,81.8355225 107.488918,81.3553707 107.957306,79.8854325 C108.65356,79.2705011 108.185171,80.845736 108.763273,80.8499479 C111.037702,79.6369328 110.704344,75.8294134 114.717297,76.3516838 C115.177247,75.5556427 114.594925,74.5953391 114.717297,73.6266119 C115.632976,72.7673929 117.476994,72.8474182 118.578341,72.1819447 C118.928577,70.8931162 117.489653,69.5200506 117.936943,68.1680443 C119.33367,67.6373503 121.118612,67.4899352 121.633418,66.0789629 C118.683834,65.0259984 116.189979,67.1614102 114.717297,68.6481961 C114.852328,65.838887 118.147929,66.1842593 119.059389,64.1541438 C121.793767,63.7413818 123.789694,64.6890497 125.81516,64.3141944 C127.46929,64.0067289 128.633932,61.9429186 131.123566,62.0692744 C130.908361,60.8983779 130.659398,60.4603447 130.642519,59.3399905 C130.355578,58.6787289 129.604468,59.4284395 129.195155,59.0156775 C129.047465,58.2364838 128.296355,58.5102545 128.874456,57.7310609 C128.114907,57.4699256 127.587442,56.985562 126.460777,57.0908585 C126.009267,56.2611225 124.90792,56.0715889 124.367796,55.3260902 C124.718033,53.0306277 122.308573,51.1942577 121.308499,49.2273202 C119.953969,49.3705234 119.7894,50.7056822 119.215518,51.6322909 C118.519265,51.6870451 117.898966,51.8218245 117.287106,51.952392 C116.877794,51.1816221 116.135123,50.7520126 115.675174,50.0233612 C115.569681,49.2188965 115.772227,48.7261091 116.000092,48.2585929 C114.683539,47.9342798 113.126463,46.0178846 111.333082,45.5250972 C110.717003,45.3608347 109.55658,45.6346056 108.602923,45.5250972 C107.573312,45.411377 106.666072,44.7964458 106.185024,46.0094609 C107.066946,48.0269407 107.104923,50.0191494 105.543627,51.3079779 C106.969892,52.5546878 108.767492,54.0077787 107.311689,56.4464443 C106.784224,57.0403162 105.379058,56.7623336 104.73766,57.2466972 C105.379058,59.0409486 106.737807,62.5452143 104.096263,62.3809518 C102.366178,62.2798672 101.471597,59.3694735 102.163631,57.2466972 C101.176217,56.2653343 99.6444587,56.8170878 98.467157,56.6064948 C96.3066605,56.2190039 95.0238658,54.5174134 93.4752287,53.7129486 C92.2599494,53.4518134 91.3949069,54.2604902 90.74507,54.0372616 C90.6100391,52.2977644 89.512912,51.5185707 88.3313904,50.8236143 C88.1415031,47.1550861 90.3357572,45.8662577 92.673482,44.7248443 C92.8127327,44.0888538 92.4329579,43.5371004 92.673482,43.280177 C94.0026937,42.9727115 96.0323788,42.631551 96.6990945,41.1910957 C96.9733762,40.3824189 95.9479843,40.3824189 96.3783958,39.9106909 C97.1168467,39.5779542 97.8595174,39.2536412 97.986109,38.3059731 C100.231,37.9479653 102.03282,38.8661503 103.134167,37.1814071 C103.151046,36.2000443 102.48433,35.9052143 102.3282,35.0923256 C103.821981,34.4184284 101.547552,32.7547447 102.653119,31.5627889 C103.526601,31.9629154 104.488697,32.034517 105.066798,32.3630419 C105.391717,32.2072032 105.417035,31.7481107 105.387497,31.2384759 C106.294737,31.5670008 106.421328,32.6662957 107.961526,32.3630419 C108.134535,33.0664221 107.421402,32.8895241 107.480478,33.487608 C108.096557,33.8329802 109.079752,33.811921 109.40889,34.4521234 C109.231662,34.8648854 108.543847,34.7680126 107.961526,34.7722245 C107.623949,35.2944948 107.341227,35.8673074 107.320129,36.7012553 C107.324348,37.2361612 108.227368,36.8697297 108.442574,37.1856189 C109.480625,36.4190609 109.214783,34.4984538 111.016603,34.9406989 C112.784666,35.3703083 112.193905,38.8113961 109.569239,38.4702356 C109.451087,39.2999716 111.003944,39.0851668 110.375206,39.9149028 C109.265419,40.8415115 106.155486,39.7674878 106.189244,41.8397217 C107.45094,42.9348048 109.354033,41.9323826 110.856254,42.3240854 C112.409111,42.7242119 113.126463,44.5690056 114.232029,45.2134198 C116.607732,45.0996996 117.928504,46.8602562 119.861135,46.658087 C119.18176,45.2471146 117.633123,44.7079968 117.126757,43.1285503 C118.055095,43.2422703 118.74291,44.9228016 120.186054,45.0575811 C120.747277,44.9733438 120.506753,44.0930657 121.308499,44.257328 C121.346477,41.148977 117.68376,40.9383842 117.612025,38.4744475 C120.051023,37.6615588 120.371721,40.3108174 121.958336,40.8794182 C122.983728,39.8769961 123.979582,38.8324553 125.009193,37.8300332 C124.063976,36.0989597 120.797913,36.684408 119.705006,35.1007494 C118.371574,35.1555035 117.329304,34.9238514 116.810278,33.8161328 C117.451675,33.1211763 118.747129,33.0748458 119.059389,32.0471525 C118.396893,31.3100775 117.114098,30.5393074 115.843962,30.9267984 C115.472627,30.1728759 115.050655,29.4652838 114.556948,28.837717 C112.451308,28.3154466 110.050287,28.0880063 109.248541,26.2684838 L108.121875,26.2684838 C108.261126,25.5693154 107.775858,25.1776126 108.282225,24.9838672 C105.670218,24.1372838 100.640313,23.3749375 98.631726,25.1481297 C98.87225,26.706517 98.8089542,27.0645249 98.3110273,28.3575653 C96.2475845,26.8749913 97.4417652,24.6721898 99.4376925,24.0193518 C98.2941485,23.6444965 96.4754493,23.5307763 95.2559503,24.1836143 C93.5089864,25.1144347 91.8928339,30.1391811 95.4162997,29.4821312 C95.4500574,30.1012744 94.4120065,29.6548174 94.1292853,29.962283 C94.8213193,31.4153739 97.6569709,30.7246293 98.3152471,32.211415 C98.0662837,34.2036237 97.3658101,37.1350766 95.4162997,36.3895779 C95.3150264,35.4798165 95.7707561,35.1302325 96.0619169,34.6205976 C95.5133532,32.9611256 93.6018203,33.2685913 92.8464905,34.4605471 C92.8633694,33.1548711 92.2979269,32.4388553 91.2387773,32.211415 C91.5932337,29.5621566 90.0108389,28.8335052 88.985447,27.5573122 C89.2386303,27.060313 89.4622753,26.5338308 89.7871938,26.1126451 C91.5257183,26.5169835 92.6777016,25.2113074 93.3275386,24.0193518 C91.740924,22.5746846 87.2975591,22.7852775 86.5717674,24.8238165 C86.8840267,26.2684838 88.0444496,26.7149407 87.6984325,27.8774134 C87.3819536,28.9303779 85.4240037,29.2125723 85.6054516,30.9310102 C86.2257504,32.0176696 88.023351,31.9418562 88.9812272,32.6957787 C89.4875937,34.0435731 88.5254976,34.4858182 87.6942128,34.9449107 C87.4621283,35.5724775 87.6984325,36.6633486 86.8882463,36.7054672 C86.4789335,36.0568412 86.5506688,34.8733091 86.246849,34.4605471 C87.0485957,34.3552506 87.6266972,34.0225139 87.8503424,33.3359811 C86.9051252,32.8347699 85.9050517,32.3925249 85.1201839,31.7312633 C84.5800597,32.746321 83.0398621,32.7589566 82.5461549,33.8203447 C82.9048311,34.372098 83.9344427,34.254166 84.6391359,34.4605471 C84.4281499,35.0502071 84.1032314,35.5303588 83.67282,35.9052143 C80.5038106,35.8336126 78.2673592,36.0779004 76.5921305,34.1404458 C77.4065365,33.8329802 79.368706,35.0459952 80.2928247,34.1404458 C80.4911514,33.3275573 79.6007906,33.0200917 79.972126,32.535728 C80.4742725,32.2872284 81.4827855,32.5441518 81.5798391,31.8913139 C81.5249827,30.5519431 79.7527005,30.9352221 78.6808918,30.6109091 C77.6723788,29.6379699 77.8327281,27.4941343 76.7524799,26.5927968 C78.2125028,25.5019256 77.7398942,23.5392 75.3051161,23.8677249 C74.7649919,24.2173091 75.5161021,24.6048 75.4654655,24.9922909 C74.554006,24.9080538 74.4442932,24.9080538 73.5328339,24.9922909 C73.1741577,25.7209423 74.0096621,27.3719905 74.0138819,27.7215747 C73.0095886,27.0645249 72.8745575,25.5398325 71.4440726,25.312392 C71.3470191,26.1210688 70.912388,26.6054325 70.3174076,26.9171098 C70.2920891,25.1186466 67.9965617,25.6072221 67.1019811,26.2769074 C67.2074742,25.7925438 67.7180602,25.7167304 67.5830291,24.9922909 C65.447851,24.9206893 59.1520294,27.4646514 63.0805884,28.8503525 C63.4688025,29.2841739 62.5826615,29.4189534 62.7598897,30.1307573 C64.080662,31.5164585 67.2201333,30.0928506 69.0346128,30.9352221 C67.3509447,31.6428143 63.9076534,30.2065707 63.7219858,31.8955256 C63.5109998,33.9045818 67.7771363,31.975551 67.5872489,34.4647588 C70.5241737,34.9449107 73.2923099,34.1278102 75.3093358,33.1801423 C75.8663388,33.2096253 75.9211951,33.7487431 76.436001,33.8245566 C75.6384739,33.8624633 73.7944564,34.0140902 73.2163548,34.7848601 C73.8872903,35.8251889 73.3091887,36.296917 74.1826707,37.1940427 C73.3682648,37.4636016 73.153059,35.766223 72.2500391,35.5893249 C70.6127878,36.0947479 68.1526914,35.7788585 66.2960147,36.0694766 C66.2200597,35.4040032 67.2243531,35.820977 67.2623304,35.2692237 C67.3003079,34.5363605 66.9922685,34.1446577 66.7812824,33.6602941 C64.5237325,33.5549976 62.3716754,33.6560822 60.5065594,32.8600412 C58.827111,32.1398134 58.2658883,30.7793835 56.8100851,32.6999905 C56.0083383,32.7505328 56.3248172,31.6849328 55.6792002,31.5754245 C54.7804,31.5838482 55.1348564,32.8474056 54.2318363,32.8600412 C53.2908389,32.3504063 52.957481,31.2468996 52.3034245,30.4508585 C51.4468214,30.4508585 51.889892,31.7523225 51.1809791,31.8955256 C50.1260492,32.0429407 49.5437278,31.7102039 48.9234291,31.4153739 C47.2482004,31.6765091 46.4633325,33.2138371 44.741687,32.5399399 C43.6909767,32.6283889 43.3533992,33.7908616 42.3280073,33.8245566 C41.6612916,33.8414039 40.9354999,32.9147952 39.9185475,32.5399399 C38.0787497,31.8660427 36.7453183,32.240898 35.5722363,31.2553234 C34.9055206,30.9815525 34.4540105,31.7354751 33.8041737,31.739687 C33.1205792,31.739687 32.6606298,31.1036965 31.8715421,30.939434 C31.2807815,30.8130783 30.5127925,31.027883 29.7785612,30.939434 C28.1328706,30.7162056 27.4155182,30.0170371 25.9090784,30.6024854 C25.1368697,30.7288412 25.4828866,29.7432664 24.9427626,29.6379699 C23.356148,30.2192063 22.1535279,29.2841739 20.9213697,29.1578182 C18.3515606,28.8882593 17.0476672,30.7583241 14.6466468,31.0826371 C13.7309676,32.893736 11.5324937,33.4328538 9.50280855,34.1320221 C10.6758906,35.6356553 12.8490462,36.1410783 14.0052494,37.6657707 C14.8787314,37.6994657 15.756433,37.7415842 16.2585797,38.1459225 C15.7606528,38.7692775 14.5749115,38.7145234 13.6803309,38.9503874 C12.2414066,36.9623905 9.79396921,39.0556838 8.05544472,39.5905898 C8.75169846,42.2693312 13.6423535,42.1345518 15.7775316,41.5196206 C16.0602528,41.8228744 15.8956838,42.5810087 15.937881,43.1243384 C14.5158355,43.2127874 14.1191818,44.4005312 12.5578855,43.9245913 C11.7434797,44.9817675 10.1526454,45.2681739 10.1484257,47.1340269 C10.6632314,47.4204332 11.6886233,47.2056284 11.9164882,47.7784412 C11.7941163,48.3470419 11.0345668,48.283864 10.6336934,48.5786941 C11.0683245,50.3897929 13.4988831,49.3199811 14.6508664,49.3789471 C14.8956102,50.3518861 14.0432269,51.657562 15.4568329,51.9481802 C16.2248219,51.9102735 16.3471938,51.2321644 16.7438473,50.8236143 C17.5540335,51.7333755 18.5625465,51.8218245 19.9592737,51.4680284 C20.5584739,51.6533503 18.9043438,52.1798325 19.4782256,53.3970593 C18.2967042,54.0372616 17.2375546,54.799608 16.4231486,55.8062419 C13.4144886,56.4422325 11.3426063,58.0090434 9.18210986,59.4958293 C9.97963686,60.0096759 11.7814571,58.9230165 12.4017559,58.2070008 C17.4232222,57.1203415 20.6850655,54.2773375 24.1452356,51.628079 C24.1789934,51.1689866 24.1030383,50.8151905 23.8203172,50.6635636 C25.1115514,49.5432095 25.7318501,47.7531699 27.84171,47.4499162 C26.9260307,47.9300679 26.2255573,48.6166008 25.7529487,49.5432095 C25.8795403,50.0570562 26.0905263,50.4908775 26.3943461,50.8236143 C27.6687014,50.1581407 28.352296,49.6779889 30.0950403,49.7032601 C30.4959136,49.1809898 29.9811077,48.5113043 29.9346909,47.9384917 C32.0909676,47.7363225 33.2682693,49.6864126 35.2430982,49.7032601 C35.8802758,49.707472 36.3613238,49.290498 36.8508113,49.2231083 C37.0491381,49.1978371 37.201048,49.5516332 37.4922086,49.5474213 C38.0070145,49.5305739 37.77493,49.1220237 38.133606,49.2231083 C40.091556,49.7622261 41.0916295,53.051687 43.9272811,51.9481802 C44.5686785,52.8621534 45.674245,53.3128221 45.8599127,54.677464 C47.4591863,55.4566577 48.429722,57.6257644 49.0795588,59.8159304 C49.6450011,59.8875321 50.0036773,60.1739384 50.6830522,60.1360316 C50.8729395,60.9657675 51.01641,61.8376221 52.2907653,61.5806989 C51.6746862,62.2714434 52.5861457,63.290713 53.2570812,63.6697802 C53.0460951,64.1288727 51.9827259,63.2528063 51.6493679,63.8298308 C51.6493679,64.9586087 52.8182303,64.9080664 53.4174305,65.4345486 C54.3077914,65.7757091 54.552535,66.7612838 55.8311101,66.7191653 C55.5399494,68.1680443 57.021071,72.4894102 55.5061917,74.2668143 C55.8817467,75.0754909 56.2573018,76.2632347 55.666541,77.1603605 C55.8859665,78.1164521 56.6666146,78.5123668 56.6328569,79.7253818 C57.0463893,80.1212965 57.1940796,80.7741343 57.9198713,80.8541597 C58.1688347,82.4967842 59.7849874,83.5034182 59.5275845,84.7080095 C64.0004873,85.6261944 64.274769,89.9981028 66.9289727,92.8958609 C66.5576374,92.8453186 66.3128936,92.9211321 66.1272259,93.0559115 C66.4141669,94.374223 68.1737899,94.2225961 68.8573845,95.1449929 C68.6928155,97.5078451 70.8322133,97.5625992 71.7563319,98.838792 C72.7142082,98.4260301 72.1023489,96.9603035 71.1107147,97.0740237 C70.4524385,93.3423178 66.9964881,92.4072854 66.4479246,88.5618593 C66.8319191,88.8229944 67.4775362,88.8229944 67.8995082,89.046223 C68.6252999,91.4722529 70.085323,93.1780553 72.0770306,94.3447399 L72.0770306,95.3092553 C73.7522593,96.7370751 75.1827441,98.4176063 76.5794714,100.123409 C76.6132292,100.649891 76.1659389,100.91945 76.2587728,101.892389 C77.2419673,103.568708 78.5374213,103.787725 80.4405148,104.621673 C82.2170168,105.396655 84.2382625,106.727602 86.0696207,106.866593 C86.8249505,106.925559 87.8208045,106.4075 88.6436497,106.546492 C90.0023995,106.76972 90.685994,108.391285 91.5383773,108.955674 C93.559623,108.698751 94.0702091,109.958096 96.0450379,109.751715 C96.6526775,110.968942 97.7413652,111.701806 97.9776696,113.289676 C99.340639,113.744557 100.311174,114.599564 101.036966,115.698858 C101.939986,115.06708 102.737513,115.989477 104.092043,116.174798 C104.640607,116.082137 104.180657,114.982843 104.573091,114.730131 C107.286371,114.77225 107.396084,118.503956 106.826421,120.828901 C106.429768,121.132155 105.936061,121.330112 105.539407,121.633366 C105.252466,123.326533 103.961232,124.017278 103.125727,125.162903 L103.125727,126.931883 C103.805102,127.458365 104.526674,126.333799 104.89379,126.603358 C104.404302,127.723712 102.927401,127.85428 102.64046,129.176803 C104.4465,132.723188 107.007869,135.519861 108.109216,139.773837 C110.092485,141.702868 112.881719,142.823222 114.864987,144.752253 C115.417771,146.319064 114.746835,147.586834 114.544289,148.930416 C114.282666,150.632007 114.907185,152.485224 114.37972,154.22472 C114.113877,155.126058 113.345888,156.928734 113.253054,158.398672 C113.202418,159.241043 113.489359,159.994965 113.413404,160.807855 C113.181319,163.225461 111.944941,165.213457 111.164293,167.066674 C111.51453,170.044458 110.75498,171.944007 110.358327,174.930213 C111.940722,175.123959 111.054581,172.845343 111.96604,172.365192 C112.143268,174.184715 111.586265,175.709407 111.324643,177.66792 C110.843595,177.659498 110.345668,177.680557 110.358327,177.183557 C109.805544,177.549988 109.159926,177.811125 108.910963,178.468174 C108.970039,179.318969 109.417329,179.786485 110.518676,179.596952 C110.679026,180.245578 110.029189,180.713094 110.839375,180.717306 C110.695904,181.218517 109.71271,180.881568 109.392011,181.20167 C109.392011,183.168607 111.392158,184.844926 110.518676,186.184298 C110.700124,186.639178 111.223369,186.765534 110.999724,187.628965 C111.725516,188.243896 112.594778,188.711411 113.573753,189.06942 C114.468334,189.38952 114.054801,187.864829 114.700418,188.43343 C115.206785,189.111539 114.801692,189.372674 114.3755,189.873884 C115.105511,190.488816 115.839743,191.091111 116.62883,191.642865 L117.109878,191.642865 C118.109952,191.086899 120.013045,191.436484 120.650223,190.522511 C119.384307,189.958121 117.882087,189.642233 117.274447,188.43343 C117.190053,187.174084 116.869354,186.163238 116.147782,185.539883 C116.261715,184.533249 116.721664,183.871988 117.755495,183.775115 C117.586706,181.462805 119.987727,181.719728 120.008826,179.601164 C119.654369,178.939903 118.249202,179.318969 118.076194,178.472386 C117.996019,177.966963 118.367355,177.912209 118.240763,177.352032 C118.937017,177.027719 119.776741,176.846609 120.329524,176.387516 C120.375941,175.359823 120.781034,174.690138 120.975141,173.814071 C121.59122,173.83513 122.253716,173.910943 122.262156,173.33392 C122.245277,172.660022 121.397113,172.803225 120.814792,172.693717 C120.924505,172.057726 120.658662,171.779743 120.650223,171.24905 C121.654516,171.771321 122.287474,171.901888 123.54917,171.564939 C123.70952,170.655178 123.616686,169.715934 123.869869,168.84408 C126.216033,168.919893 129.313307,168.671393 129.663544,166.75921 C129.832333,165.836812 129.347065,163.840392 128.21618,163.381299 C128.97573,163.052775 130.191009,164.025714 131.275476,163.857239 C133.549906,163.520291 134.330553,160.31928 135.45722,158.727197 C137.301237,158.638747 137.242161,156.659175 138.672646,156.157964 C138.799237,154.911254 138.423683,154.15312 138.512297,152.940104 C139.073519,151.954529 140.449148,151.77342 140.925976,150.695184 C141.415463,150.581464 141.512517,150.859447 141.892292,150.855234 C142.854388,150.48038 143.170867,149.452686 144.787019,149.73488 C148.39066,148.029079 149.141769,143.480272 149.293679,138.333382 C149.783167,138.447103 149.88022,138.16912 150.259995,138.173331 C150.728384,135.465107 154.568329,134.728032 153.475421,130.785733 C153.323511,130.271886 153.023912,130.229767 152.665235,129.665379 Z" id="Shape"/><path d="M88.4875201,11.9776506 C88.7153849,11.6154308 89.7407768,11.2026688 90.2555826,11.6533376 C89.7449966,11.6828206 89.2892669,11.7670577 89.2892669,12.2977518 L89.2892669,13.0980048 C90.521425,13.4054703 91.5299379,14.4247399 92.8296115,14.542672 C94.8677362,14.7322056 95.6610435,13.0516744 97.1717031,12.2977518 C97.0451114,13.1316996 96.1209929,13.1738182 96.2053872,14.2225707 C96.9269593,14.6269091 98.1633372,14.4247399 98.7794163,14.542672 C98.6612641,16.0126102 95.8973477,13.8392917 95.5639898,15.5071874 C95.6526041,16.0631525 96.5725028,15.7893818 96.690655,16.3116521 C95.1377982,16.7665328 93.9858148,17.2888032 92.1882141,17.4362182 C89.5762078,17.6425992 87.2806803,16.138966 85.9134912,16.7918039 C85.6940657,18.8850972 87.9094186,18.5481486 89.7745345,18.5565723 C90.7577293,19.2768 91.4202253,20.0770529 91.0657687,21.766008 C92.2979269,22.1914056 93.8803217,22.8905739 95.2475109,22.2503716 C96.4374718,23.3075479 99.4714503,22.5241423 100.872397,22.2503716 C101.328127,23.3159716 102.729074,22.5072948 104.092043,22.7305234 C104.366325,21.9892364 104.720781,21.3237629 104.573091,20.1612902 C101.036966,18.3754625 95.758097,22.0145074 93.4710089,18.716623 C96.1589704,18.2069881 99.3195403,19.2388933 102.319761,18.2364711 C103.699609,19.2557407 106.210342,18.3375557 106.826421,17.1119052 C106.315836,16.9265835 105.725075,16.8170751 105.379058,16.4717028 C105.746173,16.3074403 106.349593,16.3706182 106.670292,16.1516016 C106.936134,15.5493059 105.919182,15.4229503 106.345373,15.1870861 C107.704123,15.4229503 108.176732,14.7616885 108.919402,14.3826213 C109.012236,13.8182325 108.159853,13.8561391 108.598704,13.4223178 C110.037628,13.5191905 110.548214,12.6936664 110.687465,11.493287 C108.932062,11.4048379 108.05014,11.2911178 107.15134,12.1334893 C108.573385,10.0528316 112.881719,11.7080917 114.548508,10.0486198 C114.616024,9.39156996 113.451381,9.96017074 113.421843,9.40841739 L115.189906,9.40841739 C116.852475,7.74894545 120.025704,7.59731857 121.624978,5.87888063 C120.451896,5.95890593 118.063535,6.76758261 117.282887,5.71461818 C119.831597,5.72304189 123.591367,5.60932174 124.840404,3.78558735 C122.94575,2.67786878 120.878088,1.76810751 118.084633,2.66102134 C118.13527,2.28195415 118.848403,2.56414861 118.726031,2.02081898 C116.320791,2.35355573 112.56102,0.723566793 111.168513,2.34092016 C110.084045,1.35955731 108.075459,1.40588775 107.14712,2.50097074 C103.940133,1.2121423 102.421034,4.29101028 98.6190669,3.46548616 C97.1632636,5.22604269 92.2937072,3.57499447 91.2218984,5.71461818 C93.6397977,6.12316838 94.1588232,8.59552885 97.3320524,7.80369961 C97.6907286,7.98059763 97.7709033,8.43969011 98.1380189,8.60816443 C100.138166,8.2122498 101.467378,8.26700395 103.125727,8.60816443 C101.518014,9.54319684 99.4250333,8.65870672 97.3320524,9.25257866 C96.8045874,9.76642529 98.0536245,10.1497043 97.4966215,10.6972458 C96.6611169,10.3518735 96.1716295,9.66534071 95.728559,8.93247747 C93.0996736,9.3283921 91.9519099,6.22846482 89.6141852,6.51908301 C88.0106917,6.72125217 87.255362,8.44390198 86.3945392,9.89278102 C87.0021789,10.6761866 87.2469225,11.8176 88.4875201,11.9776506 Z" id="Shape"/></g><ellipse id="Oval-4" fill="#BCBCBC" cx="41.921" cy="38.4" rx="2.62" ry="2.618"/><ellipse id="Oval-4-Copy" fill="#ED1C40" cx="55.022" cy="77.673" rx="2.62" ry="2.618"/><ellipse id="Oval-4-Copy-2" fill="#BCBCBC" cx="81.223" cy="51.491" rx="2.62" ry="2.618"/><ellipse id="Oval-4-Copy-3" fill="#BCBCBC" cx="107.424" cy="77.673" rx="2.62" ry="2.618"/><ellipse id="Oval-4-Copy-3-Copy" fill="#ED1C40" cx="82.424" cy="87.673" rx="2.62" ry="2.618"/><ellipse id="Oval-4-Copy-4" fill="#BCBCBC" cx="108.734" cy="109.091" rx="2.62" ry="2.618"/><ellipse id="Oval-4-Copy-5" fill="#BCBCBC" cx="108.734" cy="148.364" rx="2.62" ry="2.618"/><ellipse id="Oval-4-Copy-6" fill="#BCBCBC" cx="134.934" cy="135.273" rx="2.62" ry="2.618"/><ellipse id="Oval-4-Copy-7" fill="#BCBCBC" cx="174.236" cy="96" rx="2.62" ry="2.618"/><ellipse id="Oval-4-Copy-9" fill="#BCBCBC" cx="200.437" cy="56.727" rx="2.62" ry="2.618"/><ellipse id="Oval-4-Copy-22" fill="#BCBCBC" cx="200.437" cy="106.473" rx="2.62" ry="2.618"/><ellipse id="Oval-4-Copy-10" fill="#ED1C40" cx="178.166" cy="58.036" rx="2.62" ry="2.618"/><ellipse id="Oval-4-Copy-11" fill="#BCBCBC" cx="217.467" cy="31.855" rx="2.62" ry="2.618"/><ellipse id="Oval-4-Copy-12" fill="#BCBCBC" cx="230.568" cy="58.036" rx="2.62" ry="2.618"/><ellipse id="Oval-4-Copy-13" fill="#BCBCBC" cx="269.869" cy="84.218" rx="2.62" ry="2.618"/><ellipse id="Oval-4-Copy-23" fill="#BCBCBC" cx="348.472" cy="149.673" rx="2.62" ry="2.618"/><ellipse id="Oval-4-Copy-24" fill="#BCBCBC" cx="298.69" cy="107.782" rx="2.62" ry="2.618"/><ellipse id="Oval-4-Copy-14" fill="#BCBCBC" cx="296.07" cy="44.945" rx="2.62" ry="2.618"/><ellipse id="Oval-4-Copy-15" fill="#BCBCBC" cx="322.271" cy="31.855" rx="2.62" ry="2.618"/><ellipse id="Oval-4-Copy-16" fill="#BCBCBC" cx="322.271" cy="84.218" rx="2.62" ry="2.618"/><ellipse id="Oval-4-Copy-17" fill="#BCBCBC" cx="335.371" cy="71.127" rx="2.62" ry="2.618"/><ellipse id="Oval-4-Copy-18" fill="#BCBCBC" cx="256.769" cy="44.945" rx="2.62" ry="2.618"/><ellipse id="Oval-4-Copy-19" fill="#BCBCBC" cx="151.965" cy="18.764" rx="2.62" ry="2.618"/><ellipse id="Oval-4-Copy-20" fill="#BCBCBC" cx="115.284" cy="175.855" rx="2.62" ry="2.618"/><ellipse id="Oval-4-Copy-21" fill="#BCBCBC" cx="206.987" cy="149.673" rx="2.62" ry="2.618"/></g></g></g></g></g></g></g></g></g></svg>