<svg width="1440" height="549" viewBox="0 0 1440 549" version="1.1" xmlns="http://www.w3.org/2000/svg" xmlns:xlink="http://www.w3.org/1999/xlink"><title>meetup-logo</title><desc>Created with Sketch.</desc><g id="meetups" stroke="none" stroke-width="1" fill="none" fill-rule="evenodd"><g id="chapters" fill="#F7F8F8"><g id="meetup" transform="translate(-96.000000, -30.000000)"><path d="M955.062403,312.135615 C952.834056,315.503722 951.411391,317.813481 949.859921,320.03834 C935.367521,340.79535 919.105004,359.747062 896.936377,372.861573 C867.221491,390.428709 835.014252,397.674909 801.444243,390.39847 C784.219326,386.661394 768.193774,377.021116 751.97109,369.32948 C748.231979,367.564887 746.188261,367.52011 742.864639,369.481835 C728.949969,377.688981 715.416189,386.888474 700.683044,393.269096 C674.533107,404.589939 646.998303,410.933053 618.538607,403.403948 C600.700197,398.684411 585.268948,388.634168 571.327529,376.54486 C561.440691,367.973688 560.805682,367.981248 550.777827,376.229099 C532.746937,391.066626 511.930903,400.633633 490.148981,408.536649 C463.129395,418.349054 435.264002,424.36158 406.763891,427.184231 C371.990738,430.627063 339.746573,424.721535 316.214886,396.136814 C297.352436,373.232868 292.308125,346.663662 303.847324,319.043376 C316.48616,288.800769 331.100387,259.371986 344.82403,229.589935 C351.979805,214.073205 359.182101,198.571303 366.122717,182.962113 C367.392154,180.094685 367.905337,176.749256 368.050133,173.584096 C368.321699,167.764631 369.505944,161.390988 362.776998,157.889423 C355.902092,154.323893 347.790605,154.966753 342.751237,161.343304 C336.433708,169.321044 330.844522,178.059399 326.14243,187.091708 C310.566095,216.989188 295.495964,247.161432 280.302263,277.254882 C268.90437,299.820389 257.725125,322.486207 246.223433,344.993273 C235.32622,366.341098 214.843973,374.474683 192.64598,366.173332 C185.169211,363.366091 180.479331,357.850757 179.219489,349.461017 C177.43716,337.558082 181.340257,326.898708 185.562894,316.243403 C194.784484,292.935307 204.125575,269.671115 213.343386,246.355459 C218.279536,233.854441 223.218885,221.342956 227.853231,208.726799 C231.099803,199.905579 232.075287,190.550241 228.288201,181.885446 C225.357389,175.204765 219.589388,170.376776 211.497672,171.093778 C202.661042,171.877363 195.709086,176.493683 192.377904,184.698212 C180.656982,213.6362 169.414353,242.764342 157.882422,271.777055 C144.089579,306.503396 130.525851,341.323943 116.157603,375.815355 C110.83911,388.561479 102.816884,400.167553 89.3194485,405.622992 C82.4867024,408.393307 74.7508707,410.106436 67.3933115,410.209654 C44.4376105,410.510295 24.6121795,402.841337 11.0720027,383.358125 C0.305339311,367.863783 -2.32803013,350.619676 2.87561488,332.377407 C7.68790345,315.489766 12.5010643,298.602997 17.5491553,281.781939 C22.3323683,265.84216 27.4170945,249.987572 32.3823203,234.095768 C37.0099793,219.299529 41.336416,204.391349 46.3542685,189.729148 C56.2294766,160.865012 64.1926788,131.135297 79.8422842,104.658551 C90.5493428,86.5421789 107.894051,76.7478008 127.785774,70.6718903 C148.582909,64.3287758 166.299202,72.3140754 184.055038,81.1492523 C190.788346,84.4909013 197.432682,88.0645729 204.343642,90.9759043 C213.985373,95.0240883 222.776355,92.4613723 230.564232,86.1182579 C236.937876,80.9297321 243.369671,75.745277 249.244669,70.0078055 C263.92199,55.6791007 295.628549,53.0239246 311.122891,69.6990235 C314.69162,73.5390269 318.902917,76.77833 322.843813,80.2580877 C330.954718,87.4222948 334.308579,88.1532532 343.692992,82.8574388 C366.010195,70.2564012 389.129301,72.0012228 411.855305,80.0789826 C425.039597,84.7700262 432.931565,95.9707871 437.970933,109.236782 C445.383445,128.768259 442.275854,147.627802 434.847932,165.986082 C421.184184,199.759619 406.301881,233.033349 392.969304,266.933364 C385.066579,287.044026 378.392585,307.722824 372.713555,328.565898 C370.400598,337.060019 370.385479,347.131777 372.543173,355.666023 C375.807772,368.583983 387.639762,372.816506 399.606663,374.332504 C417.830323,376.642553 435.712928,373.255546 453.172194,368.426976 C468.083281,364.319478 482.764381,359.249871 497.326853,353.987202 C504.353242,351.447165 510.901339,347.547848 517.608188,344.141942 C523.34566,341.240787 523.788771,336.993145 520.765208,331.651973 C514.588696,320.751853 508.092644,309.988679 502.651743,298.713484 C491.146562,274.881157 481.679574,250.287923 484.205073,223.109875 C486.411323,199.322033 495.001684,178.661844 516.9505,166.141636 C549.353999,147.672578 575.649023,152.772133 599.466232,180.36596 C620.063908,204.236086 626.85653,232.969673 618.013794,263.754829 C613.066595,280.968407 605.988451,297.60687 599.236244,314.253475 C597.367852,318.862526 598.452368,321.814854 601.368352,324.529344 C615.009421,337.271398 630.563077,347.169575 647.829281,354.173286 C654.33958,356.825554 661.222045,358.800945 668.121956,360.186975 C682.96239,363.161109 696.730228,359.629306 709.093428,351.243346 C714.980638,347.254185 715.109443,343.526413 711.024914,337.959324 C682.587315,299.174041 671.33073,256.004169 679.876024,208.566302 C683.077819,190.806105 691.293106,174.030696 710.356759,168.916603 C722.140774,165.752024 735.458814,165.885772 747.711818,167.445964 C767.625057,169.978441 785.659436,177.926233 797.89325,195.07032 C812.57057,215.641538 816.318404,238.155001 810.001749,262.748235 C805.466259,280.412192 796.200474,295.438709 785.997875,310.034036 C781.957542,315.820355 781.801697,321.153676 787.309763,325.023337 C795.791963,330.984399 804.411981,337.520284 813.997306,340.971839 C834.825261,348.466343 856.436801,347.812726 877.420019,341.068079 C900.37979,333.673012 916.51234,318.443257 925.712705,295.844022 C936.701506,268.818039 936.835544,240.509827 936.278748,212.099268 C935.836509,189.900403 935.060774,167.703573 934.402796,145.497439 C934.169028,137.568255 932.892032,137.107989 925.332979,138.645793 C905.41974,142.668682 885.4059,146.229851 865.421135,149.884062 C859.118145,151.028183 852.75962,151.804209 846.460701,152.94048 C832.730951,155.410736 821.403421,149.769504 820.627396,133.709643 C819.83596,117.524757 817.493055,101.417213 815.829063,85.2686713 C815.731951,84.3597707 815.657518,83.4456365 815.609543,82.5280132 C814.680581,63.5245471 819.279164,53.1882013 842.093849,54.016272 C865.654611,54.8821408 889.215374,55.6581663 912.747061,56.8944573 C924.322605,57.4963204 928.393468,54.5806277 929.155246,43.0940546 C929.742572,34.176594 929.991168,25.2521553 930.547673,16.3384745 C931.383594,2.96897093 934.431871,-0.206947626 948.013626,0.324262043 C956.132964,0.643801958 964.291844,2.0589073 972.232949,3.84501621 C983.415101,6.35946679 989.275853,14.2331164 990.051588,25.3556641 C990.679619,34.4696752 990.416195,43.6546305 990.271689,52.7980079 C990.15248,59.2676008 992.161598,62.7400897 999.414485,63.4722111 C1020.35031,65.6034464 1041.20385,68.5156501 1062.09519,70.9960823 C1071.95964,72.1701516 1077.49533,76.1630921 1078.82931,83.4973909 C1081.14343,96.2359558 1078.39027,104.959773 1068.77558,108.440113 C1055.32699,113.305028 1041.42308,117.011575 1027.51859,120.439287 C1017.78818,122.842669 1007.70828,123.871361 997.81853,125.687999 C991.182044,126.902483 987.575517,130.389219 987.635122,137.854649 C987.883426,174.718332 987.048087,211.615742 988.118357,248.444244 C988.674862,267.77103 991.576017,287.124275 999.809331,305.177262 C1006.46035,319.799048 1017.81812,325.559489 1033.61398,322.91071 C1056.79211,319.022441 1078.03904,310.881878 1096.54619,296.215898 C1106.81537,288.078824 1113.57048,278.121332 1114.0825,264.369195 C1115.00798,239.203755 1116.25125,214.046165 1117.72886,188.91765 C1118.15656,181.667961 1118.97824,174.150778 1121.395,167.388104 C1122.74265,163.63649 1127.66426,158.675335 1131.09197,158.574733 C1150.02478,158.002527 1169.08669,157.813536 1187.93024,159.447871 C1199.78462,160.472492 1207.9278,171.562766 1207.30064,184.112049 C1206.45105,201.681802 1204.1788,219.189333 1202.50696,236.723032 C1200.44173,258.356087 1198.53786,280.004262 1196.23828,301.608243 C1193.90933,323.476229 1211.40058,334.320233 1228.70749,334.531903 C1243.22635,334.706356 1251.79752,329.288133 1257.96647,313.923759 C1264.35436,298.020615 1268.15075,280.780579 1270.90566,263.777508 C1274.80236,239.637852 1276.64691,215.166735 1279.52219,190.858732 C1280.69248,180.931188 1286.88992,173.299156 1294.59697,171.643014 C1303.50745,169.730427 1315.19784,173.344804 1318.11441,181.489147 C1320.56169,188.296016 1320.00432,196.612195 1319.1524,204.076752 C1316.00411,231.760713 1311.46309,259.306275 1308.86985,287.045189 C1307.27244,304.084604 1316.8252,316.214619 1333.38022,321.250498 C1341.62981,323.753609 1350.18616,325.73307 1358.72971,326.721056 C1373.73383,328.436802 1384.3589,317.484056 1387.49324,300.430103 C1390.14609,286.090931 1390.49849,271.327256 1391.78769,256.743559 C1393.29555,239.42531 1393.5142,221.884342 1396.4738,204.815852 C1400.82669,179.546321 1417.14939,156.624057 1447.39229,149.269696 C1465.5453,144.850508 1483.84688,144.323369 1501.9714,146.417679 C1529.60622,149.596505 1558.51252,168.381614 1567.34827,200.124808 C1574.05803,224.257486 1571.39152,247.569653 1563.49693,270.785289 C1554.35239,297.688572 1537.63688,318.654054 1514.29447,334.620292 C1512.13939,336.091223 1510.88042,338.883635 1509.22428,341.067497 C1512.15422,342.363684 1515.1144,344.825507 1518.03126,344.773753 C1545.9298,344.346924 1572.24081,337.966012 1596.33162,323.352367 C1601.76729,320.0616 1607.68823,317.569247 1613.42948,314.839347 C1618.70436,312.340015 1621.81253,315.300194 1620.34509,319.84964 C1617.89693,327.474403 1614.95187,335.519307 1610.07591,341.679246 C1589.42996,367.777719 1561.26829,380.289786 1528.69645,382.481208 C1514.88034,383.409007 1500.8578,381.563584 1486.93732,380.794537 C1476.4303,380.207211 1465.94276,379.29395 1455.43632,378.581599 C1450.10387,378.232402 1447.02478,380.471508 1445.6905,385.983063 C1437.32635,420.504131 1432.90018,455.607292 1428.5627,490.804948 C1425.82495,512.965724 1421.6907,535.052068 1416.38849,556.738041 C1413.51699,568.503448 1404.32913,576.614935 1391.60859,578.66505 C1384.00563,579.890002 1378.37923,576.599525 1375.82785,569.513241 C1373.67772,563.537932 1371.66918,557.265471 1371.15716,551.004058 C1368.64882,520.100274 1369.67402,489.271215 1373.77832,458.516007 C1375.85867,442.869309 1377.25052,427.133349 1379.0375,411.452923 C1380.29996,400.545535 1381.94272,389.674781 1382.96822,378.745004 C1383.77303,369.917387 1381.76391,367.833544 1373.31137,366.151817 C1355.82913,362.664208 1338.33788,359.235914 1320.93095,355.381373 C1309.10536,352.751784 1299.88726,356.940402 1291.8723,365.089397 C1281.22223,375.922934 1269.45508,385.337877 1255.49098,391.424836 C1238.6266,398.781814 1220.75127,397.23645 1203.40423,394.488232 C1178.37923,390.503433 1158.39126,377.345599 1144.18148,356.231541 C1139.7681,349.680828 1136.57474,342.289832 1133.11679,335.147141 C1131.1821,331.147803 1129.44048,329.591973 1124.75089,331.983434 C1108.11882,340.451387 1091.54869,349.145257 1074.37931,356.398726 C1055.25605,364.480847 1034.96279,367.320943 1014.64075,361.654125 C994.830439,356.119891 979.636738,343.366789 967.020872,327.426428 C963.634447,323.154653 960.307335,318.853803 955.062403,312.135615 Z M1525.64555,232.858314 C1525.4269,230.117656 1525.4269,227.358099 1524.97275,224.661926 C1522.43678,209.048084 1506.75955,202.059493 1494.12944,211.474435 C1488.41814,215.729928 1483.22903,221.319114 1479.33204,227.299366 C1466.31958,247.246333 1460.44429,270.098234 1454.569,292.823366 C1453.09022,298.531762 1452.06124,304.567258 1452.17987,310.427137 C1452.40055,321.342667 1458.81839,324.551441 1467.9606,318.653764 C1486.93528,306.41239 1500.98981,289.432871 1512.85465,270.558209 C1520.06451,259.09257 1525.96916,246.996865 1525.64555,232.858314 Z M781.088475,243.869793 C781.255077,233.021137 778.7226,222.982815 770.73323,215.18011 C766.303866,210.856581 760.765852,208.973941 754.414887,210.953693 C746.712202,213.341084 742.548588,219.057039 741.969404,228.542345 C740.848543,246.91807 748.740219,262.706657 756.862755,278.248974 C761.044977,286.252881 765.018728,285.999634 770.421831,278.602532 C777.97972,268.258917 780.928559,256.500779 781.088475,243.869793 Z M593.758127,240.360088 C591.74959,233.715169 590.420548,226.755945 587.551958,220.498022 C583.889897,212.534819 574.449949,208.951262 566.101205,211.135124 C557.265447,213.453024 553.771442,217.664322 554.688193,228.549613 C555.494167,238.02387 557.67105,247.47225 560.192188,256.674941 C562.041391,263.438487 564.890501,270.067414 568.258609,276.228807 C572.790319,284.528994 577.525266,284.610987 581.98167,276.574224 C588.124164,265.510409 592.871033,253.890379 593.758127,240.360088 Z" id="meetup-logo"/></g></g></g></svg>