<?xml version="1.0" ?><!DOCTYPE svg  PUBLIC '-//W3C//DTD SVG 1.1//EN'  'http://www.w3.org/Graphics/SVG/1.1/DTD/svg11.dtd'><svg enable-background="new 0 0 100 100" height="100px" version="1.1" viewBox="0 0 100 100" width="100px" xml:space="preserve" xmlns="http://www.w3.org/2000/svg" xmlns:xlink="http://www.w3.org/1999/xlink"><g id="color_x5F_fill"><path d="M80.952,74.251c-0.74,0.802-1.917,1.41-3.104,1.721c-3.226,0.844-7.038-0.031-10.038-1.351   c-9.568-4.21-7.455-14.872-3.259-22.225c1.26-2.208,2.503-4.431,3.754-6.666c0.984-1.76,3.114-4.724,2.28-6.875   c-0.875-2.256-3.216-2.27-4.753-0.369c-1.479,1.829-2.726,4.454-3.746,6.584c-1.111,2.319-6.656,14.507-6.656,14.507   c-1.024,1.985-2.751,4.839-4.624,6.416c-1.397,1.177-3.95,1.522-5.629,0.303c-1.275-0.927-1.527-2.159-1.277-3.594   c1.156-6.625,11.204-22.04,4.274-23.125c-2.656-0.416-3.377,2.539-4.196,4.426c-1.354,3.116-2.386,6.361-3.834,9.441   c-1.664,3.536-2.939,7.219-3.813,11.02c-0.698,3.037-1.602,6.907-5.06,7.832c-9.465,2.531-12.341-3.718-12.341-3.719   c-1.545-4.916-0.08-9.338,1.408-14.066c1.15-3.652,1.837-7.419,3.293-10.973c2.598-6.336,5.187-19.556,14.549-18.711   c2.39,0.216,5.063,1.424,7.128,2.628c1.877,1.095,3.305,1.679,5.49,0.499c2.126-1.146,3.099-3.277,5.632-4.008   c2.715-0.783,4.5,0.376,6.53,2.009c2.846,2.288,3.156,1.254,5.504,0.653c1.947-0.499,4.208-0.73,6.342-0.365   c10.982,1.882,3.988,15.901,1.368,21.535c-1.705,3.665-9.844,18.404-2.633,20.385c2.175,0.597,4.979,0.325,6.79,1.885   C82.172,71.633,81.989,73.13,80.952,74.251z" fill="#ED1C40"/></g><g id="offset_x5F_print_x5F_outline"/></svg>