<?xml version="1.0" encoding="utf-8"?>
<!-- Generator: Adobe Illustrator 23.0.2, SVG Export Plug-In . SVG Version: 6.00 Build 0)  -->
<svg version="1.1" xmlns="http://www.w3.org/2000/svg" xmlns:xlink="http://www.w3.org/1999/xlink" x="0px" y="0px"
	 viewBox="0 0 141 141.2" style="enable-background:new 0 0 141 141.2;" xml:space="preserve">
<style type="text/css">
	.st0{filter:url(#Adobe_OpacityMaskFilter);}
	.st1{fill-rule:evenodd;clip-rule:evenodd;fill:#FFFFFF;}
	.st2{mask:url(#mask-2_1_);fill:#313D3E;}
	.st3{filter:url(#Adobe_OpacityMaskFilter_1_);}
	.st4{mask:url(#mask-2_2_);fill:#313D3E;}
	.st5{fill-rule:evenodd;clip-rule:evenodd;fill:#313D3E;}
	.st6{fill-rule:evenodd;clip-rule:evenodd;fill:#ED1C40;}
	.st7{fill:#ED1C40;}
	.st8{filter:url(#Adobe_OpacityMaskFilter_2_);}
	.st9{mask:url(#mask-2_18_);fill:none;stroke:#313D3E;stroke-width:2;stroke-linecap:round;stroke-linejoin:round;}
	.st10{filter:url(#Adobe_OpacityMaskFilter_3_);}
	.st11{mask:url(#mask-2_17_);fill:none;stroke:#313D3E;stroke-width:2;stroke-linecap:round;stroke-linejoin:round;}
	.st12{filter:url(#Adobe_OpacityMaskFilter_4_);}
	.st13{mask:url(#mask-2_16_);fill:none;stroke:#313D3E;stroke-width:2;stroke-linecap:round;stroke-linejoin:round;}
	.st14{filter:url(#Adobe_OpacityMaskFilter_5_);}
	.st15{mask:url(#mask-2_15_);fill:none;stroke:#313D3E;stroke-width:2;stroke-linecap:round;stroke-linejoin:round;}
	.st16{filter:url(#Adobe_OpacityMaskFilter_6_);}
	.st17{mask:url(#mask-2_14_);fill:none;stroke:#313D3E;stroke-width:2;stroke-linecap:round;stroke-linejoin:round;}
	.st18{filter:url(#Adobe_OpacityMaskFilter_7_);}
	.st19{mask:url(#mask-2_13_);fill:none;stroke:#313D3E;stroke-width:2;stroke-linecap:round;stroke-linejoin:round;}
	.st20{filter:url(#Adobe_OpacityMaskFilter_8_);}
	.st21{mask:url(#mask-2_12_);fill:none;stroke:#313D3E;stroke-width:2;}
	.st22{filter:url(#Adobe_OpacityMaskFilter_9_);}
	.st23{mask:url(#mask-2_11_);fill:none;stroke:#313D3E;stroke-width:2;}
	.st24{filter:url(#Adobe_OpacityMaskFilter_10_);}
	.st25{mask:url(#mask-2_10_);fill:none;stroke:#ED1C40;stroke-width:2;}
	.st26{fill:none;stroke:#313D3E;stroke-width:3;stroke-linecap:round;stroke-linejoin:round;}
	.st27{display:none;}
	.st28{display:inline;}
	.st29{fill:none;stroke:#313D3E;stroke-width:2.8346;stroke-linecap:round;stroke-linejoin:round;stroke-miterlimit:10;}
	.st30{fill:none;stroke:#313D3E;stroke-width:2.8346;stroke-miterlimit:10;}
	.st31{fill:none;stroke:#FFFFFF;stroke-width:2.8346;stroke-linejoin:round;stroke-miterlimit:10;}
	.st32{fill:none;stroke:#313D3E;stroke-width:2.8346;stroke-linejoin:round;stroke-miterlimit:10;}
	.st33{fill:#313D3E;}
	.st34{clip-path:url(#SVGID_2_);fill:none;stroke:#313D3E;stroke-width:2.8346;stroke-miterlimit:10;}
	.st35{fill:#FFFFFF;}
	.st36{clip-path:url(#SVGID_4_);fill:none;stroke:#313D3E;stroke-width:2.8346;stroke-miterlimit:10;}
	.st37{fill:none;stroke:#FFFFFF;stroke-width:2.8346;stroke-linecap:round;stroke-linejoin:round;stroke-miterlimit:10;}
	.st38{clip-path:url(#SVGID_6_);fill:none;stroke:#313D3E;stroke-width:2.8346;stroke-miterlimit:10;}
	.st39{clip-path:url(#SVGID_8_);fill:none;stroke:#313D3E;stroke-width:2.8346;stroke-miterlimit:10;}
</style>
<g id="Layer_1">
</g>
<g id="Layer_3" class="st27">
</g>
<g id="Layer_2">
</g>
<g id="Layer_4">
	<g>
		<g>
			
				<ellipse transform="matrix(0.7071 -0.7071 0.7071 0.7071 13.9897 87.8954)" class="st7" cx="113.1" cy="27.1" rx="4.6" ry="4.6"/>
			<g>
				
					<ellipse transform="matrix(0.7071 -0.7071 0.7071 0.7071 -10.9884 27.593)" class="st33" cx="27.8" cy="27.1" rx="4.6" ry="4.6"/>
				<path class="st33" d="M104.7,38.2c-0.8,0-1.4,0.6-1.4,1.4v3.1h2.8v-3.1C106.1,38.8,105.5,38.2,104.7,38.2z"/>
				<path class="st33" d="M114.8,39.6c0-0.8-0.6-1.4-1.4-1.4s-1.4,0.6-1.4,1.4v3.1h2.8V39.6z"/>
				<path class="st33" d="M123.3,39.6c0-0.8-0.6-1.4-1.4-1.4s-1.4,0.6-1.4,1.4v3.1h2.8V39.6z"/>
				<rect x="123.6" y="102.2" class="st33" width="2.8" height="4.4"/>
				<circle class="st33" cx="116.4" cy="113.5" r="2"/>
				<rect x="106.1" y="102.2" class="st33" width="2.8" height="4.4"/>
				<rect x="97.2" y="102.2" class="st33" width="2.8" height="6.6"/>
				<path class="st33" d="M117.9,103.8c0-0.8-0.6-1.4-1.4-1.4s-1.4,0.6-1.4,1.4v3.1h2.8V103.8z"/>
				<path class="st33" d="M37.6,39.6c0-0.8-0.6-1.4-1.4-1.4s-1.4,0.6-1.4,1.4v3.1h2.8V39.6z"/>
				<path class="st33" d="M27.6,38.2c-0.8,0-1.4,0.6-1.4,1.4v3.1H29v-3.1C29,38.8,28.3,38.2,27.6,38.2z"/>
				<path class="st33" d="M20.5,39.6c0-0.8-0.6-1.4-1.4-1.4s-1.4,0.6-1.4,1.4v3.1h2.8V39.6z"/>
				<rect x="14.5" y="102.2" class="st33" width="2.8" height="4.4"/>
				<circle class="st33" cx="24.5" cy="113.5" r="2"/>
				<rect x="31.9" y="102.2" class="st33" width="2.8" height="4.4"/>
				<rect x="40.9" y="102.2" class="st33" width="2.8" height="6.6"/>
				<path class="st33" d="M25.9,103.8c0-0.8-0.6-1.4-1.4-1.4S23,103,23,103.8v3.1h2.8V103.8z"/>
				<path class="st33" d="M140.9,66.4v-5.5c0-0.8-0.6-1.4-1.4-1.4h-1.2V48.8c0-0.8-0.6-1.4-1.4-1.4s-1.4,0.6-1.4,1.4v10.6H129v-8.3
					V31c0-0.8-0.6-1.4-1.4-1.4c-0.1,0-0.2,0-0.2,0c-0.1,0-0.1,0-0.2,0V18c0-0.8-0.6-1.4-1.4-1.4s-1.4,0.6-1.4,1.4v11.5h-2.5v-14
					c0-0.2,0-0.4-0.1-0.5c0.1-0.2,0.1-0.3,0.1-0.5c0-0.8-0.6-1.4-1.4-1.4c-1.4,0-2.1,1.1-2.5,1.8c0,0,0,0.1-0.1,0.1
					c0,0,0-0.1-0.1-0.1c-0.4-0.6-1-1.8-2.5-1.8c-1.4,0-2.1,1.1-2.5,1.8c0,0,0,0.1-0.1,0.1c0,0,0-0.1-0.1-0.1c-0.4-0.6-1-1.8-2.5-1.8
					s-2.1,1.1-2.5,1.8c0,0,0,0.1-0.1,0.1c0,0,0-0.1,0-0.1c-0.4-0.6-1-1.8-2.5-1.8c-0.8,0-1.4,0.6-1.4,1.4c0,0.1,0,0.2,0.1,0.3
					c-0.3,0.1-0.6,0.3-0.9,0.7c-0.3,0.5-0.4,0.9-0.4,1.3c-0.4,0.1-0.8,0.3-1.1,0.8c-0.3,0.5-0.4,0.9-0.4,1.3
					c-0.4,0.1-0.8,0.3-1.1,0.8c-0.3,0.4-0.4,0.9-0.4,1.3c-0.2,0.2-0.3,0.5-0.3,0.9V24h-2v-4.9c0-0.8-0.6-1.4-1.4-1.4
					s-1.4,0.6-1.4,1.4v2.5c-0.3-0.3-0.6-0.5-1.1-0.5c-0.8,0-1.4,0.6-1.4,1.4V24c-0.1-0.1-0.3-0.1-0.5-0.1c-0.8,0-1.4,0.6-1.4,1.4V32
					c0,0.1,0,0.1,0,0.2c0,0,0,0.1,0,0.1v8.1l-1.7,2.3C88.1,43,88,43.3,88,43.6v21.1l-1.6,2.4v-5.5c0-0.8-0.6-1.4-1.4-1.4
					s-1.4,0.6-1.4,1.4v9.8l-0.8,1.1c-0.2,0.2-0.2,0.5-0.2,0.8v23.1l-9.7,6.2c-0.4,0.3-0.7,0.7-0.7,1.2l0,19.9c0,0.7,0.5,1.3,1.2,1.4
					l10.3,1.9l8.4,3.9c0.1,0,0.2,0.1,0.3,0.1c0.1,0,0.2,0,0.3,0c0,0,0,0,0,0h8.4c-9.2,4.7-19.6,7.3-30.6,7.3s-21.4-2.7-30.6-7.3h8.4
					c0,0,0,0,0,0c0.1,0,0.2,0,0.3,0c0.1,0,0.2-0.1,0.3-0.1l8.4-3.9l9.8-1.7c0.7-0.1,1.2-0.7,1.2-1.4l0-20.1c0-0.5-0.2-0.9-0.6-1.2
					l-9.3-6.2V73.3c0-0.3-0.1-0.6-0.2-0.8l-0.8-1.1v-9.8c0-0.8-0.6-1.4-1.4-1.4s-1.4,0.6-1.4,1.4v5.5l-1.6-2.4V43.6
					c0-0.3-0.1-0.6-0.3-0.8l-1.7-2.3v-8.1c0,0,0-0.1,0-0.1c0-0.1,0-0.1,0-0.2v-6.7c0-0.8-0.6-1.4-1.4-1.4c-0.2,0-0.3,0-0.5,0.1v-1.5
					c0-0.8-0.6-1.4-1.4-1.4c-0.4,0-0.8,0.2-1.1,0.5v-2.5c0-0.8-0.6-1.4-1.4-1.4s-1.4,0.6-1.4,1.4V24h-2v-1.6
					c0.4-0.5,0.5-1.2,0.1-1.7c-0.3-0.5-0.8-0.7-1.1-0.8c0-0.4,0-0.8-0.4-1.3s-0.8-0.7-1.1-0.8c0-0.4-0.1-0.8-0.4-1.3
					c-0.3-0.5-0.7-0.7-1.1-0.8c0-0.4-0.1-0.8-0.4-1.3c-0.5-0.6-1.3-0.8-2-0.3c0,0,0,0,0,0c-0.4-0.5-1-1.1-2-1.1
					c-1.4,0-2.1,1.1-2.5,1.8c0,0,0,0.1-0.1,0.1c0,0,0-0.1-0.1-0.1c-0.4-0.6-1-1.8-2.5-1.8s-2.1,1.1-2.5,1.8c0,0,0,0.1-0.1,0.1
					c0,0,0-0.1-0.1-0.1c-0.4-0.6-1-1.8-2.5-1.8c-1,0-1.7,0.6-2.1,1.1c-0.1,0-0.3-0.1-0.5-0.1c-0.8,0-1.4,0.6-1.4,1.4v1.1v12.9h-2.5
					V18c0-0.8-0.6-1.4-1.4-1.4s-1.4,0.6-1.4,1.4v11.5c-0.1,0-0.1,0-0.2,0c-0.1,0-0.1,0-0.2,0c-0.8,0-1.4,0.6-1.4,1.4v20.2v8.3H5.5
					V48.8c0-0.8-0.6-1.4-1.4-1.4s-1.4,0.6-1.4,1.4v10.6H1.4c-0.8,0-1.4,0.6-1.4,1.4v9.7v4.1c0,0.5,0.1,0.9,0.1,1.4
					c0.1,0.9,0.2,1.9,0.3,2.8c0.5,4.1,1.3,8.1,2.5,11.9c0.1,0.3,0.2,0.6,0.3,0.9c0.3,1,0.6,1.9,1,2.8c0.5,1.5,1.1,3,1.8,4.4
					c0,0,0,0,0,0.1c0.3,0.6,0.5,1.2,0.8,1.8c0.2,0.3,0.3,0.7,0.5,1c0.1,0.1,0.1,0.3,0.2,0.4c0.4,0.9,0.9,1.7,1.3,2.5
					c1.2,2.2,2.6,4.3,4,6.4c0.6,0.8,1.1,1.6,1.7,2.4c1,1.3,2.1,2.6,3.1,3.8c0.9,1,1.9,2.1,2.8,3c2.6,2.6,5.4,5,8.3,7.1
					c0.3,0.2,0.6,0.5,0.9,0.7c0.6,0.4,1.2,0.9,1.9,1.3c0.8,0.5,1.6,1,2.4,1.5c10.6,6.4,23.1,10.2,36.4,10.2s25.8-3.7,36.4-10.2
					c0.8-0.5,1.6-1,2.4-1.5c0.6-0.4,1.3-0.9,1.9-1.3c0.3-0.2,0.6-0.4,0.9-0.7c3-2.2,5.7-4.6,8.3-7.1c1-1,1.9-2,2.8-3
					c1.1-1.2,2.1-2.5,3.1-3.8c0.6-0.8,1.2-1.6,1.7-2.4c1.4-2.1,2.8-4.2,4-6.4c0.5-0.8,0.9-1.7,1.3-2.5c0.1-0.1,0.1-0.3,0.2-0.4
					c0.2-0.3,0.3-0.7,0.5-1c0.3-0.6,0.5-1.2,0.8-1.8c0,0,0,0,0-0.1c0.6-1.5,1.2-2.9,1.8-4.4c0.3-0.9,0.7-1.9,1-2.8
					c0.1-0.3,0.2-0.6,0.3-0.9c1.2-3.8,2-7.8,2.5-11.9c0.1-0.9,0.2-1.9,0.3-2.8c0-0.5,0.1-0.9,0.1-1.4c0.1-1.3,0.1-2.7,0.1-4.1
					C141,69.2,141,67.8,140.9,66.4z M82.6,123.9l-7.6-1.4l0-18l7.6-4.8V123.9z M58.3,99.8l7.1,4.7l0,18.1l-7.1,1.2V99.8z M49.6,59.8
					c-0.2-0.2-0.6-0.4-0.9-0.4c0,0,0,0,0,0h-0.3V48.8c0-0.8-0.6-1.4-1.4-1.4s-1.4,0.6-1.4,1.4v10.6h-1.9v-8.3V35.3L50,44v16.3
					l-0.2-0.3c0-0.1-0.1-0.1-0.1-0.2C49.7,59.9,49.7,59.9,49.6,59.8z M55.5,124.7l-5.7,2.7l0.2-31.7l5.6,3.7V124.7z M55.5,96
					l-5.5-3.6L50,80.9l5.5,5.5V96z M55.5,73.7v8.7L50,76.9l0.1-11.2c0.1,0.4,0.4,0.8,0.7,1L55.5,73.7z M43.4,26.8l4.7,6v3.8
					l-4.7-6.4c0,0,0,0,0,0c-0.1-0.1-0.2-0.3-0.4-0.3c0,0,0,0,0,0c-0.1-0.1-0.3-0.1-0.5-0.2c0,0,0,0-0.1,0c-0.1,0-0.1,0-0.2,0h-0.6
					v-2.7H43.4z M37.6,20.5c0,0.4,0.1,0.8,0.4,1.3c0.3,0.3,0.5,0.5,0.8,0.7v7.1h-1.7v-9.2C37.3,20.4,37.4,20.5,37.6,20.5z
					 M20.4,32.4C20.4,32.4,20.4,32.4,20.4,32.4C20.4,32.4,20.5,32.4,20.4,32.4c0.9,0,1.5-0.6,1.5-1.4V17.6c0.5-0.4,0.9-0.9,1.1-1.3
					c0,0,0-0.1,0.1-0.1c0,0,0,0.1,0.1,0.1c0.4,0.6,1,1.8,2.5,1.8s2.1-1.1,2.5-1.8c0,0,0-0.1,0.1-0.1c0,0,0,0.1,0.1,0.1
					c0.4,0.6,1,1.8,2.5,1.8s2.1-1.1,2.5-1.8c0,0,0-0.1,0.1-0.1c0,0,0,0.1,0,0.1c0.2,0.4,0.5,0.9,1.1,1.3V31c0,0.8,0.6,1.4,1.4,1.4
					h4.5h0.6v17.4h-3.2v-4v-0.2h-2.8v0.2v4H29v-4v-0.2h-2.8v0.2v4h-5.7v-4v-0.2h-2.8v0.2v4h-2.9V32.4H20.4z M34,54.9v4.5h-5.4v-4.5
					h-2.8v4.5h-5.3v-4.5h-2.8v4.5h-2.9v-6.9h26.1v6.9h-4v-4.5H34z M2.9,76c0-0.5-0.1-1-0.1-1.5V62.3h10.5h2.4v5.9h2.8v-5.9h1.9v0
					h3.9v5.9h2.8v-5.9h1.4v0H33v5.9h2.8v-5.9h1v0h5.4h5L47.2,76H35.8v-3.1c0-0.8-0.6-1.4-1.4-1.4S33,72.1,33,72.9V76h-5.8v-3.1
					c0-0.8-0.6-1.4-1.4-1.4s-1.4,0.6-1.4,1.4V76h-5.7v-3.1c0-0.8-0.6-1.4-1.4-1.4s-1.4,0.6-1.4,1.4V76H2.9z M7.3,87.2
					c-0.8,0-1.4,0.6-1.4,1.4v2.5c-1.2-3.9-2.1-8-2.6-12.2h11.6v5.4h2.8v-5.4h5.8v5.4h2.8v-5.4h6.1v5.4h2.8v-5.4h12l-0.1,12.8h-3
					v-3.1c0-0.8-0.6-1.4-1.4-1.4s-1.4,0.6-1.4,1.4v3.1h-6.1v-4.6h-2.8v4.6h-6.1v-4.6h-2.8v4.6h-5.7v-4.6h-2.8v4.6H8.7v-3.1
					C8.7,87.8,8.1,87.2,7.3,87.2z M35.1,128.2h-0.3c-1.1-0.7-2.2-1.4-3.2-2.1l0-10.8c0-0.3,0-1.4,0.6-2c0.2-0.2,0.4-0.4,1.1-0.4
					c0.7,0,1,0.2,1.1,0.4c0.6,0.6,0.7,1.7,0.7,2.1V128.2z M36.4,111.2c-0.8-0.8-1.9-1.3-3.2-1.3c-1.3,0-2.4,0.4-3.1,1.3
					c-1.5,1.6-1.4,3.9-1.4,4.1v8.7c-3-2.3-5.8-4.9-8.3-7.7l0-0.9c0-0.3,0-2.6-1.5-4.1c-0.8-0.8-1.9-1.3-3.2-1.3c-0.1,0-0.3,0-0.4,0
					c-1.9-2.6-3.5-5.3-5-8.2c-0.5-0.9-1-1.9-1.4-2.8c-0.1-0.2-0.2-0.4-0.2-0.5v-3.9h5.7V99h2.8v-4.4H23V99h2.8v-4.4h6.1V99h2.8v-4.4
					h6.5V99h2.8v-4.4h3l-0.2,33.6h-9v-12.9C37.9,115,37.9,112.7,36.4,111.2z M107.7,18.1c1.4,0,2.1-1.1,2.5-1.8c0,0,0-0.1,0.1-0.1
					c0,0,0,0.1,0.1,0.1c0.4,0.6,1,1.8,2.5,1.8s2.1-1.1,2.5-1.8c0,0,0-0.1,0.1-0.1c0,0,0,0.1,0.1,0.1c0.4,0.6,1,1.8,2.5,1.8
					c0.4,0,0.8-0.1,1.1-0.3V31c0,0.8,0.6,1.4,1.4,1.4c0,0,0,0,0,0c0,0,0,0,0,0h5.6v17.4h-2.9v-4v-0.2h-2.8v0.2v4h-5.7v-4v-0.2h-2.8
					v0.2v4h-5.8v-4v-0.2h-2.8v0.2v4H100V32.4h0.6h4.5c0.8,0,1.4-0.6,1.4-1.4V17.8C106.9,18,107.3,18.1,107.7,18.1z M120.4,54.9v4.5
					h-5.3v-4.5h-2.8v4.5h-5.4v-4.5H104v4.5h-4v-6.9h26.1v6.9h-2.9v-4.5H120.4z M102.6,21.6c0.4-0.1,0.8-0.3,1.1-0.8
					c0-0.1,0.1-0.1,0.1-0.2v8.9h-1.7V23c0,0,0.1,0,0.1-0.1C102.5,22.4,102.6,22,102.6,21.6z M97.5,26.8h1.8v2.7h-0.6
					c-0.1,0-0.1,0-0.2,0c0,0,0,0-0.1,0c-0.2,0-0.3,0.1-0.5,0.2c0,0,0,0,0,0c-0.1,0.1-0.3,0.2-0.4,0.4c0,0,0,0,0,0l-4.7,6.4v-3.8
					L97.5,26.8z M85.4,73.7l4.7-7c0.4-0.2,0.7-0.5,0.7-1l0.1,11.2l-5.5,5.5V73.7z M85.4,86.3l5.5-5.5L91,92.3L85.4,96V86.3z
					 M85.4,124.7V99.4l5.6-3.7l0.2,31.7L85.4,124.7z M92.5,48.8v10.6h-0.3c0,0,0,0,0,0c-0.4,0-0.7,0.1-0.9,0.4c0,0-0.1,0.1-0.1,0.1
					c0,0.1-0.1,0.1-0.1,0.2l-0.2,0.3V44l6.3-8.7v15.9v8.3h-1.9V48.8c0-0.8-0.6-1.4-1.4-1.4S92.5,48.1,92.5,48.8z M109.3,115.3V126
					c-1.1,0.7-2.1,1.5-3.2,2.1h-0.3v-12.9c0-0.3,0.1-1.5,0.7-2.1c0.2-0.2,0.5-0.4,1.1-0.4c0.6,0,0.9,0.2,1.1,0.4
					C109.2,113.7,109.3,114.8,109.3,115.3z M132.2,98.4c-0.1,0.2-0.2,0.4-0.2,0.5c-0.4,1-0.9,1.9-1.4,2.8c-1.5,2.9-3.2,5.6-5,8.2
					c-0.1,0-0.3,0-0.4,0c-1.3,0-2.4,0.4-3.2,1.3c-1.5,1.5-1.5,3.8-1.5,4.1v1c-2.5,2.8-5.3,5.4-8.3,7.7l0-8.6c0-0.3,0.1-2.6-1.4-4.1
					c-0.8-0.8-1.9-1.3-3.1-1.3c-1.3,0-2.4,0.4-3.2,1.3c-1.5,1.5-1.5,3.8-1.5,4.1v12.9h-9l-0.2-33.6h3V99h2.8v-4.4h6.5V99h2.8v-4.4
					h6.1V99h2.8v-4.4h5.8V99h2.8v-4.4h5.7V98.4z M135,91.1v-2.5c0-0.8-0.6-1.4-1.4-1.4s-1.4,0.6-1.4,1.4v3.1h-6.1v-4.6h-2.8v4.6
					h-5.7v-4.6h-2.8v4.6h-6.1v-4.6h-2.8v4.6h-6.1v-3.1c0-0.8-0.6-1.4-1.4-1.4s-1.4,0.6-1.4,1.4v3.1h-3l-0.1-12.8h12v5.4h2.8v-5.4
					h6.1v5.4h2.8v-5.4h5.8v5.4h2.8v-5.4h11.6C137.2,83.1,136.3,87.1,135,91.1z M138.1,66.2v0.3v8.1c0,0.5-0.1,1-0.1,1.5h-12.9v-3.1
					c0-0.8-0.6-1.4-1.4-1.4s-1.4,0.6-1.4,1.4V76h-5.7v-3.1c0-0.8-0.6-1.4-1.4-1.4s-1.4,0.6-1.4,1.4V76h-5.8v-3.1
					c0-0.8-0.6-1.4-1.4-1.4s-1.4,0.6-1.4,1.4V76H93.7l-0.1-13.7h5h5.4v0h1v5.9h2.8v-5.9h4.4v0h1.4v5.9h2.8v-5.9h3.9v0h1.9v5.9h2.8
					v-5.9h2.4h10.5V66.2z"/>
			</g>
		</g>
		<g>
			<path class="st33" d="M37.4,11.3c-0.5,0-1-0.3-1.2-0.7C35.7,9.8,36,9,36.7,8.6C47,3,58.6,0,70.5,0c11.6,0,23,2.9,33.1,8.3
				c0.7,0.4,1,1.2,0.6,1.9c-0.4,0.7-1.2,1-1.9,0.6c-9.7-5.2-20.7-7.9-31.8-7.9c-11.3,0-22.5,2.9-32.4,8.2
				C37.8,11.2,37.6,11.3,37.4,11.3z"/>
		</g>
	</g>
</g>
<g id="Layer_5">
</g>
<g id="Layer_6">
</g>
<g id="Layer_7">
</g>
<g id="Layer_8">
</g>
<g id="Layer_9">
</g>
<g id="Layer_10">
</g>
<g id="Layer_11">
</g>
<g id="Layer_12">
</g>
<g id="Layer_13">
</g>
<g id="Layer_14">
</g>
</svg>
