<svg width="150" height="176" viewBox="0 0 150 176" version="1.1" xmlns="http://www.w3.org/2000/svg" xmlns:xlink="http://www.w3.org/1999/xlink"><title>nyc-art</title><desc>Created with Sketch.</desc><defs><path d="M114.26751,103.836875 L115.123348,102.99117 L109.996813,100 L99.9968126,111 L101.529376,116.424183 L108.909422,109.13152 L128.046901,121.477771 L136.08808,119.244774 L114.26751,103.836875 Z M0,112 L0,103.712245 L6.14150799,100.166444 L5.77548258,99.5324691 L8.14150799,98.1664437 L7.40945718,96.8984945 L12.141508,94.1664437 L9.63991426,89.8335563 L-1.11022302e-15,95.3991634 L0,88 L0,0 L151,0 L151,176 L0,176 L0,117.003187 L36,117.003187 L36,112 L-1.33226763e-15,112 Z M58.9968126,18 L58.9968126,42 L64,42 L64,18 L58.9968126,18 Z M39.9968126,39 L39.9968126,63 L45,63 L45,39 L39.9968126,39 Z M109.743301,131.208701 L104.791299,126.256699 L103.022406,128.025593 L103.022406,135 L105.498406,136 L109.743301,131.208701 Z" id="path-1"/></defs><g id="meetups" stroke="none" stroke-width="1" fill="none" fill-rule="evenodd"><g id="nyc-art"><g id="noun_210015_cc"><g id="Group" transform="translate(0.003187, 0.000000)"><g id="Shape-+-Shape-Mask"><mask id="mask-2" fill="#fff"><use xlink:href="#path-1"/></mask><path d="M76.6716698,31.2102026 C70.79084,31.2102026 64.9100102,31.9907406 59.4212357,33.356682 C59.4212357,31.2102026 59.0291804,29.6491266 58.8331528,29.6491266 C57.0689038,27.3075126 55.8927379,26.5269746 54.9125996,26.5269746 L54.9125996,25.1610331 L54.9125996,24.5756296 L56.8728762,24.5756296 C57.6569868,24.5756296 58.2450698,23.9902261 58.2450698,23.2096882 L58.2450698,17.5507877 C58.2450698,16.9653842 57.8530145,16.5751152 57.4609591,16.3799807 C58.0490421,15.5994427 42.562857,16.1848462 42.562857,16.1848462 C41.7787464,16.1848462 41.1906634,16.7702497 41.1906634,17.5507877 L41.1906634,23.2096882 C41.1906634,23.9902261 41.7787464,24.5756296 42.562857,24.5756296 L44.9151889,24.5756296 L44.9151889,25.7464366 C44.3271059,26.3318401 43.9350506,27.1123781 43.9350506,27.8929161 C43.9350506,28.6734541 44.1310783,29.2588576 44.5231336,29.8442611 C44.1310783,30.4296646 43.9350506,31.0150681 43.9350506,31.6004716 C43.9350506,32.3810096 44.1310783,32.966413 44.5231336,33.5518165 C44.1310783,34.13722 43.9350506,34.7226235 43.9350506,35.5031615 C43.9350506,36.6739685 44.5231336,37.649641 45.5032719,38.2350445 C21.7839251,49.3577109 5.12157403,73.1641196 3.94540808,100.678084 C1.20102084,101.653756 0.0248548843,104.385639 0.0248548843,105.946715 C-0.171172775,107.702926 0.808965523,109.459136 2.3771868,110.629943 C2.96526978,111.020212 3.55335276,111.410481 4.33746339,111.605616 C7.47390595,139.900118 27.0766719,163.316258 53.5404059,172.292445 C54.3245166,172.487579 55.3046549,172.877848 56.0887655,173.072983 C58.4410974,173.853521 60.7934294,174.24379 63.1457613,174.829193 C63.9298719,175.024328 64.9100102,175.219462 65.6941208,175.219462 C69.2226187,175.804866 72.9471442,176 76.6716698,176 L78.2398911,176 L80.3961953,176 C81.1803059,176 82.1604442,175.804866 82.9445549,175.804866 C84.7088038,175.609731 86.4730528,175.414597 88.041274,175.219462 C89.0214123,175.024328 89.805523,174.829193 90.7856613,174.829193 C92.1578549,174.634059 92.9419655,174.438924 93.9221038,174.24379 C94.7062145,174.048655 95.6863528,173.853521 96.4704634,173.463252 C97.254574,173.268117 98.2347123,172.877848 99.018823,172.682714 C99.9989613,172.292445 100.783072,172.09731 101.76321,171.707041 C102.547321,171.316772 103.527459,171.121638 104.31157,170.731369 C130.775304,159.803837 149.397931,133.850948 149.397931,103.800236 C149.397931,63.7976637 116.85734,31.2102026 76.6716698,31.2102026 Z M56.2847932,30.6247991 C56.4808208,31.2102026 56.6768485,32.3810096 56.6768485,34.13722 C56.6768485,35.308027 56.4808208,36.6739685 56.0887655,38.03991 C55.8927379,38.820448 55.3046549,39.7961205 54.9125996,40.771793 L54.9125996,38.6253135 L54.9125996,34.527489 L54.9125996,29.6491266 L54.9125996,29.6491266 C55.1086272,29.4539921 55.6967102,29.8442611 56.2847932,30.6247991 Z M68.2424804,53.8458043 L70.3987847,55.7971493 C70.0067294,55.9922838 69.8107017,56.1874183 69.4186464,56.3825528 L68.2424804,53.8458043 Z M75.6915315,56.5776873 L76.0835868,58.9193013 C75.4955038,59.1144358 74.9074208,59.3095703 74.3193379,59.5047048 L73.1431719,57.3582253 C73.9272825,56.9679563 74.7113932,56.7728218 75.6915315,56.5776873 Z M85.4929145,57.9436288 L84.5127762,59.8949738 C84.1207208,59.6998393 83.9246932,59.6998393 83.9246932,59.6998393 C83.7286655,59.6998393 83.5326379,59.5047048 83.1405825,59.5047048 L83.5326379,56.9679563 C84.3167485,57.1630908 84.9048315,57.5533598 85.4929145,57.9436288 Z M91.1777166,63.2122602 L91.1777166,62.8219912 L92.1578549,62.6268567 L91.1777166,63.2122602 Z M114.505008,124.874762 C114.505008,124.874762 114.505008,125.069896 114.30898,125.265031 C114.112953,125.460165 113.916925,125.6553 113.52487,125.265031 L110.780483,123.118551 C110.584455,122.923417 110.584455,122.923417 110.584455,122.728282 C110.584455,122.728282 110.584455,122.533148 110.780483,122.338013 C110.97651,122.142879 110.97651,122.142879 111.172538,122.142879 C111.172538,122.142879 111.368566,122.142879 111.564593,122.338013 L112.936787,123.50882 L114.30898,124.679627 C114.30898,124.679627 114.505008,124.679627 114.505008,124.874762 C114.30898,124.874762 114.505008,124.874762 114.505008,124.874762 Z M102.939376,160.584375 C102.939376,159.998971 102.743348,159.413568 102.743348,158.828164 L103.527459,159.023299 C103.331431,159.413568 103.135404,159.998971 102.939376,160.584375 Z M103.135404,132.680141 L104.899653,133.850948 C105.09568,134.046083 105.291708,134.046083 105.683763,134.046083 C105.879791,134.046083 106.271846,133.850948 106.467874,133.655814 C106.075819,135.021755 105.487736,136.777966 103.723487,137.948773 L103.135404,132.680141 Z M108.036095,126.240703 C107.840068,126.045569 107.840068,125.6553 108.036095,125.460165 C108.232123,125.265031 108.232123,125.265031 108.428151,125.265031 C108.428151,125.265031 108.624178,125.265031 108.820206,125.460165 L111.564593,127.606645 C111.760621,127.801779 111.760621,127.801779 111.760621,127.996914 C111.760621,127.996914 111.760621,128.192048 111.564593,128.387183 C111.368566,128.582317 111.172538,128.777452 110.780483,128.387183 L108.036095,126.240703 Z M116.661312,122.142879 C116.661312,122.142879 116.661312,122.338013 116.465285,122.533148 C116.269257,122.728282 116.073229,122.728282 115.877202,122.728282 L115.681174,122.533148 L114.30898,121.362341 L112.936787,120.191534 C112.740759,119.996399 112.740759,119.996399 112.740759,119.801265 C112.740759,119.801265 112.740759,119.60613 112.936787,119.410996 C113.132814,119.215861 113.132814,119.215861 113.328842,119.215861 C113.328842,119.215861 113.52487,119.215861 113.720897,119.410996 L116.465285,121.75261 C116.661312,121.947744 116.661312,122.142879 116.661312,122.142879 Z M115.485146,117.459651 C115.289119,117.264516 115.289119,116.874247 115.485146,116.679113 C115.681174,116.483978 115.681174,116.483978 115.877202,116.483978 C115.877202,116.483978 116.073229,116.483978 116.269257,116.679113 L119.013644,119.020727 C119.209672,119.215861 119.209672,119.215861 119.209672,119.410996 C119.209672,119.410996 119.209672,119.60613 119.013644,119.801265 C118.817617,119.996399 118.621589,120.191534 118.229534,119.801265 L115.485146,117.459651 Z M119.601727,116.093709 L117.837478,114.532633 C116.465285,113.361826 114.505008,113.556961 113.328842,114.922902 C112.936787,115.508306 112.544731,116.093709 112.544731,116.679113 C111.956648,116.874247 111.368566,117.069382 110.780483,117.654785 C110.388427,118.240189 109.996372,118.825592 109.996372,119.60613 C109.408289,119.801265 108.820206,120.191534 108.232123,120.581803 C107.840068,121.167206 107.64404,121.75261 107.64404,122.338013 C106.859929,122.533148 106.075819,122.923417 105.683763,123.50882 C104.507597,124.874762 104.899653,126.826107 106.271846,127.996914 L107.251985,128.777452 L105.291708,130.728796 L102.547321,128.972586 L100.783072,114.727768 L109.212261,105.946715 L120.777893,114.337499 L119.601727,116.093709 Z M100.587044,111.605616 L99.9989613,106.336984 L102.743348,109.459136 L100.587044,111.605616 Z M103.331431,156.291416 L96.2744357,154.73034 L97.254574,153.949802 C97.6466293,153.754667 97.842657,153.169264 97.842657,152.778995 L93.7260762,111.605616 C93.7260762,111.215347 93.9221038,110.825078 93.9221038,110.434809 C93.9221038,109.264002 93.7260762,108.288329 93.5300485,107.312657 C93.1379932,105.361312 92.9419655,104.580774 94.9022421,103.214832 C95.2942974,103.019698 95.4903251,102.629429 95.4903251,102.044025 L95.0982698,94.4337799 C95.8823804,95.4094524 96.2744357,96.3851249 96.4704634,97.5559318 L103.331431,156.291416 Z M83.7286655,168.975158 C81.5723613,168.780024 80.3961953,167.804351 80.00414,167.023813 L83.7286655,164.29193 L83.7286655,168.975158 Z M80.2001676,163.511392 L86.2770251,122.533148 C87.2571634,121.557475 89.6094953,119.020727 91.3737442,116.288844 L94.9022421,152.388726 L80.2001676,163.511392 Z M56.0887655,160.584375 L57.0689038,144.583346 L57.0689038,144.193077 L53.9324613,134.046083 L77.6518081,104.580774 C79.8081123,102.629429 82.5524996,100.287815 84.7088038,98.3364698 L83.7286655,121.75261 L81.9644166,133.460679 L56.0887655,160.584375 Z M84.3167485,92.0921659 C84.7088038,92.4824349 85.1008591,93.0678384 85.8849698,93.4581074 C81.3763336,97.7510663 74.1233102,104.385639 71.7709783,105.751581 C68.4385081,107.89806 56.2847932,116.288844 55.8927379,116.679113 C55.3046549,117.069382 54.3245166,117.459651 53.7364336,117.264516 C52.7562953,116.679113 52.1682123,114.337499 51.9721847,112.581288 C54.1284889,107.89806 70.5948123,98.7267388 84.3167485,92.0921659 Z M91.7657996,91.3116279 C91.1777166,91.7018969 90.1975783,92.0921659 88.629357,91.8970314 C87.6492187,91.7018969 87.0611357,91.3116279 86.8651081,91.1164934 C87.8452464,90.7262244 88.8253847,90.3359554 89.6094953,89.7505519 C90.3936059,90.1408209 91.1777166,90.5310899 91.7657996,91.3116279 Z M92.5499102,101.458622 C89.805523,103.800236 90.1975783,105.751581 90.7856613,107.89806 C90.9816889,108.678598 91.1777166,109.459136 91.1777166,110.629943 C91.3737442,112.386154 89.0214123,115.70344 86.6690804,118.435323 L87.4531911,95.7997214 C88.041274,95.2143179 88.629357,94.6289144 89.0214123,94.4337799 L89.805523,94.4337799 C90.7856613,94.4337799 91.5697719,94.2386454 92.3538825,93.8483764 L92.5499102,101.458622 Z M57.8530145,118.630458 C59.4212357,117.459651 65.1060379,113.556961 69.2226187,110.629943 L56.6768485,126.240703 L57.8530145,118.630458 Z M69.614674,77.4570786 C69.614674,77.2619441 69.614674,77.2619441 69.614674,77.4570786 C69.2226187,77.2619441 69.0265911,77.0668096 68.8305634,76.8716751 L70.0067294,75.1154646 C70.202757,74.9203301 70.202757,74.7251956 70.202757,74.3349266 L70.202757,72.7738506 C70.3987847,72.7738506 70.5948123,72.7738506 70.79084,72.5787161 C70.79084,72.9689851 70.9868676,73.5543886 71.1828953,74.1397921 C71.1828953,74.5300611 71.378923,74.7251956 71.5749506,75.1154646 L71.5749506,75.1154646 C71.5749506,74.9203301 71.378923,74.7251956 71.378923,74.5300611 L69.614674,77.4570786 Z M67.4583698,62.0414532 L68.8305634,63.6025292 C68.6345357,63.7976637 68.4385081,63.9927982 68.2424804,64.3830672 C68.2424804,64.3830672 68.2424804,64.5782017 68.0464528,64.5782017 L66.6742591,63.2122602 C66.8702868,63.0171257 67.0663145,62.6268567 67.4583698,62.0414532 Z M70.79084,58.5290323 L71.9670059,60.4803772 C71.5749506,60.8706462 70.9868676,61.0657807 70.5948123,61.4560497 L69.2226187,59.8949738 C69.614674,59.5047048 70.202757,59.1144358 70.79084,58.5290323 Z M70.3987847,65.7490087 C72.3590613,62.8219912 75.6915315,61.0657807 79.0240017,61.2609152 C80.3961953,61.4560497 81.5723613,61.6511842 82.9445549,62.0414532 C82.9445549,62.0414532 86.8651081,63.4073947 88.2373017,68.2857572 L87.2571634,67.5052192 L87.2571634,67.5052192 L87.0611357,67.3100847 C87.0611357,67.3100847 83.7286655,65.5538742 80.3961953,62.4317222 C80.00414,62.0414532 79.2200293,62.0414532 78.827974,62.2365877 L71.5749506,67.3100847 C71.1828953,67.5052192 70.9868676,67.8954882 70.9868676,68.2857572 L70.9868676,69.8468331 C69.614674,70.2371021 69.0265911,70.0419676 68.6345357,70.0419676 C68.8305634,68.6760262 69.4186464,67.3100847 70.3987847,65.7490087 Z M83.5326379,75.8960026 C82.5524996,77.0668096 81.1803059,77.6522131 79.2200293,77.6522131 C77.2597528,77.6522131 75.8875591,77.0668096 74.9074208,75.8960026 C73.1431719,73.9446576 73.1431719,70.6273711 73.1431719,69.2614297 L79.0240017,65.1636052 C81.5723613,67.3100847 83.9246932,68.6760262 84.9048315,69.4565642 C85.2968868,71.0176401 85.1008591,74.1397921 83.5326379,75.8960026 Z M88.8253847,75.8960026 C88.8253847,76.0911371 88.8253847,76.0911371 88.8253847,75.8960026 L87.4531911,73.3592541 C87.6492187,72.5787161 87.6492187,71.7981781 87.6492187,71.2127746 L88.629357,71.7981781 C88.8253847,73.5543886 88.8253847,75.3105991 88.8253847,75.8960026 Z M87.2571634,61.8463187 C87.0611357,61.6511842 86.8651081,61.4560497 86.6690804,61.4560497 L87.2571634,60.0901083 C87.4531911,60.4803772 87.6492187,60.8706462 87.8452464,61.2609152 L87.2571634,61.8463187 Z M72.7511166,77.2619441 C72.9471442,77.4570786 72.9471442,77.4570786 73.1431719,77.6522131 L73.1431719,77.6522131 L73.1431719,79.7986925 C72.7511166,79.603558 72.3590613,79.213289 71.7709783,78.8230201 L72.7511166,77.2619441 Z M75.6915315,79.603558 C76.6716698,79.993827 77.8478357,80.1889615 79.2200293,80.1889615 C80.2001676,80.1889615 81.1803059,79.993827 81.9644166,79.7986925 L81.9644166,85.457593 C79.0240017,84.677055 76.4756421,82.72571 75.6915315,81.945172 L75.6915315,79.603558 L75.6915315,79.603558 Z M84.7088038,78.4327511 C84.9048315,78.2376166 85.2968868,78.0424821 85.4929145,77.6522131 C85.6889421,77.4570786 85.8849698,77.0668096 86.0809974,76.8716751 L87.0611357,78.8230201 C87.8452464,81.7500375 88.629357,85.067324 88.8253847,86.6284 C87.2571634,86.0429965 85.6889421,85.847862 84.5127762,85.847862 L84.7088038,78.4327511 L84.7088038,78.4327511 Z M88.041274,56.7728218 C87.8452464,56.5776873 87.6492187,56.3825528 87.2571634,56.1874183 L89.21744,54.6263423 L88.041274,56.7728218 Z M79.0240017,56.1874183 L79.0240017,56.1874183 C79.8081123,56.1874183 80.3961953,56.1874183 80.9842783,56.3825528 L80.592223,58.9193013 C80.2001676,58.9193013 79.8081123,58.7241668 79.416057,58.7241668 L78.827974,58.7241668 L78.4359187,56.1874183 L79.0240017,56.1874183 Z M78.6319464,53.4555353 L79.8081123,50.1382489 L80.592223,53.6506698 L79.2200293,53.6506698 L79.0240017,53.6506698 C78.827974,53.4555353 78.827974,53.4555353 78.6319464,53.4555353 Z M64.3219272,64.5782017 L66.6742591,66.9198157 C66.2822038,67.8954882 65.8901485,68.8711607 65.4980932,69.8468331 L65.4980932,70.0419676 C65.4980932,70.6273711 65.6941208,71.4079091 66.2822038,71.9933126 C66.6742591,72.1884471 67.0663145,72.3835816 67.4583698,72.5787161 L67.4583698,73.7495231 L66.4782315,75.1154646 C65.4980932,74.5300611 64.7139825,73.9446576 64.3219272,73.5543886 C64.1258996,71.9933126 63.7338442,68.2857572 61.57754,66.7246812 L61.57754,66.7246812 L61.57754,66.7246812 L61.57754,66.7246812 L61.57754,66.7246812 L58.6371251,64.3830672 C58.4410974,63.2122602 58.4410974,62.0414532 58.2450698,60.8706462 L64.3219272,64.5782017 Z M60.989457,70.2371021 C61.57754,71.6030436 61.7735676,73.3592541 61.7735676,74.3349266 C61.7735676,74.7251956 61.9695953,75.1154646 62.3616506,75.3105991 C62.7537059,75.5057336 69.2226187,80.1889615 73.5352272,83.506248 C74.1233102,84.0916515 78.4359187,87.9943415 83.3366102,88.3846104 L83.3366102,88.3846104 C83.9246932,88.3846104 84.7088038,88.3846104 85.4929145,88.5797449 C78.4359187,91.8970314 64.3219272,98.9218733 55.8927379,105.166177 L54.7165719,103.605101 L53.7364336,101.263487 L55.6967102,97.9462008 L55.6967102,97.9462008 C55.6967102,97.9462008 55.6967102,97.9462008 55.8927379,97.7510663 L60.5974017,85.2624585 C60.7934294,84.677055 60.5974017,83.896517 59.8132911,83.506248 L59.0291804,83.506248 C60.401374,82.1403065 61.3815123,80.774365 61.7735676,80.384096 C62.165623,79.7986925 62.165623,79.0181545 61.57754,78.6278856 C60.989457,78.2376166 60.2053464,78.2376166 59.8132911,78.8230201 C58.0490421,81.164634 52.5602676,87.2138035 49.4238251,85.2624585 C47.6595762,84.0916515 47.6595762,81.3597685 48.2476591,78.8230201 C48.6397145,80.1889615 49.4238251,81.164634 50.5999911,82.1403065 C50.9920464,82.5305755 51.776157,82.5305755 52.36424,82.1403065 C55.3046549,79.7986925 59.2252081,73.3592541 60.989457,70.2371021 Z M51.9721847,88.1894759 C54.1284889,87.799207 56.2847932,86.238131 58.2450698,84.677055 L54.3245166,94.8240489 L51.188074,91.1164934 L51.9721847,88.1894759 Z M47.0714932,27.5026471 L47.0714932,27.5026471 L50.5999911,27.6977816 C50.7960187,27.6977816 50.9920464,27.8929161 50.9920464,27.8929161 C50.9920464,27.8929161 51.188074,27.8929161 51.188074,28.0880506 C51.188074,28.2831851 50.9920464,28.6734541 50.5999911,28.6734541 L50.5999911,28.6734541 L50.5999911,28.6734541 L47.0714932,28.4783196 C46.8754655,28.4783196 46.4834102,28.2831851 46.4834102,27.8929161 C46.6794379,27.6977816 46.8754655,27.5026471 47.0714932,27.5026471 Z M48.2476591,41.7474655 L48.2476591,40.771793 L48.2476591,38.6253135 L50.4039634,38.6253135 L50.9920464,38.6253135 L50.9920464,38.6253135 C51.188074,38.6253135 51.5801294,38.430179 51.9721847,38.2350445 L51.9721847,41.7474655 L51.188074,41.7474655 L50.7960187,41.7474655 L48.2476591,41.7474655 Z M47.0714932,31.2102026 L47.0714932,31.2102026 L50.5999911,31.4053371 C50.7960187,31.4053371 51.188074,31.6004716 51.188074,31.9907406 C51.188074,32.1858751 50.9920464,32.3810096 50.7960187,32.3810096 C50.7960187,32.3810096 50.7960187,32.3810096 50.5999911,32.3810096 L48.8357421,32.3810096 L47.0714932,32.3810096 C46.8754655,32.3810096 46.4834102,32.1858751 46.4834102,31.7956061 C46.4834102,31.4053371 46.6794379,31.2102026 47.0714932,31.2102026 Z M47.0714932,34.917758 L48.8357421,34.917758 L50.5999911,34.917758 L50.7960187,34.917758 L50.9920464,34.917758 C51.188074,34.917758 51.3841017,35.1128925 51.3841017,35.308027 L51.3841017,35.308027 L51.3841017,35.308027 C51.3841017,35.5031615 51.188074,35.8934305 50.7960187,35.8934305 L47.2675208,35.8934305 C47.0714932,35.8934305 46.6794379,35.698296 46.6794379,35.308027 C46.4834102,35.1128925 46.6794379,34.917758 47.0714932,34.917758 Z M56.2847932,72.9689851 C54.7165719,75.3105991 53.1483506,77.6522131 51.776157,79.213289 C51.3841017,78.6278856 50.9920464,77.8473476 50.7960187,76.8716751 C48.8357421,64.9684707 50.2079357,45.6501554 50.2079357,45.4550209 C50.2079357,45.0647519 50.2079357,44.8696174 50.0119081,44.4793484 L49.8158804,44.0890794 L52.5602676,44.0890794 C52.952323,44.0890794 53.3443783,43.8939449 53.5404059,43.5036759 C53.3443783,44.4793484 53.1483506,45.6501554 53.3443783,46.8209624 L53.5404059,48.3820384 C54.3245166,52.4798628 55.6967102,60.8706462 56.0887655,67.3100847 L56.2847932,72.9689851 L56.2847932,72.9689851 Z M43.739023,21.8437467 L43.739023,18.7215947 L55.3046549,18.7215947 L55.3046549,21.8437467 L53.3443783,21.8437467 L46.0913549,21.8437467 L43.739023,21.8437467 Z M52.1682123,24.5756296 L52.1682123,25.1610331 L52.1682123,25.3561676 C51.776157,25.1610331 51.3841017,24.9658986 50.7960187,24.9658986 L47.6595762,24.7707641 L47.6595762,24.5756296 L52.1682123,24.5756296 Z M2.57321446,106.14185 C2.57321446,105.751581 2.96526978,102.824563 6.29773999,102.824563 L6.29773999,102.824563 C7.08185063,102.824563 7.66993361,102.23916 7.66993361,101.653756 C7.66993361,101.458622 8.25801659,96.9705284 13.1587081,97.5559318 C13.7467911,97.5559318 14.334874,97.3607974 14.5309017,96.7753939 C14.5309017,96.5802594 16.099123,93.2629729 19.4315932,93.2629729 C20.4117315,93.2629729 21.1958421,93.4581074 22.1759804,93.8483764 C22.1759804,93.8483764 25.1163953,95.2143179 25.9005059,98.9218733 C26.0965336,99.5072768 26.4885889,99.8975458 27.0766719,100.09268 C27.2726996,100.09268 31.1932528,100.482949 31.3892804,104.385639 C31.3892804,105.946715 30.9972251,107.312657 30.0170868,108.288329 C28.8409208,109.459136 27.2726996,109.849405 26.8806442,109.849405 L7.47390595,109.849405 C6.10171233,109.849405 4.92554637,109.459136 3.94540808,108.678598 C2.96526978,107.89806 2.57321446,107.117522 2.57321446,106.14185 Z M7.86596127,112.386154 L26.8806442,112.386154 C28.2528379,112.386154 30.2131145,111.605616 31.7813357,110.04454 C33.349557,108.483464 34.1336676,106.532119 33.93764,104.190505 C33.7416123,99.8975458 30.6051698,98.1413353 28.2528379,97.5559318 C27.0766719,93.2629729 23.3521464,91.5067624 23.1561187,91.5067624 C21.7839251,90.9213589 20.4117315,90.7262244 19.2355655,90.7262244 C15.3150123,90.7262244 13.1587081,93.4581074 12.3745974,95.0191834 C10.2182932,95.0191834 8.65007191,95.6045869 7.66993361,96.5802594 C10.2182932,72.7738506 24.9203676,52.4798628 45.5032719,42.1377344 L45.5032719,43.1134069 C45.5032719,43.5036759 45.6992996,43.6988104 45.6992996,43.8939449 L45.6992996,43.8939449 L47.2675208,45.8452899 C47.0714932,48.5771729 46.2873825,62.2365877 47.2675208,73.1641196 C46.6794379,74.7251956 42.562857,84.0916515 47.8556038,87.408938 C48.2476591,87.6040725 48.6397145,87.799207 49.0317698,87.9943415 L48.4436868,91.3116279 C48.4436868,91.7018969 48.4436868,92.0921659 48.6397145,92.4824349 L52.952323,97.5559318 L51.188074,100.678084 C50.9920464,101.068353 50.9920464,101.458622 51.188074,101.848891 L52.36424,104.971043 C52.36424,104.971043 52.36424,105.166177 52.5602676,105.166177 L53.9324613,106.922388 C51.776157,108.873733 50.0119081,110.629943 49.6198528,112.191019 L49.6198528,112.581288 C49.6198528,113.166692 49.8158804,118.240189 52.7562953,119.801265 C53.1483506,119.996399 53.7364336,120.191534 54.5205442,120.191534 L55.1086272,120.191534 L53.5404059,130.728796 L51.5801294,133.07041 C51.188074,133.265545 50.9920464,133.655814 51.188074,134.046083 L54.3245166,144.583346 L53.3443783,163.901661 C53.3443783,164.487065 53.5404059,164.877334 54.1284889,165.267603 C54.3245166,165.267603 54.5205442,165.462737 54.7165719,165.462737 C54.5205442,166.43841 54.3245166,167.609217 54.1284889,168.975158 C29.4290038,160.38924 11.1984315,138.729311 7.86596127,112.386154 Z M56.4808208,169.755696 C57.0689038,166.243275 57.6569868,163.511392 57.8530145,162.730854 L70.0067294,149.851977 C68.0464528,158.242761 65.8901485,166.43841 64.1258996,171.511907 C61.57754,171.121638 59.0291804,170.536234 56.4808208,169.755696 Z M76.6716698,172.682714 C73.3391996,172.682714 70.202757,172.487579 66.8702868,171.902176 C69.4186464,164.29193 72.1630336,152.388726 73.7312549,145.949287 L81.3763336,137.948773 L77.0637251,166.43841 L77.0637251,167.023813 L77.0637251,167.023813 C77.4557804,168.584889 79.2200293,171.316772 83.3366102,171.707041 C83.1405825,171.902176 82.9445549,172.292445 82.7485272,172.487579 C80.7882506,172.487579 78.6319464,172.682714 76.6716698,172.682714 Z M86.0809974,172.09731 C86.2770251,171.511907 86.4730528,170.926503 86.4730528,170.3411 L86.4730528,162.145451 L89.4134676,159.803837 C89.21744,162.925989 89.0214123,167.218948 88.629357,171.511907 C87.6492187,171.707041 86.8651081,171.902176 86.0809974,172.09731 Z M93.9221038,170.536234 C93.1379932,170.731369 92.1578549,170.926503 91.3737442,171.121638 L91.3737442,171.121638 L91.9618272,158.047626 L91.5697719,158.242761 L92.1578549,157.852492 L93.5300485,156.876819 L93.9221038,156.876819 L95.2942974,157.071954 L96.2744357,169.755696 C95.4903251,170.145965 94.7062145,170.3411 93.9221038,170.536234 Z M98.8227953,168.975158 L98.0386847,157.657357 L100.194989,158.047626 C100.391017,159.803837 100.9791,163.511392 101.567183,167.999486 C100.391017,168.389755 99.6069059,168.780024 98.8227953,168.975158 Z M103.919514,167.023813 C103.723487,166.243275 103.723487,165.462737 103.527459,164.682199 C105.879791,161.755182 106.271846,158.242761 106.271846,158.047626 L104.115542,140.87579 C108.624178,138.534176 109.604317,133.655814 109.408289,130.923931 C110.1924,130.923931 110.584455,131.119065 111.172538,131.119065 C112.152676,131.119065 113.132814,130.728796 113.720897,129.948258 C114.112953,129.362855 114.30898,128.777452 114.30898,128.192048 C115.093091,127.996914 115.877202,127.606645 116.269257,127.021241 C116.661312,126.435838 116.85734,125.850434 116.85734,125.265031 C117.445423,125.069896 118.033506,124.679627 118.425561,124.289358 C118.817617,123.703955 119.209672,123.118551 119.209672,122.533148 C119.797755,122.338013 120.385838,121.947744 120.973921,121.557475 C121.562004,120.972072 121.758031,119.996399 121.758031,119.215861 C121.758031,118.825592 121.562004,118.435323 121.562004,118.240189 L124.110363,115.508306 C124.306391,115.313171 124.502419,114.922902 124.502419,114.532633 C124.502419,114.142364 124.306391,113.752095 123.914336,113.556961 L110.1924,103.605101 C109.604317,103.214832 108.820206,103.214832 108.428151,103.800236 L104.703625,107.702926 L99.6069059,101.653756 L99.018823,97.5559318 C98.8227953,95.6045869 97.842657,93.8483764 96.4704634,92.4824349 L93.5300485,89.5554174 C92.9419655,88.9700139 92.3538825,88.5797449 91.7657996,88.1894759 C91.9618272,87.2138035 91.5697719,84.8721895 90.0015506,79.213289 C90.3936059,78.8230201 90.7856613,78.2376166 91.1777166,78.0424821 C91.5697719,77.6522131 91.9618272,77.0668096 91.3737442,71.6030436 C91.3737442,70.4322366 91.1777166,69.2614297 90.9816889,68.2857572 C91.1777166,67.8954882 91.3737442,67.3100847 91.3737442,66.7246812 L100.391017,61.2609152 C100.9791,60.8706462 101.175127,60.2852428 100.9791,59.6998393 C100.783072,59.1144358 100.194989,58.7241668 99.4108783,58.9193013 L90.3936059,60.8706462 C90.1975783,60.4803772 90.0015506,60.0901083 89.805523,59.6998393 L95.0982698,50.7236524 C95.4903251,50.1382489 95.2942974,49.5528454 94.9022421,49.1625764 C94.5101868,48.7723074 93.7260762,48.7723074 93.1379932,49.1625764 L84.9048315,55.4068803 C84.5127762,55.2117458 83.9246932,55.0166113 83.5326379,54.8214768 L81.3763336,45.8452899 C81.1803059,45.2598864 80.7882506,44.8696174 80.2001676,44.8696174 C79.6120847,44.8696174 79.0240017,45.2598864 78.827974,45.8452899 L75.8875591,54.6263423 C74.9074208,54.8214768 73.9272825,55.0166113 73.1431719,55.4068803 L65.3020655,48.1869039 C64.9100102,47.7966349 64.1258996,47.7966349 63.5378166,48.1869039 C62.9497336,48.5771729 62.9497336,49.1625764 63.1457613,49.7479799 L67.6543974,59.1144358 C67.0663145,59.6998393 66.6742591,60.0901083 66.2822038,60.6755117 L58.2450698,58.7241668 C57.6569868,55.0166113 57.0689038,51.6993248 56.6768485,49.5528454 L56.4808208,47.9917694 C56.0887655,45.8452899 57.0689038,43.8939449 57.0689038,43.8939449 C58.4410974,41.9425999 59.0291804,38.9925499 59.4212357,37.2363394 C65.1060379,35.6752635 70.9868676,34.8947255 77.0637251,34.8947255 C115.289119,34.8947255 146.261489,66.9198157 146.261489,104.775908 C145.869434,132.094738 128.619,156.48655 103.919514,167.023813 Z" id="Shape" fill="#313D3E" fill-rule="nonzero" mask="url(#mask-2)"/><path d="M128.453632,73.2933806 C128.649659,71.534893 128.061576,69.3856303 125.905272,67.8225302 C124.337051,66.8455926 122.572802,66.2594301 120.612525,66.6502051 C118.848276,66.8455926 117.280055,67.8225302 116.299917,68.9948553 C115.907861,68.9948553 115.515806,68.7994678 115.123751,68.7994678 C113.55553,68.7994678 111.987308,69.3856303 110.811142,70.5579554 C110.811142,70.5579554 109.438949,71.7302805 109.046893,73.6841557 C107.478672,74.2703182 105.714423,75.8334183 105.910451,78.9596186 C106.106479,82.8673689 110.232564,84 111.996813,84 L125.905272,84 C127.473493,84 130.805964,82.8673689 131.590074,79.3503936 C131.590074,78.9596186 131.786102,78.7642311 131.786102,78.373456 C132.178157,76.6149684 131.198019,74.2703182 128.453632,73.2933806 Z M129.43377,78.9596186 C128.845687,81.3042688 127.277466,82 127.081438,82 L111.987308,82 C111.595253,82 109.046893,81.3042688 109.046893,78.9596186 C108.850866,76.6149684 110.615115,76.2241934 110.811142,76.0288059 C111.399225,75.8334183 111.987308,75.4426433 111.987308,74.6610932 C111.987308,73.2933806 112.967447,72.5118306 112.967447,72.5118306 C113.55553,71.925668 114.535668,71.534893 115.319779,71.534893 C116.103889,71.534893 116.691972,71.7302805 116.691972,71.7302805 C117.280055,71.925668 118.064166,71.7302805 118.456221,71.144118 C119.044304,69.9717929 120.024442,69.3856303 121.396636,69.1902428 C122.572802,68.9948553 123.748968,69.3856303 124.729106,69.9717929 C126.689383,71.3395055 125.905272,73.8795432 125.905272,73.8795432 C125.709244,74.2703182 125.905272,74.6610932 126.1013,75.0518683 C126.297327,75.4426433 126.689383,75.6380308 127.081438,75.6380308 C128.845687,75.8334183 129.629798,76.8103559 129.629798,78.5688436 C129.43377,78.7642311 129.43377,78.7642311 129.43377,78.9596186 Z" id="Shape" fill="#313D3E" fill-rule="nonzero" mask="url(#mask-2)"/></g></g></g><circle id="Oval-3" fill="#313D3E" cx="40" cy="43" r="2"/><circle id="Oval-3-Copy" fill="#313D3E" cx="65" cy="34" r="2"/><circle id="Oval-3-Copy-2" fill="#313D3E" cx="7" cy="118" r="2"/><circle id="Oval-3-Copy-3" fill="#313D3E" cx="7" cy="91" r="2"/><path d="M43,16 C43,16 42,11 43,9 C44,7 45,5 45,2 C45,-1 46,5 48,5 C50,5 52,0 52,0 C52,0 55,5 55,7 C55,9 54,10 54,10 C54,10 57,9 57,7 C57,5 60,11 59,13 C58,15 57,17 57,17 L44,17 L43,16 Z M45.925405,8.94016744 C43.8781931,12.6131152 45.5159626,15.061747 46.5395686,15.8779576 L53.0906465,15.8779576 C54.728416,15.061747 55.752022,14.0414838 56.1614643,12.6131152 C56.3661855,11.3887993 56.3661855,10.1644834 56.1614643,9.34827275 C55.1378584,10.5725887 54.5236948,11.1847466 54.5236948,11.1847466 C54.1142525,11.7969046 53.2953677,11.7969046 52.6812042,11.3887993 C52.0670406,10.980694 52.0670406,10.1644834 52.476483,9.5523254 C53.0906465,8.73611479 52.476483,6.49153561 51.6575982,4.24695643 C50.6339923,6.89964091 50.2245499,9.34827275 50.2245499,9.34827275 C50.0198287,9.96043071 49.4056652,10.5725887 48.5867804,10.368536 C47.7678957,10.1644834 47.1537321,9.5523254 47.3584533,8.73611479 C47.5631745,7.91990418 47.3584533,7.10369357 46.9490109,6.49153561 C46.5395686,7.71585153 46.1301262,8.53206214 45.925405,8.94016744 Z" id="Combined-Shape" fill="#ED1C40"/><path d="M101.937131,112.455946 C101.938217,112.431484 101.93888,112.423895 101.935237,112.447031 C101.9037,112.647326 101.849973,112.830592 101.664101,113.1094 C101.66642,113.105922 101.764593,112.982353 101.935812,112.767435 C101.933291,112.638798 101.933757,112.531952 101.937131,112.455946 Z M101.939953,112.922086 C101.945019,113.074177 101.953132,113.239486 101.963453,113.40995 C101.974779,113.597025 101.986042,113.749231 101.993106,113.83408 L100,114 C100,114 99.8519882,112.222018 100,112 C100.148012,111.777982 106.124497,104.336746 106.124497,104.336746 C107.160309,103.046197 109.069851,102.815457 110.381516,103.815229 L122.117763,112.760784 C123.433038,113.763308 123.543086,115.511633 122.352913,116.676197 L121,118 L119.601249,116.570491 L120.954162,115.246688 C121.271482,114.936196 121.251941,114.615576 120.905364,114.351409 L109.169116,105.405854 C108.719012,105.062777 108.03979,105.145635 107.68383,105.589136 C107.636063,105.64861 107.636063,105.64861 107.420772,105.916742 C107.133689,106.274337 107.133689,106.274337 106.726963,106.781128 C106.009243,107.675516 105.291534,108.570502 104.62175,109.406582 C103.47888,110.833224 102.417855,112.162362 101.935812,112.767435 C101.936765,112.816037 101.938144,112.86775 101.939953,112.922086 Z M101.937131,112.455946 C101.938217,112.431484 101.93888,112.423895 101.935237,112.447031 C101.9037,112.647326 101.849973,112.830592 101.664101,113.1094 C101.66642,113.105922 101.764593,112.982353 101.935812,112.767435 C101.933291,112.638798 101.933757,112.531952 101.937131,112.455946 Z" id="Rectangle-5" fill="#ED1C40" fill-rule="nonzero"/><path d="M107.383556,129.782277 L109,130.960033 L107.21847,131.868962 L106.6603,130.77493 L107.383556,129.782277 Z M104.226242,131.882898 L102.238968,132.108162 L103.295447,130.409972 L104.117232,130.92122 L104.226242,131.882898 Z M106.21847,129.908928 L108,129 L109,130.960033 L108.083689,132.21765 C107.107199,133.55786 105.180028,133.937856 103.768553,133.059748 L102.238968,132.108162 L102,130 L103.987273,129.774735 L104.117232,130.92122 L104.825031,131.361557 C105.344355,131.684639 106.106142,131.535499 106.467245,131.039893 L106.6603,130.77493 L106.21847,129.908928 Z M103.295447,130.409972 L102.238968,132.108162 L104.226242,131.882898 L104.117232,130.92122 L103.295447,130.409972 Z M107.383556,129.782277 L109,130.960033 L107.21847,131.868962 L106.6603,130.77493 L107.383556,129.782277 Z M104.825031,131.361557 C105.344355,131.684639 106.106142,131.535499 106.467245,131.039893 L106.6603,130.77493 L106.21847,129.908928 L108,129 L109,130.960033 L108.083689,132.21765 C107.107199,133.55786 105.180028,133.937856 103.768553,133.059748 L102.238968,132.108162 L102,130 L103.987273,129.774735 L104.117232,130.92122 L104.825031,131.361557 Z" id="Rectangle-5-Copy" fill="#ED1C40" fill-rule="nonzero"/></g></g></svg>