<svg width="164" height="157" viewBox="0 0 164 157" version="1.1" xmlns="http://www.w3.org/2000/svg" xmlns:xlink="http://www.w3.org/1999/xlink"><title>okc-art</title><desc>Created with Sketch.</desc><defs><path d="M40.5425075,9.02975186 L65.5724561,79.741015 L81.7552678,86.8959774 L108.206688,102.114856 L143.784453,107.174844 C143.313556,108.194303 142.818875,109.204934 142.300463,110.205882 C138.061385,118.390691 122.081169,134.646159 121.57837,135.03641 C90.2862209,159.324095 45.0939286,155.189634 18.7857383,124.925523 C-8.45622817,93.5872251 -5.13537633,46.0968311 26.2029213,18.8548646 C30.6875658,14.9564226 35.5029864,11.6838715 40.5425075,9.02975186 Z M54.5764326,3.3724216 C81.8397792,-4.51765277 112.42905,3.44352816 132.273579,26.2720476 C148.299882,44.7081997 153.748681,68.7344399 149.138224,90.9395045 L147.612789,91.1035066 L110.785931,78.3521859 L88.8505442,73.8022953 L72.6889474,48.5688412 L58.0361859,9.44431203 L54.5764326,3.3724216 Z" id="path-1"/><path d="M121.424184,134.934998 C90.132035,159.222683 44.9397427,155.088221 18.6315524,124.824111 C-8.61041408,93.4858129 -5.28956223,45.9954189 26.0487354,18.7534524 C57.387033,-8.48851415 104.877427,-5.1676623 132.119394,26.1706353 C152.9467,50.1297109 155.909842,83.529791 142.146277,110.10447 C137.907199,118.289279 121.926983,134.544746 121.424184,134.934998 Z" id="path-3"/></defs><g id="meetups" stroke="none" stroke-width="1" fill="none" fill-rule="evenodd"><g id="okc-art" transform="translate(-1.000000, 1.000000)"><g id="Shape-Copy-3" transform="translate(0.000000, 8.000000)"><mask id="mask-2" fill="#fff"><use xlink:href="#path-1"/></mask><path d="M144,75.5 C144,114.435448 112.435448,146 73.5,146 C34.5645517,146 3,114.435448 3,75.5 C3,36.5645517 34.5645517,5 73.5,5 C112.435448,5 144,36.5645517 144,75.5 L144,75.5 Z" id="Shape-Copy" stroke="#313D3E" stroke-width="3" stroke-linecap="round" stroke-linejoin="round" mask="url(#mask-2)"/></g><g id="Group-5"><mask id="mask-4" fill="#fff"><use xlink:href="#path-3"/></mask><g mask="url(#mask-4)" stroke-linecap="round" stroke="#313D3E" stroke-width="2" stroke-linejoin="round"><g transform="translate(-158.484375, 104.813642)"><path d="M230.75075,12.5108405 L0,112.229598" id="Path-25"/><path d="M252.797,147.186358 L253.693189,11.7749087" id="Path-34"/><polyline id="Path-35" points="8.4510625 19.5021925 115.007937 13.9827041 309.382375 11.7749087 301.29875 45.2598052 300.563875 57.7706457 305.708 70.2814862 367.4375 137.987211"/><path d="M200.988313,138.723143 L249.8575,12.1428746" id="Path-36"/><path d="M148.44475,140.930938 L246.183125,12.5108405" id="Path-37"/><path d="M95.1663125,141.298904 L241.773875,12.8788064" id="Path-38"/><path d="M4.40925,136.515347 L238.0995,12.5108405" id="Path-39"/><path d="M6.613875,61.4503047 L201.35575,13.2467723" id="Path-40"/><path d="M7.7161875,47.4676006 L195.47675,12.8788064" id="Path-41"/><path d="M224.792074,2.64155095 L271.424187,4.78355665" id="Path-42"/><polyline id="Path-42-Copy" points="14.4510625 8.09524972 112.556875 0 207.087334 2.18590265"/><polygon id="Path-43" points="200.620875 13.2467723 198.41625 26.4935445 207.23475 22.8138856 204.662687 13.2467723"/><polygon id="Path-45" points="264.922438 12.5108405 264.555 23.1818515 270.801437 23.9177833 271.168875 12.5108405"/></g></g></g><g id="Group-2" transform="translate(101.775848, 62.683280) rotate(3.000000) translate(-101.775848, -62.683280) translate(39.775848, 8.183280)" stroke-width="2" stroke="#ED1C40"><polygon id="Path-14" points="-3.63797881e-12 0 32.6210946 78.9503303 14.1209122 108.556704 40.6646522 82.0286689 69.7303097 94.7258115 106.35246 97.9976528 116.720958 97.8730585 123.208893 92.5542052 107.47927 95.0893076 69.4051845 84.0775594 44.0298398 78.3524233 42.2733128 44.8358906 38.3409578 37.7549171 37.8047206 29.9685313 32.2376912 17.3234096 34.6766705 68.0856059 9.20540479 12.8565905 3.93240593 4.61750785"/><polyline id="Path-15" points="32.5780256 79.1072709 40.697472 81.8491146 34.6830672 68.0891208"/><polyline id="Path-16" points="38.4303307 38.1170746 40.9480721 81.8491146 116.810331 97.8730585"/></g></g></g></svg>