<svg xmlns="http://www.w3.org/2000/svg" xmlns:xlink="http://www.w3.org/1999/xlink" width="144" height="144" viewBox="0 0 144 144">
  <defs>
    <circle id="oslo-illo-a" cx="72" cy="72" r="72"/>
  </defs>
  <g fill="none" fill-rule="evenodd">
    <mask id="oslo-illo-b" fill="#fff">
      <use xlink:href="#oslo-illo-a"/>
    </mask>
    <g stroke="#313D3E" stroke-linecap="round" stroke-linejoin="round" stroke-width="2" mask="url(#oslo-illo-b)">
      <g transform="translate(-105 8)">
        <path d="M9.01387247,107.547857 L314.980878,109.252335 L343.860229,120"/>
        <polyline points="87.832 107.978 24.999 85.054 24.999 66.925 206.269 108.091"/>
        <path d="M176.269206 108.091431L24.9994081 71.3978495M47.7142046 71.3978495L86.4249243 73.8172043C131.855147 85.7168459 154.570258 91.6666667 154.570258 91.6666667L218.125227 96.2768854C218.125227 71.8998197 218.125227 59.7112868 218.125227 59.7112868L152.437028 54.4316763 83.2667174 72.7386951"/>
        <polyline points="90.537 75.354 152.884 58.615 218.125 63.815"/>
        <path d="M129.242758 60.4645801C130.53012 48.6248949 131.173801 42.7050524 131.173801 42.7050524L184.481298 45.7464818 184.481298 56.8288556M113.97053 117.311828L180.079525 113.773928M230.345785 108.983131L259.693245 120M218.125227 90.8870669L274.849106 108.983131M218.125227 87.5080108L282.958231 108.983131M152.883889 58.6148918L153.928665 91.5343002"/>
        <polygon fill="#ED1C40" points="24.999 71.398 176.269 108.091 86.344 107.978 24.999 85.269"/>
        <path d="M157.868734 59.464425L157.868734 91.5343002M162.164205 59.464425L162.164205 91.5343002M166.802484 60.4645801L166.802484 92.4193548M171.368605 60.4645801L171.368605 92.8721709M175.720739 60.4645801L175.720739 92.8721709M180.0858 61.1290323L180.0858 93.3683443M184.487573 61.1290323L184.487573 93.7929914M188.782119 61.6277455L189.271228 94.3310495M193.097116 62.0775235L193.097116 94.3310495M197.41499 62.6344086L197.831431 94.8703964M201.597021 62.6151579L202.029533 94.8732224M205.571304 63.172043L206.322543 94.8732224M209.675685 63.1527923L210.451782 95.747399M213.924421 63.5998737L214.575601 96.0541244M148.598529 60.4645801L148.598529 89.74464M143.471567 61.4444191L143.247754 88.6314993M138.437226 62.759923L138.437226 87.5080108M133.6484 64.084126L133.6484 86.0215054M128.801205 65.4962362L129.242758 84.5222814M124.355016 66.6126772L124.355016 83.39687M120.034875 67.4242751L119.897886 82.2427835M115.640615 68.7634409L115.640615 81.2755676M111.983396 69.8468256L112.109451 80.4153189M109.788276 70.2150538L109.788276 79.826999M106.461359 71.344086L106.461359 79.0130073M104.761247 78.7441901C136.919785 71.2246441 152.999054 67.4648711 152.999054 67.4648711L218.202593 71.5882653M218.202593 79.826999C174.971744 77.5001391 153.356319 76.3367092 153.356319 76.3367092L118.835096 82.0865211M218.202593 87.5080108C175.191698 85.502489 153.68625 84.4997281 153.68625 84.4997281L137.298059 87.004115"/>
      </g>
    </g>
    <path fill="#313D3E" fill-rule="nonzero" d="M72,144 C32.235498,144 0,111.764502 0,72 C0,32.235498 32.235498,-1.69197989e-13 72,-1.69197989e-13 C111.764502,-1.69197989e-13 144,32.235498 144,72 C144,111.764502 111.764502,144 72,144 Z M72,141 C110.107648,141 141,110.107648 141,72 C141,33.8923523 110.107648,3 72,3 C33.8923523,3 3,33.8923523 3,72 C3,110.107648 33.8923523,141 72,141 Z" mask="url(#oslo-illo-b)"/>
  </g>
</svg>
