<svg xmlns="http://www.w3.org/2000/svg" xmlns:xlink="http://www.w3.org/1999/xlink" width="144" height="169" viewBox="0 0 144 169">
  <defs>
    <path id="paris-illo-a" d="M82,0.688858844 C117.031353,5.5564143 144,35.6287747 144,72 C144,111.764502 111.764502,144 72,144 C32.235498,144 0,111.764502 0,72 C0,35.9756242 26.4567331,6.1305496 61,0.834975472 L61,-28 L82,-28 L82,0.688858844 Z"/>
  </defs>
  <g fill="none" fill-rule="evenodd" transform="translate(0 25)">
    <mask id="paris-illo-b" fill="#fff">
      <use xlink:href="#paris-illo-a"/>
    </mask>
    <g stroke-linecap="round" stroke-linejoin="round" stroke-width="2" mask="url(#paris-illo-b)">
      <g transform="translate(-78 -28)">
        <polygon stroke="#ED1C40" points="145.922 16.237 152.318 16.237 154.246 19.674 154.246 26.394 152.899 27.921 145.922 27.921 144.235 26.394 144.235 19.674"/>
        <path stroke="#313D3E" d="M144.306921,22.4959742 L146.321921,25.4489342 C142.672456,72.6757171 139.922233,98.8576824 138.071252,103.99483 L160.69074,103.99483 C155.321403,63.8431329 152.636734,37.6611676 152.636734,25.4489342 L154.246497,22.4959742"/>
        <polyline stroke="#ED1C40" points="144.148 21.877 146.245 20.081 152.124 20.081 154.246 21.877"/>
        <path stroke="#313D3E" d="M140.557093,143.167348 C142.765771,133.71866 144.079742,127.147414 144.499007,123.453608 L154.246497,123.453608 C156.219278,135.275601 157.540024,141.846847 158.208734,143.167348 L140.557093,143.167348 Z"/>
        <polygon stroke="#313D3E" points="120.525 148.482 178.024 148.482 178.024 144.138 178.024 138.746 120.525 138.687 120.525 143.584"/>
        <path stroke="#313D3E" d="M120.495323 143.174464L177.929126 143.174464M120.927891 148.481726L94.9243114 186.656739 112.88331 186.656739C119.727717 166.593728 131.79589 156.528084 149.087831 156.459806 166.379772 156.391527 179.141227 166.82576 187.372196 187.762505L203.896813 187.762505 178.331984 148.62543 120.927891 148.481726z"/>
        <path stroke="#313D3E" d="M113.618119,184.707904 L124.357965,184.707904 C128.267932,170.618557 136.5739,163.573883 149.27587,163.573883 C161.977839,163.573883 170.171879,170.618557 173.857989,184.707904 L186.128987,184.879725"/>
        <polyline stroke="#313D3E" points="149.335 27.903 149.335 69.523 153.189 104.427"/>
        <path stroke="#313D3E" d="M149.41324,69.8851808 L145.391195,104.426791"/>
        <polygon stroke="#313D3E" points="134.906 114.648 163.78 114.991 163.115 112.876 135.63 112.876"/>
        <polygon stroke="#313D3E" points="117.45 153.572 181.671 153.572 182.777 155.588 116.349 155.588"/>
        <path stroke="#313D3E" d="M115.298828 180.670103C125.132214 162.10693 131.402247 151.377471 134.108926 148.481726M183.471068 179.036871C173.260132 160.545594 167.20791 150.408447 165.314402 148.62543M123.841822 143.127148L123.841822 152.922021M127.101759 143.127148L127.101759 152.922021M130.275908 143.127148L130.275908 152.922021M133.535845 143.127148L133.535845 152.922021M136.795782 143.127148L136.795782 152.922021M139.969931 143.127148L139.969931 152.922021M143.229868 143.127148L143.229868 152.922021M146.404018 143.127148L146.404018 152.922021M149.663955 143.127148L149.663955 152.922021M152.923892 143.127148L152.923892 152.922021M156.098041 143.127148L156.098041 152.922021M159.357978 143.127148L159.357978 152.922021M162.617915 143.127148L162.617915 152.922021M165.792065 143.127148L165.792065 152.922021M169.052002 143.127148L169.052002 152.922021M172.226151 143.127148L172.226151 152.922021M175.486088 143.127148L175.486088 152.922021M153.790984 107.442319L154.783504 112.87592M144.92596 107.41203L143.957318 112.972509M109.815313 164.921469L123.865028 164.921469M175.902674 165.754963L189.418088 165.754963M120.496097 148.62543L120.496097 153.607562M178.512098 149.015406L178.512098 153.585063"/>
        <polyline stroke="#313D3E" points="127.74 135.653 140.994 128.756 132.73 121.178 143.585 114.991"/>
        <path stroke="#313D3E" d="M135.148681 114.648295C140.229702 119.354342 142.770212 121.707365 142.770212 121.707365L130.552414 128.073904 139.277674 136.374001M139.477132 114.648295C135.40056 129.110001 132.967426 137.122854 132.177729 138.686853M159.886741 114.990658C162.94759 127.801124 165.205925 135.699856 166.661748 138.686853"/>
        <polyline stroke="#313D3E" points="155.52 114.991 165.998 121.707 158.156 128.756 171.21 135.825 166.813 138.746"/>
        <polyline stroke="#313D3E" points="163.921 114.991 156.578 121.178 168.504 128.522 159.992 135.825 166.697 138.687"/>
        <polyline stroke="#313D3E" points="136.561 108.247 140.108 112.973 144.867 108.247 149.365 112.876 154.246 108.662 158.915 112.876 161.689 108.662"/>
        <polyline stroke="#313D3E" points="135.586 112.876 141.116 107.302 143.866 112.973 149.652 107.302 154.839 112.876 158.4 107.302 162.926 112.25"/>
        <path stroke="#313D3E" d="M149.504255,107.302405 L149.504255,112.87592"/>
        <polyline stroke="#313D3E" points="103.495 174.121 123.368 165.187 120.705 169.819 118.232 174.121 109.815 164.914 106.753 169.518"/>
        <polyline stroke="#313D3E" points="109.815 164.4 129.01 155.588 115.94 155.588 123.251 165.187"/>
        <path stroke="#313D3E" d="M122.6507 155.587843L110.387437 174.156301M126.369221 160.961922L112.853985 160.961922M120.954423 169.912012L106.551568 169.639438"/>
        <polyline stroke="#313D3E" points="183.184 156.357 175.798 165.187 195.216 174.895"/>
        <polyline stroke="#313D3E" points="181.37 175.106 189.479 165.748 170.401 155.588"/>
        <path stroke="#313D3E" d="M176.348142 155.587843L188.218601 174.89483M173.024798 160.316395L186.136844 160.316395M179.074159 170.317869L191.99563 169.912012"/>
        <polyline stroke="#313D3E" points="154.753 104.427 159.868 98.989 151.835 93.064 158.383 86.156 150.463 80.143 156.72 74.306 149.34 69.022 155.749 63.54 144.023 54.059 153.846 46.141 145.388 38.289 152.867 32.062 149.34 27.921"/>
        <polyline stroke="#313D3E" points="150.034 104.427 154.549 98.989 147.117 93.064 152.893 86.156 145.745 80.143 151.572 74.306 144.622 69.022 150.601 63.54 139.305 54.059 149.128 46.141 140.669 38.289 148.149 32.062 144.622 27.921" transform="matrix(-1 0 0 1 293.854 0)"/>
        <polyline stroke="#313D3E" points="146.853 104.427 159.022 92.438 151.294 86.271 157.5 80.571 149.542 74.306 156.385 68.986 143.668 58.671 154.177 50.074 145.073 42.232 153.348 35.668 145.994 28.981"/>
        <polyline stroke="#313D3E" points="140.14 104.427 152.13 92.775 141.541 80.615 149.108 74.306 142.613 69.523 155.089 58.893 144.414 50.074 153.736 42.232 145.652 35.094 152.741 29.203"/>
        <polyline stroke="#313D3E" points="151.408 103.995 140.095 92.775 147.199 86.94"/>
        <polyline stroke="#313D3E" points="158.848 103.995 146.49 92.497 151.627 86.271"/>
        <polyline stroke="#ED1C40" points="135.624 112.876 133.98 104.427 164.727 104.427 163.311 112.876"/>
        <path stroke="#ED1C40" d="M149.341787,4.03780069 L149.341787,16.2371134"/>
        <path stroke="#313D3E" d="M137.299352,107.302405 C130.962753,127.669449 126.732429,139.624429 124.608379,143.167348 L137.299352,143.167348 C141.399488,128.351636 143.449557,118.959406 143.449557,114.990658 L155.339077,114.990658 C158.896514,132.38173 161.174768,141.77396 162.17384,143.167348 L173.579028,143.167348 C166.315465,122.514319 162.263002,110.559338 161.421637,107.302405 L137.299352,107.302405 Z"/>
      </g>
    </g>
    <path fill="#313D3E" fill-rule="nonzero" d="M61,0.834975472 C26.4567331,6.1305496 0,35.9756242 0,72 C0,111.764502 32.235498,144 72,144 C111.764502,144 144,111.764502 144,72 C144,35.6287747 117.031353,5.5564143 82,0.688858844 L82,3.71934837 C115.368654,8.56368469 141,37.2885815 141,72 C141,110.107648 110.107648,141 72,141 C33.8923523,141 3,110.107648 3,72 C3,37.6361414 28.1206308,9.13952056 61,3.8720297 L61,0.834975472 Z" mask="url(#paris-illo-b)"/>
  </g>
</svg>
