<?xml version="1.0" encoding="UTF-8"?>
<svg width="145px" height="144px" viewBox="0 0 145 144" version="1.1" xmlns="http://www.w3.org/2000/svg" xmlns:xlink="http://www.w3.org/1999/xlink">
    <!-- Generator: Sketch 43.2 (39069) - http://www.bohemiancoding.com/sketch -->
    <title>philadelphia-art</title>
    <desc>Created with Sketch.</desc>
    <defs></defs>
    <g id="meetups" stroke="none" stroke-width="1" fill="none" fill-rule="evenodd">
        <g id="philadelphia-art" transform="translate(1.000000, 1.000000)">
            <path d="M22.7571767,122.609475 C9.37795002,109.778193 1.0485217,91.7222084 1.0485217,71.7211506 C1.0485217,32.7857024 32.6130734,1.22115064 71.5485217,1.22115064 C110.48397,1.22115064 142.048522,32.7857024 142.048522,71.7211506 C142.048522,90.862367 134.41986,108.222152 122.037119,120.925926" id="Shape-Copy-7" stroke="#313D3E" stroke-width="3" stroke-linecap="round" stroke-linejoin="round" transform="translate(71.548522, 61.915313) scale(1, -1) rotate(-179.000000) translate(-71.548522, -61.915313) "></path>
            <g id="noun_476921_cc" transform="translate(25.000000, 24.000000)" fill-rule="nonzero">
                <g id="Group">
                    <path d="M91.7027083,99.2472273 C90.8543056,98.4800455 89.9095833,97.8130455 88.9068056,97.1078182 C83.113125,93.0240909 74.3572917,86.8536818 74.3572917,48.4273636 C74.3572917,45.4047727 72.5113889,42.8066364 69.6547917,41.8087727 C65.704375,40.4299545 61.7196528,39.4268182 57.7388889,38.7795909 L57.7388889,26.8263182 L68.5728472,30.7492273 C68.7259028,30.8045909 68.886875,30.8335909 69.0504861,30.8335909 L77.4632639,30.8335909 L77.4632639,32.7937273 C77.4632639,33.2313636 77.6664583,33.6452727 78.0161111,33.9089091 L82.0140278,36.9473182 L82.0140278,38.6556818 C82.0140278,39.0933182 82.2185417,39.5072273 82.5681944,39.7721818 L86.5159722,42.7684091 L86.5159722,44.5136818 C86.5159722,44.9513182 86.7191667,45.3652273 87.0701389,45.6301818 L91.758125,49.1892727 C92.1803472,49.5095909 92.7516667,49.5636364 93.2293056,49.3276818 C93.705625,49.0904091 94.0077778,48.6053182 94.0077778,48.0727727 L94.0077778,8.32431818 C94.0077778,6.10713636 92.2014583,4.30254545 89.9821528,4.30254545 L61.7829861,4.30254545 C61.75,4.25904545 61.7209722,4.21159091 61.6813889,4.17072727 L58.3141667,0.806727273 C58.0515972,0.544409091 57.6940278,0.395454545 57.3219444,0.395454545 L39.1188889,0.395454545 C38.7468056,0.395454545 38.3892361,0.543090909 38.1266667,0.806727273 L34.7594444,4.17072727 C34.7198611,4.21027273 34.6908333,4.25772727 34.6578472,4.30254545 L6.55763889,4.30254545 C4.33833333,4.30254545 2.53333333,6.10713636 2.53333333,8.32431818 L2.53333333,48.0727727 C2.53333333,48.6053182 2.83548611,49.0904091 3.313125,49.3276818 C3.50972222,49.4252273 3.72347222,49.474 3.93590278,49.474 C4.23673611,49.474 4.53625,49.3764545 4.78430556,49.1879545 L9.47097222,45.6288636 C9.820625,45.3639091 10.0251389,44.95 10.0251389,44.5123636 L10.0251389,42.7670909 L13.9715972,39.7708636 C14.3225694,39.5059091 14.5257639,39.092 14.5257639,38.6543636 L14.5257639,36.946 L18.525,33.9089091 C18.8733333,33.6439545 19.0791667,33.2300455 19.0791667,32.7924091 L19.0791667,30.8322727 L27.4879861,30.8322727 C27.6515972,30.8322727 27.8125694,30.8032727 27.9669444,30.7479091 L37.9604167,27.1295 L37.9604167,38.6635909 C33.7461111,39.3029091 29.5252083,40.3482273 25.3452083,41.8087727 C22.4872917,42.8066364 20.6427083,45.4034545 20.6427083,48.4273636 C20.6427083,86.8536818 11.8855556,93.0254091 6.09055556,97.1078182 C5.08909722,97.8130455 4.14173611,98.4800455 3.29465278,99.2472273 C1.31416667,101.041273 0.482916667,103.572182 1.01597222,106.188773 C1.54770833,108.806682 3.29993056,110.812955 5.82270833,111.690864 C13.1627778,114.246818 26.4350694,115.526773 46.3969444,115.599273 L48.6004167,115.599273 C48.6017361,115.599273 48.6030556,115.596636 48.6056944,115.596636 C49.6163889,115.591364 50.599375,115.583455 51.5770833,115.572909 C51.6509722,115.586091 51.7222222,115.603227 51.7974306,115.603227 C51.8897917,115.603227 51.9847917,115.587409 52.0784722,115.570273 C70.1047222,115.369909 82.2634028,114.097864 89.1720139,111.690864 C91.6947917,110.812955 93.4470139,108.806682 93.9813889,106.188773 C94.5144444,103.569545 93.6831944,101.041273 91.7027083,99.2472273 Z M91.2,8.32431818 L91.2026389,45.2479091 L89.3184722,43.819 L89.3184722,42.0737273 C89.3184722,41.6360909 89.1152778,41.2221818 88.7643056,40.9572273 L84.8178472,37.961 L84.8178472,36.2526364 C84.8178472,35.815 84.6133333,35.4010909 84.265,35.1374545 L80.2657639,32.0990455 L80.2657639,29.4323636 C80.2657639,28.6585909 79.6377083,28.0311364 78.8631944,28.0311364 L69.2945833,28.0311364 L58.0278472,23.9513636 L61.6998611,7.10763636 L89.9808333,7.10763636 C90.65375,7.10631818 91.2,7.65204545 91.2,8.32431818 Z M39.698125,3.20054545 L56.7413889,3.20054545 L59.1546528,5.6115 L55.2029167,23.7285909 L40.6758333,23.7285909 L37.2677083,5.62995455 L39.698125,3.20054545 Z M27.2438889,28.0298182 L17.6765972,28.0298182 C16.9020833,28.0298182 16.2740278,28.6585909 16.2740278,29.4310455 L16.2740278,32.0977273 L12.2761111,35.1348182 C11.9264583,35.3997727 11.7232639,35.8136818 11.7232639,36.2513182 L11.7232639,37.9596818 L7.77548611,40.9559091 C7.42583333,41.2208636 7.22131944,41.6347727 7.22131944,42.0724091 L7.22131944,43.8176818 L5.33979167,45.2465909 L5.33979167,8.32431818 C5.33979167,7.65204545 5.88736111,7.10631818 6.55895833,7.10631818 L34.6934722,7.10631818 L37.9076389,24.1688636 L27.2438889,28.0298182 Z M40.766875,26.5323636 L54.9324306,26.5323636 L54.9324306,38.3841364 C52.8688194,38.1376364 50.8052083,37.9794545 48.7521528,37.9333182 C48.7099306,37.9280455 48.6677083,37.9254091 48.6215278,37.9254091 C47.9472917,37.9148636 47.1661806,37.9148636 46.3784722,37.9254091 C46.3349306,37.9254091 46.2913889,37.9280455 46.2491667,37.9333182 C44.4256944,37.9728636 42.5969444,38.0980909 40.766875,38.2958182 L40.766875,26.5323636 Z M23.4452083,48.8623636 L43.3120833,48.8623636 C43.3094444,48.8584091 43.3094444,48.8544545 43.3094444,48.8505 L43.53375,48.8505 L43.53375,46.0638636 L43.4651389,46.0638636 C43.4664583,46.0625455 43.4664583,46.0599091 43.4664583,46.0585909 L24.1590278,46.0585909 C24.6485417,45.3349091 25.3689583,44.7694091 26.2727778,44.4556818 C32.9597222,42.1211818 39.7403472,40.8689091 46.4272917,40.7331364 C46.4642361,40.7331364 46.5025,40.7305 46.538125,40.7265455 C47.1107639,40.7199545 47.7823611,40.7186364 48.4605556,40.7265455 C48.4988194,40.7305 48.5357639,40.7331364 48.5740278,40.7331364 C55.2583333,40.8702273 62.0415972,42.1211818 68.7285417,44.4556818 C70.4688889,45.0633636 71.5508333,46.5845455 71.5508333,48.4273636 C71.5508333,86.1326364 80.0163889,94.1524545 86.2375694,98.6474545 C77.6347917,101.600182 64.9707639,103.247909 51.5929167,103.549773 C51.3752083,102.566409 50.9859722,101.672682 50.409375,100.880455 C50.3288889,100.772364 50.2352083,100.674818 50.1283333,100.594409 L44.8743056,96.5726364 L40.5359722,86.333 L40.5359722,66.4495455 C40.5359722,65.6744545 39.9079167,65.047 39.1334028,65.047 C38.3602083,65.047 37.7308333,65.6757727 37.7308333,66.4495455 L37.7308333,86.6164091 C37.7308333,86.8049091 37.7690972,86.9894545 37.8416667,87.1621364 L42.4359722,98.0068182 C42.5309722,98.2309091 42.6827083,98.426 42.8740278,98.5736364 L48.2494444,102.685045 C48.4407639,102.976364 48.5845833,103.279545 48.6967361,103.593273 C34.2277083,103.711909 19.2414583,102.272455 7.91666667,99.2498636 C14.1602778,94.8471364 23.3752778,87.9135 23.4452083,48.8623636 Z M48.5977778,112.794182 L46.4048611,112.791545 C26.7675694,112.724318 13.7961111,111.499727 6.74895833,109.042636 C5.16166667,108.491636 4.10347222,107.278909 3.76701389,105.628545 C3.43715278,104.007182 3.92402778,102.497864 5.13,101.374773 C16.6395139,104.780955 32.0440278,106.466909 47.0738194,106.466909 C47.6965972,106.466909 48.3140972,106.459 48.9355556,106.453727 C48.7970139,107.576818 48.4711111,108.554909 48.3022222,109.0545 C48.1861111,109.394591 48.1214583,109.579136 48.1214583,109.848045 C48.1214583,110.074773 48.176875,110.296227 48.2811111,110.496591 L49.4778472,112.784955 C49.1783333,112.788909 48.8959722,112.791545 48.5977778,112.794182 Z M91.2343056,105.629864 C90.8991667,107.280227 89.8396528,108.492955 88.2523611,109.043955 C81.7039583,111.324409 70.0229167,112.542409 52.6273611,112.761227 L51.0361111,109.717545 C51.4213889,108.537773 51.6430556,107.441045 51.7354167,106.408909 C66.2770139,106.066182 80.0084722,104.129773 88.9661806,100.631318 C89.2617361,100.860682 89.5599306,101.090045 89.8185417,101.323364 C91.0667361,102.453045 91.568125,103.982136 91.2343056,105.629864 Z" id="Shape" fill="#313D3E"></path>
                    <path d="M50.08875,48.8294091 L50.2352083,48.8294091 C50.23125,48.8399545 50.23125,48.8518182 50.2272917,48.8610455 L53.401875,48.8610455 C54.1763889,48.8610455 54.8044444,48.2322727 54.8044444,47.4598182 C54.8044444,46.6873636 54.1763889,46.0585909 53.401875,46.0585909 L50.0729167,46.0585909 C50.0795139,46.0757273 50.0821528,46.0915455 50.08875,46.1086818 L50.08875,48.8294091 Z" id="Shape" fill="#000000"></path>
                </g>
            </g>
            <path d="M69.7836298,133 L72.2052668,140.264911 C72.9038579,142.360684 75.1691378,143.493324 77.2649111,142.794733 C79.3606843,142.096142 80.4933243,139.830862 79.7947332,137.735089 L78.2163702,133 L79.6923002,128.57221 C80.7617591,126.114777 79.8047388,123.516342 77.3249528,121.745066 C76.6226672,121.243434 75.5468425,120.593865 74.1110648,119.780166 C73.9775518,119.7045 73.8414847,119.627755 73.7030094,119.550002 C72.9307896,119.116403 72.111921,118.667059 71.2896737,118.223063 L68,108.374589 L68,89 C68,86.790861 66.209139,85 64,85 C61.790861,85 60,86.790861 60,89 L60,109.67538 L64.7147973,123.790322 L66.1354252,124.538836 C66.1877017,124.566376 66.2946929,124.622995 66.4435764,124.702176 C66.6937332,124.835218 66.9729778,124.984579 67.2738946,125.1466 C68.1322825,125.608778 68.990034,126.078529 69.7862357,126.525594 C69.9156362,126.598252 70.0424929,126.669801 70.1666266,126.740152 C70.7088873,127.047468 71.1910616,127.327592 71.5939739,127.568968 L69.7836298,133 Z" id="Path-49" fill="#FFFFFF" fill-rule="nonzero"></path>
            <path d="M72.4188612,133 L74.5769751,139.474342 C74.8389467,140.260257 75.6884267,140.684997 76.4743416,140.423025 C77.2602566,140.161053 77.6849966,139.311573 77.4230249,138.525658 L75.5811388,133 L77.3720301,127.627326 C77.3958819,127.581717 77.4189501,127.533593 77.4409933,127.482887 C77.9609201,126.286895 77.4534808,124.909131 75.8718573,123.7794 C75.2627299,123.344309 74.2402137,122.726927 72.8784279,121.955161 C72.7478459,121.881156 72.614657,121.806035 72.4790176,121.729874 C71.651281,121.265103 70.7661747,120.780371 69.881307,120.303936 C69.6520822,120.180515 69.4349464,120.064164 69.2328545,119.956334 L65.5,108.781086 L65.5,89 C65.5,88.1715729 64.8284271,87.5 64,87.5 C63.1715729,87.5 62.5,88.1715729 62.5,89 L62.5,109.268883 L66.768049,122.046371 L67.3007845,122.327064 C67.3569567,122.356659 67.4656445,122.414176 67.6174683,122.494921 C67.8712647,122.629898 68.1542532,122.781262 68.4590821,122.945389 C69.3295062,123.414047 70.1996917,123.890608 71.0102275,124.345721 C71.1424638,124.419972 71.2721988,124.493145 71.3992635,124.565156 C72.6722591,125.286602 73.6308053,125.865359 74.1281427,126.2206 C74.3398641,126.37183 74.477201,126.49357 74.5586854,126.580527 L72.4188612,133 Z" id="Path-49" fill="#ED1C40" fill-rule="nonzero"></path>
        </g>
    </g>
</svg>