<svg xmlns="http://www.w3.org/2000/svg" xmlns:xlink="http://www.w3.org/1999/xlink" width="144" height="144" viewBox="0 0 144 144">
  <defs>
    <path id="phoenix-illo-a" d="M101,6.07877636 L101,2 L120,2 L120,18.3334438 C134.729985,31.5171371 144,50.6760045 144,72 C144,111.764502 111.764502,144 72,144 C32.235498,144 0,111.764502 0,72 C0,32.235498 32.235498,0 72,0 C82.317373,0 92.12789,2.17010904 101,6.07877636 Z"/>
  </defs>
  <g fill="none" fill-rule="evenodd">
    <mask id="phoenix-illo-b" fill="#fff">
      <use xlink:href="#phoenix-illo-a"/>
    </mask>
    <path fill="#313D3E" fill-rule="nonzero" d="M101,6.07877636 C92.12789,2.17010904 82.317373,-1.70530257e-13 72,-1.70530257e-13 C32.235498,-1.70530257e-13 0,32.235498 0,72 C0,111.764502 32.235498,144 72,144 C111.764502,144 144,111.764502 144,72 C144,50.6760045 134.729985,31.5171371 120,18.3334438 L120,22.4317877 C132.950197,34.9747865 141,52.5473271 141,72 C141,110.107648 110.107648,141 72,141 C33.8923523,141 3,110.107648 3,72 C3,33.8923523 33.8923523,3 72,3 C82.3582608,3 92.1834279,5.2824453 101,9.37183447 L101,6.07877636 Z" mask="url(#phoenix-illo-b)"/>
    <path fill="#313D3E" fill-rule="nonzero" d="M144,76.3796469 L133.785252,81.7891323 L128.726621,81.7891323 L127.759955,84.3111121 L120.602539,85.904881 L116.832328,87.7862858 L116.832328,63.1853012 C121.561507,62.0066536 124.726184,59.8658626 126.326359,56.7629282 C128.726621,52.1085267 127.159519,30.9785481 122.287341,30.9785481 C117.415163,30.9785481 121.595811,48.644489 116.832328,48.644489 C116.832328,22.2148297 114.70937,9 110.463453,9 C104.094577,9 105.911784,39.5980403 105.770227,40.3370604 C105.628669,41.0760805 102.196447,42.525002 102.196447,40.3370604 C102.758344,36.7847094 101.888712,35.0085338 99.5875498,35.0085338 C97.2863878,35.0085338 96.1730635,37.669409 96.2475769,42.9911592 C96.2475769,53.1262765 98.638342,59.6255321 103.419872,62.4889259 L103.419872,87.7862858 L98.2154172,89.3212796 L92.5900636,89.3212796 L86.1176699,92.4143533 L82.1108643,94.0731315 L79.8029347,96.5723733 C76.6157938,97.9707515 75.0222234,98.6699406 75.0222234,98.6699406 C75.0222234,98.6699406 73.9753625,98.6699406 71.8816407,98.6699406 L70.4591169,101.881541 L66.2886581,101.881541 C63.1442789,105.090548 60.9796207,106.695051 59.7946837,106.695051 C58.6097467,106.695051 54.2574511,108.182424 46.7377968,111.15717 C44.1868852,112.658511 42.5013972,113.409182 41.6813329,113.409182 C40.4512364,113.409182 38.1433432,117.416948 35.3183592,117.416948 C33.4350365,117.416948 30.6444339,117.416948 26.9465512,117.416948 L20.2463618,122.142298 L16.4607578,124.583038 L6.10744552,122.142298 L-2.30540747,118.839271 C-4.97101621,118.839271 -6.30382057,118.839271 -6.30382057,118.839271 C-6.30382057,118.839271 -8.62074211,115.577386 -10.1913332,114.493284 C-11.7619242,113.409182 -14.3977597,112.074321 -14.3977597,112.074321 C-14.3977597,112.074321 -15.6866035,108.169454 -15.6866035,108.169454 C-15.6866035,108.169454 -18.564389,103.112306 -18.564389,103.112306 C-18.564389,103.112306 -20.7219311,102.261466 -25.0370154,100.559786 C-28.1222477,101.440956 -29.6648638,101.881541 -29.6648638,101.881541 C-29.6648638,101.881541 -33.527199,100.559786 -33.527199,100.559786 C-33.527199,100.559786 -35.1219684,100.559786 -38.3115071,100.559786 L-42.2769492,101.881541 L-48.5713032,98.6699406 C-51.0175088,99.048668 -52.7287736,99.6786167 -53.7050978,100.559786 C-54.681422,101.440956 -56.4602262,101.881541 -59.0415106,101.881541 C-60.4986035,104.375395 -61.4931113,105.622323 -62.0250341,105.622323 C-62.8229184,105.622323 -64.7699717,104.549594 -66.550974,105.622323 C-67.7383089,106.337475 -69.3306804,107.186519 -71.3280885,108.169454 C-75.2797336,109.507571 -77.6434132,110.17663 -78.4191273,110.17663 C-79.1948414,110.17663 -80.1719649,110.503477 -81.3504976,111.15717 C-83.0781478,111.935777 -83.9419729,112.686447 -83.9419729,113.409182 C-83.9419729,114.131917 -84.8259798,115.467839 -86.5939938,117.416948 C-90.3170539,117.981248 -92.178584,117.981248 -92.178584,117.416948 C-92.178584,116.852648 -93.7757512,115.516726 -96.9700856,113.409182 C-100.713527,116.081026 -102.585248,117.416948 -102.585248,117.416948 C-102.585248,117.416948 -101.323484,120.261594 -104.668979,118.839271 C-106.899309,117.891056 -112.126965,119.805645 -120.351947,124.583038 L-131.163159,127.124195 L-139,143.104289 L140,149 L144,76.3796469 Z" mask="url(#phoenix-illo-b)"/>
    <path stroke="#ED1C40" d="M116.832328,87.7862858 L116.832328,63.1853012 C121.561507,62.0066536 124.726184,59.8658626 126.326359,56.7629282 C128.726621,52.1085267 127.159519,30.9785481 122.287341,30.9785481 C117.415163,30.9785481 121.595811,48.644489 116.832328,48.644489 C116.832328,22.2148297 114.70937,9 110.463453,9 C104.094577,9 105.911784,39.5980403 105.770227,40.3370604 C105.628669,41.0760805 102.196447,42.525002 102.196447,40.3370604 C102.758344,36.7847094 101.888712,35.0085338 99.5875498,35.0085338 C97.2863878,35.0085338 96.1730635,37.669409 96.2475769,42.9911592 C96.2475769,53.1262765 98.638342,59.6255321 103.419872,62.4889259 L103.419872,87.7862858" mask="url(#phoenix-illo-b)"/>
  </g>
</svg>
