<svg width="145" height="145" viewBox="0 0 145 145" version="1.1" xmlns="http://www.w3.org/2000/svg" xmlns:xlink="http://www.w3.org/1999/xlink"><title>porto-art</title><desc>Created with Sketch.</desc><defs><path d="M141,70.5 C141,109.435448 109.435448,141 70.5,141 C31.5645517,141 0,109.435448 0,70.5 C0,31.5645517 31.5645517,0 70.5,0 C109.435448,0 141,31.5645517 141,70.5 L141,70.5 Z" id="path-1"/></defs><g id="meetups" stroke="none" stroke-width="1" fill="none" fill-rule="evenodd"><g id="porto-art" transform="translate(2.000000, 2.000000)"><g id="Path-18"><mask id="mask-2" fill="#fff"><use xlink:href="#path-1"/></mask><path d="M-18.4869797,68.220189 L-16.4082349,68.8465106 L-17.1011499,65.1668714 L-16.1772633,61.9569735 L-15.4073578,56.4766599 L-14.4064807,54.8325658 L-13.5595847,57.1029814 L-13.4825941,61.3306519 L-12.4047265,65.5583224 L-12.6356981,67.5155773 L-5.93752046,68.3767694 L-3.62780403,69.3945419 L-3.70479458,64.3839695 L-2.9348891,61.3306519 L-1.78003089,52.9532353 L-0.39204405,52.9532353 C-0.39204405,52.9532353 -0.779153769,51.700958 0.0677422553,51.700958 C0.91463828,51.700958 0.606676089,49.9002835 0.606676089,49.9002835 C0.606676089,49.9002835 1.06861938,51.0750023 1.9155154,52.0141188 C2.76241142,52.9532353 4.07125073,53.8147933 4.07125073,53.8147933 L4.07125073,55.5531177 L7.07388209,54.2845344 L7.61281593,50.2917345 L8.38272141,53.7365031 L10.153504,56.3983697 L12.1552582,56.7115304 L12.4632204,55.3023069 L13.9260408,54.6759854 L15.0808991,53.5016325 L15.5428423,51.700958 L16.1587667,54.0496638 L17.7755682,55.7720481 L18.6994548,56.6332403 L21.3171334,57.2595618 C21.3171334,57.2595618 24.1920973,59.1884717 25.0389933,60.5976952 C25.8858893,62.0069187 26.2708421,63.2595618 26.2708421,63.2595618 L31.4292088,61.8503383 L31.4292088,54.8754772 L38.6663202,45.1745269 L43.5167247,44.0784642 L48.1361576,46.2705896 L56.4511368,47.2883621 L57.7599761,46.6620406 L57.605995,44.9396563 L59.0688154,43.8435936 L59.6077492,41.0251466 L60.2236736,44.2350446 L61.9944562,45.4093975 L62.0714467,46.42717 L66.9988418,48.4627151 L67.5377756,50.4982601 L68.7696244,47.2100719 C68.7696244,47.2100719 68.4616622,49.245617 69.5395299,49.8719386 C70.6173975,50.4982601 70.3864259,52.2989346 70.3864259,52.2989346 C70.3864259,52.2989346 74.3129438,53.1601267 75.0058587,51.5160326 C75.6987737,49.8719386 77.5465468,48.2278445 80.7031593,50.2633895 C83.8597717,52.2989346 83.0128757,55.5088326 83.0128757,55.5088326 C83.0128757,55.5088326 87.0163842,57.4660874 87.6323086,56.6831855 C88.248233,55.9002835 89.942025,57.4660874 89.942025,57.4660874 C89.942025,57.4660874 90.4809588,54.7329644 92.6366942,54.8042208 C94.7924295,54.8754772 97,57 97,57" stroke="#313D3E" stroke-width="2" stroke-linecap="round" stroke-linejoin="round" mask="url(#mask-2)"/><polyline id="Path-19-Copy-2" stroke="#313D3E" stroke-width="2" stroke-linecap="round" stroke-linejoin="round" mask="url(#mask-2)" points="61 66 56.6585113 65.726212 51.1921824 66.2742434 45.9568251 63.1426356 41.9533166 61.8899925 36.948931 63.2209258 34.9471768 62.3597336 28.787933 63.6906669 26.7861787 64.4735689 26.7861787 60.8586299 23.3216041 57.5057416 21.3183698 57.5057416 17.7012941 59.6195768 17.7012941 69.6602752 16.1614832 68.6229492 13.7747762 69.7973021 13.7747762 67.6319023 8.77039059 65.1781806 5.61377814 66.117663 0.760930102 66.117663 0.760930102 62.6719475 -27.1851574 62.6719475"/><path d="M13.5130203,107.220189 L15.5917651,107.846511 L14.8988501,104.166871 L15.8227367,100.956973 L16.5926422,95.4766599 L17.5935193,93.8325658 L18.4404153,96.1029814 L18.5174059,100.330652 L19.5952735,104.558322 L19.3643019,106.515577 L26.0624795,107.376769 L28.372196,108.394542 L28.2952054,103.38397 L29.0651109,100.330652 L30.2199691,91.9532353 L31.607956,91.9532353 C31.607956,91.9532353 31.2208462,90.700958 32.0677423,90.700958 C32.9146383,90.700958 32.6066761,88.9002835 32.6066761,88.9002835 C32.6066761,88.9002835 33.0686194,90.0750023 33.9155154,91.0141188 C34.7624114,91.9532353 36.0712507,92.8147933 36.0712507,92.8147933 L36.0712507,94.5531177 L39.0738821,93.2845344 L39.6128159,89.2917345 L40.3827214,92.7365031 L42.153504,95.3983697 L44.1552582,95.7115304 L44.4632204,94.3023069 L45.9260408,93.6759854 L47.0808991,92.5016325 L47.5428423,90.700958 L48.1587667,93.0496638 L49.7755682,94.7720481 L50.6994548,95.6332403 L53.3171334,96.2595618 L56.7817081,95.0069187" id="Path-18-Copy" stroke="#313D3E" stroke-width="2" stroke-linecap="round" stroke-linejoin="round" mask="url(#mask-2)"/><polyline id="Path-19-Copy" stroke="#313D3E" stroke-width="2" stroke-linecap="round" stroke-linejoin="round" mask="url(#mask-2)" points="49.7747762 124.631902 44.7703906 122.178181 41.6137781 123.117663 36.7609301 123.117663 36.7609301 119.671948 8.81484261 119.671948"/><path d="M105.545754,89.61 C106.354493,87.72 108.511129,85.83 112.195383,88.17 C115.879637,90.51 114.891179,94.2 114.891179,94.2 C114.891179,94.2 119.563891,96.45 120.28277,95.55 C121.001649,94.65 122.978566,96.45 122.978566,96.45 C122.978566,96.45 123.607585,93.3080858 126.12366,93.39 C128.639736,93.4719142 131.425392,95.28 131.065952,97.35 C130.706513,99.42 132.59357,97.8 132.59357,97.8 C132.59357,97.8 132.68343,99.87 136.098104,99.78 C139.512778,99.69 143.826051,103.29 143.826051,103.29 L143.826051,105.45 L145.802968,107.25 L150.74526,107.88 L159.281946,114.63 L159.281946,120.3 L160.820098,120.3 L160.820098,113.907159 L164.673537,112.47 L165.931575,113.73 L167.998351,112.92 L171.175377,112.92 L171.053586,110.13 L177.343776,107.34 L189.205276,108.33 L187.408079,109.5 L191.182193,109.68 L191.092333,111.3 L196.663644,110.94 L173.569662,122.1 L190.19762,122.1 L192.619951,123.09 L194.237428,123.72" stroke="#313D3E" stroke-width="2" stroke-linecap="round" stroke-linejoin="round" mask="url(#mask-2)"/><polyline id="Path-19" stroke="#313D3E" stroke-width="2" stroke-linecap="round" stroke-linejoin="round" mask="url(#mask-2)" points="192.242593 90.1139242 196.911263 92.6239549 196.911263 105.681711 191.699392 110.533955 189.632615 109.543955 186.397661 111.343955 186.397661 114.943955 176.870821 114.943955 176.513077 110.623955 169.414149 105.583955 166.448773 106.573955 166.358914 104.773955 160.697743 102.433955 157.462788 103.963955 154.048114 104.863955 153.329235 102.613955 152.250917 104.323955 152.250917 107.385278 149.555121 105.313955 146.050587 106.843955 145.960727 108.823955 141.737314 111.433955 138.32264 112.333955 136.795022 111.523955 134.997825 112.693955 131.852731 111.163955 129.246795 112.693955 126.910439 110.533955 123.136325 112.963955 119.182492 111.883955 114.599639 113.593955 112.802442 111.703955 109.747207 113.233955 106.152813 111.253955 103.187438 112.513955 99.7727636 111.073955 96.0885097 112.873955 93.482574 111.073955 90.6969186 112.333955 88.001123 110.083955"/><polyline id="Path-46" stroke="#313D3E" stroke-width="2" mask="url(#mask-2)" points="68 89 72 84 77 88"/><path d="M129,72 C129,72 131,77 137,77 C143,77 153,73 153,73" id="Path-47" stroke="#313D3E" stroke-width="2" mask="url(#mask-2)"/><path d="M-24,136.331992 C-46.6275547,120.205797 -24,89.9062021 -24,89.9062021 L239.090861,20 L231.785226,29.7718269 L-7.71255108,90.9062021 L243.843924,27.0427581 L233.193541,39.0538955 L228.00038,39.4940679 L-5.3398252,91.8745814 L104.77281,68.2813417 C104.77281,68.2813417 79.599178,83.3352372 67.5404802,99.4455464 C67.5404802,99.4455464 64,78 64,78 L58.7385109,78.7574444 L55.6578217,109.129339 L53.1052506,110.009684 L51.9609946,127.176406 L57.5062352,127.176406 C57.5062352,127.176406 100.371825,64.6719281 148.606617,59.477894 C196.841408,54.2838599 234.337797,69.6898933 234.337797,69.6898933 L232.489384,51.1146188 C232.489384,51.1146188 220.408354,47.1245744 196.91076,46.528672 C193.40864,47.3291363 105.492433,67.536572 105.492433,67.7682034 C72.5938163,87.260996 56.6260383,114.235338 56.6260383,114.235338 L56.6260383,123 L131,120.799476 L234.865916,120.799476 L131,126 L57.5062352,127.176406 L49.1443644,127.176406 L48.4402069,142.532854 L74.5820556,142.532854 L73.0857208,127.176406 C73.0857208,127.176406 107.061322,68.2813417 155.472153,62.0308938 C208.917409,55.1304384 249.653224,80.342065 249.653224,80.342065 L243.843924,127.176406 L266,117.052442 L240.411156,136.331992 L48.4402069,142.532854 L49.1443644,127.176406 L48.4402069,142.532854 C48.4402069,142.532854 -10.4074512,146.019123 -24,136.331992 Z" stroke="#ED1C40" stroke-width="2" mask="url(#mask-2)"/></g><path d="M141,70.5 C141,109.435448 109.435448,141 70.5,141 C31.5645517,141 0,109.435448 0,70.5 C0,31.5645517 31.5645517,0 70.5,0 C109.435448,0 141,31.5645517 141,70.5 L141,70.5 Z" id="Shape-Copy-5" stroke="#313D3E" stroke-width="3" stroke-linecap="round" stroke-linejoin="round"/></g></g></svg>