<?xml version="1.0" encoding="UTF-8"?>
<svg width="145px" height="150px" viewBox="0 0 145 150" version="1.1" xmlns="http://www.w3.org/2000/svg" xmlns:xlink="http://www.w3.org/1999/xlink">
    <!-- Generator: Sketch 43.2 (39069) - http://www.bohemiancoding.com/sketch -->
    <title>portland-art</title>
    <desc>Created with Sketch.</desc>
    <defs>
        <path d="M125.252322,150.274698 C114.769937,156.454656 102.54892,160 89.5,160 C50.5645517,160 19,128.435448 19,89.5 C19,50.5645517 50.5645517,19 89.5,19 C128.435448,19 160,50.5645517 160,89.5 C160,115.386529 146.047344,138.014858 125.252322,150.274698 Z" id="path-1"></path>
    </defs>
    <g id="meetups" stroke="none" stroke-width="1" fill="none" fill-rule="evenodd">
        <g id="portland-art" transform="translate(-23.000000, -18.000000)">
            <g id="noun_217881_cc" transform="translate(6.000000, 6.000000)">
                <mask id="mask-2" fill="white">
                    <use xlink:href="#path-1"></use>
                </mask>
                <g id="Mask" transform="translate(89.500000, 89.500000) rotate(-108.000000) translate(-89.500000, -89.500000) "></g>
                <g mask="url(#mask-2)" fill-rule="nonzero" fill="#ED1C40">
                    <g transform="translate(10.000000, 71.000000)">
                        <path d="M20.9619747,10.8941338 C21.2202895,19.4765906 33.6605246,21.0438197 39.1940327,14.7147843 C40.8322514,13.0458462 48.9085992,14.9220669 50.4786121,17.2720861 L52.1416231,16.1610532 C49.9288987,12.8490135 40.3955089,10.6343066 37.7270667,13.3565631 C33.1952552,18.5374269 23.1537167,17.2723871 22.953575,10.7378256 C22.4696756,6.88236803 20.5475308,3.53450312 17.6583077,2.50650874 L17.5066947,2.45256439 L17.3458124,2.44890797 C16.8509994,2.43766222 16.2989534,2.33985432 15.5972645,2.15066156 C15.314412,2.07439749 15.0568477,1.99840356 14.580415,1.85313041 C13.033204,1.38135713 12.3775366,1.21653476 11.5689227,1.17729943 C6.86043012,-0.179094682 3.24389989,1.97413281 0.0227196327,6.90624833 L1.69722849,7.99987537 C4.51620637,3.68359269 7.36993633,2.00529921 11.118147,3.12938522 L11.2432071,3.16689064 C12.0006323,3.1909147 12.5510561,3.32525049 13.9970927,3.76617381 C14.4933907,3.91750426 14.7666709,3.99813517 15.0766081,4.08170192 C15.8470155,4.2894229 16.496603,4.41068122 17.1227921,4.44193261 C19.0955529,5.23590073 20.5790737,7.87200953 20.9619747,10.8941338 Z" id="Shape"></path>
                        <path d="M123.604531,29.4999596 C123.492302,29.8322085 123.458915,29.940521 123.226329,30.7107479 C122.589329,32.8202298 122.141791,33.5800992 120.97316,34.1374889 C117.829284,35.6365141 116.278234,41.6385798 116.405977,46.6844324 C116.432143,47.4220245 116.690526,47.5923111 117.826007,48.1464183 C118.137885,48.2986126 119.463105,48.9021859 119.71,49.0187068 C120.603867,49.4405632 121.224518,49.781296 121.612831,50.0787278 C121.554697,50.102216 121.490262,50.1262802 121.41954,50.15062 C121.002084,50.2966136 120.842723,50.5449138 120.727385,50.8828529 C120.685431,51.0057797 120.655216,51.1401959 120.628643,51.3015348 C120.590792,51.531347 120.559711,51.8205132 120.523338,52.2478189 C120.506677,52.4435529 120.447488,53.189961 120.444054,53.232217 C120.410004,53.651202 120.380321,53.9821154 120.347022,54.3007712 C120.220112,55.5152345 120.050363,56.3608892 119.844781,56.7534385 C118.881703,58.5971643 118.719716,61.2669147 119.023305,65.3887016 C119.073686,66.072705 119.130967,66.7363141 119.223474,67.7400443 C119.511788,70.8683434 119.572369,71.695917 119.548236,72.7522937 C119.485579,75.4590703 119.466497,78.1756938 119.470878,82.0110786 C119.471652,82.6891044 119.472722,83.2315299 119.475466,84.4511966 C119.481032,86.9250099 119.48225,88.02371 119.479074,89.3961768 L121.479069,89.4008051 C121.482254,88.024281 121.481033,86.9235537 121.475461,84.4466971 C121.472719,83.2277687 121.47165,82.6858356 121.470876,82.0087942 C121.466512,78.1882401 121.485494,75.4858629 121.547707,72.7982754 C121.57442,71.6290225 121.512832,70.7876946 121.215034,67.5564957 C121.123566,66.5640337 121.067171,65.9107084 121.017902,65.24179 C120.741796,61.4931349 120.888515,59.0750083 121.61701,57.6803701 C121.979477,56.9882577 122.183053,55.9740813 122.336191,54.5086369 C122.37135,54.172177 122.402294,53.8272028 122.437482,53.3942188 C122.441332,53.3468485 122.500052,52.6063484 122.516132,52.4174464 C122.536807,52.1745508 122.555262,51.9847978 122.572969,51.8367498 C124.19578,51.0537207 124.287139,49.6470263 122.899114,48.5456373 C122.359494,48.1174522 121.623227,47.7101007 120.563602,47.2100159 C120.294518,47.083023 118.986058,46.487083 118.703128,46.3490148 C118.584426,46.2910891 118.483077,46.2394749 118.399181,46.1943633 C118.390018,41.9957373 119.758945,36.9321492 121.834047,35.9427238 C123.662046,35.0708422 124.353345,33.8970946 125.140941,31.2889031 C125.365585,30.544974 125.397175,30.4424908 125.499351,30.1400048 C125.920378,28.8935768 126.390032,28.0525247 127.14764,27.3366805 L127.452196,27.0489141 L127.460649,26.6299964 C127.482748,25.5347701 127.868669,24.4299282 129.149305,21.4382467 C129.266105,21.1653925 129.348095,20.9730009 129.429442,20.780411 C129.485949,20.6466272 129.538882,20.5204005 129.589586,20.3984201 L127.742781,19.6307523 C127.693613,19.7490385 127.642138,19.8717897 127.587047,20.0022191 C127.507209,20.1912395 127.426321,20.3810438 127.310679,20.6511938 C126.037645,23.6251152 125.578354,24.8761538 125.480476,26.1757118 C124.621071,27.0811587 124.070185,28.1214163 123.604531,29.4999596 Z" id="Shape-Copy-6"></path>
                    </g>
                </g>
            </g>
            <path d="M131.252322,156.274698 C120.769937,162.454656 108.54892,166 95.5,166 C56.5645517,166 25,134.435448 25,95.5 C25,56.5645517 56.5645517,25 95.5,25 C134.435448,25 166,56.5645517 166,95.5" id="Mask" stroke="#313D3E" stroke-width="3" stroke-linecap="round" stroke-linejoin="round" transform="translate(95.500000, 95.500000) rotate(-117.000000) translate(-95.500000, -95.500000) "></path>
            <g id="Group-8" transform="translate(55.000000, 18.000000)">
                <polygon id="Shape" stroke="#313D3E" stroke-width="2" stroke-linejoin="round" points="25.9692671 80.4876718 41.4555274 71.6879642 56.4652873 73.5906037 73.1427983 68.358345 83.6258052 68.358345 73.3810485 80.7255018 62.8980415 83.1038011 64.3275425 89.5252094 75.76355 86.1955903 96.967814 69.5474947 95.5383131 60.0342973 77.4313011 57.8938278 66.4717939 37.2026233 78.8608021 30.0677252 79.3373024 25.7867863 66.7100441 26.2624462 63.612792 21.9815073 53.6062854 21.9815073 48.8412823 24.5976366 42.408528 34.1108341 52.8915349 32.2081946 55.988787 44.8131813 23.5867656 59.7964673 12.6272583 48.1428004 7.62400503 55.0398686 18.8217624 62.8882565 17.8687618 79.2985222 0 108.075945 5.95625393 109.978584"></polygon>
                <path d="M72.6849729,5.47008855 C68.6347202,11.178007 63.1549666,14.7454561 56.4839622,16.8859255 L35.2796982,4.99442868 L31.2294455,7.84838792 L52.1954593,18.3129052 C48.8599571,19.026395 43.3802035,18.3129052 39.8064512,17.8372453 C27.8939433,16.4102657 17.8874367,9.75102742 13.1224335,0 L9.78693134,2.14046943 C15.5049351,13.3184765 25.7496919,20.9290345 39.0917007,22.593844 C53.6249603,24.2586536 68.1582199,19.026395 76.0204751,7.84838792 L72.6849729,5.47008855 Z" id="Shape" fill="#ED1C40" fill-rule="nonzero"></path>
            </g>
        </g>
    </g>
</svg>