<svg xmlns="http://www.w3.org/2000/svg" width="182" height="151" viewBox="0 0 182 151" xmlns:xlink="http://www.w3.org/1999/xlink"><style>.st0{fill:#313D3E}.st1{fill:#ED1C40}</style><path class="st0" d="M52.4 36.7c-1.6 0-3.2.5-4.6 1.5-1.4-1-3-1.5-4.6-1.5-.5 0-.9.4-.9.9s.4.9.9.9c1.4 0 2.8.5 4 1.5.2.1.4.2.5.2s.4-.1.5-.2c1.2-1 2.6-1.5 4-1.5.5 0 .9-.4.9-.9.2-.5-.2-.9-.7-.9z" id="Path_22_"/><path class="st0" d="M77.3 33.1c-2.6 0-5.1.8-7.3 2.3-2.2-1.5-4.8-2.3-7.3-2.3-.8 0-1.4.6-1.4 1.4 0 .8.6 1.4 1.4 1.4 2.3 0 4.5.8 6.4 2.4.3.2.6.3.9.3.3 0 .6-.1.9-.3 1.9-1.6 4.2-2.4 6.4-2.4.8 0 1.4-.6 1.4-1.4 0-.8-.6-1.4-1.4-1.4z" id="Path_20_"/><path class="st0" d="M63.6 25.2c-2 0-3.9.6-5.6 1.8-1.7-1.2-3.6-1.8-5.6-1.8-.6 0-1.1.5-1.1 1.1 0 .6.5 1.1 1.1 1.1 1.7 0 3.4.6 4.9 1.8.2.2.4.2.7.2s.5-.1.7-.2c1.5-1.2 3.2-1.8 4.9-1.8.6 0 1.1-.5 1.1-1.1-.1-.6-.5-1.1-1.1-1.1z" id="Path_18_"/><path class="st1" d="M59.5 102.2v-5.5c0-.7.6-1.3 1.4-1.3s1.4.6 1.4 1.3v5.5h-2.8z"/><path class="st1" d="M54.6 102.2V65.6H168v36.7h-4.9v-5.5c0-.7-.6-1.3-1.4-1.3s-1.4.6-1.4 1.3v6.9c0 .7.6 1.3 1.4 1.3h7.6c.7 0 1.4-.6 1.4-1.3V64.2c0-.7-.6-1.3-1.4-1.3h-116c-.7 0-1.4.6-1.4 1.3v38h2.7z"/><path class="st0" d="M59.8 71.3V94h103.1V71.3H59.8zm2.7 20V75.4h97.6v15.9H62.5z"/><path class="st0" d="M64.7 76.8h2.5v5.9h-2.5zM69.4 76.8h2.5v5.9h-2.5zM74.2 76.8h2.5v5.9h-2.5zM79 76.8h2.5v5.9H79zM83.7 76.8h2.5v5.9h-2.5zM88.5 76.8H91v5.9h-2.5zM93.2 76.8h2.5v5.9h-2.5zM98 76.8h2.5v5.9H98zM102.7 76.8h2.5v5.9h-2.5zM107.5 76.8h2.5v5.9h-2.5zM112.3 76.8h2.5v5.9h-2.5zM117 76.8h2.5v5.9H117zM121.8 76.8h2.5v5.9h-2.5zM126.5 76.8h2.5v5.9h-2.5zM131.3 76.8h2.5v5.9h-2.5zM136.1 76.8h2.5v5.9h-2.5zM140.8 76.8h2.5v5.9h-2.5zM145.6 76.8h2.5v5.9h-2.5zM150.3 76.8h2.5v5.9h-2.5zM155.1 76.8h2.5v5.9h-2.5zM64.7 84.3h2.5v5.9h-2.5zM69.4 84.3h2.5v5.9h-2.5zM74.2 84.3h2.5v5.9h-2.5zM79 84.3h2.5v5.9H79zM83.7 84.3h2.5v5.9h-2.5zM88.5 84.3H91v5.9h-2.5zM93.2 84.3h2.5v5.9h-2.5zM98 84.3h2.5v5.9H98zM102.7 84.3h2.5v5.9h-2.5zM107.5 84.3h2.5v5.9h-2.5zM112.3 84.3h2.5v5.9h-2.5zM117 84.3h2.5v5.9H117zM121.8 84.3h2.5v5.9h-2.5zM126.5 84.3h2.5v5.9h-2.5zM131.3 84.3h2.5v5.9h-2.5zM136.1 84.3h2.5v5.9h-2.5zM140.8 84.3h2.5v5.9h-2.5zM145.6 84.3h2.5v5.9h-2.5zM150.3 84.3h2.5v5.9h-2.5zM155.1 84.3h2.5v5.9h-2.5z"/><path class="st0" d="M154.5 102.2H39.9v-3c4-.6 7-4.1 7-8.2 0-8.6-7.3-13.7-7.6-13.9-.5-.3-1.2-.3-1.6.1-.1.1-1.2 1-2.5 2.5-2.6-7.4-8.6-11.6-9-11.9-.5-.3-1.2-.3-1.6.1-.4.3-10 8.3-10 18.6 0 5.7 4.4 10.4 10 10.9v5h-10c-.7 0-1.4.6-1.4 1.3s.6 1.3 1.4 1.3h139.8c.7 0 1.4-.6 1.4-1.3s-.6-1.5-1.3-1.5zM36.1 82.9c.9-1.3 1.9-2.3 2.5-2.9 1.7 1.5 5.6 5.4 5.6 11 0 2.6-1.8 4.9-4.3 5.5V95c0-.7-.6-1.3-1.4-1.3s-1.4.6-1.4 1.3v1.5c-1.6-.4-2.9-1.4-3.6-2.8 1.7-1.9 2.8-4.5 2.8-7.3.1-1.3 0-2.4-.2-3.5zm-18.8 3.5c0-7.3 6.1-13.7 8.3-15.8 2.2 1.8 8.1 7.5 8.1 15.8 0 3.9-2.7 7.2-6.4 8v-6.3c0-.7-.6-1.3-1.4-1.3s-1.4.6-1.4 1.3v6.4c-4-.4-7.2-3.9-7.2-8.1zm10 10.7c1.5-.3 3-.8 4.2-1.7 1.2 2 3.3 3.4 5.7 3.7v3h-9.9v-5zM134.1 18.3h-6.9c-.3-1.8-1-3.4-2.1-4.7l4.8-4.8c.5-.5.5-1.4 0-1.9s-1.4-.5-1.9 0l-4.9 4.9c-1.4-1-3-1.6-4.8-1.8V3.1c0-.7-.6-1.3-1.4-1.3s-1.4.6-1.4 1.3V10c-1.8.3-3.4 1-4.7 2.1L106 7.3c-.5-.5-1.4-.5-1.9 0s-.5 1.4 0 1.9l4.9 4.9c-1 1.4-1.6 3-1.8 4.8h-6.8c-.7 0-1.4.6-1.4 1.3s.6 1.3 1.4 1.3h6.9c.3 1.8 1 3.4 2.1 4.7l-4.8 4.8c-.5.5-.5 1.4 0 1.9.3.3.6.4 1 .4s.7-.1 1-.4l4.9-4.9c1.4 1 3 1.6 4.8 1.8v6.8c0 .7.6 1.3 1.4 1.3s1.4-.6 1.4-1.3v-6.9c1.8-.3 3.4-1 4.7-2.1l4.8 4.8c.3.3.6.4 1 .4s.7-.1 1-.4c.5-.5.5-1.4 0-1.9l-4.9-4.9c1-1.4 1.6-3 1.8-4.8h6.8c.7 0 1.4-.6 1.4-1.3s-.8-1.2-1.6-1.2zm-16.8 9.1c-4.1 0-7.4-3.3-7.4-7.4 0-4.1 3.3-7.4 7.4-7.4s7.4 3.3 7.4 7.4c0 4.1-3.3 7.4-7.4 7.4zM89.7 149.7c-25 0-48-12.5-61.6-33.5-.4-.6-.2-1.5.4-1.9.6-.4 1.5-.2 1.9.4C43.5 134.9 65.7 147 89.7 147c24.9 0 47.5-12.7 60.5-34 .4-.6 1.2-.8 1.9-.5.6.4.8 1.2.5 1.9-13.6 22.1-37 35.3-62.9 35.3zM158.9 57.3c-.6 0-1.1-.4-1.3-1-3.2-11-9.1-21.1-17.1-29.4-.5-.5-.5-1.4 0-1.9s1.4-.5 1.9 0c8.3 8.6 14.5 19.1 17.8 30.5.2.7-.2 1.5-.9 1.7-.1.1-.3.1-.4.1zM96.7 3.1c-2.4-.2-4.7-.3-7-.3-33.2 0-62.4 22.4-70.9 54.4-.2.7.2 1.5 1 1.7h.4c.6 0 1.1-.4 1.3-1C29.7 27 57.8 5.5 89.7 5.5c2.2 0 4.4.1 6.7.3h.1c.7 0 1.3-.5 1.3-1.2.2-.7-.4-1.4-1.1-1.5z"/></svg>