<?xml version="1.0" encoding="UTF-8"?>
<svg width="145px" height="153px" viewBox="0 0 145 153" version="1.1" xmlns="http://www.w3.org/2000/svg" xmlns:xlink="http://www.w3.org/1999/xlink">
    <!-- Generator: Sketch 43.2 (39069) - http://www.bohemiancoding.com/sketch -->
    <title>seattle-art</title>
    <desc>Created with Sketch.</desc>
    <defs>
        <path d="M169.59115,109.786079 C164.260062,143.439672 135.115533,169.169051 99.962725,169.169051 C61.0272768,169.169051 29.462725,137.604499 29.462725,98.6690508 C29.462725,63.6832318 54.9482367,34.648743 88.3666347,29.1182098 C90.4229259,28.7779066 169.868634,108.034404 169.59115,109.786079 Z" id="path-1"></path>
    </defs>
    <g id="meetups" stroke="none" stroke-width="1" fill="none" fill-rule="evenodd">
        <g id="seattle-art" transform="translate(-26.000000, -19.000000)">
            <g id="Group-7">
                <mask id="mask-2" fill="white">
                    <use xlink:href="#path-1"></use>
                </mask>
                <g id="Mask" transform="translate(99.527300, 99.143084) rotate(-45.000000) translate(-99.527300, -99.143084) "></g>
                <g mask="url(#mask-2)" stroke-linecap="round" stroke="#313D3E" id="Path" stroke-width="2" stroke-linejoin="round">
                    <g transform="translate(73.000000, 106.000000)">
                        <path d="M53.6771618,0.255731904 L50.3267793,0.255731904 C38.8636851,55.9918389 34.4124627,113.065292 37.1206885,169.91452 L41.5519681,212.877769 L44.8465109,212.877769 L40.3952885,169.68629 C39.5377501,151.648132 39.4858989,133.597962 40.0682273,115.575819 C40.0562617,115.527771 40.0083991,115.503747 40.000422,115.451695 C39.9685136,115.251493 40.0163762,115.0593 40.0921586,114.887126 C40.5987045,99.6838217 41.6078078,84.5045414 43.1314341,69.3773135 C43.0915486,69.2171523 43.0716059,69.048983 43.1114914,68.8768097 C43.1274456,68.8087412 43.1673311,68.7526847 43.1952509,68.6926243 C44.1884,58.9508176 45.3490682,49.2290311 46.7610151,39.5392769 C46.7570266,39.4071439 46.7769693,39.2790149 46.8208434,39.1548899 C48.7353476,26.1297781 51.01281,13.1567188 53.6771618,0.255731904 Z"></path>
                        <path d="M0.236874114,0.255731904 C2.39069141,10.6822278 4.23739031,21.1647801 5.89662733,31.6753606 C5.988364,31.8315178 6.0521808,32.0036912 6.0521808,32.1958846 C6.0521808,32.2679572 6.02426095,32.3280176 6.0122953,32.3960862 C8.01454767,45.168944 9.65384194,57.9898503 10.922201,70.8467928 C10.9461323,70.8908371 10.9780407,70.9268734 10.9939949,70.9789258 C11.0578117,71.1831313 11.0418575,71.3833329 10.9900064,71.5755263 C12.3979647,85.9820287 13.3392626,100.424567 13.8218773,114.89113 C13.8577742,114.979219 13.9016483,115.067308 13.9136139,115.163404 C13.9335567,115.335578 13.9016483,115.499743 13.8458086,115.651896 C14.4241484,133.633998 14.3762858,151.63612 13.5187474,169.62623 L9.05954791,212.873765 L12.3540907,212.873765 L16.7853703,169.8945 C19.4935961,113.061288 15.0423737,55.9838309 3.57927947,0.251727873 L0.236874114,0.251727873 L0.236874114,0.255731904 Z"></path>
                        <path d="M26.9570179,214.951857 C28.341045,214.951857 29.7051293,214.879784 31.0811792,214.847752 L31.0811792,0.255731904 L26.9570179,0.255731904 L22.8368452,0.255731904 L22.8368452,214.847752 C24.2089066,214.87578 25.5729909,214.951857 26.9570179,214.951857 Z"></path>
                    </g>
                </g>
            </g>
            <path d="M99.448942,46.5900002 L99.448942,20" id="Path" stroke="#ED1C40" stroke-width="2" stroke-linecap="round" stroke-linejoin="round"></path>
            <path d="M99.9570179,106.169684 L140.867581,106.169684 C144.545024,105.881394 148.046972,104.556059 150.998499,102.333822 C151.130121,102.229718 151.213881,102.077564 151.237812,101.909395 C151.261744,101.741226 151.213881,101.573057 151.10619,101.440924 C151.082259,101.420903 151.070293,101.392875 151.05035,101.372855 C149.8139,100.584061 148.393976,100.079553 146.934166,99.9193918 L145.729624,99.9193918 L54.1844119,99.9193918 L52.9798697,99.9193918 C51.5360144,100.079553 50.128056,100.580057 48.903571,101.356839 C48.7839145,101.460944 48.6961664,101.597081 48.6802122,101.757242 C48.6562809,101.925411 48.7041435,102.093581 48.8118343,102.225714 C48.8437427,102.253742 48.8636855,102.289778 48.8916053,102.32181 C48.8955939,102.325814 48.8995824,102.32181 48.903571,102.325814 C51.8550984,104.556059 55.3650229,105.885398 59.046455,106.169684 L99.9570179,106.169684 Z M57.6943364,81.7452506 L142.219699,81.7452506 L116.5454,72.8282742 C116.401812,72.7802259 116.278167,72.7001452 116.174464,72.6040485 C116.150533,72.5880324 115.979025,72.411855 115.963071,72.3998429 C115.021773,71.3988353 114.519216,70.0895172 114.559101,68.7121307 C114.598987,67.3347441 115.165361,66.0534543 116.162499,65.1044991 C116.210361,65.0844789 119.125992,62.6500282 119.125992,62.6500282 L115.08559,61.3046739 C114.981888,61.2686377 114.898128,61.2085772 114.814369,61.1485167 C114.59101,60.9803475 114.491296,60.8001661 114.427479,60.6039686 L85.482568,60.6039686 C85.4227398,60.8001661 85.3190375,60.9803475 85.1555069,61.1124805 C85.0119191,61.2085772 84.9281595,61.2686377 84.8244572,61.3046739 L80.7840555,62.6500282 L83.6917088,65.0564507 C83.7595142,65.1165111 83.9310219,65.2926885 83.9469761,65.3047006 C84.888274,66.3057083 85.3908314,67.6150263 85.3509459,68.9924128 C85.3110604,70.3697994 84.7446862,71.6510892 83.7475485,72.6000445 C83.6358691,72.7001452 83.5122241,72.7842299 83.3686362,72.8322783 L57.6943364,81.7452506 Z M96.1918262,47.3218673 L96.1918262,52.8314135 L103.72221,52.8314135 L103.72221,47.3218673 L99.9570179,47.3218673 L96.1918262,47.3218673 Z M86.1885415,53.9675401 L85.64211,59.4254248 L114.271926,59.4254248 L113.725494,53.9675401 L104.775187,53.9675401 C104.300549,53.9675401 103.91366,53.2482143 103.782038,52.2681328 L96.1280094,52.2681328 C95.9963873,53.2392227 95.6094979,53.9675401 95.1348603,53.9675401 L86.1885415,53.9675401 Z M146.962086,81.8312987 L144.361551,81.8312987 L144.361551,85.9354302 L145.426494,85.9354302 L146.962086,81.8312987 Z M56.1547559,81.8312987 L56.1547559,85.9354302 L58.1450426,85.9354302 L58.1450426,81.8312987 L56.1547559,81.8312987 L56.1547559,81.8312987 Z M58.7473137,85.9354302 L60.9649478,85.9354302 L60.9649478,81.8312987 L58.7473137,81.8312987 L58.7473137,85.9354302 Z M61.567219,85.9354302 L63.9763035,85.9354302 L63.9763035,81.8312987 L61.567219,81.8312987 L61.567219,85.9354302 Z M64.5745861,85.9354302 L67.5939188,85.9354302 L67.5939188,81.8312987 L64.5745861,81.8312987 L64.5745861,85.9354302 Z M68.19619,85.9354302 L71.6821831,85.9354302 L71.6821831,81.8312987 L68.19619,81.8312987 L68.19619,85.9354302 Z M72.2844543,85.9354302 L77.158463,85.9354302 L77.158463,81.8312987 L72.2844543,81.8312987 L72.2844543,85.9354302 Z M77.7607342,85.9354302 L82.3794757,85.9354302 L82.3794757,81.8312987 L77.7607342,81.8312987 L77.7607342,85.9354302 Z M82.9817468,85.9354302 L87.7879502,85.9354302 L87.7879502,81.8312987 L82.9817468,81.8312987 L82.9817468,85.9354302 Z M88.3902214,85.9354302 L93.8465585,85.9354302 L93.8465585,81.8312987 L88.3902214,81.8312987 L88.3902214,85.9354302 Z M94.4488296,85.9354302 L99.6578767,85.9354302 L99.6578767,81.8312987 L94.4488296,81.8312987 L94.4488296,85.9354302 Z M100.256159,85.9354302 L105.465206,85.9354302 L105.465206,81.8312987 L100.256159,81.8312987 L100.256159,85.9354302 Z M106.067477,85.9354302 L111.523815,85.9354302 L111.523815,81.8312987 L106.067477,81.8312987 L106.067477,85.9354302 Z M112.126086,85.9354302 L116.932289,85.9354302 L116.932289,81.8312987 L112.126086,81.8312987 L112.126086,85.9354302 Z M117.53456,85.9354302 L122.153302,85.9354302 L122.153302,81.8312987 L117.53456,81.8312987 L117.53456,85.9354302 Z M122.755573,85.9354302 L127.629582,85.9354302 L127.629582,81.8312987 L122.755573,81.8312987 L122.755573,85.9354302 Z M128.231853,85.9354302 L131.717846,85.9354302 L131.717846,81.8312987 L128.231853,81.8312987 L128.231853,85.9354302 Z M132.320117,85.9354302 L135.33945,85.9354302 L135.33945,81.8312987 L132.320117,81.8312987 L132.320117,85.9354302 Z M135.941721,85.9354302 L138.350805,85.9354302 L138.350805,81.8312987 L135.941721,81.8312987 L135.941721,85.9354302 Z M138.949088,85.9354302 L141.166722,85.9354302 L141.166722,81.8312987 L138.949088,81.8312987 L138.949088,85.9354302 Z M141.768993,85.9354302 L143.75928,85.9354302 L143.75928,81.8312987 L141.768993,81.8312987 L141.768993,85.9354302 Z M52.9519498,81.8312987 L54.4875418,85.9354302 L55.5524848,85.9354302 L55.5524848,81.8312987 L52.9519498,81.8312987 L52.9519498,81.8312987 Z M39,90.7655024 L50.8579608,93.4929996 L149.052087,93.4929996 L160.910047,90.7655024 L154.468538,88.1927948 C154.448595,88.1874572 154.43663,88.1661069 154.416687,88.1554318 C154.344893,88.1234064 154.285065,88.0700307 154.225237,88.016655 C154.169397,87.9686169 154.113557,87.9312539 154.065695,87.8725407 C154.013843,87.8084899 153.977946,87.7391015 153.938061,87.6643756 C153.898175,87.5949872 153.85829,87.5255988 153.826382,87.4455353 C153.80245,87.3814845 153.790485,87.3120961 153.77453,87.2427077 L46.1355169,87.2427077 C46.1195627,87.3120961 46.1075971,87.3814845 46.0836658,87.4455353 C46.0557459,87.5255988 46.0118719,87.5949872 45.9719863,87.6643756 C45.9321008,87.7391015 45.8962039,87.8084899 45.8443527,87.8725407 C45.7964901,87.9312539 45.7406504,87.9686169 45.6848107,88.016655 C45.6209939,88.0700307 45.5611656,88.1180688 45.4933603,88.1554318 C45.4734175,88.1661069 45.4614519,88.1821196 45.4415091,88.1927948 L39,90.7655024 Z M147.568346,93.5790478 L144.86012,93.5790478 L143.747314,99.8293396 L145.019662,99.8293396 L147.568346,93.5790478 Z M58.8589932,99.8293396 L57.7501761,93.5790478 L55.6641642,93.5790478 L56.7769698,99.8293396 L58.8589932,99.8293396 Z M62.5922765,99.8293396 L61.4794709,93.5790478 L58.3604243,93.5790478 L59.4692414,99.8293396 L62.5922765,99.8293396 Z M66.2697201,99.8293396 L65.160903,93.5790478 L62.0937076,93.5790478 L63.2065132,99.8293396 L66.2697201,99.8293396 Z M71.2713624,99.8293396 L70.1585568,93.5790478 L65.7711512,93.5790478 L66.8799683,99.8293396 L71.2713624,99.8293396 Z M76.5282721,99.8293396 L75.4154665,93.5790478 L70.7727936,93.5790478 L71.8855992,99.8293396 L76.5282721,99.8293396 Z M81.6735023,99.8293396 L81.6735023,93.5790478 L76.0297032,93.5790478 L77.1425088,99.8293396 L81.6735023,99.8293396 Z M82.2757734,99.8293396 L87.7839617,99.8293396 L87.7839617,93.5790478 L82.2757734,93.5790478 L82.2757734,99.8293396 Z M88.3902214,99.8293396 L93.8465585,99.8293396 L93.8465585,93.5790478 L88.3902214,93.5790478 L88.3902214,99.8293396 Z M94.4488296,99.8293396 L99.6578767,99.8293396 L99.6578767,93.5790478 L94.4488296,93.5790478 L94.4488296,99.8293396 Z M100.256159,99.8293396 L105.465206,99.8293396 L105.465206,93.5790478 L100.256159,93.5790478 L100.256159,99.8293396 Z M106.067477,99.8293396 L111.523815,99.8293396 L111.523815,93.5790478 L106.067477,93.5790478 L106.067477,99.8293396 Z M112.126086,99.8293396 L117.634274,99.8293396 L117.634274,93.5790478 L112.126086,93.5790478 L112.126086,99.8293396 Z M118.240534,99.8293396 L122.775516,99.8293396 L123.888321,93.5790478 L118.244522,93.5790478 L118.244522,99.8293396 L118.240534,99.8293396 Z M123.385764,99.8293396 L128.028437,99.8293396 L129.141242,93.5790478 L124.498569,93.5790478 L123.385764,99.8293396 Z M128.642673,99.8293396 L133.030079,99.8293396 L134.138896,93.5790478 L129.75149,93.5790478 L128.642673,99.8293396 Z M133.644316,99.8293396 L136.711511,99.8293396 L137.824317,93.5790478 L134.757121,93.5790478 L133.644316,99.8293396 Z M137.321759,99.8293396 L140.440806,99.8293396 L141.549623,93.5790478 L138.430576,93.5790478 L137.321759,99.8293396 Z M141.055043,99.8293396 L143.141055,99.8293396 L144.25386,93.5790478 L142.167848,93.5790478 L141.055043,99.8293396 Z M52.3456901,93.5790478 L54.8943739,99.8293396 L56.1667215,99.8293396 L55.0539159,93.5790478 L52.3456901,93.5790478 Z" id="Shape" stroke="#313D3E" stroke-width="2" stroke-linecap="round" stroke-linejoin="round" fill-rule="nonzero"></path>
            <path d="M32.5799395,123.308572 L34.4828035,123.283753 L34.9810507,121.291991 L36.2469155,114.941008 L40.5623519,114.401911 L42.5914015,109.839359 L52.8825376,109.839359 L54.910054,113.891896 L59.6598698,114.419328 L60.1471653,118.802288 L63.2462326,118.802288 L63.2462326,144.197254 L77.1901434,144.197254 L77.1901434,148.678719 C77.1901434,148.678719 78.2506246,160.032432 78.7808652,165.709289" id="Shape" stroke="#ED1C40" stroke-width="2" fill-rule="nonzero"></path>
            <path d="M124.749468,164.366211 C124.749468,159.460528 124.749468,149.649162 124.749468,149.649162 L139.418955,150.147036 L139.381364,135.732265 L142.373572,135.732265 L142.373572,131.748741 L144.864808,131.748741 L145,131.748741 L151,131.748741 L151,120 L154.985978,120 L154.985978,117.012357 L165.650967,117.012357" id="Shape" stroke="#ED1C40" stroke-width="2" fill-rule="nonzero"></path>
            <path d="M98.5,170 C59.5645517,170 28,138.435448 28,99.5 C28,61.9757517 57.3179276,31.2977725 94.2966007,29.1232444 C95.6872829,29.0414655 97.0888,29 98.5,29 C100.612987,29 102.704267,29.0929615 104.769971,29.2750176 C140.768439,32.4476607 169,62.6775391 169,99.5 C169,101.388058 168.925777,103.258783 168.780089,105.109417 C166.255607,137.177275 142.273136,163.212525 111.186246,168.861597" id="Shape-Copy-5" stroke="#313D3E" stroke-width="3" stroke-linecap="round" stroke-linejoin="round" transform="translate(98.500000, 99.500000) rotate(-174.299988) translate(-98.500000, -99.500000) "></path>
        </g>
    </g>
</svg>