<svg width="182" height="151" viewBox="0 0 182 151" version="1.1" xmlns="http://www.w3.org/2000/svg" xmlns:xlink="http://www.w3.org/1999/xlink"><title>san-fran-art</title><desc>Created with Sketch.</desc><g id="meetups" stroke="none" stroke-width="1" fill="none" fill-rule="evenodd"><g id="chapters" transform="translate(-319.000000, -300.000000)"><g id="meetup" transform="translate(-96.000000, -30.000000)"><g id="san-fran-art" transform="translate(415.000000, 330.000000)"><path d="M123.679249,136.249177 C124.12639,136.890604 123.969991,137.770562 123.334369,138.217557 C111.413946,146.580165 97.390155,151 82.7748545,151 C69.954134,151 57.3960839,147.530279 46.4601738,140.969681 C45.7924697,140.570793 45.5779221,139.702862 45.9789456,139.033372 C46.3799691,138.363883 47.2461798,138.155419 47.9138839,138.550297 C58.4086682,144.850316 70.465439,148.173711 82.7768596,148.173711 C96.8106761,148.173711 110.269024,143.936282 121.712229,135.908419 C122.351861,135.461424 123.228097,135.611759 123.679249,136.249177 Z M69.6613869,113.181848 C68.8813962,113.181848 68.2497843,113.813253 68.2497843,114.594993 L68.2497843,119.277412 C68.2497843,120.059151 68.8813962,120.686548 69.6613869,120.686548 C70.4393724,120.686548 71.0729895,120.059151 71.0729895,119.277412 L71.0729895,114.594993 C71.0729895,113.813253 70.4393724,113.181848 69.6613869,113.181848 Z M74.7804515,113.181848 C74.0004609,113.181848 73.370854,113.813253 73.370854,114.594993 L73.370854,119.277412 C73.370854,120.059151 74.0004609,120.686548 74.7804515,120.686548 C75.5604422,120.686548 76.190049,120.059151 76.190049,119.277412 L76.190049,114.594993 C76.190049,113.813253 75.5604422,113.181848 74.7804515,113.181848 Z M79.8995162,113.181848 C79.1175204,113.181848 78.4879136,113.813253 78.4879136,114.594993 L78.4879136,119.277412 C78.4879136,120.059151 79.1175204,120.686548 79.8995162,120.686548 C80.6775017,120.686548 81.3091137,120.059151 81.3091137,119.277412 L81.3091137,114.594993 C81.3091137,113.813253 80.6754966,113.181848 79.8995162,113.181848 Z M85.0145706,113.181848 C84.2365851,113.181848 83.602968,113.813253 83.602968,114.594993 L83.602968,119.277412 C83.602968,120.059151 84.2365851,120.686548 85.0145706,120.686548 C85.7965664,120.686548 86.4241681,120.059151 86.4241681,119.277412 L86.4241681,114.594993 C86.4261732,113.813253 85.7965664,113.181848 85.0145706,113.181848 Z M90.1336352,113.181848 C89.3556497,113.181848 88.7220326,113.813253 88.7220326,114.594993 L88.7220326,119.277412 C88.7220326,120.059151 89.3536446,120.686548 90.1336352,120.686548 C90.9136259,120.686548 91.5432328,120.059151 91.5432328,119.277412 L91.5432328,114.594993 C91.5432328,113.813253 90.9116208,113.181848 90.1336352,113.181848 Z M95.2506948,113.181848 C94.4707041,113.181848 93.837087,113.813253 93.837087,114.594993 L93.837087,119.277412 C93.837087,120.059151 94.4707041,120.686548 95.2506948,120.686548 C96.0306854,120.686548 96.6602923,120.059151 96.6602923,119.277412 L96.6602923,114.594993 C96.6602923,113.813253 96.0306854,113.181848 95.2506948,113.181848 Z M69.6613869,20.1588568 C70.4393724,20.1588568 71.0729895,19.5294563 71.0729895,18.7477168 L71.0729895,14.0632932 C71.0729895,13.2835581 70.4393724,12.6521531 69.6613869,12.6521531 C68.8813962,12.6521531 68.2497843,13.2835581 68.2497843,14.0632932 L68.2497843,18.7477168 C68.2497843,19.5274518 68.8813962,20.1588568 69.6613869,20.1588568 Z M74.7804515,20.1588568 C75.5604422,20.1588568 76.190049,19.5294563 76.190049,18.7477168 L76.190049,14.0632932 C76.190049,13.2835581 75.5604422,12.6521531 74.7804515,12.6521531 C74.0004609,12.6521531 73.370854,13.2835581 73.370854,14.0632932 L73.370854,18.7477168 C73.370854,19.5274518 74.0004609,20.1588568 74.7804515,20.1588568 Z M79.8995162,20.1588568 C80.6775017,20.1588568 81.3091137,19.5294563 81.3091137,18.7477168 L81.3091137,14.0632932 C81.3091137,13.2835581 80.6775017,12.6521531 79.8995162,12.6521531 C79.1175204,12.6521531 78.4879136,13.2835581 78.4879136,14.0632932 L78.4879136,18.7477168 C78.4879136,19.5274518 79.1175204,20.1588568 79.8995162,20.1588568 Z M85.0145706,20.1588568 C85.7965664,20.1588568 86.4241681,19.5294563 86.4241681,18.7477168 L86.4241681,14.0632932 C86.4241681,13.2835581 85.7965664,12.6521531 85.0145706,12.6521531 C84.2365851,12.6521531 83.602968,13.2835581 83.602968,14.0632932 L83.602968,18.7477168 C83.602968,19.5274518 84.2385902,20.1588568 85.0145706,20.1588568 Z M90.1336352,20.1588568 C90.9136259,20.1588568 91.5432328,19.5294563 91.5432328,18.7477168 L91.5432328,14.0632932 C91.5432328,13.2835581 90.9136259,12.6521531 90.1336352,12.6521531 C89.3556497,12.6521531 88.7220326,13.2835581 88.7220326,14.0632932 L88.7220326,18.7477168 C88.7220326,19.5274518 89.3536446,20.1588568 90.1336352,20.1588568 Z M95.2506948,20.1588568 C96.0306854,20.1588568 96.6602923,19.5294563 96.6602923,18.7477168 L96.6602923,14.0632932 C96.6602923,13.2835581 96.0306854,12.6521531 95.2506948,12.6521531 C94.4707041,12.6521531 93.837087,13.2835581 93.837087,14.0632932 L93.837087,18.7477168 C93.837087,19.5274518 94.4727092,20.1588568 95.2506948,20.1588568 Z M119.183776,23.0573063 C138.882049,35.5972097 150.646072,57.0068497 150.646072,80.3247358 C150.646072,90.0403547 148.636945,99.4132109 144.672828,108.194751 C144.358024,108.906335 144.668818,109.744199 145.380634,110.068922 C145.569115,110.151104 145.767622,110.191194 145.960113,110.191194 C146.501495,110.191194 147.010795,109.884511 147.245393,109.363352 C151.37794,100.210986 153.471283,90.4432512 153.471283,80.3267403 C153.471283,56.0427043 141.222021,33.7430839 120.693629,20.6800165 C120.041966,20.2630887 119.16573,20.4555169 118.74666,21.1129799 C118.329596,21.7664339 118.526097,22.6383741 119.183776,23.0573063 Z M19.2407055,109.38941 C19.4271814,109.38941 19.6176675,109.34932 19.8021383,109.267137 C20.513955,108.958451 20.8407891,108.124595 20.5299959,107.411007 C16.7984725,98.851962 14.9036366,89.7396857 14.9036366,80.3187225 C14.9036366,58.3458291 25.6330196,37.6277279 43.6028815,24.9054187 L43.6048866,24.9054187 C44.7137165,24.1196703 45.8606437,23.3599798 47.0095759,22.646392 C47.6712647,22.2354776 47.8757866,21.3675463 47.4667427,20.70407 C47.0556936,20.0425981 46.1834676,19.8401476 45.5217788,20.251062 C44.3227187,20.9967212 43.1316789,21.788483 41.9727211,22.6042983 L41.970716,22.6063028 C23.2549504,35.8517761 12.0824364,57.4277863 12.0824364,80.3187225 C12.0824364,90.1305554 14.0514617,99.6236792 17.9433945,108.541523 C18.173983,109.074709 18.6933084,109.38941 19.2407055,109.38941 Z M69.6613869,62.918003 C68.8813962,62.918003 68.2497843,63.5474035 68.2497843,64.3271385 L68.2497843,69.0115622 C68.2497843,69.7912972 68.8813962,70.4206977 69.6613869,70.4206977 C70.4393724,70.4206977 71.0729895,69.7912972 71.0729895,69.0115622 L71.0729895,64.3271385 C71.0729895,63.549408 70.4393724,62.918003 69.6613869,62.918003 Z M74.7804515,62.918003 C74.0004609,62.918003 73.370854,63.5474035 73.370854,64.3271385 L73.370854,69.0115622 C73.370854,69.7912972 74.0004609,70.4206977 74.7804515,70.4206977 C75.5604422,70.4206977 76.190049,69.7912972 76.190049,69.0115622 L76.190049,64.3271385 C76.190049,63.549408 75.5604422,62.918003 74.7804515,62.918003 Z M79.8995162,62.918003 C79.1175204,62.918003 78.4879136,63.5474035 78.4879136,64.3271385 L78.4879136,69.0115622 C78.4879136,69.7912972 79.1175204,70.4206977 79.8995162,70.4206977 C80.6775017,70.4206977 81.3091137,69.7912972 81.3091137,69.0115622 L81.3091137,64.3271385 C81.3091137,63.549408 80.6754966,62.918003 79.8995162,62.918003 Z M85.0145706,62.918003 C84.2365851,62.918003 83.602968,63.5474035 83.602968,64.3271385 L83.602968,69.0115622 C83.602968,69.7912972 84.2365851,70.4206977 85.0145706,70.4206977 C85.7965664,70.4206977 86.4241681,69.7912972 86.4241681,69.0115622 L86.4241681,64.3271385 C86.4261732,63.549408 85.7965664,62.918003 85.0145706,62.918003 Z M90.1336352,62.918003 C89.3556497,62.918003 88.7220326,63.5474035 88.7220326,64.3271385 L88.7220326,69.0115622 C88.7220326,69.7912972 89.3536446,70.4206977 90.1336352,70.4206977 C90.9136259,70.4206977 91.5432328,69.7912972 91.5432328,69.0115622 L91.5432328,64.3271385 C91.5432328,63.549408 90.9116208,62.918003 90.1336352,62.918003 Z M95.2506948,62.918003 C94.4707041,62.918003 93.837087,63.5474035 93.837087,64.3271385 L93.837087,69.0115622 C93.837087,69.7912972 94.4707041,70.4206977 95.2506948,70.4206977 C96.0306854,70.4206977 96.6602923,69.7912972 96.6602923,69.0115622 L96.6602923,64.3271385 C96.6602923,63.549408 96.0306854,62.918003 95.2506948,62.918003 Z M181.318353,132.422662 C180.652654,132.819545 179.782433,132.603064 179.383415,131.933574 C173.905434,122.773191 163.222169,118.24311 152.815609,120.662494 C143.780551,122.769182 136.790711,129.670538 134.577062,138.682592 C134.416652,139.326023 133.841184,139.752974 133.203556,139.752974 C133.08726,139.752974 132.976978,139.740947 132.866697,139.716893 C132.106757,139.526469 131.651596,138.758761 131.830051,138.005084 C132.515801,135.220889 133.610595,132.617095 135.048264,130.253836 C130.943789,127.371423 126.017216,125.797921 120.966325,125.797921 C113.040096,125.797921 105.571034,129.658512 100.98132,136.128909 C101.99992,136.938711 102.954356,137.842723 103.820566,138.852971 C104.325856,139.444287 104.255677,140.334267 103.664167,140.839391 C103.397487,141.065895 103.072658,141.17614 102.747829,141.17614 C102.34881,141.17614 101.953802,141.013779 101.675091,140.685048 C98.3305551,136.774346 93.4541096,134.531355 88.3109836,134.531355 C84.9724631,134.531355 81.7301883,135.479464 78.939065,137.237376 C80.733645,137.930919 82.3497696,139.057426 83.6350498,140.556762 C84.1403394,141.148078 84.0701603,142.040063 83.4786507,142.545187 C83.2119701,142.771691 82.8871411,142.881936 82.5623121,142.881936 C82.1652988,142.881936 81.7682856,142.713561 81.4895743,142.388839 C79.7972552,140.412441 77.3329659,139.275912 74.7303236,139.275912 C72.5728173,139.275912 70.4955157,140.059656 68.8733758,141.476809 C68.2898866,141.989951 67.3956043,141.927813 66.8863044,141.344515 C66.3709893,140.757208 66.4311428,139.869232 67.014632,139.35609 C69.150082,137.487933 71.8910774,136.46165 74.7303236,136.46165 C74.8947432,136.46165 75.0571577,136.465659 75.2215774,136.473677 C76.2943151,135.577683 77.4512679,134.78993 78.6743895,134.132467 C76.240177,127.148927 69.5210287,122.330205 62.0639972,122.330205 C55.637596,122.330205 49.6623462,125.916184 46.6085525,131.532682 C47.0436629,132.053842 47.4587222,132.595046 47.847715,133.162308 C48.2928511,133.803735 48.1324417,134.681689 47.488799,135.124675 C47.2461798,135.293049 46.9634582,135.375232 46.6887572,135.375232 C46.2396109,135.375232 45.8024953,135.164764 45.5297993,134.761867 C41.7280968,129.269646 35.4721306,125.984336 28.7991,125.984336 C24.5101539,125.984336 20.325474,127.357391 16.874667,129.852944 C18.4767557,132.113975 19.7500053,134.631578 20.6242364,137.353635 C20.8628454,138.09328 20.4538015,138.895065 19.711908,139.129586 C19.5715498,139.173684 19.421166,139.193729 19.2767976,139.193729 C18.6832828,139.193729 18.1298704,138.816891 17.9373792,138.217557 C15.3948903,130.285908 9.0767655,124.250478 1.04025507,122.069625 C0.290341173,121.86517 -0.154794884,121.093453 0.049727088,120.34178 C0.25424906,119.590108 1.02621925,119.145118 1.77813826,119.351577 C4.62741005,120.123294 7.28218545,121.329979 9.67228536,122.903481 C35.530279,100.102745 51.555177,55.7099639 51.555177,6.66883927 C51.555177,6.6167233 51.5672077,6.5666118 51.571218,6.51650029 L51.571218,5.03520416 C51.571218,4.25346466 52.2028299,3.6260686 52.9828206,3.6260686 L54.8836719,3.6260686 L54.8836719,1.40913556 C54.8836719,0.62940052 55.5132787,0 56.2932694,0 L60.028803,0 C60.8087937,0 61.4384005,0.62940052 61.4384005,1.40913556 L61.4384005,3.6260686 L63.3392518,3.6260686 C64.1212476,3.6260686 64.7488493,4.25346466 64.7488493,5.03520416 L64.7488493,7.89156003 L100.11912,7.89156003 L100.11912,5.03520416 C100.11912,4.25346466 100.752737,3.6260686 101.532728,3.6260686 L103.431574,3.6260686 L103.431574,1.40913556 C103.431574,0.62940052 104.063186,0 104.845181,0 L108.5747,0 C109.356695,0 109.984297,0.62940052 109.984297,1.40913556 L109.984297,3.6260686 L111.883143,3.6260686 C112.667144,3.6260686 113.294746,4.25346466 113.294746,5.03520416 L113.294746,10.4733048 C114.038645,54.8801173 127.783724,94.9111931 150.427515,118.379414 C150.998973,118.20703 151.578452,118.054691 152.165951,117.916383 C163.773576,115.212367 175.681968,120.265611 181.789555,130.484349 C182.204615,131.155843 181.984052,132.013752 181.318353,132.422662 Z M12.5235623,124.140233 C12.349117,124.29658 12.1726667,124.460946 11.9982215,124.617294 C12.1786821,124.761615 12.349117,124.915959 12.5235623,125.070302 L12.5235623,124.140233 Z M20.4658322,115.863816 C18.7995796,117.832196 17.081194,119.704362 15.3267163,121.462274 C15.3327317,121.528421 15.3467675,121.58655 15.3467675,121.660715 L15.3467675,127.493695 C16.9348205,126.363179 18.6572163,125.431105 20.4678373,124.733553 L20.4658322,115.863816 L20.4658322,115.863816 Z M28.4101072,105.155989 C26.7659109,107.681609 25.0555458,110.088966 23.2870323,112.37806 L23.2870323,123.845577 C24.95529,123.434663 26.6716704,123.212167 28.4101072,123.180096 L28.4101072,105.155989 Z M36.3543822,91.1127409 C34.7362525,94.4180959 33.0258874,97.589152 31.2313073,100.619896 L31.2313073,123.298359 C32.9877902,123.48277 34.7061757,123.861613 36.3543822,124.432884 L36.3543822,91.1127409 Z M44.2986572,71.5993203 C43.6650402,73.4875219 43.0093668,75.3556789 42.3236166,77.1957734 C41.3290784,79.8617055 40.2763918,82.4634949 39.1755824,84.9971327 L39.1755824,125.629547 C41.0263057,126.557612 42.7487015,127.738239 44.3006624,129.129334 L44.2986572,71.5993203 L44.2986572,71.5993203 Z M51.5772333,41.7769607 C50.4343164,48.8126162 48.9425091,55.6819014 47.1178523,62.3186694 L47.1178523,126.056497 C48.4332093,124.647361 49.9310319,123.428649 51.5772333,122.438446 L51.5772333,41.7769607 Z M61.9376748,6.44433972 L60.0348184,6.44433972 C59.2528226,6.44433972 58.6252209,5.8149392 58.6252209,5.03520416 L58.6252209,2.81827112 L57.7108873,2.81827112 L57.7108873,5.03520416 C57.7108873,5.8149392 57.0792754,6.44433972 56.2992847,6.44433972 L54.3984335,6.44433972 L54.3984335,121.023297 C56.7624668,120.06316 59.3169864,119.52797 61.9376748,119.511934 L61.9376748,6.44433972 L61.9376748,6.44433972 Z M100.12714,126.820196 C100.04092,126.132666 99.4614413,125.603489 98.7516297,125.603489 L76.5810469,125.603489 C78.6242615,127.662069 80.2403861,130.167645 81.2569806,132.975893 C83.4987019,132.150056 85.8867967,131.719097 88.3169989,131.719097 C91.9963893,131.719097 95.5654982,132.713309 98.6634045,134.533359 C99.1225764,133.883914 99.6198455,133.2485 100.125135,132.643153 L100.12714,126.820196 L100.12714,126.820196 Z M100.12714,111.131286 C99.7000502,111.283624 99.234863,111.365807 98.7516297,111.365807 L66.1524315,111.365807 C65.665188,111.365807 65.1959905,111.283624 64.76088,111.127277 L64.76088,119.688326 C67.766551,120.095232 70.6078023,121.171627 73.0981581,122.7772 L98.7516297,122.7772 C99.2328579,122.7772 99.7000502,122.859382 100.12714,123.007713 L100.12714,111.131286 L100.12714,111.131286 Z M100.12714,76.4180428 C100.04092,75.7365263 99.4614413,75.2033399 98.7516297,75.2033399 L66.1524315,75.2033399 C65.3824664,75.2033399 64.76088,75.826727 64.76088,76.5944353 C64.76088,76.6024531 64.7568698,76.610471 64.7568698,76.6224977 L64.7568698,107.132387 C64.7568698,107.140405 64.76088,107.152432 64.76088,107.164459 C64.76088,107.928158 65.3844715,108.549541 66.1524315,108.549541 L98.7516297,108.549541 C99.4614413,108.549541 100.04092,108.01435 100.12714,107.336842 L100.12714,76.4180428 L100.12714,76.4180428 Z M100.12714,60.7371502 C99.7000502,60.8874847 99.234863,60.9676631 98.7516297,60.9676631 L66.1524315,60.9676631 C65.665188,60.9676631 65.1959905,60.8834758 64.76088,60.7331413 L64.76088,72.6195906 C65.1979956,72.4672516 65.665188,72.3830643 66.1524315,72.3830643 L98.7516297,72.3830643 C99.2328579,72.3830643 99.7000502,72.4652472 100.12714,72.6135772 L100.12714,60.7371502 L100.12714,60.7371502 Z M100.12714,26.1642197 C100.04092,25.4806988 99.4614413,24.9475123 98.7516297,24.9475123 L66.1524315,24.9475123 C65.3824664,24.9475123 64.76088,25.5708995 64.76088,26.3366033 C64.76088,26.3486301 64.7568698,26.3546434 64.7568698,26.3666702 L64.7568698,56.7302342 C64.7568698,56.7402565 64.76088,56.7502788 64.76088,56.7562921 C64.76088,57.5280093 65.3844715,58.149392 66.1524315,58.149392 L98.7516297,58.149392 C99.4614413,58.149392 100.04092,57.6162056 100.12714,56.9326846 L100.12714,26.1642197 L100.12714,26.1642197 Z M100.12714,10.7118356 L64.76088,10.7118356 L64.76088,22.3637631 C65.1979956,22.2094196 65.665188,22.1272368 66.1524315,22.1272368 L98.7516297,22.1272368 C99.2328579,22.1272368 99.7000502,22.2094196 100.12714,22.3577497 L100.12714,10.7118356 L100.12714,10.7118356 Z M110.489587,10.4191844 C110.465525,9.17241013 110.453495,7.92162693 110.453495,6.67084373 C110.453495,6.59467424 110.465525,6.52050921 110.477556,6.44433972 L108.58673,6.44433972 C107.80273,6.44433972 107.177133,5.8149392 107.177133,5.03520416 L107.177133,2.81827112 L106.264805,2.81827112 L106.264805,5.03520416 C106.264805,5.8149392 105.633193,6.44433972 104.855207,6.44433972 L102.954356,6.44433972 L102.954356,9.13232093 C102.962376,9.18844581 102.970397,9.2445707 102.970397,9.30470451 L102.970397,76.5944353 C102.970397,76.6525646 102.954356,106.984057 102.954356,106.984057 C102.962376,107.040182 102.970397,107.098311 102.970397,107.16045 L102.970397,126.996588 C102.970397,127.052713 102.962376,127.114852 102.954356,127.168972 L102.954356,129.776775 C105.196077,127.808395 107.748591,126.222867 110.493597,125.07832 L110.489587,10.4191844 L110.489587,10.4191844 Z M117.718035,62.3066426 C115.92145,55.7520576 114.447689,48.9689641 113.308782,42.0215048 L113.308782,124.080099 C114.742441,123.661167 116.218207,123.362502 117.718035,123.182101 L117.718035,62.3066426 Z M125.664315,84.9951282 C124.008088,81.1946716 122.472168,77.2478893 121.066581,73.1688127 C120.890131,72.6476531 120.71368,72.1264934 120.53723,71.6053337 L120.53723,122.983659 C120.679593,122.97965 120.827972,122.97965 120.97234,122.97965 C122.554378,122.97965 124.11837,123.119962 125.664315,123.390564 L125.664315,84.9951282 Z M133.606585,100.605865 C131.81,97.5751208 130.09763,94.4000558 128.48351,91.1007142 L128.48351,124.044018 C130.254029,124.549142 131.966399,125.236672 133.606585,126.090572 L133.606585,100.605865 Z M141.552865,112.374051 C139.782346,110.076939 138.071981,107.665574 136.42578,105.143963 L136.42578,127.784341 C136.495959,127.834453 136.568143,127.88256 136.638322,127.932671 C138.05193,126.072532 139.702142,124.40883 141.544845,122.975641 L141.544845,112.394095 C141.548855,112.384073 141.552865,112.382069 141.552865,112.374051 Z M147.548166,119.43376 C146.471418,118.2832 145.414721,117.088541 144.36805,115.859807 L144.36805,121.04735 C145.38665,120.444008 146.449362,119.900799 147.548166,119.43376 Z" id="sf" fill="#313D3E"/><path d="M95.8301737,44.029974 C93.2576081,44.029974 90.7472012,44.8317581 88.5034748,46.3671746 C86.2657638,44.8317581 83.7533518,44.029974 81.1787811,44.029974 C80.4007955,44.029974 79.7691836,44.6593745 79.7691836,45.4371051 C79.7691836,46.2168401 80.4007955,46.8502496 81.1787811,46.8502496 C83.4485739,46.8502496 85.6782644,47.6660649 87.6272385,49.2195216 C87.8838936,49.425981 88.1926816,49.526204 88.5054799,49.526204 C88.8182783,49.526204 89.1270663,49.4239765 89.3857265,49.2195216 C91.3306903,47.6680693 93.5603808,46.8502496 95.8301737,46.8502496 C96.6101644,46.8502496 97.2397712,46.2168401 97.2397712,45.4371051 C97.2417763,44.661379 96.6101644,44.029974 95.8301737,44.029974 Z" id="Path" fill="#ED1C40"/><path d="M81.1787811,35.280505 C82.7447777,34.0076727 84.543368,33.3241518 86.3820606,33.3041072 C87.1620513,33.2980938 87.7856428,32.6586709 87.7776223,31.8809404 C87.7696019,31.1012053 87.1319745,30.4758137 86.353989,30.4838316 C84.2125237,30.5078851 82.1312118,31.1793793 80.2704629,32.4441937 C78.3856526,31.2154596 76.2903049,30.5840546 74.1468344,30.6061036 C73.3688489,30.6141215 72.7432523,31.2535443 72.7512728,32.0292704 C72.7592932,32.807001 73.3969205,33.4343971 74.1769112,33.4263792 C76.0135987,33.4083391 77.8242197,34.0537753 79.4202931,35.2985451 C79.6789533,35.5030001 79.9897465,35.6012186 80.2985345,35.5952052 C80.6113329,35.5932008 80.9201209,35.4889688 81.1787811,35.280505 Z" id="Path" fill="#ED1C40"/><path d="M145.340532,65.9988584 C145.340532,65.2191233 144.710925,64.5897228 143.930934,64.5897228 C141.358369,64.5897228 138.843952,65.3915069 136.608246,66.9269235 C134.370535,65.3915069 131.854112,64.5897228 129.283552,64.5897228 C128.501556,64.5897228 127.873954,65.2191233 127.873954,65.9988584 C127.873954,66.7785934 128.501556,67.4079939 129.283552,67.4079939 C131.55535,67.4079939 133.783035,68.2278182 135.730004,69.7792704 C135.988664,69.9877343 136.297453,70.0859528 136.608246,70.0859528 C136.917034,70.0859528 137.229832,69.9857298 137.486487,69.7792704 C139.435461,68.2298227 141.661141,67.4079939 143.934945,67.4079939 C144.70892,67.4079939 145.340532,66.7785934 145.340532,65.9988584 Z" id="Path" fill="#ED1C40"/></g></g></g></g></svg>