<svg xmlns="http://www.w3.org/2000/svg" xmlns:xlink="http://www.w3.org/1999/xlink" width="167" height="144" viewBox="0 0 167 144">
  <defs>
    <path id="tokyo-illo-a" d="M26.3359252,79 C26.1137002,76.6966731 26,74.3616146 26,72 C26,69.6383854 26.1137002,67.3033269 26.3359252,65 L15,65 L15,43 L32.0787764,43 C43.2346229,17.6778402 68.5528711,0 98,0 C137.764502,0 170,32.235498 170,72 C170,111.764502 137.764502,144 98,144 C70.5323896,144 46.6572082,128.618983 34.517506,106 L0,106 L0,79 L26.3359252,79 Z"/>
  </defs>
  <g fill="none" fill-rule="evenodd" transform="translate(-3)">
    <mask id="tokyo-illo-b" fill="#fff">
      <use xlink:href="#tokyo-illo-a"/>
    </mask>
    <g stroke-width="2" mask="url(#tokyo-illo-b)">
      <g transform="translate(6 27)">
        <path stroke="#313D3E" d="M14.3223492,22.7508459 C24.1508551,25.4496091 39.0507396,25.4496091 59.0220027,22.7508459 C78.9932657,20.0520827 97.0494154,14.7679341 113.190452,6.89840008 C121.808112,34.670848 129.749713,54.9022786 137.015254,67.5926921 L124.555245,67.5926921 C120.764706,64.2715594 119.889308,60.5791903 118.634362,57.1321968 C117.258631,53.3534349 116.418933,52.2177623 115.853223,46.3961505 C101.277206,54.0353703 82.3334657,58.2439032 59.0220027,59.0217492 C35.7105396,59.7995952 16.0479327,59.4898973 0.0341819368,58.0926554 C6.58962757,63.9385816 21.9116995,71.3369473 46.0003979,80.2877523 L93.2184895,79.0164341 L121.237425,92.5025831 L139.964409,87.1352853"/>
        <path stroke="#313D3E" d="M115.826384,46.4145104 C115.826384,46.4145104 116.369796,58.0661696 125.107748,69.1504751 C133.845701,80.2347807 139.572857,87.0186294 139.572857,87.0186294"/>
        <path stroke="#ED1C40" d="M71.0273473,-2.84217094e-14 C76.9398856,6.93604079 85.2330615,11.2337911 95.9068749,12.8932509 C96.9104735,15.7202611 81.256729,18.7037764 68.955531,20.9999954 C56.6543329,23.2962143 39.4521791,26.0190537 42.004187,22.9550653 C49.4189276,21.4830126 59.0933143,13.8313242 71.0273473,-2.84217094e-14 Z"/>
        <path stroke="#313D3E" d="M14.6538782,22.775386 C29.8482175,37.6467172 41.6630657,46.6443478 50.0984229,49.7682777 L40.8488162,49.7682777 L40.8488162,59.3378571 C66.4228511,59.1032095 85.0587155,57.3570093 96.7564093,54.0992564 C96.2020406,48.314201 95.9248562,44.7802059 95.9248562,43.4972711 L113.196085,6.79874904"/>
        <path stroke="#313D3E" d="M7.11277079,63.2651233 C55.9760375,64.6937068 91.3326951,61.718977 113.182743,54.3409339 C112.937431,58.1893362 120.937334,69.3661919 137.182454,87.8715011"/>
        <path stroke="#313D3E" d="M20.3702704 28.4312295C44.0056966 27.2904346 69.3263512 26.8444875 110.144913 13.9698021 114.651238 31.9886707 122.43995 49.9033641 133.511049 67.7138824M66.822551 79.5950804L64.3369475 117.284771M106.463919 85.7625355L105.350292 122.970908M69.3329763 79.5950804L66.8473728 117.284771M108.390524 86.5189215L107.685571 122.970908"/>
        <polygon stroke="#313D3E" points="46.386 80.514 41.544 116.671 93.187 118.152 121.786 114.807 121.245 92.568 93.187 79.138"/>
      </g>
    </g>
    <path fill="#313D3E" fill-rule="nonzero" d="M26.8349755,83 C26.2851779,79.4136456 26,75.7401262 26,72 C26,68.9520569 26.18939,65.9483482 26.5570438,63 L29.5816383,63 C29.1979269,65.9456767 29,68.9497242 29,72 C29,75.7437892 29.2981601,79.4179393 29.8720297,83 L26.8349755,83 Z M32.9968371,103.000004 C44.5815564,127.248137 69.3344746,144 98,144 C137.764502,144 170,111.764502 170,72 C170,32.235498 137.764502,0 98,0 C67.783602,0 41.9146262,18.613527 31.2336534,45 L34.482648,45 C44.9909952,20.3105088 69.4739546,3 98,3 C136.107648,3 167,33.8923523 167,72 C167,110.107648 136.107648,141 98,141 C71.0408361,141 47.6927984,125.53893 36.339101,103.000005 L32.9968351,103 Z" mask="url(#tokyo-illo-b)"/>
  </g>
</svg>
