<svg xmlns="http://www.w3.org/2000/svg" xmlns:xlink="http://www.w3.org/1999/xlink" width="144" height="144" viewBox="0 0 144 144">
  <defs>
    <path id="toulouse-illo-a" d="M93.5922852,3.29375384 L93.5922852,0.148622556 L135.498713,1.67261933 L135.498713,28.6312549 L129.776155,29.0284377 C138.711461,41.0225718 144,55.8936836 144,72 C144,111.764502 111.764502,144 72,144 C32.235498,144 0,111.764502 0,72 C0,32.235498 32.235498,0 72,0 C79.522643,0 86.7758304,1.1536769 93.5922852,3.29375384 Z"/>
  </defs>
  <g fill="none" fill-rule="evenodd">
    <mask id="toulouse-illo-b" fill="#fff">
      <use xlink:href="#toulouse-illo-a"/>
    </mask>
    <g mask="url(#toulouse-illo-b)">
      <g transform="translate(-17 3)">
        <g transform="translate(0 58.138)">
          <path stroke="#313D3E" stroke-width="2" d="M0.216256662,7.01559023 C27.925802,8.95013427 46.9252568,10.4567331 57.2146211,11.5353866 C92.3083321,15.2143269 109.810266,21.3907334 109.821717,23.5156794"/>
          <path stroke="#313D3E" stroke-width="2" d="M0.166731148,0.835220899 C22.4440413,2.35747028 41.3646221,4.43140273 56.9284737,7.05701824 C87.4145538,12.2000077 109.64725,21.3472326 109.658702,23.4721786"/>
          <path stroke="#313D3E" stroke-width="2" d="M29.7602897 31.3856199L29.7602897 73.2824991C29.7602897 74.213874 30.5153183 74.9689027 31.4466933 74.9689027L51.2366941 74.9689027C52.1680691 74.9689027 52.9230977 74.213874 52.9230977 73.2824991L52.9230977 62.535558C52.9230977 62.0016026 52.6702258 61.4991931 52.2413688 61.1810892L39.8271035 51.9728307C39.3982465 51.6547268 39.1453747 51.1523173 39.1453747 50.6183619L39.1453747 1.80491984C39.1453747.873544854 38.390346.118516244 37.4589711.118516244L31.4466933.118516244C30.5153183.118516244 29.7602897.873544854 29.7602897 1.80491984zM73.513551 27.6215119L73.513551 54.9296646C73.513551 55.8610396 74.2685796 56.6160682 75.1999546 56.6160682L87.2366186 56.6160682C88.1679936 56.6160682 88.9230222 55.8610396 88.9230222 54.9296646L88.9230222 48.6286838C88.9230222 48.0947283 88.6701504 47.5923188 88.2412934 47.274215L80.4388751 41.4867855C80.0100181 41.1686816 79.7571462 40.6662721 79.7571462 40.1323167L79.7571462 8.50691701C79.7571462 7.57554202 79.0021176 6.82051341 78.0707426 6.82051341L75.1999546 6.82051341C74.2685796 6.82051341 73.513551 7.57554202 73.513551 8.50691701zM96.716318 28.8754827L96.716318 48.0185017C96.716318 48.9498767 97.4713466 49.7049053 98.4027216 49.7049053L106.099937 49.7049053C107.031312 49.7049053 107.78634 48.9498767 107.78634 48.0185017L107.78634 44.205871C107.78634 43.6719156 107.533469 43.1695061 107.104612 42.8514022L101.883388 38.9785694C101.454531 38.6604655 101.201659 38.158056 101.201659 37.6241006L101.201659 15.6186402C101.201659 14.6872652 100.446631 13.9322366 99.5152558 13.9322366L98.4027216 13.9322366C97.4713466 13.9322366 96.716318 14.6872652 96.716318 15.6186402z"/>
          <path stroke="#313D3E" stroke-width="2" d="M1.20401554,21.6866312 C12.3426706,21.6866312 21.9049928,24.6059253 29.890982,30.4445135 C37.2501066,22.7605374 46.392379,18.9185493 57.3177992,18.9185493 C64.1316846,18.9185493 69.5579384,22.1902117 73.5965607,28.7335365 C76.7496851,24.0355996 81.0629906,21.6866312 86.5364771,21.6866312 C89.8271724,22.1782436 93.0724693,25.0975377 96.2723678,30.4445135 C101.097351,25.0475822 105.437898,22.5453243 109.29401,22.9377397"/>
        </g>
        <g transform="translate(110.55 .651)">
          <path stroke="#313D3E" stroke-width="2" d="M.278930524 48.1479396C7.04773133 47.4152605 13.787612 47.0489209 20.4985725 47.0489209 27.209533 47.0489209 33.9012134 47.4152605 40.5736136 48.1479396M18.8233431 69.089604L22.7174518 69.089604 22.7174778 58.3074869C22.7174778 57.2321441 21.8457402 56.3604066 20.7703975 56.3604066 20.7703975 56.3604066 20.7703975 56.3604066 20.7703975 56.3604066 20.7703975 56.3604066 20.7703975 56.3604066 20.7703975 56.3604066L20.7703975 56.3604066C19.6950547 56.3604066 18.8233171 57.2321441 18.8233171 58.3074869L18.8233431 69.089604zM32.1959302 69.089604L36.0900389 69.089604 36.0900649 58.3074869C36.0900649 57.2321441 35.2183273 56.3604066 34.1429846 56.3604066 34.1429846 56.3604066 34.1429846 56.3604066 34.1429846 56.3604066 34.1429846 56.3604066 34.1429846 56.3604066 34.1429846 56.3604066L34.1429846 56.3604066C33.0676418 56.3604066 32.1959042 57.2321441 32.1959042 58.3074869L32.1959302 69.089604z"/>
          <path stroke="#313D3E" stroke-width="2" d="M0.0839048214,93.7031132 L0.0839048214,48.401339 C1.3450216,33.18074 7.87405697,25.5704405 19.6710109,25.5704405 C31.4679649,25.5704405 38.4686214,33.18074 40.6729803,48.401339 L40.6729803,71.6947569 C40.6729803,72.4790726 41.3087939,73.1148862 42.0931097,73.1148862 L52.1714797,73.1148862 C52.6072638,73.1148862 53.0189212,73.3149672 53.2881568,73.6576333 L57.2855978,78.7453254 C57.4821863,78.995531 57.58905,79.3045098 57.58905,79.6227077 L57.58905,93.7031132 L0.0839048214,93.7031132 Z"/>
          <path stroke="#313D3E" stroke-width="2" d="M3.85667282,69.089604 L7.75078143,69.089604 L7.7508075,58.3074869 C7.7508075,57.2321441 6.87906992,56.3604066 5.80372712,56.3604066 C5.80372712,56.3604066 5.80372712,56.3604066 5.80372712,56.3604066 C5.80372712,56.3604066 5.80372712,56.3604066 5.80372712,56.3604066 L5.80372712,56.3604066 C4.72838433,56.3604066 3.85664675,57.2321441 3.85664675,58.3074869 L3.85667282,69.089604 Z"/>
          <path stroke="#ED1C40" stroke-width="2" d="M15.2186833,11.6864943 C16.7824975,9.88515533 18.3613387,8.98448582 19.9552067,8.98448582 C21.5511601,8.98448582 23.1483897,9.88751382 24.7468955,11.6935698 L24.7469602,11.6935125 C24.7994048,11.7527665 24.8063227,11.8395689 24.7639252,11.9063815 L23.9995649,13.1109071 C23.9815172,13.1393478 23.9719337,13.1723364 23.9719337,13.2060202 L23.9719337,21.0115974 C23.9719337,21.0657343 23.9966376,21.1169122 24.0390255,21.1505882 L26.3851891,23.0145507 C26.427577,23.0482267 26.4522809,23.0994046 26.4522809,23.1535415 L26.4524081,26.2885572 C26.4524081,26.3866669 26.3728745,26.4662005 26.2747647,26.4662005 C26.2582577,26.4662005 26.2418312,26.4638997 26.2259593,26.4593646 C24.1357085,25.8621097 22.0454576,25.5634822 19.9552067,25.5634822 C17.8650184,25.5634822 15.7748301,25.8620918 13.6846418,26.459311 L13.6847034,26.4595264 C13.5903173,26.4864949 13.4919401,26.4318421 13.4649716,26.3374561 C13.4604343,26.321576 13.4581324,26.305141 13.4581324,26.2886254 L13.4581324,23.1574063 C13.4581324,23.1010848 13.4848596,23.048105 13.5301573,23.0146352 L16.0530586,21.1505037 C16.0983563,21.1170339 16.1250835,21.0640541 16.1250835,21.0077326 L16.1250835,13.2126301 C16.1250835,13.1748326 16.1130189,13.1380217 16.0906462,13.1075567 L15.2096489,11.9080594 C15.1605232,11.8411649 15.1642745,11.7491672 15.2186833,11.6864943 Z"/>
        </g>
      </g>
    </g>
    <path fill="#313D3E" fill-rule="nonzero" d="M104.575127,7.77319596 L103.092514,10.3857885 C93.7491373,5.66151209 83.1853834,3 72,3 C33.8923523,3 3,33.8923523 3,72 C3,110.107648 33.8923523,141 72,141 C110.107648,141 141,110.107648 141,72 C141,55.8490266 135.45088,40.9941196 126.155191,29.2378292 L128.063211,26.8195518 C138.031635,39.1735109 144,54.8897623 144,72 C144,111.764502 111.764502,144 72,144 C32.235498,144 5.32907052e-15,111.764502 5.32907052e-15,72 C5.32907052e-15,32.235498 32.235498,0 72,0 C83.7239164,0 94.7933597,2.80213282 104.575127,7.77319596 Z" mask="url(#toulouse-illo-b)"/>
  </g>
</svg>
