<svg xmlns="http://www.w3.org/2000/svg" xmlns:xlink="http://www.w3.org/1999/xlink" width="144" height="160" viewBox="0 0 144 160">
  <defs>
    <path id="wrocław-illo-a" d="M44.2435262,23.5449122 L44.2435262,0.26285814 L99.3423019,0.26285814 L99.3423019,23.3732443 C125.547308,34.1387197 144,59.9144312 144,90 C144,129.764502 111.764502,162 72,162 C32.235498,162 0,129.764502 0,90 C0,60.0731811 18.2584707,34.4108566 44.2435262,23.5449122 Z"/>
  </defs>
  <g fill="none" fill-rule="evenodd" transform="translate(0 -2)">
    <mask id="wrocław-illo-b" fill="#fff">
      <use xlink:href="#wrocław-illo-a"/>
    </mask>
    <g stroke-width="2" mask="url(#wrocław-illo-b)">
      <g transform="translate(50 3)">
        <path stroke="#313D3E" d="M10.2381391,128.180083 L10.2381391,172.821323 C36.3352463,170.062026 50.5888784,166.971732 52.9990354,163.55044 C52.9990354,159.202917 52.5780689,137.873744 51.7361357,99.5629201"/>
        <path stroke="#313D3E" d="M3.07113029,128.096174 L3.07113029,170.971531 C5.59890413,172.275845 8.06942087,172.928001 10.4826805,172.928001"/>
        <path stroke="#313D3E" d="M4.47640607 171.603198L.0214059759 169.561292 1.08687099 12.9421423C22.8448419 1.31610818 36.3177365-2.42945289 41.5055546 1.70545911 42.6308083 15.7888094 43.1934351 48.7255047 43.1934351 100.515545M.957103534 18.1617723C13.1314308 12.761016 26.9986807 12.761016 42.5588532 18.1617723M.996581197 24.2760369C13.1709085 18.8752807 27.0381584 18.8752807 42.5983309 24.2760369M.996581197 30.5964962C13.4040795 25.7923909 27.2713294 25.7923909 42.5983309 30.5964962M.996581197 36.9169555C13.7013428 32.1100197 27.5685927 32.1100197 42.5983309 36.9169555M.996581197 43.2374148C13.3850284 38.5746324 27.2522783 38.5746324 42.5983309 43.2374148M.996581197 49.5578741C13.1935317 45.2962213 27.0607816 45.2962213 42.5983309 49.5578741M.996581197 55.8783334C13.2378749 51.9759084 27.1051248 51.9759084 42.5983309 55.8783334M.996581197 62.1987927C13.2510136 58.9822989 27.1182635 58.9822989 42.5983309 62.1987927M.996581197 69.4221747C13.5627294 65.534121 27.4299793 65.534121 42.5983309 69.4221747M.996581197 74.8242162C13.2539698 71.9723037 27.1212197 71.9723037 42.5983309 74.8242162M.996581197 82.4990596C13.2539698 79.6471471 27.1212197 79.6471471 42.5983309 82.4990596M1.08717949 88.6224241C13.0690229 86.2740841 26.9362728 86.2740841 42.6889291 88.6224241M.905982906 95.5749293C12.8878263 93.2265893 26.7550762 93.2265893 42.5077326 95.5749293M.724786325 102.437142C9.526577 100.225116 22.0179606 99.9315733 38.198937 101.556515M.543589744 109.301248C18.3246239 105.830879 35.3824906 107.007547 51.71719 112.83125M.543589744 116.344046C18.3246239 112.873677 35.3824906 114.050344 51.71719 119.874047M.558507965 124.543412C18.6281738 122.348233 35.9050827 123.142261 52.3892349 126.925497M.452991453 135.24452C23.1485203 134.64788 40.529087 135.315595 52.5946914 137.247663M.753617786 145.259103C23.4711017 144.878371 40.7723173 144.878371 52.6572645 145.259103M.753617786 155.463057C23.4231454 154.802735 40.6833026 154.178669 52.5340892 153.590859M35.8009585 16.0345984L36.5631678 81.4010013"/>
        <path stroke="#ED1C40" d="M3.07279248,128.079601 C27.8005761,112.472666 38.5395178,104.669198 35.2896178,104.669198 C32.0397178,104.669198 30.0504921,104.669198 29.3219405,104.669198 C41.5596114,100.343242 48.967703,98.5603242 51.5462154,99.3204444 C54.1247277,100.080565 40.1076876,109.66695 9.49509516,128.079601 L3.07279248,128.079601 Z"/>
      </g>
    </g>
    <path fill="#313D3E" fill-rule="nonzero" d="M44.2368151,23.547719 L44.2368151,26.8129539 C19.9545204,37.4975316 3,61.7687956 3,90 C3,128.107648 33.8923523,159 72,159 C110.107648,159 141,128.107648 141,90 C141,60.8553441 122.930566,35.9310308 97.3834557,25.8188188 L97.3834549,22.602011 C124.623051,32.8660797 144,59.1701754 144,90 C144,129.764502 111.764502,162 72,162 C32.235498,162 1.37845291e-12,129.764502 1.37845291e-12,90 C1.37845291e-12,60.0757576 18.255327,34.4152752 44.2368151,23.547719 Z" mask="url(#wrocław-illo-b)"/>
  </g>
</svg>
